<svg width="154" height="155" xmlns="http://www.w3.org/2000/svg"><g fill="none" fill-rule="evenodd"><g stroke="#11D38F" stroke-linecap="round" stroke-linejoin="round"><path d="M104.988 6L136 37.012V136H6V6h98.988z"/><path d="M109.988 12L141 43.012V142H11V12h98.988z" opacity=".311"/><path d="M115.988 18L147 49.012V148H17V18h98.988z" opacity=".124"/><path d="M121.988 24L153 55.012V154H23V24h98.988z" opacity=".07"/></g><path d="M99.988 1L131 32.012V131H1V1h98.988z" stroke="#FFF" stroke-linecap="round" stroke-linejoin="round"/><g transform="translate(31 33)" stroke="#FFF"><path d="M26.52 39.98L2.7 63.8M1.48 39.98L25.3 63.8"/><circle cx="55.5" cy="52.5" r="14.5"/><path d="M64.52 1.98L40.7 25.8"/><circle cx="18.5" cy="14.5" r="14.5"/><path d="M40.48 1.98L64.3 25.8"/></g></g></svg>