<?xml version="1.0" encoding="UTF-8"?>
<svg width="154px" height="155px" viewBox="0 0 154 155" version="1.1" xmlns="http://www.w3.org/2000/svg" xmlns:xlink="http://www.w3.org/1999/xlink">
    <!-- Generator: Sketch 52.5 (67469) - http://www.bohemiancoding.com/sketch -->
    <title>Group 18</title>
    <desc>Created with Sketch.</desc>
    <g id="Page-1" stroke="none" stroke-width="1" fill="none" fill-rule="evenodd" stroke-linecap="round" stroke-linejoin="round">
        <g id="1" transform="translate(-644.000000, -2214.000000)">
            <g id="Group-18" transform="translate(645.000000, 2215.000000)">
                <g id="Group-25">
                    <path d="M98.9878067,0 L130,31.0121933 L130,130 L0,130 L0,0 L98.9878067,0 Z" id="Combined-Shape" stroke="#FFFFFF" fill="#050505"></path>
                    <g id="Group-22" transform="translate(5.000000, 5.000000)" stroke="#11D38F">
                        <path d="M98.9878067,0 L130,31.0121933 L130,130 L0,130 L0,0 L98.9878067,0 Z" id="Combined-Shape-Copy"></path>
                        <path d="M103.987807,6 L135,37.0121933 L135,136 L5,136 L5,6 L103.987807,6 Z" id="Combined-Shape-Copy-2" opacity="0.311035156"></path>
                        <path d="M109.987807,12 L141,43.0121933 L141,142 L11,142 L11,12 L109.987807,12 Z" id="Combined-Shape-Copy-3" opacity="0.124441964"></path>
                        <path d="M115.987807,18 L147,49.0121933 L147,148 L17,148 L17,18 L115.987807,18 Z" id="Combined-Shape-Copy-4" opacity="0.07"></path>
                    </g>
                </g>
                <path d="M53,42 C53,48.627417 58.372583,54 65,54 C71.627417,54 77,48.627417 77,42 L96,42 L96,95 L34,95 L34,42 L53,42 Z" id="Combined-Shape" stroke="#FFFFFF"></path>
            </g>
        </g>
    </g>
</svg>