<svg width="229" height="274" xmlns="http://www.w3.org/2000/svg"><g transform="translate(1 1)" fill="none" fill-rule="evenodd"><path d="M187 39.127V232H0V0h147.995L187 39.127z" stroke="#FFF"/><g stroke="#11D38F" stroke-linecap="round" stroke-linejoin="round"><path d="M197 49.127V242H10V10h147.995L197 49.127z"/><path d="M207 59.127V252H20V20h147.995L207 59.127z" opacity=".311"/><path d="M217 69.127V262H30V30h147.995L217 69.127z" opacity=".124"/><path d="M227 79.127V272H40V40h147.995L227 79.127z" opacity=".07"/></g><ellipse stroke="#000" stroke-width="2" fill="#11D38F" stroke-linecap="round" stroke-linejoin="round" transform="matrix(-1 0 0 1 252.522 0)" cx="126.261" cy="171.311" rx="35.739" ry="35.689"/><path fill="#050505" d="M162 137h-35v70h35z"/><path fill="#050505" d="M128 172H92v34h36z"/><ellipse stroke="#FFF" stroke-linecap="round" stroke-linejoin="round" transform="matrix(-1 0 0 1 253.522 0)" cx="126.761" cy="171.811" rx="35.239" ry="35.189"/><path fill="#FFF" d="M91.5 171.5v1h70v-1z"/><path fill="#FFF" d="M128 136h-1v71h1zm27-94H24v1h131zm0 15.433H24v1h131zm0 15.433H24v1h131zm0 15.433H24v1h131zm0 15.433H24v1h131z"/><path stroke="#FFF" d="M79.556 194L59.9 174.345l-18.937 18.937-16.599-16.599"/></g></svg>