<svg width="643" height="544" xmlns="http://www.w3.org/2000/svg"><g stroke-width="2" fill="none" fill-rule="evenodd"><path d="M253.923 1h.327V0h-1v.97l.673.03zM267 14.355l.028.66H268v-1h-1v.34zm0 48.355v1h1v-1h-1zM253.923 78l-.673.03V79h1v-1h-.327zm-51.845 0h-.327v1h1v-.97l-.673-.03zM189 62.71h-1v1h1v-1zm0-48.355v-.34h-1v1h.972l.028-.66zM202.078 1l.672-.03V0h-1v1h.328zm8.17 12.797v-.1h34.585v.1c4.383.63 7.841 4.2 8.442 8.702h.093V55.7h-.017c-.275 4.86-3.866 8.833-8.518 9.502v.1h-34.586v-.1c-4.651-.669-8.242-4.643-8.517-9.502h-.017V22.5h.092c.601-4.501 4.06-8.071 8.442-8.702zM346.923 1h.327V0h-1v.97l.673.03zM360 14.355l.028.66H361v-1h-1v.34zm0 48.355v1h1v-1h-1zM346.923 78l-.673.03V79h1v-1h-.327zm-51.845 0h-.327v1h1v-.97l-.673-.03zM282 62.71h-1v1h1v-1zm0-48.355v-.34h-1v1h.972l.028-.66zM295.078 1l.672-.03V0h-1v1h.328zm8.17 12.797v-.1h34.585v.1c4.383.63 7.841 4.2 8.442 8.702h.093V55.7h-.017c-.275 4.86-3.866 8.833-8.518 9.502v.1h-34.586v-.1c-4.651-.669-8.242-4.643-8.517-9.502h-.017V22.5h.092c.601-4.501 4.06-8.071 8.442-8.702z" stroke="#0BD291" opacity=".266"/><path d="M441.002 1h.327V0h-1v.97l.673.03zm13.093 13.355l.028.66h.972v-1h-1v.34zm0 48.355v1h1v-1h-1zM441.001 78l-.672.03V79h1v-1H441zm-51.906 0h-.328v1h1v-.97l-.672-.03zM376 62.71h-1v1h1v-1zm0-48.355v-.34h-1v1h.972l.028-.66zM389.095 1l.672-.03V0h-1v1h.328zm8.18 12.797v-.1H431.9v.1c4.388.63 7.85 4.2 8.451 8.702h.093V55.7h-.017c-.275 4.86-3.87 8.834-8.527 9.502v.1h-34.625v-.1c-4.657-.668-8.253-4.642-8.528-9.502h-.017V22.5h.093c.602-4.502 4.064-8.072 8.452-8.702zM534.906 1h.327V0h-1v.97l.673.03zM548 14.355l.028.66H549v-1h-1v.34zm0 48.355v1h1v-1h-1zM534.906 78l-.673.03V79h1v-1h-.327zM483 78h-.328v1h1v-.97L483 78zm-13.095-15.29h-1v1h1v-1zm0-48.355v-.34h-1v1h.972l.028-.66zM482.999 1l.672-.03V0h-1v1H483zm8.18 12.797v-.1h34.626v.1c4.388.63 7.85 4.2 8.45 8.702h.094V55.7h-.017c-.275 4.86-3.87 8.834-8.527 9.502v.1H491.18v-.1c-4.657-.668-8.253-4.642-8.528-9.502h-.017V22.5h.092c.603-4.502 4.065-8.072 8.453-8.702z" opacity=".555" stroke="#0BD291"/><path d="M628.923 1h.327V0h-1v.97l.673.03zM642 14.355l.028.66H643v-1h-1v.34zm0 48.355v1h1v-1h-1zM628.923 78l-.673.03V79h1v-1h-.327zm-51.845 0h-.327v1h1v-.97l-.673-.03zM564 62.71h-1v1h1v-1zm0-48.355v-.34h-1v1h.972l.028-.66zM577.078 1l.672-.03V0h-1v1h.328zm8.17 12.797v-.1h34.585v.1c4.383.63 7.841 4.2 8.442 8.702h.093V55.7h-.017c-.275 4.86-3.866 8.833-8.518 9.502v.1h-34.586v-.1c-4.651-.669-8.242-4.643-8.517-9.502h-.017V22.5h.092c.601-4.501 4.06-8.071 8.442-8.702z" stroke="#20E1A2"/><path d="M253.923 94h.327v-1h-1v.97l.673.03zM267 107.355l.028.66H268v-1h-1v.34zm0 48.355v1h1v-1h-1zM253.923 171l-.673.03v.97h1v-1h-.327zm-51.845 0h-.327v1h1v-.97l-.673-.03zM189 155.71h-1v1h1v-1zm0-48.355v-.34h-1v1h.972l.028-.66zM202.078 94l.672-.03V93h-1v1h.328zm8.17 12.797v-.1h34.585v.1c4.383.63 7.841 4.2 8.442 8.702h.093V148.7h-.017c-.275 4.86-3.866 8.833-8.518 9.502v.1h-34.586v-.1c-4.651-.669-8.242-4.643-8.517-9.502h-.017v-33.2h.092c.601-4.501 4.06-8.071 8.442-8.702zM346.923 94h.327v-1h-1v.97l.673.03zM360 107.355l.028.66H361v-1h-1v.34zm0 48.355v1h1v-1h-1zM346.923 171l-.673.03v.97h1v-1h-.327zm-51.845 0h-.327v1h1v-.97l-.673-.03zM282 155.71h-1v1h1v-1zm0-48.355v-.34h-1v1h.972l.028-.66zM295.078 94l.672-.03V93h-1v1h.328zm8.17 12.797v-.1h34.585v.1c4.383.63 7.841 4.2 8.442 8.702h.093V148.7h-.017c-.275 4.86-3.866 8.833-8.518 9.502v.1h-34.586v-.1c-4.651-.669-8.242-4.643-8.517-9.502h-.017v-33.2h.092c.601-4.501 4.06-8.071 8.442-8.702z" stroke="#0BD291"/><path d="M441.002 94h.327v-1h-1v.97l.673.03zm13.093 13.355l.028.66h.972v-1h-1v.34zm0 48.355v1h1v-1h-1zM441.001 171l-.672.03v.97h1v-1H441zm-51.906 0h-.328v1h1v-.97l-.672-.03zM376 155.71h-1v1h1v-1zm0-48.355v-.34h-1v1h.972l.028-.66zM389.095 94l.672-.03V93h-1v1h.328zm8.18 12.797v-.1H431.9v.1c4.388.63 7.85 4.2 8.451 8.702h.093V148.7h-.017c-.275 4.86-3.87 8.834-8.527 9.502v.1h-34.625v-.1c-4.657-.668-8.253-4.642-8.528-9.502h-.017v-33.2h.093c.602-4.502 4.064-8.072 8.452-8.702z" stroke="#20E1A2"/><path d="M534.906 94h.327v-1h-1v.97l.673.03zM548 107.355l.028.66H549v-1h-1v.34zm0 48.355v1h1v-1h-1zM534.906 171l-.673.03v.97h1v-1h-.327zM483 171h-.328v1h1v-.97L483 171zm-13.095-15.29h-1v1h1v-1zm0-48.355v-.34h-1v1h.972l.028-.66zM482.999 94l.672-.03V93h-1v1H483zm8.18 12.797v-.1h34.626v.1c4.388.63 7.85 4.2 8.45 8.702h.094V148.7h-.017c-.275 4.86-3.87 8.834-8.527 9.502v.1H491.18v-.1c-4.657-.668-8.253-4.642-8.528-9.502h-.017v-33.2h.092c.603-4.502 4.065-8.072 8.453-8.702z" stroke="#0BD291"/><path d="M628.923 94h.327v-1h-1v.97l.673.03zM642 107.355l.028.66H643v-1h-1v.34zm0 48.355v1h1v-1h-1zM628.923 171l-.673.03v.97h1v-1h-.327zm-51.845 0h-.327v1h1v-.97l-.673-.03zM564 155.71h-1v1h1v-1zm0-48.355v-.34h-1v1h.972l.028-.66zM577.078 94l.672-.03V93h-1v1h.328zm8.17 12.797v-.1h34.585v.1c4.383.63 7.841 4.2 8.442 8.702h.093V148.7h-.017c-.275 4.86-3.866 8.833-8.518 9.502v.1h-34.586v-.1c-4.651-.669-8.242-4.643-8.517-9.502h-.017v-33.2h.092c.601-4.501 4.06-8.071 8.442-8.702z" opacity=".394" stroke="#0BD291"/><path d="M253.923 187h.327v-1h-1v.97l.673.03zM267 200.355l.028.66H268v-1h-1v.34zm0 48.355v1h1v-1h-1zM253.923 264l-.673.03v.97h1v-1h-.327zm-51.845 0h-.327v1h1v-.97l-.673-.03zM189 248.71h-1v1h1v-1zm0-48.355v-.34h-1v1h.972l.028-.66zM202.078 187l.672-.03V186h-1v1h.328zm8.17 12.797v-.1h34.585v.1c4.383.63 7.841 4.2 8.442 8.702h.093V241.7h-.017c-.275 4.86-3.866 8.833-8.518 9.502v.1h-34.586v-.1c-4.651-.669-8.242-4.643-8.517-9.502h-.017v-33.2h.092c.601-4.501 4.06-8.071 8.442-8.702z" stroke="#0BD291"/><path d="M346.923 187h.327v-1h-1v.97l.673.03zM360 200.355l.028.66H361v-1h-1v.34zm0 48.355v1h1v-1h-1zM346.923 264l-.673.03v.97h1v-1h-.327zm-51.845 0h-.327v1h1v-.97l-.673-.03zM282 248.71h-1v1h1v-1zm0-48.355v-.34h-1v1h.972l.028-.66zM295.078 187l.672-.03V186h-1v1h.328zm8.17 12.797v-.1h34.585v.1c4.383.63 7.841 4.2 8.442 8.702h.093V241.7h-.017c-.275 4.86-3.866 8.833-8.518 9.502v.1h-34.586v-.1c-4.651-.669-8.242-4.643-8.517-9.502h-.017v-33.2h.092c.601-4.501 4.06-8.071 8.442-8.702zM441.002 187h.327v-1h-1v.97l.673.03zm13.093 13.355l.028.66h.972v-1h-1v.34zm0 48.355v1h1v-1h-1zM441.001 264l-.672.03v.97h1v-1H441zm-51.906 0h-.328v1h1v-.97l-.672-.03zM376 248.71h-1v1h1v-1zm0-48.355v-.34h-1v1h.972l.028-.66zM389.095 187l.672-.03V186h-1v1h.328zm8.18 12.797v-.1H431.9v.1c4.388.63 7.85 4.2 8.451 8.702h.093V241.7h-.017c-.275 4.86-3.87 8.834-8.527 9.502v.1h-34.625v-.1c-4.657-.668-8.253-4.642-8.528-9.502h-.017v-33.2h.093c.602-4.502 4.064-8.072 8.452-8.702z" stroke="#20E1A2"/><path d="M482.671 186.013V186h52.562v.013c7.451.325 13.435 6.418 13.754 14.003H549v49.694h-.013c.009.21.013.423.013.637 0 7.88-6.108 14.306-13.767 14.64V265h-52.56v-.013c-7.66-.334-13.767-6.76-13.767-14.64 0-.213.004-.426.013-.637h-.014v-49.694h.013c.319-7.586 6.303-13.679 13.753-14.003zm9.509 14.694c-4.625.203-8.34 4.028-8.537 8.792h-.008V240.7h.009a8.583 8.583 0 0 0-.01.4c0 4.947 3.792 8.982 8.546 9.192v.01h32.625v-.01c4.753-.21 8.544-4.245 8.544-9.192 0-.134-.002-.268-.009-.4h.01v-31.2h-.01c-.197-4.764-3.91-8.589-8.535-8.792v-.01H492.18v.01z" stroke="#0BD291" opacity=".253" stroke-linecap="square"/><path d="M628.923 187h.327v-1h-1v.97l.673.03zM642 200.355l.028.66H643v-1h-1v.34zm0 48.355v1h1v-1h-1zM628.923 264l-.673.03v.97h1v-1h-.327zm-51.845 0h-.327v1h1v-.97l-.673-.03zM564 248.71h-1v1h1v-1zm0-48.355v-.34h-1v1h.972l.028-.66zM577.078 187l.672-.03V186h-1v1h.328zm8.17 12.797v-.1h34.585v.1c4.383.63 7.841 4.2 8.442 8.702h.093V241.7h-.017c-.275 4.86-3.866 8.833-8.518 9.502v.1h-34.586v-.1c-4.651-.669-8.242-4.643-8.517-9.502h-.017v-33.2h.092c.601-4.501 4.06-8.071 8.442-8.702zM253.923 280h.327v-1h-1v.97l.673.03zM267 293.355l.028.66H268v-1h-1v.34zm0 48.355v1h1v-1h-1zM253.923 357l-.673.03v.97h1v-1h-.327zm-51.845 0h-.327v1h1v-.97l-.673-.03zM189 341.71h-1v1h1v-1zm0-48.355v-.34h-1v1h.972l.028-.66zM202.078 280l.672-.03V279h-1v1h.328zm8.17 12.797v-.1h34.585v.1c4.383.63 7.841 4.2 8.442 8.702h.093V334.7h-.017c-.275 4.86-3.866 8.833-8.518 9.502v.1h-34.586v-.1c-4.651-.669-8.242-4.643-8.517-9.502h-.017v-33.2h.092c.601-4.501 4.06-8.071 8.442-8.702z" stroke="#0BD291"/><path d="M346.923 280h.327v-1h-1v.97l.673.03zM360 293.355l.028.66H361v-1h-1v.34zm0 48.355v1h1v-1h-1zM346.923 357l-.673.03v.97h1v-1h-.327zm-51.845 0h-.327v1h1v-.97l-.673-.03zM282 341.71h-1v1h1v-1zm0-48.355v-.34h-1v1h.972l.028-.66zM295.078 280l.672-.03V279h-1v1h.328zm8.17 12.797v-.1h34.585v.1c4.383.63 7.841 4.2 8.442 8.702h.093V334.7h-.017c-.275 4.86-3.866 8.833-8.518 9.502v.1h-34.586v-.1c-4.651-.669-8.242-4.643-8.517-9.502h-.017v-33.2h.092c.601-4.501 4.06-8.071 8.442-8.702z" stroke="#0BD291" opacity=".677"/><g stroke="#0BD291"><path d="M388.767 279.013V279h52.562v.013c7.45.325 13.434 6.418 13.753 14.003h.013v49.694h-.013c.009.21.013.423.013.637 0 7.88-6.107 14.306-13.766 14.64V358h-52.562v-.013c-7.658-.334-13.766-6.76-13.766-14.64 0-.213.004-.426.013-.637H375v-49.694h.013c.319-7.586 6.303-13.679 13.754-14.003zm9.508 14.694c-4.625.203-8.339 4.028-8.537 8.792h-.008V333.7h.009a8.584 8.584 0 0 0-.009.4c0 4.947 3.792 8.982 8.545 9.192v.01H430.9v-.01c4.753-.21 8.544-4.245 8.544-9.192 0-.134-.002-.268-.008-.4h.008v-31.2h-.008c-.197-4.764-3.911-8.589-8.536-8.792v-.01h-32.625v.01z" opacity=".503" stroke-linecap="square"/><path d="M534.906 280h.327v-1h-1v.97l.673.03zM548 293.355l.028.66H549v-1h-1v.34zm0 48.355v1h1v-1h-1zM534.906 357l-.673.03v.97h1v-1h-.327zM483 357h-.328v1h1v-.97L483 357zm-13.095-15.29h-1v1h1v-1zm0-48.355v-.34h-1v1h.972l.028-.66zM482.999 280l.672-.03V279h-1v1H483zm8.18 12.797v-.1h34.626v.1c4.388.63 7.85 4.2 8.45 8.702h.094V334.7h-.017c-.275 4.86-3.87 8.834-8.527 9.502v.1H491.18v-.1c-4.657-.668-8.253-4.642-8.528-9.502h-.017v-33.2h.092c.603-4.502 4.065-8.072 8.453-8.702z"/></g><path d="M628.923 280h.327v-1h-1v.97l.673.03zM642 293.355l.028.66H643v-1h-1v.34zm0 48.355v1h1v-1h-1zM628.923 357l-.673.03v.97h1v-1h-.327zm-51.845 0h-.327v1h1v-.97l-.673-.03zM564 341.71h-1v1h1v-1zm0-48.355v-.34h-1v1h.972l.028-.66zM577.078 280l.672-.03V279h-1v1h.328zm8.17 12.797v-.1h34.585v.1c4.383.63 7.841 4.2 8.442 8.702h.093V334.7h-.017c-.275 4.86-3.866 8.833-8.518 9.502v.1h-34.586v-.1c-4.651-.669-8.242-4.643-8.517-9.502h-.017v-33.2h.092c.601-4.501 4.06-8.071 8.442-8.702z" opacity=".772" stroke="#0BD291"/><path d="M253.923 373h.327v-1h-1v.97l.673.03zM267 386.355l.028.66H268v-1h-1v.34zm0 48.355v1h1v-1h-1zM253.923 450l-.673.03v.97h1v-1h-.327zm-51.845 0h-.327v1h1v-.97l-.673-.03zM189 434.71h-1v1h1v-1zm0-48.355v-.34h-1v1h.972l.028-.66zM202.078 373l.672-.03V372h-1v1h.328zm8.17 12.797v-.1h34.585v.1c4.383.63 7.841 4.2 8.442 8.702h.093V427.7h-.017c-.275 4.86-3.866 8.833-8.518 9.502v.1h-34.586v-.1c-4.651-.669-8.242-4.643-8.517-9.502h-.017v-33.2h.092c.601-4.501 4.06-8.071 8.442-8.702zM346.923 373h.327v-1h-1v.97l.673.03zM360 386.355l.028.66H361v-1h-1v.34zm0 48.355v1h1v-1h-1zM346.923 450l-.673.03v.97h1v-1h-.327zm-51.845 0h-.327v1h1v-.97l-.673-.03zM282 434.71h-1v1h1v-1zm0-48.355v-.34h-1v1h.972l.028-.66zM295.078 373l.672-.03V372h-1v1h.328zm8.17 12.797v-.1h34.585v.1c4.383.63 7.841 4.2 8.442 8.702h.093V427.7h-.017c-.275 4.86-3.866 8.833-8.518 9.502v.1h-34.586v-.1c-4.651-.669-8.242-4.643-8.517-9.502h-.017v-33.2h.092c.601-4.501 4.06-8.071 8.442-8.702z" stroke="#0BD291"/><path d="M441.002 373h.327v-1h-1v.97l.673.03zm13.093 13.355l.028.66h.972v-1h-1v.34zm0 48.355v1h1v-1h-1zM441.001 450l-.672.03v.97h1v-1H441zm-51.906 0h-.328v1h1v-.97l-.672-.03zM376 434.71h-1v1h1v-1zm0-48.355v-.34h-1v1h.972l.028-.66zM389.095 373l.672-.03V372h-1v1h.328zm8.18 12.797v-.1H431.9v.1c4.388.63 7.85 4.2 8.451 8.702h.093V427.7h-.017c-.275 4.86-3.87 8.834-8.527 9.502v.1h-34.625v-.1c-4.657-.668-8.253-4.642-8.528-9.502h-.017v-33.2h.093c.602-4.502 4.064-8.072 8.452-8.702z" stroke="#20E1A2"/><path d="M534.906 373h.327v-1h-1v.97l.673.03zM548 386.355l.028.66H549v-1h-1v.34zm0 48.355v1h1v-1h-1zM534.906 450l-.673.03v.97h1v-1h-.327zM483 450h-.328v1h1v-.97L483 450zm-13.095-15.29h-1v1h1v-1zm0-48.355v-.34h-1v1h.972l.028-.66zM482.999 373l.672-.03V372h-1v1H483zm8.18 12.797v-.1h34.626v.1c4.388.63 7.85 4.2 8.45 8.702h.094V427.7h-.017c-.275 4.86-3.87 8.834-8.527 9.502v.1H491.18v-.1c-4.657-.668-8.253-4.642-8.528-9.502h-.017v-33.2h.092c.603-4.502 4.065-8.072 8.453-8.702z" stroke="#0BD291"/><path d="M628.923 373h.327v-1h-1v.97l.673.03zM642 386.355l.028.66H643v-1h-1v.34zm0 48.355v1h1v-1h-1zM628.923 450l-.673.03v.97h1v-1h-.327zm-51.845 0h-.327v1h1v-.97l-.673-.03zM564 434.71h-1v1h1v-1zm0-48.355v-.34h-1v1h.972l.028-.66zM577.078 373l.672-.03V372h-1v1h.328zm8.17 12.797v-.1h34.585v.1c4.383.63 7.841 4.2 8.442 8.702h.093V427.7h-.017c-.275 4.86-3.866 8.833-8.518 9.502v.1h-34.586v-.1c-4.651-.669-8.242-4.643-8.517-9.502h-.017v-33.2h.092c.601-4.501 4.06-8.071 8.442-8.702z" opacity=".222" stroke="#0BD291"/><path d="M253.923 466h.327v-1h-1v.97l.673.03zM267 479.355l.028.66H268v-1h-1v.34zm0 48.355v1h1v-1h-1zM253.923 543l-.673.03v.97h1v-1h-.327zm-51.845 0h-.327v1h1v-.97l-.673-.03zM189 527.71h-1v1h1v-1zm0-48.355v-.34h-1v1h.972l.028-.66zM202.078 466l.672-.03V465h-1v1h.328zm8.17 12.797v-.1h34.585v.1c4.383.63 7.841 4.2 8.442 8.702h.093V520.7h-.017c-.275 4.86-3.866 8.833-8.518 9.502v.1h-34.586v-.1c-4.651-.669-8.242-4.643-8.517-9.502h-.017v-33.2h.092c.601-4.501 4.06-8.071 8.442-8.702z" stroke="#20E1A2"/><path d="M159.923 1h.327V0h-1v.97l.673.03zM173 14.355l.028.66H174v-1h-1v.34zm0 48.355v1h1v-1h-1zM159.923 78l-.673.03V79h1v-1h-.327zm-51.845 0h-.327v1h1v-.97l-.673-.03zM95 62.71h-1v1h1v-1zm0-48.355v-.34h-1v1h.972l.028-.66zM108.078 1l.672-.03V0h-1v1h.328zm8.17 12.797v-.1h34.585v.1c4.383.63 7.841 4.2 8.442 8.702h.093V55.7h-.017c-.275 4.86-3.866 8.833-8.518 9.502v.1h-34.586v-.1c-4.651-.669-8.242-4.643-8.517-9.502h-.017V22.5h.092c.601-4.501 4.06-8.071 8.442-8.702z" stroke="#0BD291" opacity=".266"/><path d="M159.923 94h.327v-1h-1v.97l.673.03zM173 107.355l.028.66H174v-1h-1v.34zm0 48.355v1h1v-1h-1zM159.923 171l-.673.03v.97h1v-1h-.327zm-51.845 0h-.327v1h1v-.97l-.673-.03zM95 155.71h-1v1h1v-1zm0-48.355v-.34h-1v1h.972l.028-.66zM108.078 94l.672-.03V93h-1v1h.328zm8.17 12.797v-.1h34.585v.1c4.383.63 7.841 4.2 8.442 8.702h.093V148.7h-.017c-.275 4.86-3.866 8.833-8.518 9.502v.1h-34.586v-.1c-4.651-.669-8.242-4.643-8.517-9.502h-.017v-33.2h.092c.601-4.501 4.06-8.071 8.442-8.702z" stroke="#0BD291" opacity=".286"/><path d="M159.923 187h.327v-1h-1v.97l.673.03zM173 200.355l.028.66H174v-1h-1v.34zm0 48.355v1h1v-1h-1zM159.923 264l-.673.03v.97h1v-1h-.327zm-51.845 0h-.327v1h1v-.97l-.673-.03zM95 248.71h-1v1h1v-1zm0-48.355v-.34h-1v1h.972l.028-.66zM108.078 187l.672-.03V186h-1v1h.328zm8.17 12.797v-.1h34.585v.1c4.383.63 7.841 4.2 8.442 8.702h.093V241.7h-.017c-.275 4.86-3.866 8.833-8.518 9.502v.1h-34.586v-.1c-4.651-.669-8.242-4.643-8.517-9.502h-.017v-33.2h.092c.601-4.501 4.06-8.071 8.442-8.702zM66.923 280h.327v-1h-1v.97l.673.03zM80 293.355l.028.66H81v-1h-1v.34zm0 48.355v1h1v-1h-1zM66.923 357l-.673.03v.97h1v-1h-.327zm-51.845 0h-.327v1h1v-.97l-.673-.03zM2 341.71H1v1h1v-1zm0-48.355v-.34H1v1h.972l.028-.66zM15.078 280l.672-.03V279h-1v1h.328zm8.17 12.797v-.1h34.585v.1c4.383.63 7.841 4.2 8.442 8.702h.093V334.7h-.017c-.275 4.86-3.866 8.833-8.518 9.502v.1H23.247v-.1c-4.651-.669-8.242-4.643-8.517-9.502h-.017v-33.2h.092c.601-4.501 4.06-8.071 8.442-8.702z" stroke="#0BD291" opacity=".084"/><path d="M66.923 280h.327v-1h-1v.97l.673.03zM80 293.355l.028.66H81v-1h-1v.34zm0 48.355v1h1v-1h-1zM66.923 357l-.673.03v.97h1v-1h-.327zm-51.845 0h-.327v1h1v-.97l-.673-.03zM2 341.71H1v1h1v-1zm0-48.355v-.34H1v1h.972l.028-.66zM15.078 280l.672-.03V279h-1v1h.328zm8.17 12.797v-.1h34.585v.1c4.383.63 7.841 4.2 8.442 8.702h.093V334.7h-.017c-.275 4.86-3.866 8.833-8.518 9.502v.1H23.247v-.1c-4.651-.669-8.242-4.643-8.517-9.502h-.017v-33.2h.092c.601-4.501 4.06-8.071 8.442-8.702z" stroke="#0BD291" opacity=".084"/><path d="M159.923 280h.327v-1h-1v.97l.673.03zM173 293.355l.028.66H174v-1h-1v.34zm0 48.355v1h1v-1h-1zM159.923 357l-.673.03v.97h1v-1h-.327zm-51.845 0h-.327v1h1v-.97l-.673-.03zM95 341.71h-1v1h1v-1zm0-48.355v-.34h-1v1h.972l.028-.66zM108.078 280l.672-.03V279h-1v1h.328zm8.17 12.797v-.1h34.585v.1c4.383.63 7.841 4.2 8.442 8.702h.093V334.7h-.017c-.275 4.86-3.866 8.833-8.518 9.502v.1h-34.586v-.1c-4.651-.669-8.242-4.643-8.517-9.502h-.017v-33.2h.092c.601-4.501 4.06-8.071 8.442-8.702z" stroke="#0BD291" opacity=".769"/><path d="M159.923 373h.327v-1h-1v.97l.673.03zM173 386.355l.028.66H174v-1h-1v.34zm0 48.355v1h1v-1h-1zM159.923 450l-.673.03v.97h1v-1h-.327zm-51.845 0h-.327v1h1v-.97l-.673-.03zM95 434.71h-1v1h1v-1zm0-48.355v-.34h-1v1h.972l.028-.66zM108.078 373l.672-.03V372h-1v1h.328zm8.17 12.797v-.1h34.585v.1c4.383.63 7.841 4.2 8.442 8.702h.093V427.7h-.017c-.275 4.86-3.866 8.833-8.518 9.502v.1h-34.586v-.1c-4.651-.669-8.242-4.643-8.517-9.502h-.017v-33.2h.092c.601-4.501 4.06-8.071 8.442-8.702z" stroke="#0BD291" opacity=".361"/><path d="M159.923 466h.327v-1h-1v.97l.673.03zM173 479.355l.028.66H174v-1h-1v.34zm0 48.355v1h1v-1h-1zM159.923 543l-.673.03v.97h1v-1h-.327zm-51.845 0h-.327v1h1v-.97l-.673-.03zM95 527.71h-1v1h1v-1zm0-48.355v-.34h-1v1h.972l.028-.66zM108.078 466l.672-.03V465h-1v1h.328zm8.17 12.797v-.1h34.585v.1c4.383.63 7.841 4.2 8.442 8.702h.093V520.7h-.017c-.275 4.86-3.866 8.833-8.518 9.502v.1h-34.586v-.1c-4.651-.669-8.242-4.643-8.517-9.502h-.017v-33.2h.092c.601-4.501 4.06-8.071 8.442-8.702z" stroke="#0BD291" opacity=".785"/><path d="M65.923 466h.327v-1h-1v.97l.673.03zM79 479.355l.028.66H80v-1h-1v.34zm0 48.355v1h1v-1h-1zM65.923 543l-.673.03v.97h1v-1h-.327zm-51.845 0h-.327v1h1v-.97l-.673-.03zM1 527.71H0v1h1v-1zm0-48.355v-.34H0v1h.972l.028-.66zM14.078 466l.672-.03V465h-1v1h.328zm8.17 12.797v-.1h34.585v.1c4.383.63 7.841 4.2 8.442 8.702h.093V520.7h-.017c-.275 4.86-3.866 8.833-8.518 9.502v.1H22.247v-.1c-4.651-.669-8.242-4.643-8.517-9.502h-.017v-33.2h.092c.601-4.501 4.06-8.071 8.442-8.702z" stroke="#0BD291" opacity=".226"/><path d="M346.923 466h.327v-1h-1v.97l.673.03zM360 479.355l.028.66H361v-1h-1v.34zm0 48.355v1h1v-1h-1zM346.923 543l-.673.03v.97h1v-1h-.327zm-51.845 0h-.327v1h1v-.97l-.673-.03zM282 527.71h-1v1h1v-1zm0-48.355v-.34h-1v1h.972l.028-.66zM295.078 466l.672-.03V465h-1v1h.328zm8.17 12.797v-.1h34.585v.1c4.383.63 7.841 4.2 8.442 8.702h.093V520.7h-.017c-.275 4.86-3.866 8.833-8.518 9.502v.1h-34.586v-.1c-4.651-.669-8.242-4.643-8.517-9.502h-.017v-33.2h.092c.601-4.501 4.06-8.071 8.442-8.702z" stroke="#20E1A2"/><g stroke="#0BD291"><path d="M441.002 466h.327v-1h-1v.97l.673.03zm13.093 13.355l.028.66h.972v-1h-1v.34zm0 48.355v1h1v-1h-1zM441.001 543l-.672.03v.97h1v-1H441zm-51.906 0h-.328v1h1v-.97l-.672-.03zM376 527.71h-1v1h1v-1zm0-48.355v-.34h-1v1h.972l.028-.66zM389.095 466l.672-.03V465h-1v1h.328zm8.18 12.797v-.1H431.9v.1c4.388.63 7.85 4.2 8.451 8.702h.093V520.7h-.017c-.275 4.86-3.87 8.834-8.527 9.502v.1h-34.625v-.1c-4.657-.668-8.253-4.642-8.528-9.502h-.017v-33.2h.093c.602-4.502 4.064-8.072 8.452-8.702z" opacity=".825"/><path d="M534.906 466h.327v-1h-1v.97l.673.03zM548 479.355l.028.66H549v-1h-1v.34zm0 48.355v1h1v-1h-1zM534.906 543l-.673.03v.97h1v-1h-.327zM483 543h-.328v1h1v-.97L483 543zm-13.095-15.29h-1v1h1v-1zm0-48.355v-.34h-1v1h.972l.028-.66zM482.999 466l.672-.03V465h-1v1H483zm8.18 12.797v-.1h34.626v.1c4.388.63 7.85 4.2 8.45 8.702h.094V520.7h-.017c-.275 4.86-3.87 8.834-8.527 9.502v.1H491.18v-.1c-4.657-.668-8.253-4.642-8.528-9.502h-.017v-33.2h.092c.603-4.502 4.065-8.072 8.453-8.702z"/></g><path d="M628.923 466h.327v-1h-1v.97l.673.03zM642 479.355l.028.66H643v-1h-1v.34zm0 48.355v1h1v-1h-1zM628.923 543l-.673.03v.97h1v-1h-.327zm-51.845 0h-.327v1h1v-.97l-.673-.03zM564 527.71h-1v1h1v-1zm0-48.355v-.34h-1v1h.972l.028-.66zM577.078 466l.672-.03V465h-1v1h.328zm8.17 12.797v-.1h34.585v.1c4.383.63 7.841 4.2 8.442 8.702h.093V520.7h-.017c-.275 4.86-3.866 8.833-8.518 9.502v.1h-34.586v-.1c-4.651-.669-8.242-4.643-8.517-9.502h-.017v-33.2h.092c.601-4.501 4.06-8.071 8.442-8.702z" stroke="#20E1A2"/></g></svg>