<?xml version="1.0" encoding="UTF-8"?>
<svg width="643px" height="544px" viewBox="0 0 643 544" version="1.1" xmlns="http://www.w3.org/2000/svg" xmlns:xlink="http://www.w3.org/1999/xlink">
    <!-- Generator: Sketch 52.5 (67469) - http://www.bohemiancoding.com/sketch -->
    <title>Group 9</title>
    <desc>Created with Sketch.</desc>
    <g id="Page-1" stroke="none" stroke-width="1" fill="none" fill-rule="evenodd">
        <g id="1" transform="translate(-541.000000, -130.000000)" stroke-width="2">
            <g id="Group-18" transform="translate(60.000000, 95.000000)">
                <g id="Group-20-Copy-4">
                    <g id="Group-9" transform="translate(481.000000, 35.000000)">
                        <path d="M253.922969,1 L254.249778,1 L254.249778,0 L253.249778,0 L253.249778,0.970611314 L253.922969,1 Z M267,14.3546134 L267.027742,15.0158427 L268,15.0158427 L268,14.0158427 L267,14.0158427 L267,14.3546134 Z M267,62.7095056 L267,63.7095056 L268,63.7095056 L268,62.7095056 L267,62.7095056 Z M253.922796,78 L253.249778,78.0293632 L253.249778,79 L254.249778,79 L254.249778,78 L253.922796,78 Z M202.078093,78 L201.751111,78 L201.751111,79 L202.751111,79 L202.751111,78.0293632 L202.078093,78 Z M189,62.7095056 L188,62.7095056 L188,63.7095056 L189,63.7095056 L189,62.7095056 Z M189,14.3546482 L189,14.0158427 L188,14.0158427 L188,15.0158427 L188.972263,15.0158427 L189,14.3546482 Z M202.077807,1 L202.750222,0.970725396 L202.750222,0 L201.750222,0 L201.750222,1 L202.077807,1 Z M210.247154,13.7970225 L210.247154,13.6976744 L244.833306,13.6976744 L244.833306,13.7970219 C249.216479,14.42751 252.673984,17.9979314 253.274634,22.4986568 L253.367816,22.4986568 L253.367816,55.7012539 L253.350871,55.7012539 C253.075876,60.5604029 249.484673,64.5341098 244.833306,65.2029589 L244.833306,65.3023256 L210.247154,65.3023256 L210.247154,65.2029589 C205.595786,64.5341098 202.004584,60.5604029 201.729589,55.7012539 L201.712644,55.7012539 L201.712644,22.4986568 L201.805096,22.4986568 C202.406435,17.9978395 205.864065,14.4275031 210.247154,13.7970225 Z" id="Combined-Shape" stroke="#0BD291" opacity="0.266043527"></path>
                        <path d="M346.922969,1 L347.249778,1 L347.249778,0 L346.249778,0 L346.249778,0.970611314 L346.922969,1 Z M360,14.3546134 L360.027742,15.0158427 L361,15.0158427 L361,14.0158427 L360,14.0158427 L360,14.3546134 Z M360,62.7095056 L360,63.7095056 L361,63.7095056 L361,62.7095056 L360,62.7095056 Z M346.922796,78 L346.249778,78.0293632 L346.249778,79 L347.249778,79 L347.249778,78 L346.922796,78 Z M295.078093,78 L294.751111,78 L294.751111,79 L295.751111,79 L295.751111,78.0293632 L295.078093,78 Z M282,62.7095056 L281,62.7095056 L281,63.7095056 L282,63.7095056 L282,62.7095056 Z M282,14.3546482 L282,14.0158427 L281,14.0158427 L281,15.0158427 L281.972263,15.0158427 L282,14.3546482 Z M295.077807,1 L295.750222,0.970725396 L295.750222,0 L294.750222,0 L294.750222,1 L295.077807,1 Z M303.247154,13.7970225 L303.247154,13.6976744 L337.833306,13.6976744 L337.833306,13.7970219 C342.216479,14.42751 345.673984,17.9979314 346.274634,22.4986568 L346.367816,22.4986568 L346.367816,55.7012539 L346.350871,55.7012539 C346.075876,60.5604029 342.484673,64.5341098 337.833306,65.2029589 L337.833306,65.3023256 L303.247154,65.3023256 L303.247154,65.2029589 C298.595786,64.5341098 295.004584,60.5604029 294.729589,55.7012539 L294.712644,55.7012539 L294.712644,22.4986568 L294.805096,22.4986568 C295.406435,17.9978395 298.864065,14.4275031 303.247154,13.7970225 Z" id="Combined-Shape-Copy-9" stroke="#0BD291" opacity="0.266043527"></path>
                        <g id="Group-9-Copy" opacity="0.554664249" transform="translate(375.000000, 0.000000)" stroke="#0BD291">
                            <path d="M66.001501,1 L66.3286466,1 L66.3286466,0 L65.3286466,0 L65.3286466,0.97066096 L66.001501,1 Z M79.0952381,14.3546384 L79.1230118,15.0158427 L80.0952381,15.0158427 L80.0952381,14.0158427 L79.0952381,14.0158427 L79.0952381,14.3546384 Z M79.0952381,62.7095056 L79.0952381,63.7095056 L80.0952381,63.7095056 L80.0952381,62.7095056 L79.0952381,62.7095056 Z M66.0013277,78 L65.3286466,78.0293136 L65.3286466,79 L66.3286466,79 L66.3286466,78 L66.0013277,78 Z M14.0948004,78 L13.7674815,78 L13.7674815,79 L14.7674815,79 L14.7674815,78.0293136 L14.0948004,78 Z M1,62.7095056 L0,62.7095056 L0,63.7095056 L1,63.7095056 L1,62.7095056 Z M1,14.3546731 L1,14.0158427 L0,14.0158427 L0,15.0158427 L0.972231008,15.0158427 L1,14.3546731 Z M14.0945142,1 L14.7665915,0.970774914 L14.7665915,0 L13.7665915,0 L13.7665915,1 L14.0945142,1 Z M22.2748292,13.7968772 L22.2748292,13.6976744 L56.899774,13.6976744 L56.899774,13.7968766 C61.2879445,14.4269449 64.7498072,17.9974205 65.3511628,22.4986568 L65.4444444,22.4986568 L65.4444444,55.7012539 L65.4274813,55.7012539 C65.1521668,60.5609451 61.5564193,64.5347031 56.899774,65.203104 L56.899774,65.3023256 L22.2748292,65.3023256 L22.2748292,65.203104 C17.6181839,64.5347031 14.0224363,60.5609451 13.7471219,55.7012539 L13.7301587,55.7012539 L13.7301587,22.4986568 L13.8227092,22.4986568 C14.4247558,17.9973287 17.8867432,14.4269379 22.2748292,13.7968772 Z" id="Combined-Shape"></path>
                            <path d="M159.906263,1 L160.233408,1 L160.233408,0 L159.233408,0 L159.233408,0.97066096 L159.906263,1 Z M173,14.3546384 L173.027774,15.0158427 L174,15.0158427 L174,14.0158427 L173,14.0158427 L173,14.3546384 Z M173,62.7095056 L173,63.7095056 L174,63.7095056 L174,62.7095056 L173,62.7095056 Z M159.90609,78 L159.233408,78.0293136 L159.233408,79 L160.233408,79 L160.233408,78 L159.90609,78 Z M107.999562,78 L107.672243,78 L107.672243,79 L108.672243,79 L108.672243,78.0293136 L107.999562,78 Z M94.9047619,62.7095056 L93.9047619,62.7095056 L93.9047619,63.7095056 L94.9047619,63.7095056 L94.9047619,62.7095056 Z M94.9047619,14.3546731 L94.9047619,14.0158427 L93.9047619,14.0158427 L93.9047619,15.0158427 L94.8769929,15.0158427 L94.9047619,14.3546731 Z M107.999276,1 L108.671353,0.970774914 L108.671353,0 L107.671353,0 L107.671353,1 L107.999276,1 Z M116.179591,13.7968772 L116.179591,13.6976744 L150.804536,13.6976744 L150.804536,13.7968766 C155.192706,14.4269449 158.654569,17.9974205 159.255925,22.4986568 L159.349206,22.4986568 L159.349206,55.7012539 L159.332243,55.7012539 C159.056929,60.5609451 155.461181,64.5347031 150.804536,65.203104 L150.804536,65.3023256 L116.179591,65.3023256 L116.179591,65.203104 C111.522946,64.5347031 107.927198,60.5609451 107.651884,55.7012539 L107.634921,55.7012539 L107.634921,22.4986568 L107.727471,22.4986568 C108.329518,17.9973287 111.791505,14.4269379 116.179591,13.7968772 Z" id="Combined-Shape-Copy-9"></path>
                        </g>
                        <g id="Group-9-Copy-2" transform="translate(563.000000, 0.000000)" stroke="#20E1A2">
                            <path d="M65.9229694,1 L66.2497778,1 L66.2497778,0 L65.2497778,0 L65.2497778,0.970611314 L65.9229694,1 Z M79,14.3546134 L79.0277417,15.0158427 L80,15.0158427 L80,14.0158427 L79,14.0158427 L79,14.3546134 Z M79,62.7095056 L79,63.7095056 L80,63.7095056 L80,62.7095056 L79,62.7095056 Z M65.9227963,78 L65.2497778,78.0293632 L65.2497778,79 L66.2497778,79 L66.2497778,78 L65.9227963,78 Z M14.0780926,78 L13.7511111,78 L13.7511111,79 L14.7511111,79 L14.7511111,78.0293632 L14.0780926,78 Z M1,62.7095056 L0,62.7095056 L0,63.7095056 L1,63.7095056 L1,62.7095056 Z M1,14.3546482 L1,14.0158427 L0,14.0158427 L0,15.0158427 L0.972262981,15.0158427 L1,14.3546482 Z M14.0778066,1 L14.7502222,0.970725396 L14.7502222,0 L13.7502222,0 L13.7502222,1 L14.0778066,1 Z M22.247154,13.7970225 L22.247154,13.6976744 L56.8333057,13.6976744 L56.8333057,13.7970219 C61.2164793,14.42751 64.6739844,17.9979314 65.2746339,22.4986568 L65.3678161,22.4986568 L65.3678161,55.7012539 L65.3508707,55.7012539 C65.0758758,60.5604029 61.4846733,64.5341098 56.8333057,65.2029589 L56.8333057,65.3023256 L22.247154,65.3023256 L22.247154,65.2029589 C17.5957864,64.5341098 14.0045839,60.5604029 13.729589,55.7012539 L13.7126437,55.7012539 L13.7126437,22.4986568 L13.8050957,22.4986568 C14.4064352,17.9978395 17.8640649,14.4275031 22.247154,13.7970225 Z" id="Combined-Shape"></path>
                        </g>
                        <path d="M253.922969,94 L254.249778,94 L254.249778,93 L253.249778,93 L253.249778,93.9706113 L253.922969,94 Z M267,107.354613 L267.027742,108.015843 L268,108.015843 L268,107.015843 L267,107.015843 L267,107.354613 Z M267,155.709506 L267,156.709506 L268,156.709506 L268,155.709506 L267,155.709506 Z M253.922796,171 L253.249778,171.029363 L253.249778,172 L254.249778,172 L254.249778,171 L253.922796,171 Z M202.078093,171 L201.751111,171 L201.751111,172 L202.751111,172 L202.751111,171.029363 L202.078093,171 Z M189,155.709506 L188,155.709506 L188,156.709506 L189,156.709506 L189,155.709506 Z M189,107.354648 L189,107.015843 L188,107.015843 L188,108.015843 L188.972263,108.015843 L189,107.354648 Z M202.077807,94 L202.750222,93.9707254 L202.750222,93 L201.750222,93 L201.750222,94 L202.077807,94 Z M210.247154,106.797022 L210.247154,106.697674 L244.833306,106.697674 L244.833306,106.797022 C249.216479,107.42751 252.673984,110.997931 253.274634,115.498657 L253.367816,115.498657 L253.367816,148.701254 L253.350871,148.701254 C253.075876,153.560403 249.484673,157.53411 244.833306,158.202959 L244.833306,158.302326 L210.247154,158.302326 L210.247154,158.202959 C205.595786,157.53411 202.004584,153.560403 201.729589,148.701254 L201.712644,148.701254 L201.712644,115.498657 L201.805096,115.498657 C202.406435,110.99784 205.864065,107.427503 210.247154,106.797022 Z" id="Combined-Shape" stroke="#0BD291"></path>
                        <path d="M346.922969,94 L347.249778,94 L347.249778,93 L346.249778,93 L346.249778,93.9706113 L346.922969,94 Z M360,107.354613 L360.027742,108.015843 L361,108.015843 L361,107.015843 L360,107.015843 L360,107.354613 Z M360,155.709506 L360,156.709506 L361,156.709506 L361,155.709506 L360,155.709506 Z M346.922796,171 L346.249778,171.029363 L346.249778,172 L347.249778,172 L347.249778,171 L346.922796,171 Z M295.078093,171 L294.751111,171 L294.751111,172 L295.751111,172 L295.751111,171.029363 L295.078093,171 Z M282,155.709506 L281,155.709506 L281,156.709506 L282,156.709506 L282,155.709506 Z M282,107.354648 L282,107.015843 L281,107.015843 L281,108.015843 L281.972263,108.015843 L282,107.354648 Z M295.077807,94 L295.750222,93.9707254 L295.750222,93 L294.750222,93 L294.750222,94 L295.077807,94 Z M303.247154,106.797022 L303.247154,106.697674 L337.833306,106.697674 L337.833306,106.797022 C342.216479,107.42751 345.673984,110.997931 346.274634,115.498657 L346.367816,115.498657 L346.367816,148.701254 L346.350871,148.701254 C346.075876,153.560403 342.484673,157.53411 337.833306,158.202959 L337.833306,158.302326 L303.247154,158.302326 L303.247154,158.202959 C298.595786,157.53411 295.004584,153.560403 294.729589,148.701254 L294.712644,148.701254 L294.712644,115.498657 L294.805096,115.498657 C295.406435,110.99784 298.864065,107.427503 303.247154,106.797022 Z" id="Combined-Shape-Copy-9" stroke="#0BD291"></path>
                        <g id="Group-9-Copy" transform="translate(375.000000, 93.000000)">
                            <path d="M66.001501,1 L66.3286466,1 L66.3286466,0 L65.3286466,0 L65.3286466,0.97066096 L66.001501,1 Z M79.0952381,14.3546384 L79.1230118,15.0158427 L80.0952381,15.0158427 L80.0952381,14.0158427 L79.0952381,14.0158427 L79.0952381,14.3546384 Z M79.0952381,62.7095056 L79.0952381,63.7095056 L80.0952381,63.7095056 L80.0952381,62.7095056 L79.0952381,62.7095056 Z M66.0013277,78 L65.3286466,78.0293136 L65.3286466,79 L66.3286466,79 L66.3286466,78 L66.0013277,78 Z M14.0948004,78 L13.7674815,78 L13.7674815,79 L14.7674815,79 L14.7674815,78.0293136 L14.0948004,78 Z M1,62.7095056 L0,62.7095056 L0,63.7095056 L1,63.7095056 L1,62.7095056 Z M1,14.3546731 L1,14.0158427 L0,14.0158427 L0,15.0158427 L0.972231008,15.0158427 L1,14.3546731 Z M14.0945142,1 L14.7665915,0.970774914 L14.7665915,0 L13.7665915,0 L13.7665915,1 L14.0945142,1 Z M22.2748292,13.7968772 L22.2748292,13.6976744 L56.899774,13.6976744 L56.899774,13.7968766 C61.2879445,14.4269449 64.7498072,17.9974205 65.3511628,22.4986568 L65.4444444,22.4986568 L65.4444444,55.7012539 L65.4274813,55.7012539 C65.1521668,60.5609451 61.5564193,64.5347031 56.899774,65.203104 L56.899774,65.3023256 L22.2748292,65.3023256 L22.2748292,65.203104 C17.6181839,64.5347031 14.0224363,60.5609451 13.7471219,55.7012539 L13.7301587,55.7012539 L13.7301587,22.4986568 L13.8227092,22.4986568 C14.4247558,17.9973287 17.8867432,14.4269379 22.2748292,13.7968772 Z" id="Combined-Shape" stroke="#20E1A2"></path>
                            <path d="M159.906263,1 L160.233408,1 L160.233408,0 L159.233408,0 L159.233408,0.97066096 L159.906263,1 Z M173,14.3546384 L173.027774,15.0158427 L174,15.0158427 L174,14.0158427 L173,14.0158427 L173,14.3546384 Z M173,62.7095056 L173,63.7095056 L174,63.7095056 L174,62.7095056 L173,62.7095056 Z M159.90609,78 L159.233408,78.0293136 L159.233408,79 L160.233408,79 L160.233408,78 L159.90609,78 Z M107.999562,78 L107.672243,78 L107.672243,79 L108.672243,79 L108.672243,78.0293136 L107.999562,78 Z M94.9047619,62.7095056 L93.9047619,62.7095056 L93.9047619,63.7095056 L94.9047619,63.7095056 L94.9047619,62.7095056 Z M94.9047619,14.3546731 L94.9047619,14.0158427 L93.9047619,14.0158427 L93.9047619,15.0158427 L94.8769929,15.0158427 L94.9047619,14.3546731 Z M107.999276,1 L108.671353,0.970774914 L108.671353,0 L107.671353,0 L107.671353,1 L107.999276,1 Z M116.179591,13.7968772 L116.179591,13.6976744 L150.804536,13.6976744 L150.804536,13.7968766 C155.192706,14.4269449 158.654569,17.9974205 159.255925,22.4986568 L159.349206,22.4986568 L159.349206,55.7012539 L159.332243,55.7012539 C159.056929,60.5609451 155.461181,64.5347031 150.804536,65.203104 L150.804536,65.3023256 L116.179591,65.3023256 L116.179591,65.203104 C111.522946,64.5347031 107.927198,60.5609451 107.651884,55.7012539 L107.634921,55.7012539 L107.634921,22.4986568 L107.727471,22.4986568 C108.329518,17.9973287 111.791505,14.4269379 116.179591,13.7968772 Z" id="Combined-Shape-Copy-9" stroke="#0BD291"></path>
                        </g>
                        <g id="Group-9-Copy-2" transform="translate(563.000000, 93.000000)" opacity="0.39406622" stroke="#0BD291">
                            <path d="M65.9229694,1 L66.2497778,1 L66.2497778,0 L65.2497778,0 L65.2497778,0.970611314 L65.9229694,1 Z M79,14.3546134 L79.0277417,15.0158427 L80,15.0158427 L80,14.0158427 L79,14.0158427 L79,14.3546134 Z M79,62.7095056 L79,63.7095056 L80,63.7095056 L80,62.7095056 L79,62.7095056 Z M65.9227963,78 L65.2497778,78.0293632 L65.2497778,79 L66.2497778,79 L66.2497778,78 L65.9227963,78 Z M14.0780926,78 L13.7511111,78 L13.7511111,79 L14.7511111,79 L14.7511111,78.0293632 L14.0780926,78 Z M1,62.7095056 L0,62.7095056 L0,63.7095056 L1,63.7095056 L1,62.7095056 Z M1,14.3546482 L1,14.0158427 L0,14.0158427 L0,15.0158427 L0.972262981,15.0158427 L1,14.3546482 Z M14.0778066,1 L14.7502222,0.970725396 L14.7502222,0 L13.7502222,0 L13.7502222,1 L14.0778066,1 Z M22.247154,13.7970225 L22.247154,13.6976744 L56.8333057,13.6976744 L56.8333057,13.7970219 C61.2164793,14.42751 64.6739844,17.9979314 65.2746339,22.4986568 L65.3678161,22.4986568 L65.3678161,55.7012539 L65.3508707,55.7012539 C65.0758758,60.5604029 61.4846733,64.5341098 56.8333057,65.2029589 L56.8333057,65.3023256 L22.247154,65.3023256 L22.247154,65.2029589 C17.5957864,64.5341098 14.0045839,60.5604029 13.729589,55.7012539 L13.7126437,55.7012539 L13.7126437,22.4986568 L13.8050957,22.4986568 C14.4064352,17.9978395 17.8640649,14.4275031 22.247154,13.7970225 Z" id="Combined-Shape"></path>
                        </g>
                        <path d="M253.922969,187 L254.249778,187 L254.249778,186 L253.249778,186 L253.249778,186.970611 L253.922969,187 Z M267,200.354613 L267.027742,201.015843 L268,201.015843 L268,200.015843 L267,200.015843 L267,200.354613 Z M267,248.709506 L267,249.709506 L268,249.709506 L268,248.709506 L267,248.709506 Z M253.922796,264 L253.249778,264.029363 L253.249778,265 L254.249778,265 L254.249778,264 L253.922796,264 Z M202.078093,264 L201.751111,264 L201.751111,265 L202.751111,265 L202.751111,264.029363 L202.078093,264 Z M189,248.709506 L188,248.709506 L188,249.709506 L189,249.709506 L189,248.709506 Z M189,200.354648 L189,200.015843 L188,200.015843 L188,201.015843 L188.972263,201.015843 L189,200.354648 Z M202.077807,187 L202.750222,186.970725 L202.750222,186 L201.750222,186 L201.750222,187 L202.077807,187 Z M210.247154,199.797022 L210.247154,199.697674 L244.833306,199.697674 L244.833306,199.797022 C249.216479,200.42751 252.673984,203.997931 253.274634,208.498657 L253.367816,208.498657 L253.367816,241.701254 L253.350871,241.701254 C253.075876,246.560403 249.484673,250.53411 244.833306,251.202959 L244.833306,251.302326 L210.247154,251.302326 L210.247154,251.202959 C205.595786,250.53411 202.004584,246.560403 201.729589,241.701254 L201.712644,241.701254 L201.712644,208.498657 L201.805096,208.498657 C202.406435,203.99784 205.864065,200.427503 210.247154,199.797022 Z" id="Combined-Shape" stroke="#0BD291"></path>
                        <path d="M346.922969,187 L347.249778,187 L347.249778,186 L346.249778,186 L346.249778,186.970611 L346.922969,187 Z M360,200.354613 L360.027742,201.015843 L361,201.015843 L361,200.015843 L360,200.015843 L360,200.354613 Z M360,248.709506 L360,249.709506 L361,249.709506 L361,248.709506 L360,248.709506 Z M346.922796,264 L346.249778,264.029363 L346.249778,265 L347.249778,265 L347.249778,264 L346.922796,264 Z M295.078093,264 L294.751111,264 L294.751111,265 L295.751111,265 L295.751111,264.029363 L295.078093,264 Z M282,248.709506 L281,248.709506 L281,249.709506 L282,249.709506 L282,248.709506 Z M282,200.354648 L282,200.015843 L281,200.015843 L281,201.015843 L281.972263,201.015843 L282,200.354648 Z M295.077807,187 L295.750222,186.970725 L295.750222,186 L294.750222,186 L294.750222,187 L295.077807,187 Z M303.247154,199.797022 L303.247154,199.697674 L337.833306,199.697674 L337.833306,199.797022 C342.216479,200.42751 345.673984,203.997931 346.274634,208.498657 L346.367816,208.498657 L346.367816,241.701254 L346.350871,241.701254 C346.075876,246.560403 342.484673,250.53411 337.833306,251.202959 L337.833306,251.302326 L303.247154,251.302326 L303.247154,251.202959 C298.595786,250.53411 295.004584,246.560403 294.729589,241.701254 L294.712644,241.701254 L294.712644,208.498657 L294.805096,208.498657 C295.406435,203.99784 298.864065,200.427503 303.247154,199.797022 Z" id="Combined-Shape-Copy-9" stroke="#20E1A2"></path>
                        <g id="Group-9-Copy" transform="translate(375.000000, 186.000000)">
                            <path d="M66.001501,1 L66.3286466,1 L66.3286466,0 L65.3286466,0 L65.3286466,0.97066096 L66.001501,1 Z M79.0952381,14.3546384 L79.1230118,15.0158427 L80.0952381,15.0158427 L80.0952381,14.0158427 L79.0952381,14.0158427 L79.0952381,14.3546384 Z M79.0952381,62.7095056 L79.0952381,63.7095056 L80.0952381,63.7095056 L80.0952381,62.7095056 L79.0952381,62.7095056 Z M66.0013277,78 L65.3286466,78.0293136 L65.3286466,79 L66.3286466,79 L66.3286466,78 L66.0013277,78 Z M14.0948004,78 L13.7674815,78 L13.7674815,79 L14.7674815,79 L14.7674815,78.0293136 L14.0948004,78 Z M1,62.7095056 L0,62.7095056 L0,63.7095056 L1,63.7095056 L1,62.7095056 Z M1,14.3546731 L1,14.0158427 L0,14.0158427 L0,15.0158427 L0.972231008,15.0158427 L1,14.3546731 Z M14.0945142,1 L14.7665915,0.970774914 L14.7665915,0 L13.7665915,0 L13.7665915,1 L14.0945142,1 Z M22.2748292,13.7968772 L22.2748292,13.6976744 L56.899774,13.6976744 L56.899774,13.7968766 C61.2879445,14.4269449 64.7498072,17.9974205 65.3511628,22.4986568 L65.4444444,22.4986568 L65.4444444,55.7012539 L65.4274813,55.7012539 C65.1521668,60.5609451 61.5564193,64.5347031 56.899774,65.203104 L56.899774,65.3023256 L22.2748292,65.3023256 L22.2748292,65.203104 C17.6181839,64.5347031 14.0224363,60.5609451 13.7471219,55.7012539 L13.7301587,55.7012539 L13.7301587,22.4986568 L13.8227092,22.4986568 C14.4247558,17.9973287 17.8867432,14.4269379 22.2748292,13.7968772 Z" id="Combined-Shape" stroke="#20E1A2"></path>
                            <path d="M107.671353,0.0133146067 L107.671353,0 L160.233408,0 L160.233408,0.0133146067 C167.684046,0.338191011 173.66805,6.43095506 173.986651,14.0158427 L174,14.0158427 L174,63.7095056 L173.986651,63.7095056 C173.99555,63.920764 174,64.1329101 174,64.3468315 C174,72.2264157 167.892293,78.6529326 160.233408,78.9866854 L160.233408,79 L107.672243,79 L107.672243,78.9866854 C100.013359,78.6529326 93.9056519,72.2264157 93.9056519,64.3468315 C93.9056519,64.1337978 93.9101016,63.920764 93.9190011,63.7095056 L93.9047619,63.7095056 L93.9047619,14.0158427 L93.9181111,14.0158427 C94.2367122,6.43006742 100.220716,0.337303371 107.671353,0.0133146067 Z M117.179591,14.7065348 C112.554616,14.9103227 108.840848,18.7353344 108.642875,23.4986568 L108.634921,23.4986568 L108.634921,54.7012539 L108.643759,54.7012539 C108.637572,54.8341591 108.634921,54.9670643 108.634921,55.1008555 C108.634921,60.0484731 112.426463,64.083475 117.179591,64.2934652 L117.179591,64.3023256 L149.804536,64.3023256 L149.804536,64.2934652 C154.557663,64.083475 158.349206,60.0484731 158.349206,55.1008555 C158.349206,54.9670643 158.346555,54.833273 158.340368,54.7012539 L158.349206,54.7012539 L158.349206,23.4986568 L158.340368,23.4986568 C158.143279,18.7353344 154.429511,14.9103227 149.804536,14.7065348 L149.804536,14.6976744 L117.179591,14.6976744 L117.179591,14.7065348 Z" id="Combined-Shape-Copy-9" stroke="#0BD291" opacity="0.252627418" stroke-linecap="square"></path>
                        </g>
                        <g id="Group-9-Copy-2" transform="translate(563.000000, 186.000000)" stroke="#0BD291">
                            <path d="M65.9229694,1 L66.2497778,1 L66.2497778,0 L65.2497778,0 L65.2497778,0.970611314 L65.9229694,1 Z M79,14.3546134 L79.0277417,15.0158427 L80,15.0158427 L80,14.0158427 L79,14.0158427 L79,14.3546134 Z M79,62.7095056 L79,63.7095056 L80,63.7095056 L80,62.7095056 L79,62.7095056 Z M65.9227963,78 L65.2497778,78.0293632 L65.2497778,79 L66.2497778,79 L66.2497778,78 L65.9227963,78 Z M14.0780926,78 L13.7511111,78 L13.7511111,79 L14.7511111,79 L14.7511111,78.0293632 L14.0780926,78 Z M1,62.7095056 L0,62.7095056 L0,63.7095056 L1,63.7095056 L1,62.7095056 Z M1,14.3546482 L1,14.0158427 L0,14.0158427 L0,15.0158427 L0.972262981,15.0158427 L1,14.3546482 Z M14.0778066,1 L14.7502222,0.970725396 L14.7502222,0 L13.7502222,0 L13.7502222,1 L14.0778066,1 Z M22.247154,13.7970225 L22.247154,13.6976744 L56.8333057,13.6976744 L56.8333057,13.7970219 C61.2164793,14.42751 64.6739844,17.9979314 65.2746339,22.4986568 L65.3678161,22.4986568 L65.3678161,55.7012539 L65.3508707,55.7012539 C65.0758758,60.5604029 61.4846733,64.5341098 56.8333057,65.2029589 L56.8333057,65.3023256 L22.247154,65.3023256 L22.247154,65.2029589 C17.5957864,64.5341098 14.0045839,60.5604029 13.729589,55.7012539 L13.7126437,55.7012539 L13.7126437,22.4986568 L13.8050957,22.4986568 C14.4064352,17.9978395 17.8640649,14.4275031 22.247154,13.7970225 Z" id="Combined-Shape"></path>
                        </g>
                        <path d="M253.922969,280 L254.249778,280 L254.249778,279 L253.249778,279 L253.249778,279.970611 L253.922969,280 Z M267,293.354613 L267.027742,294.015843 L268,294.015843 L268,293.015843 L267,293.015843 L267,293.354613 Z M267,341.709506 L267,342.709506 L268,342.709506 L268,341.709506 L267,341.709506 Z M253.922796,357 L253.249778,357.029363 L253.249778,358 L254.249778,358 L254.249778,357 L253.922796,357 Z M202.078093,357 L201.751111,357 L201.751111,358 L202.751111,358 L202.751111,357.029363 L202.078093,357 Z M189,341.709506 L188,341.709506 L188,342.709506 L189,342.709506 L189,341.709506 Z M189,293.354648 L189,293.015843 L188,293.015843 L188,294.015843 L188.972263,294.015843 L189,293.354648 Z M202.077807,280 L202.750222,279.970725 L202.750222,279 L201.750222,279 L201.750222,280 L202.077807,280 Z M210.247154,292.797022 L210.247154,292.697674 L244.833306,292.697674 L244.833306,292.797022 C249.216479,293.42751 252.673984,296.997931 253.274634,301.498657 L253.367816,301.498657 L253.367816,334.701254 L253.350871,334.701254 C253.075876,339.560403 249.484673,343.53411 244.833306,344.202959 L244.833306,344.302326 L210.247154,344.302326 L210.247154,344.202959 C205.595786,343.53411 202.004584,339.560403 201.729589,334.701254 L201.712644,334.701254 L201.712644,301.498657 L201.805096,301.498657 C202.406435,296.99784 205.864065,293.427503 210.247154,292.797022 Z" id="Combined-Shape" stroke="#0BD291"></path>
                        <path d="M346.922969,280 L347.249778,280 L347.249778,279 L346.249778,279 L346.249778,279.970611 L346.922969,280 Z M360,293.354613 L360.027742,294.015843 L361,294.015843 L361,293.015843 L360,293.015843 L360,293.354613 Z M360,341.709506 L360,342.709506 L361,342.709506 L361,341.709506 L360,341.709506 Z M346.922796,357 L346.249778,357.029363 L346.249778,358 L347.249778,358 L347.249778,357 L346.922796,357 Z M295.078093,357 L294.751111,357 L294.751111,358 L295.751111,358 L295.751111,357.029363 L295.078093,357 Z M282,341.709506 L281,341.709506 L281,342.709506 L282,342.709506 L282,341.709506 Z M282,293.354648 L282,293.015843 L281,293.015843 L281,294.015843 L281.972263,294.015843 L282,293.354648 Z M295.077807,280 L295.750222,279.970725 L295.750222,279 L294.750222,279 L294.750222,280 L295.077807,280 Z M303.247154,292.797022 L303.247154,292.697674 L337.833306,292.697674 L337.833306,292.797022 C342.216479,293.42751 345.673984,296.997931 346.274634,301.498657 L346.367816,301.498657 L346.367816,334.701254 L346.350871,334.701254 C346.075876,339.560403 342.484673,343.53411 337.833306,344.202959 L337.833306,344.302326 L303.247154,344.302326 L303.247154,344.202959 C298.595786,343.53411 295.004584,339.560403 294.729589,334.701254 L294.712644,334.701254 L294.712644,301.498657 L294.805096,301.498657 C295.406435,296.99784 298.864065,293.427503 303.247154,292.797022 Z" id="Combined-Shape-Copy-9" stroke="#0BD291" opacity="0.676967076"></path>
                        <g id="Group-9-Copy" transform="translate(375.000000, 279.000000)" stroke="#0BD291">
                            <path d="M13.7665915,0.0133146067 L13.7665915,0 L66.3286466,0 L66.3286466,0.0133146067 C73.7792836,0.338191011 79.7632878,6.43095506 80.0818889,14.0158427 L80.0952381,14.0158427 L80.0952381,63.7095056 L80.0818889,63.7095056 C80.0907884,63.920764 80.0952381,64.1329101 80.0952381,64.3468315 C80.0952381,72.2264157 73.9875312,78.6529326 66.3286466,78.9866854 L66.3286466,79 L13.7674815,79 L13.7674815,78.9866854 C6.10859683,78.6529326 0.00088994709,72.2264157 0.00088994709,64.3468315 C0.00088994709,64.1337978 0.00533968254,63.920764 0.0142391534,63.7095056 L0,63.7095056 L0,14.0158427 L0.0133492063,14.0158427 C0.331950265,6.43006742 6.3159545,0.337303371 13.7665915,0.0133146067 Z M23.2748292,14.7065348 C18.649854,14.9103227 14.9360863,18.7353344 14.738113,23.4986568 L14.7301587,23.4986568 L14.7301587,54.7012539 L14.7389968,54.7012539 C14.7328102,54.8341591 14.7301587,54.9670643 14.7301587,55.1008555 C14.7301587,60.0484731 18.5217016,64.083475 23.2748292,64.2934652 L23.2748292,64.3023256 L55.899774,64.3023256 L55.899774,64.2934652 C60.6529016,64.083475 64.4444444,60.0484731 64.4444444,55.1008555 C64.4444444,54.9670643 64.441793,54.833273 64.4356063,54.7012539 L64.4444444,54.7012539 L64.4444444,23.4986568 L64.4356063,23.4986568 C64.2385168,18.7353344 60.5247492,14.9103227 55.899774,14.7065348 L55.899774,14.6976744 L23.2748292,14.6976744 L23.2748292,14.7065348 Z" id="Combined-Shape" opacity="0.502580915" stroke-linecap="square"></path>
                            <path d="M159.906263,1 L160.233408,1 L160.233408,0 L159.233408,0 L159.233408,0.97066096 L159.906263,1 Z M173,14.3546384 L173.027774,15.0158427 L174,15.0158427 L174,14.0158427 L173,14.0158427 L173,14.3546384 Z M173,62.7095056 L173,63.7095056 L174,63.7095056 L174,62.7095056 L173,62.7095056 Z M159.90609,78 L159.233408,78.0293136 L159.233408,79 L160.233408,79 L160.233408,78 L159.90609,78 Z M107.999562,78 L107.672243,78 L107.672243,79 L108.672243,79 L108.672243,78.0293136 L107.999562,78 Z M94.9047619,62.7095056 L93.9047619,62.7095056 L93.9047619,63.7095056 L94.9047619,63.7095056 L94.9047619,62.7095056 Z M94.9047619,14.3546731 L94.9047619,14.0158427 L93.9047619,14.0158427 L93.9047619,15.0158427 L94.8769929,15.0158427 L94.9047619,14.3546731 Z M107.999276,1 L108.671353,0.970774914 L108.671353,0 L107.671353,0 L107.671353,1 L107.999276,1 Z M116.179591,13.7968772 L116.179591,13.6976744 L150.804536,13.6976744 L150.804536,13.7968766 C155.192706,14.4269449 158.654569,17.9974205 159.255925,22.4986568 L159.349206,22.4986568 L159.349206,55.7012539 L159.332243,55.7012539 C159.056929,60.5609451 155.461181,64.5347031 150.804536,65.203104 L150.804536,65.3023256 L116.179591,65.3023256 L116.179591,65.203104 C111.522946,64.5347031 107.927198,60.5609451 107.651884,55.7012539 L107.634921,55.7012539 L107.634921,22.4986568 L107.727471,22.4986568 C108.329518,17.9973287 111.791505,14.4269379 116.179591,13.7968772 Z" id="Combined-Shape-Copy-9"></path>
                        </g>
                        <g id="Group-9-Copy-2" transform="translate(563.000000, 279.000000)" opacity="0.772158668" stroke="#0BD291">
                            <path d="M65.9229694,1 L66.2497778,1 L66.2497778,0 L65.2497778,0 L65.2497778,0.970611314 L65.9229694,1 Z M79,14.3546134 L79.0277417,15.0158427 L80,15.0158427 L80,14.0158427 L79,14.0158427 L79,14.3546134 Z M79,62.7095056 L79,63.7095056 L80,63.7095056 L80,62.7095056 L79,62.7095056 Z M65.9227963,78 L65.2497778,78.0293632 L65.2497778,79 L66.2497778,79 L66.2497778,78 L65.9227963,78 Z M14.0780926,78 L13.7511111,78 L13.7511111,79 L14.7511111,79 L14.7511111,78.0293632 L14.0780926,78 Z M1,62.7095056 L0,62.7095056 L0,63.7095056 L1,63.7095056 L1,62.7095056 Z M1,14.3546482 L1,14.0158427 L0,14.0158427 L0,15.0158427 L0.972262981,15.0158427 L1,14.3546482 Z M14.0778066,1 L14.7502222,0.970725396 L14.7502222,0 L13.7502222,0 L13.7502222,1 L14.0778066,1 Z M22.247154,13.7970225 L22.247154,13.6976744 L56.8333057,13.6976744 L56.8333057,13.7970219 C61.2164793,14.42751 64.6739844,17.9979314 65.2746339,22.4986568 L65.3678161,22.4986568 L65.3678161,55.7012539 L65.3508707,55.7012539 C65.0758758,60.5604029 61.4846733,64.5341098 56.8333057,65.2029589 L56.8333057,65.3023256 L22.247154,65.3023256 L22.247154,65.2029589 C17.5957864,64.5341098 14.0045839,60.5604029 13.729589,55.7012539 L13.7126437,55.7012539 L13.7126437,22.4986568 L13.8050957,22.4986568 C14.4064352,17.9978395 17.8640649,14.4275031 22.247154,13.7970225 Z" id="Combined-Shape"></path>
                        </g>
                        <path d="M253.922969,373 L254.249778,373 L254.249778,372 L253.249778,372 L253.249778,372.970611 L253.922969,373 Z M267,386.354613 L267.027742,387.015843 L268,387.015843 L268,386.015843 L267,386.015843 L267,386.354613 Z M267,434.709506 L267,435.709506 L268,435.709506 L268,434.709506 L267,434.709506 Z M253.922796,450 L253.249778,450.029363 L253.249778,451 L254.249778,451 L254.249778,450 L253.922796,450 Z M202.078093,450 L201.751111,450 L201.751111,451 L202.751111,451 L202.751111,450.029363 L202.078093,450 Z M189,434.709506 L188,434.709506 L188,435.709506 L189,435.709506 L189,434.709506 Z M189,386.354648 L189,386.015843 L188,386.015843 L188,387.015843 L188.972263,387.015843 L189,386.354648 Z M202.077807,373 L202.750222,372.970725 L202.750222,372 L201.750222,372 L201.750222,373 L202.077807,373 Z M210.247154,385.797022 L210.247154,385.697674 L244.833306,385.697674 L244.833306,385.797022 C249.216479,386.42751 252.673984,389.997931 253.274634,394.498657 L253.367816,394.498657 L253.367816,427.701254 L253.350871,427.701254 C253.075876,432.560403 249.484673,436.53411 244.833306,437.202959 L244.833306,437.302326 L210.247154,437.302326 L210.247154,437.202959 C205.595786,436.53411 202.004584,432.560403 201.729589,427.701254 L201.712644,427.701254 L201.712644,394.498657 L201.805096,394.498657 C202.406435,389.99784 205.864065,386.427503 210.247154,385.797022 Z" id="Combined-Shape" stroke="#0BD291"></path>
                        <path d="M346.922969,373 L347.249778,373 L347.249778,372 L346.249778,372 L346.249778,372.970611 L346.922969,373 Z M360,386.354613 L360.027742,387.015843 L361,387.015843 L361,386.015843 L360,386.015843 L360,386.354613 Z M360,434.709506 L360,435.709506 L361,435.709506 L361,434.709506 L360,434.709506 Z M346.922796,450 L346.249778,450.029363 L346.249778,451 L347.249778,451 L347.249778,450 L346.922796,450 Z M295.078093,450 L294.751111,450 L294.751111,451 L295.751111,451 L295.751111,450.029363 L295.078093,450 Z M282,434.709506 L281,434.709506 L281,435.709506 L282,435.709506 L282,434.709506 Z M282,386.354648 L282,386.015843 L281,386.015843 L281,387.015843 L281.972263,387.015843 L282,386.354648 Z M295.077807,373 L295.750222,372.970725 L295.750222,372 L294.750222,372 L294.750222,373 L295.077807,373 Z M303.247154,385.797022 L303.247154,385.697674 L337.833306,385.697674 L337.833306,385.797022 C342.216479,386.42751 345.673984,389.997931 346.274634,394.498657 L346.367816,394.498657 L346.367816,427.701254 L346.350871,427.701254 C346.075876,432.560403 342.484673,436.53411 337.833306,437.202959 L337.833306,437.302326 L303.247154,437.302326 L303.247154,437.202959 C298.595786,436.53411 295.004584,432.560403 294.729589,427.701254 L294.712644,427.701254 L294.712644,394.498657 L294.805096,394.498657 C295.406435,389.99784 298.864065,386.427503 303.247154,385.797022 Z" id="Combined-Shape-Copy-9" stroke="#0BD291"></path>
                        <g id="Group-9-Copy" transform="translate(375.000000, 372.000000)">
                            <path d="M66.001501,1 L66.3286466,1 L66.3286466,0 L65.3286466,0 L65.3286466,0.97066096 L66.001501,1 Z M79.0952381,14.3546384 L79.1230118,15.0158427 L80.0952381,15.0158427 L80.0952381,14.0158427 L79.0952381,14.0158427 L79.0952381,14.3546384 Z M79.0952381,62.7095056 L79.0952381,63.7095056 L80.0952381,63.7095056 L80.0952381,62.7095056 L79.0952381,62.7095056 Z M66.0013277,78 L65.3286466,78.0293136 L65.3286466,79 L66.3286466,79 L66.3286466,78 L66.0013277,78 Z M14.0948004,78 L13.7674815,78 L13.7674815,79 L14.7674815,79 L14.7674815,78.0293136 L14.0948004,78 Z M1,62.7095056 L0,62.7095056 L0,63.7095056 L1,63.7095056 L1,62.7095056 Z M1,14.3546731 L1,14.0158427 L0,14.0158427 L0,15.0158427 L0.972231008,15.0158427 L1,14.3546731 Z M14.0945142,1 L14.7665915,0.970774914 L14.7665915,0 L13.7665915,0 L13.7665915,1 L14.0945142,1 Z M22.2748292,13.7968772 L22.2748292,13.6976744 L56.899774,13.6976744 L56.899774,13.7968766 C61.2879445,14.4269449 64.7498072,17.9974205 65.3511628,22.4986568 L65.4444444,22.4986568 L65.4444444,55.7012539 L65.4274813,55.7012539 C65.1521668,60.5609451 61.5564193,64.5347031 56.899774,65.203104 L56.899774,65.3023256 L22.2748292,65.3023256 L22.2748292,65.203104 C17.6181839,64.5347031 14.0224363,60.5609451 13.7471219,55.7012539 L13.7301587,55.7012539 L13.7301587,22.4986568 L13.8227092,22.4986568 C14.4247558,17.9973287 17.8867432,14.4269379 22.2748292,13.7968772 Z" id="Combined-Shape" stroke="#20E1A2"></path>
                            <path d="M159.906263,1 L160.233408,1 L160.233408,0 L159.233408,0 L159.233408,0.97066096 L159.906263,1 Z M173,14.3546384 L173.027774,15.0158427 L174,15.0158427 L174,14.0158427 L173,14.0158427 L173,14.3546384 Z M173,62.7095056 L173,63.7095056 L174,63.7095056 L174,62.7095056 L173,62.7095056 Z M159.90609,78 L159.233408,78.0293136 L159.233408,79 L160.233408,79 L160.233408,78 L159.90609,78 Z M107.999562,78 L107.672243,78 L107.672243,79 L108.672243,79 L108.672243,78.0293136 L107.999562,78 Z M94.9047619,62.7095056 L93.9047619,62.7095056 L93.9047619,63.7095056 L94.9047619,63.7095056 L94.9047619,62.7095056 Z M94.9047619,14.3546731 L94.9047619,14.0158427 L93.9047619,14.0158427 L93.9047619,15.0158427 L94.8769929,15.0158427 L94.9047619,14.3546731 Z M107.999276,1 L108.671353,0.970774914 L108.671353,0 L107.671353,0 L107.671353,1 L107.999276,1 Z M116.179591,13.7968772 L116.179591,13.6976744 L150.804536,13.6976744 L150.804536,13.7968766 C155.192706,14.4269449 158.654569,17.9974205 159.255925,22.4986568 L159.349206,22.4986568 L159.349206,55.7012539 L159.332243,55.7012539 C159.056929,60.5609451 155.461181,64.5347031 150.804536,65.203104 L150.804536,65.3023256 L116.179591,65.3023256 L116.179591,65.203104 C111.522946,64.5347031 107.927198,60.5609451 107.651884,55.7012539 L107.634921,55.7012539 L107.634921,22.4986568 L107.727471,22.4986568 C108.329518,17.9973287 111.791505,14.4269379 116.179591,13.7968772 Z" id="Combined-Shape-Copy-9" stroke="#0BD291"></path>
                        </g>
                        <g id="Group-9-Copy-2" transform="translate(563.000000, 372.000000)" opacity="0.222167969" stroke="#0BD291">
                            <path d="M65.9229694,1 L66.2497778,1 L66.2497778,0 L65.2497778,0 L65.2497778,0.970611314 L65.9229694,1 Z M79,14.3546134 L79.0277417,15.0158427 L80,15.0158427 L80,14.0158427 L79,14.0158427 L79,14.3546134 Z M79,62.7095056 L79,63.7095056 L80,63.7095056 L80,62.7095056 L79,62.7095056 Z M65.9227963,78 L65.2497778,78.0293632 L65.2497778,79 L66.2497778,79 L66.2497778,78 L65.9227963,78 Z M14.0780926,78 L13.7511111,78 L13.7511111,79 L14.7511111,79 L14.7511111,78.0293632 L14.0780926,78 Z M1,62.7095056 L0,62.7095056 L0,63.7095056 L1,63.7095056 L1,62.7095056 Z M1,14.3546482 L1,14.0158427 L0,14.0158427 L0,15.0158427 L0.972262981,15.0158427 L1,14.3546482 Z M14.0778066,1 L14.7502222,0.970725396 L14.7502222,0 L13.7502222,0 L13.7502222,1 L14.0778066,1 Z M22.247154,13.7970225 L22.247154,13.6976744 L56.8333057,13.6976744 L56.8333057,13.7970219 C61.2164793,14.42751 64.6739844,17.9979314 65.2746339,22.4986568 L65.3678161,22.4986568 L65.3678161,55.7012539 L65.3508707,55.7012539 C65.0758758,60.5604029 61.4846733,64.5341098 56.8333057,65.2029589 L56.8333057,65.3023256 L22.247154,65.3023256 L22.247154,65.2029589 C17.5957864,64.5341098 14.0045839,60.5604029 13.729589,55.7012539 L13.7126437,55.7012539 L13.7126437,22.4986568 L13.8050957,22.4986568 C14.4064352,17.9978395 17.8640649,14.4275031 22.247154,13.7970225 Z" id="Combined-Shape"></path>
                        </g>
                        <path d="M253.922969,466 L254.249778,466 L254.249778,465 L253.249778,465 L253.249778,465.970611 L253.922969,466 Z M267,479.354613 L267.027742,480.015843 L268,480.015843 L268,479.015843 L267,479.015843 L267,479.354613 Z M267,527.709506 L267,528.709506 L268,528.709506 L268,527.709506 L267,527.709506 Z M253.922796,543 L253.249778,543.029363 L253.249778,544 L254.249778,544 L254.249778,543 L253.922796,543 Z M202.078093,543 L201.751111,543 L201.751111,544 L202.751111,544 L202.751111,543.029363 L202.078093,543 Z M189,527.709506 L188,527.709506 L188,528.709506 L189,528.709506 L189,527.709506 Z M189,479.354648 L189,479.015843 L188,479.015843 L188,480.015843 L188.972263,480.015843 L189,479.354648 Z M202.077807,466 L202.750222,465.970725 L202.750222,465 L201.750222,465 L201.750222,466 L202.077807,466 Z M210.247154,478.797022 L210.247154,478.697674 L244.833306,478.697674 L244.833306,478.797022 C249.216479,479.42751 252.673984,482.997931 253.274634,487.498657 L253.367816,487.498657 L253.367816,520.701254 L253.350871,520.701254 C253.075876,525.560403 249.484673,529.53411 244.833306,530.202959 L244.833306,530.302326 L210.247154,530.302326 L210.247154,530.202959 C205.595786,529.53411 202.004584,525.560403 201.729589,520.701254 L201.712644,520.701254 L201.712644,487.498657 L201.805096,487.498657 C202.406435,482.99784 205.864065,479.427503 210.247154,478.797022 Z" id="Combined-Shape" stroke="#20E1A2"></path>
                        <path d="M159.922969,1 L160.249778,1 L160.249778,0 L159.249778,0 L159.249778,0.970611314 L159.922969,1 Z M173,14.3546134 L173.027742,15.0158427 L174,15.0158427 L174,14.0158427 L173,14.0158427 L173,14.3546134 Z M173,62.7095056 L173,63.7095056 L174,63.7095056 L174,62.7095056 L173,62.7095056 Z M159.922796,78 L159.249778,78.0293632 L159.249778,79 L160.249778,79 L160.249778,78 L159.922796,78 Z M108.078093,78 L107.751111,78 L107.751111,79 L108.751111,79 L108.751111,78.0293632 L108.078093,78 Z M95,62.7095056 L94,62.7095056 L94,63.7095056 L95,63.7095056 L95,62.7095056 Z M95,14.3546482 L95,14.0158427 L94,14.0158427 L94,15.0158427 L94.972263,15.0158427 L95,14.3546482 Z M108.077807,1 L108.750222,0.970725396 L108.750222,0 L107.750222,0 L107.750222,1 L108.077807,1 Z M116.247154,13.7970225 L116.247154,13.6976744 L150.833306,13.6976744 L150.833306,13.7970219 C155.216479,14.42751 158.673984,17.9979314 159.274634,22.4986568 L159.367816,22.4986568 L159.367816,55.7012539 L159.350871,55.7012539 C159.075876,60.5604029 155.484673,64.5341098 150.833306,65.2029589 L150.833306,65.3023256 L116.247154,65.3023256 L116.247154,65.2029589 C111.595786,64.5341098 108.004584,60.5604029 107.729589,55.7012539 L107.712644,55.7012539 L107.712644,22.4986568 L107.805096,22.4986568 C108.406435,17.9978395 111.864065,14.4275031 116.247154,13.7970225 Z" id="Combined-Shape-Copy-15" stroke="#0BD291" opacity="0.266043527"></path>
                        <path d="M159.922969,94 L160.249778,94 L160.249778,93 L159.249778,93 L159.249778,93.9706113 L159.922969,94 Z M173,107.354613 L173.027742,108.015843 L174,108.015843 L174,107.015843 L173,107.015843 L173,107.354613 Z M173,155.709506 L173,156.709506 L174,156.709506 L174,155.709506 L173,155.709506 Z M159.922796,171 L159.249778,171.029363 L159.249778,172 L160.249778,172 L160.249778,171 L159.922796,171 Z M108.078093,171 L107.751111,171 L107.751111,172 L108.751111,172 L108.751111,171.029363 L108.078093,171 Z M95,155.709506 L94,155.709506 L94,156.709506 L95,156.709506 L95,155.709506 Z M95,107.354648 L95,107.015843 L94,107.015843 L94,108.015843 L94.972263,108.015843 L95,107.354648 Z M108.077807,94 L108.750222,93.9707254 L108.750222,93 L107.750222,93 L107.750222,94 L108.077807,94 Z M116.247154,106.797022 L116.247154,106.697674 L150.833306,106.697674 L150.833306,106.797022 C155.216479,107.42751 158.673984,110.997931 159.274634,115.498657 L159.367816,115.498657 L159.367816,148.701254 L159.350871,148.701254 C159.075876,153.560403 155.484673,157.53411 150.833306,158.202959 L150.833306,158.302326 L116.247154,158.302326 L116.247154,158.202959 C111.595786,157.53411 108.004584,153.560403 107.729589,148.701254 L107.712644,148.701254 L107.712644,115.498657 L107.805096,115.498657 C108.406435,110.99784 111.864065,107.427503 116.247154,106.797022 Z" id="Combined-Shape-Copy-14" stroke="#0BD291" opacity="0.285923549"></path>
                        <path d="M159.922969,187 L160.249778,187 L160.249778,186 L159.249778,186 L159.249778,186.970611 L159.922969,187 Z M173,200.354613 L173.027742,201.015843 L174,201.015843 L174,200.015843 L173,200.015843 L173,200.354613 Z M173,248.709506 L173,249.709506 L174,249.709506 L174,248.709506 L173,248.709506 Z M159.922796,264 L159.249778,264.029363 L159.249778,265 L160.249778,265 L160.249778,264 L159.922796,264 Z M108.078093,264 L107.751111,264 L107.751111,265 L108.751111,265 L108.751111,264.029363 L108.078093,264 Z M95,248.709506 L94,248.709506 L94,249.709506 L95,249.709506 L95,248.709506 Z M95,200.354648 L95,200.015843 L94,200.015843 L94,201.015843 L94.972263,201.015843 L95,200.354648 Z M108.077807,187 L108.750222,186.970725 L108.750222,186 L107.750222,186 L107.750222,187 L108.077807,187 Z M116.247154,199.797022 L116.247154,199.697674 L150.833306,199.697674 L150.833306,199.797022 C155.216479,200.42751 158.673984,203.997931 159.274634,208.498657 L159.367816,208.498657 L159.367816,241.701254 L159.350871,241.701254 C159.075876,246.560403 155.484673,250.53411 150.833306,251.202959 L150.833306,251.302326 L116.247154,251.302326 L116.247154,251.202959 C111.595786,250.53411 108.004584,246.560403 107.729589,241.701254 L107.712644,241.701254 L107.712644,208.498657 L107.805096,208.498657 C108.406435,203.99784 111.864065,200.427503 116.247154,199.797022 Z" id="Combined-Shape-Copy-13" stroke="#0BD291" opacity="0.0835890997"></path>
                        <path d="M66.9229694,280 L67.2497778,280 L67.2497778,279 L66.2497778,279 L66.2497778,279.970611 L66.9229694,280 Z M80,293.354613 L80.0277417,294.015843 L81,294.015843 L81,293.015843 L80,293.015843 L80,293.354613 Z M80,341.709506 L80,342.709506 L81,342.709506 L81,341.709506 L80,341.709506 Z M66.9227963,357 L66.2497778,357.029363 L66.2497778,358 L67.2497778,358 L67.2497778,357 L66.9227963,357 Z M15.0780926,357 L14.7511111,357 L14.7511111,358 L15.7511111,358 L15.7511111,357.029363 L15.0780926,357 Z M2,341.709506 L1,341.709506 L1,342.709506 L2,342.709506 L2,341.709506 Z M2,293.354648 L2,293.015843 L1,293.015843 L1,294.015843 L1.97226298,294.015843 L2,293.354648 Z M15.0778066,280 L15.7502222,279.970725 L15.7502222,279 L14.7502222,279 L14.7502222,280 L15.0778066,280 Z M23.247154,292.797022 L23.247154,292.697674 L57.8333057,292.697674 L57.8333057,292.797022 C62.2164793,293.42751 65.6739844,296.997931 66.2746339,301.498657 L66.3678161,301.498657 L66.3678161,334.701254 L66.3508707,334.701254 C66.0758758,339.560403 62.4846733,343.53411 57.8333057,344.202959 L57.8333057,344.302326 L23.247154,344.302326 L23.247154,344.202959 C18.5957864,343.53411 15.0045839,339.560403 14.729589,334.701254 L14.7126437,334.701254 L14.7126437,301.498657 L14.8050957,301.498657 C15.4064352,296.99784 18.8640649,293.427503 23.247154,292.797022 Z" id="Combined-Shape-Copy-17" stroke="#0BD291" opacity="0.0835890997"></path>
                        <path d="M66.9229694,280 L67.2497778,280 L67.2497778,279 L66.2497778,279 L66.2497778,279.970611 L66.9229694,280 Z M80,293.354613 L80.0277417,294.015843 L81,294.015843 L81,293.015843 L80,293.015843 L80,293.354613 Z M80,341.709506 L80,342.709506 L81,342.709506 L81,341.709506 L80,341.709506 Z M66.9227963,357 L66.2497778,357.029363 L66.2497778,358 L67.2497778,358 L67.2497778,357 L66.9227963,357 Z M15.0780926,357 L14.7511111,357 L14.7511111,358 L15.7511111,358 L15.7511111,357.029363 L15.0780926,357 Z M2,341.709506 L1,341.709506 L1,342.709506 L2,342.709506 L2,341.709506 Z M2,293.354648 L2,293.015843 L1,293.015843 L1,294.015843 L1.97226298,294.015843 L2,293.354648 Z M15.0778066,280 L15.7502222,279.970725 L15.7502222,279 L14.7502222,279 L14.7502222,280 L15.0778066,280 Z M23.247154,292.797022 L23.247154,292.697674 L57.8333057,292.697674 L57.8333057,292.797022 C62.2164793,293.42751 65.6739844,296.997931 66.2746339,301.498657 L66.3678161,301.498657 L66.3678161,334.701254 L66.3508707,334.701254 C66.0758758,339.560403 62.4846733,343.53411 57.8333057,344.202959 L57.8333057,344.302326 L23.247154,344.302326 L23.247154,344.202959 C18.5957864,343.53411 15.0045839,339.560403 14.729589,334.701254 L14.7126437,334.701254 L14.7126437,301.498657 L14.8050957,301.498657 C15.4064352,296.99784 18.8640649,293.427503 23.247154,292.797022 Z" id="Combined-Shape-Copy-18" stroke="#0BD291" opacity="0.0835890997"></path>
                        <path d="M159.922969,280 L160.249778,280 L160.249778,279 L159.249778,279 L159.249778,279.970611 L159.922969,280 Z M173,293.354613 L173.027742,294.015843 L174,294.015843 L174,293.015843 L173,293.015843 L173,293.354613 Z M173,341.709506 L173,342.709506 L174,342.709506 L174,341.709506 L173,341.709506 Z M159.922796,357 L159.249778,357.029363 L159.249778,358 L160.249778,358 L160.249778,357 L159.922796,357 Z M108.078093,357 L107.751111,357 L107.751111,358 L108.751111,358 L108.751111,357.029363 L108.078093,357 Z M95,341.709506 L94,341.709506 L94,342.709506 L95,342.709506 L95,341.709506 Z M95,293.354648 L95,293.015843 L94,293.015843 L94,294.015843 L94.972263,294.015843 L95,293.354648 Z M108.077807,280 L108.750222,279.970725 L108.750222,279 L107.750222,279 L107.750222,280 L108.077807,280 Z M116.247154,292.797022 L116.247154,292.697674 L150.833306,292.697674 L150.833306,292.797022 C155.216479,293.42751 158.673984,296.997931 159.274634,301.498657 L159.367816,301.498657 L159.367816,334.701254 L159.350871,334.701254 C159.075876,339.560403 155.484673,343.53411 150.833306,344.202959 L150.833306,344.302326 L116.247154,344.302326 L116.247154,344.202959 C111.595786,343.53411 108.004584,339.560403 107.729589,334.701254 L107.712644,334.701254 L107.712644,301.498657 L107.805096,301.498657 C108.406435,296.99784 111.864065,293.427503 116.247154,292.797022 Z" id="Combined-Shape-Copy-12" stroke="#0BD291" opacity="0.769345238"></path>
                        <path d="M159.922969,373 L160.249778,373 L160.249778,372 L159.249778,372 L159.249778,372.970611 L159.922969,373 Z M173,386.354613 L173.027742,387.015843 L174,387.015843 L174,386.015843 L173,386.015843 L173,386.354613 Z M173,434.709506 L173,435.709506 L174,435.709506 L174,434.709506 L173,434.709506 Z M159.922796,450 L159.249778,450.029363 L159.249778,451 L160.249778,451 L160.249778,450 L159.922796,450 Z M108.078093,450 L107.751111,450 L107.751111,451 L108.751111,451 L108.751111,450.029363 L108.078093,450 Z M95,434.709506 L94,434.709506 L94,435.709506 L95,435.709506 L95,434.709506 Z M95,386.354648 L95,386.015843 L94,386.015843 L94,387.015843 L94.972263,387.015843 L95,386.354648 Z M108.077807,373 L108.750222,372.970725 L108.750222,372 L107.750222,372 L107.750222,373 L108.077807,373 Z M116.247154,385.797022 L116.247154,385.697674 L150.833306,385.697674 L150.833306,385.797022 C155.216479,386.42751 158.673984,389.997931 159.274634,394.498657 L159.367816,394.498657 L159.367816,427.701254 L159.350871,427.701254 C159.075876,432.560403 155.484673,436.53411 150.833306,437.202959 L150.833306,437.302326 L116.247154,437.302326 L116.247154,437.202959 C111.595786,436.53411 108.004584,432.560403 107.729589,427.701254 L107.712644,427.701254 L107.712644,394.498657 L107.805096,394.498657 C108.406435,389.99784 111.864065,386.427503 116.247154,385.797022 Z" id="Combined-Shape-Copy-11" stroke="#0BD291" opacity="0.361421131"></path>
                        <path d="M159.922969,466 L160.249778,466 L160.249778,465 L159.249778,465 L159.249778,465.970611 L159.922969,466 Z M173,479.354613 L173.027742,480.015843 L174,480.015843 L174,479.015843 L173,479.015843 L173,479.354613 Z M173,527.709506 L173,528.709506 L174,528.709506 L174,527.709506 L173,527.709506 Z M159.922796,543 L159.249778,543.029363 L159.249778,544 L160.249778,544 L160.249778,543 L159.922796,543 Z M108.078093,543 L107.751111,543 L107.751111,544 L108.751111,544 L108.751111,543.029363 L108.078093,543 Z M95,527.709506 L94,527.709506 L94,528.709506 L95,528.709506 L95,527.709506 Z M95,479.354648 L95,479.015843 L94,479.015843 L94,480.015843 L94.972263,480.015843 L95,479.354648 Z M108.077807,466 L108.750222,465.970725 L108.750222,465 L107.750222,465 L107.750222,466 L108.077807,466 Z M116.247154,478.797022 L116.247154,478.697674 L150.833306,478.697674 L150.833306,478.797022 C155.216479,479.42751 158.673984,482.997931 159.274634,487.498657 L159.367816,487.498657 L159.367816,520.701254 L159.350871,520.701254 C159.075876,525.560403 155.484673,529.53411 150.833306,530.202959 L150.833306,530.302326 L116.247154,530.302326 L116.247154,530.202959 C111.595786,529.53411 108.004584,525.560403 107.729589,520.701254 L107.712644,520.701254 L107.712644,487.498657 L107.805096,487.498657 C108.406435,482.99784 111.864065,479.427503 116.247154,478.797022 Z" id="Combined-Shape-Copy-10" stroke="#0BD291" opacity="0.784853981"></path>
                        <path d="M65.9229694,466 L66.2497778,466 L66.2497778,465 L65.2497778,465 L65.2497778,465.970611 L65.9229694,466 Z M79,479.354613 L79.0277417,480.015843 L80,480.015843 L80,479.015843 L79,479.015843 L79,479.354613 Z M79,527.709506 L79,528.709506 L80,528.709506 L80,527.709506 L79,527.709506 Z M65.9227963,543 L65.2497778,543.029363 L65.2497778,544 L66.2497778,544 L66.2497778,543 L65.9227963,543 Z M14.0780926,543 L13.7511111,543 L13.7511111,544 L14.7511111,544 L14.7511111,543.029363 L14.0780926,543 Z M1,527.709506 L0,527.709506 L0,528.709506 L1,528.709506 L1,527.709506 Z M1,479.354648 L1,479.015843 L0,479.015843 L0,480.015843 L0.972262981,480.015843 L1,479.354648 Z M14.0778066,466 L14.7502222,465.970725 L14.7502222,465 L13.7502222,465 L13.7502222,466 L14.0778066,466 Z M22.247154,478.797022 L22.247154,478.697674 L56.8333057,478.697674 L56.8333057,478.797022 C61.2164793,479.42751 64.6739844,482.997931 65.2746339,487.498657 L65.3678161,487.498657 L65.3678161,520.701254 L65.3508707,520.701254 C65.0758758,525.560403 61.4846733,529.53411 56.8333057,530.202959 L56.8333057,530.302326 L22.247154,530.302326 L22.247154,530.202959 C17.5957864,529.53411 14.0045839,525.560403 13.729589,520.701254 L13.7126437,520.701254 L13.7126437,487.498657 L13.8050957,487.498657 C14.4064352,482.99784 17.8640649,479.427503 22.247154,478.797022 Z" id="Combined-Shape-Copy-16" stroke="#0BD291" opacity="0.226167225"></path>
                        <path d="M346.922969,466 L347.249778,466 L347.249778,465 L346.249778,465 L346.249778,465.970611 L346.922969,466 Z M360,479.354613 L360.027742,480.015843 L361,480.015843 L361,479.015843 L360,479.015843 L360,479.354613 Z M360,527.709506 L360,528.709506 L361,528.709506 L361,527.709506 L360,527.709506 Z M346.922796,543 L346.249778,543.029363 L346.249778,544 L347.249778,544 L347.249778,543 L346.922796,543 Z M295.078093,543 L294.751111,543 L294.751111,544 L295.751111,544 L295.751111,543.029363 L295.078093,543 Z M282,527.709506 L281,527.709506 L281,528.709506 L282,528.709506 L282,527.709506 Z M282,479.354648 L282,479.015843 L281,479.015843 L281,480.015843 L281.972263,480.015843 L282,479.354648 Z M295.077807,466 L295.750222,465.970725 L295.750222,465 L294.750222,465 L294.750222,466 L295.077807,466 Z M303.247154,478.797022 L303.247154,478.697674 L337.833306,478.697674 L337.833306,478.797022 C342.216479,479.42751 345.673984,482.997931 346.274634,487.498657 L346.367816,487.498657 L346.367816,520.701254 L346.350871,520.701254 C346.075876,525.560403 342.484673,529.53411 337.833306,530.202959 L337.833306,530.302326 L303.247154,530.302326 L303.247154,530.202959 C298.595786,529.53411 295.004584,525.560403 294.729589,520.701254 L294.712644,520.701254 L294.712644,487.498657 L294.805096,487.498657 C295.406435,482.99784 298.864065,479.427503 303.247154,478.797022 Z" id="Combined-Shape-Copy-9" stroke="#20E1A2"></path>
                        <g id="Group-9-Copy" transform="translate(375.000000, 465.000000)" stroke="#0BD291">
                            <path d="M66.001501,1 L66.3286466,1 L66.3286466,0 L65.3286466,0 L65.3286466,0.97066096 L66.001501,1 Z M79.0952381,14.3546384 L79.1230118,15.0158427 L80.0952381,15.0158427 L80.0952381,14.0158427 L79.0952381,14.0158427 L79.0952381,14.3546384 Z M79.0952381,62.7095056 L79.0952381,63.7095056 L80.0952381,63.7095056 L80.0952381,62.7095056 L79.0952381,62.7095056 Z M66.0013277,78 L65.3286466,78.0293136 L65.3286466,79 L66.3286466,79 L66.3286466,78 L66.0013277,78 Z M14.0948004,78 L13.7674815,78 L13.7674815,79 L14.7674815,79 L14.7674815,78.0293136 L14.0948004,78 Z M1,62.7095056 L0,62.7095056 L0,63.7095056 L1,63.7095056 L1,62.7095056 Z M1,14.3546731 L1,14.0158427 L0,14.0158427 L0,15.0158427 L0.972231008,15.0158427 L1,14.3546731 Z M14.0945142,1 L14.7665915,0.970774914 L14.7665915,0 L13.7665915,0 L13.7665915,1 L14.0945142,1 Z M22.2748292,13.7968772 L22.2748292,13.6976744 L56.899774,13.6976744 L56.899774,13.7968766 C61.2879445,14.4269449 64.7498072,17.9974205 65.3511628,22.4986568 L65.4444444,22.4986568 L65.4444444,55.7012539 L65.4274813,55.7012539 C65.1521668,60.5609451 61.5564193,64.5347031 56.899774,65.203104 L56.899774,65.3023256 L22.2748292,65.3023256 L22.2748292,65.203104 C17.6181839,64.5347031 14.0224363,60.5609451 13.7471219,55.7012539 L13.7301587,55.7012539 L13.7301587,22.4986568 L13.8227092,22.4986568 C14.4247558,17.9973287 17.8867432,14.4269379 22.2748292,13.7968772 Z" id="Combined-Shape" opacity="0.825009301"></path>
                            <path d="M159.906263,1 L160.233408,1 L160.233408,0 L159.233408,0 L159.233408,0.97066096 L159.906263,1 Z M173,14.3546384 L173.027774,15.0158427 L174,15.0158427 L174,14.0158427 L173,14.0158427 L173,14.3546384 Z M173,62.7095056 L173,63.7095056 L174,63.7095056 L174,62.7095056 L173,62.7095056 Z M159.90609,78 L159.233408,78.0293136 L159.233408,79 L160.233408,79 L160.233408,78 L159.90609,78 Z M107.999562,78 L107.672243,78 L107.672243,79 L108.672243,79 L108.672243,78.0293136 L107.999562,78 Z M94.9047619,62.7095056 L93.9047619,62.7095056 L93.9047619,63.7095056 L94.9047619,63.7095056 L94.9047619,62.7095056 Z M94.9047619,14.3546731 L94.9047619,14.0158427 L93.9047619,14.0158427 L93.9047619,15.0158427 L94.8769929,15.0158427 L94.9047619,14.3546731 Z M107.999276,1 L108.671353,0.970774914 L108.671353,0 L107.671353,0 L107.671353,1 L107.999276,1 Z M116.179591,13.7968772 L116.179591,13.6976744 L150.804536,13.6976744 L150.804536,13.7968766 C155.192706,14.4269449 158.654569,17.9974205 159.255925,22.4986568 L159.349206,22.4986568 L159.349206,55.7012539 L159.332243,55.7012539 C159.056929,60.5609451 155.461181,64.5347031 150.804536,65.203104 L150.804536,65.3023256 L116.179591,65.3023256 L116.179591,65.203104 C111.522946,64.5347031 107.927198,60.5609451 107.651884,55.7012539 L107.634921,55.7012539 L107.634921,22.4986568 L107.727471,22.4986568 C108.329518,17.9973287 111.791505,14.4269379 116.179591,13.7968772 Z" id="Combined-Shape-Copy-9"></path>
                        </g>
                        <g id="Group-9-Copy-2" transform="translate(563.000000, 465.000000)" stroke="#20E1A2">
                            <path d="M65.9229694,1 L66.2497778,1 L66.2497778,0 L65.2497778,0 L65.2497778,0.970611314 L65.9229694,1 Z M79,14.3546134 L79.0277417,15.0158427 L80,15.0158427 L80,14.0158427 L79,14.0158427 L79,14.3546134 Z M79,62.7095056 L79,63.7095056 L80,63.7095056 L80,62.7095056 L79,62.7095056 Z M65.9227963,78 L65.2497778,78.0293632 L65.2497778,79 L66.2497778,79 L66.2497778,78 L65.9227963,78 Z M14.0780926,78 L13.7511111,78 L13.7511111,79 L14.7511111,79 L14.7511111,78.0293632 L14.0780926,78 Z M1,62.7095056 L0,62.7095056 L0,63.7095056 L1,63.7095056 L1,62.7095056 Z M1,14.3546482 L1,14.0158427 L0,14.0158427 L0,15.0158427 L0.972262981,15.0158427 L1,14.3546482 Z M14.0778066,1 L14.7502222,0.970725396 L14.7502222,0 L13.7502222,0 L13.7502222,1 L14.0778066,1 Z M22.247154,13.7970225 L22.247154,13.6976744 L56.8333057,13.6976744 L56.8333057,13.7970219 C61.2164793,14.42751 64.6739844,17.9979314 65.2746339,22.4986568 L65.3678161,22.4986568 L65.3678161,55.7012539 L65.3508707,55.7012539 C65.0758758,60.5604029 61.4846733,64.5341098 56.8333057,65.2029589 L56.8333057,65.3023256 L22.247154,65.3023256 L22.247154,65.2029589 C17.5957864,64.5341098 14.0045839,60.5604029 13.729589,55.7012539 L13.7126437,55.7012539 L13.7126437,22.4986568 L13.8050957,22.4986568 C14.4064352,17.9978395 17.8640649,14.4275031 22.247154,13.7970225 Z" id="Combined-Shape"></path>
                        </g>
                    </g>
                </g>
            </g>
        </g>
    </g>
</svg>