<?xml version="1.0" encoding="UTF-8"?>
<svg width="186px" height="187px" viewBox="0 0 186 187" version="1.1" xmlns="http://www.w3.org/2000/svg" xmlns:xlink="http://www.w3.org/1999/xlink">
    <!-- Generator: Sketch 52.5 (67469) - http://www.bohemiancoding.com/sketch -->
    <title>Group 29</title>
    <desc>Created with Sketch.</desc>
    <g id="Page-1" stroke="none" stroke-width="1" fill="none" fill-rule="evenodd">
        <g id="1" transform="translate(-876.000000, -2997.000000)">
            <g id="Group-29" transform="translate(876.000000, 2998.000000)">
                <path d="M117.597287,99.0646966 L50.555759,99.0646966 L50.555759,99.0460449 C50.1184951,99.0591011 49.6812312,99.0646966 49.2420986,99.0646966 C22.3933468,99.0646966 0.627320787,76.8878427 0.627320787,49.5314157 C0.627320787,22.1768539 22.3933468,0 49.2420986,0 C49.6812312,0 50.1203637,0.00559550562 50.555759,0.0186516854 L50.555759,0 L166.178429,0 L132.017653,32.1293933 L49.2103316,32.1293933 C39.7942082,32.1293933 32.1607762,39.9202022 32.1607762,49.5314157 C32.1607762,59.1444944 39.7942082,66.9353034 49.2103316,66.9353034 L121.506501,66.9353034 L121.506501,67.0957079 C146.510896,69.1417978 166.178429,90.4644045 166.178429,116.466719 C166.178429,143.823146 144.412403,166 117.563651,166 C116.23691,166 114.92325,165.94591 113.62267,165.839596 L113.62267,166 L1,166 L37.7899656,133.870607 L117.597287,133.870607 C127.011541,133.870607 134.644973,126.079798 134.644973,116.468584 C134.644973,106.855506 127.011541,99.0646966 117.597287,99.0646966 Z" id="Mask" stroke="#FFFFFF"></path>
                <path d="M125.597287,106.064697 L58.555759,106.064697 L58.555759,106.046045 C58.1184951,106.059101 57.6812312,106.064697 57.2420986,106.064697 C30.3933468,106.064697 8.62732079,83.8878427 8.62732079,56.5314157 C8.62732079,29.1768539 30.3933468,7 57.2420986,7 C57.6812312,7 58.1203637,7.00559551 58.555759,7.01865169 L58.555759,7 L174.178429,7 L140.017653,39.1293933 L57.2103316,39.1293933 C47.7942082,39.1293933 40.1607762,46.9202022 40.1607762,56.5314157 C40.1607762,66.1444944 47.7942082,73.9353034 57.2103316,73.9353034 L129.506501,73.9353034 L129.506501,74.0957079 C154.510896,76.1417978 174.178429,97.4644045 174.178429,123.466719 C174.178429,150.823146 152.412403,173 125.563651,173 C124.23691,173 122.92325,172.94591 121.62267,172.839596 L121.62267,173 L9,173 L45.7899656,140.870607 L125.597287,140.870607 C135.011541,140.870607 142.644973,133.079798 142.644973,123.468584 C142.644973,113.855506 135.011541,106.064697 125.597287,106.064697 Z" id="Mask-Copy" stroke="#11D38F" stroke-linecap="round" stroke-linejoin="round"></path>
                <path d="M129.969966,111.064697 L62.9284382,111.064697 L62.9284382,111.046045 C62.4911743,111.059101 62.0539104,111.064697 61.6147778,111.064697 C34.766026,111.064697 13,88.8878427 13,61.5314157 C13,34.1768539 34.766026,12 61.6147778,12 C62.0539104,12 62.4930429,12.0055955 62.9284382,12.0186517 L62.9284382,12 L178.551108,12 L144.390332,44.1293933 L61.5830108,44.1293933 C52.1668874,44.1293933 44.5334554,51.9202022 44.5334554,61.5314157 C44.5334554,71.1444944 52.1668874,78.9353034 61.5830108,78.9353034 L133.87918,78.9353034 L133.87918,79.0957079 C158.883575,81.1417978 178.551108,102.464404 178.551108,128.466719 C178.551108,155.823146 156.785082,178 129.93633,178 C128.609589,178 127.295929,177.94591 125.995349,177.839596 L125.995349,178 L13.3726792,178 L50.1626448,145.870607 L129.969966,145.870607 C139.384221,145.870607 147.017653,138.079798 147.017653,128.468584 C147.017653,118.855506 139.384221,111.064697 129.969966,111.064697 Z" id="Mask-Copy-2" stroke="#11D38F" opacity="0.311035156" stroke-linecap="round" stroke-linejoin="round"></path>
                <path d="M135.969966,118.064697 L68.9284382,118.064697 L68.9284382,118.046045 C68.4911743,118.059101 68.0539104,118.064697 67.6147778,118.064697 C40.766026,118.064697 19,95.8878427 19,68.5314157 C19,41.1768539 40.766026,19 67.6147778,19 C68.0539104,19 68.4930429,19.0055955 68.9284382,19.0186517 L68.9284382,19 L184.551108,19 L150.390332,51.1293933 L67.5830108,51.1293933 C58.1668874,51.1293933 50.5334554,58.9202022 50.5334554,68.5314157 C50.5334554,78.1444944 58.1668874,85.9353034 67.5830108,85.9353034 L139.87918,85.9353034 L139.87918,86.0957079 C164.883575,88.1417978 184.551108,109.464404 184.551108,135.466719 C184.551108,162.823146 162.785082,185 135.93633,185 C134.609589,185 133.295929,184.94591 131.995349,184.839596 L131.995349,185 L19.3726792,185 L56.1626448,152.870607 L135.969966,152.870607 C145.384221,152.870607 153.017653,145.079798 153.017653,135.468584 C153.017653,125.855506 145.384221,118.064697 135.969966,118.064697 Z" id="Mask-Copy-3" stroke="#11D38F" opacity="0.1" stroke-linecap="round" stroke-linejoin="round"></path>
            </g>
        </g>
    </g>
</svg>