<svg width="186" height="187" xmlns="http://www.w3.org/2000/svg"><g fill="none" fill-rule="evenodd"><path d="M117.597 100.065H50.556v-.019c-.438.013-.875.019-1.314.019C22.393 100.065.627 77.888.627 50.53.627 23.177 22.393 1 49.242 1c.44 0 .878.006 1.314.019V1h115.622l-34.16 32.13H49.21c-9.416 0-17.05 7.79-17.05 17.401 0 9.613 7.634 17.404 17.05 17.404h72.297v.16c25.004 2.047 44.671 23.37 44.671 49.372 0 27.356-21.766 49.533-48.614 49.533-1.327 0-2.64-.054-3.941-.16v.16H1l36.79-32.13h79.807c9.415 0 17.048-7.79 17.048-17.401 0-9.613-7.633-17.404-17.048-17.404z" stroke="#FFF"/><path d="M125.597 107.065H58.556v-.019c-.438.013-.875.019-1.314.019-26.849 0-48.615-22.177-48.615-49.534C8.627 30.177 30.393 8 57.242 8c.44 0 .878.006 1.314.019V8h115.622l-34.16 32.13H57.21c-9.416 0-17.05 7.79-17.05 17.401 0 9.613 7.634 17.404 17.05 17.404h72.297v.16c25.004 2.047 44.671 23.37 44.671 49.372 0 27.356-21.766 49.533-48.614 49.533-1.327 0-2.64-.054-3.941-.16v.16H9l36.79-32.13h79.807c9.415 0 17.048-7.79 17.048-17.401 0-9.613-7.633-17.404-17.048-17.404z" stroke="#11D38F" stroke-linecap="round" stroke-linejoin="round"/><path d="M129.97 112.065H62.928v-.019c-.437.013-.874.019-1.313.019C34.766 112.065 13 89.888 13 62.53 13 35.177 34.766 13 61.615 13c.439 0 .878.006 1.313.019V13h115.623l-34.16 32.13H61.582c-9.416 0-17.05 7.79-17.05 17.401 0 9.613 7.634 17.404 17.05 17.404h72.296v.16c25.005 2.047 44.672 23.37 44.672 49.372 0 27.356-21.766 49.533-48.615 49.533-1.326 0-2.64-.054-3.94-.16v.16H13.372l36.79-32.13h79.807c9.414 0 17.048-7.79 17.048-17.401 0-9.613-7.634-17.404-17.048-17.404z" stroke="#11D38F" opacity=".311" stroke-linecap="round" stroke-linejoin="round"/><path d="M135.97 119.065H68.928v-.019c-.437.013-.874.019-1.313.019C40.766 119.065 19 96.888 19 69.53 19 42.177 40.766 20 67.615 20c.439 0 .878.006 1.313.019V20h115.623l-34.16 32.13H67.582c-9.416 0-17.05 7.79-17.05 17.401 0 9.613 7.634 17.404 17.05 17.404h72.296v.16c25.005 2.047 44.672 23.37 44.672 49.372 0 27.356-21.766 49.533-48.615 49.533-1.326 0-2.64-.054-3.94-.16v.16H19.372l36.79-32.13h79.807c9.414 0 17.048-7.79 17.048-17.401 0-9.613-7.634-17.404-17.048-17.404z" stroke="#11D38F" opacity=".1" stroke-linecap="round" stroke-linejoin="round"/></g></svg>