<svg width="848" height="547" xmlns="http://www.w3.org/2000/svg"><g stroke="#0BD291" stroke-width="2" fill="none" fill-rule="evenodd" stroke-linecap="square"><path d="M475.994 119.79h-26.343c-.172-.002-.344 0-.516 0-10.55 0-19.103-8.683-19.103-19.395 0-10.711 8.553-19.395 19.103-19.395.172 0 .345.002.516.007L495.083 81 481.66 93.58h-32.538c-3.7 0-6.699 3.051-6.699 6.815 0 3.764 3 6.815 6.7 6.815h28.407c.021 0 .021.02 0 .062 9.825.802 17.553 9.15 17.553 19.332 0 10.712-8.552 19.396-19.102 19.396-.521 0-1.038-.021-1.549-.063V146H429l14.456-12.58h32.538c3.7 0 6.699-3.051 6.699-6.815 0-3.764-3-6.815-6.699-6.815z" opacity=".503"/><path d="M475.994 39.79h-26.343c-.172-.002-.344 0-.516 0-10.55 0-19.103-8.683-19.103-19.395C430.032 9.684 438.585 1 449.135 1c.172 0 .345.002.516.007L495.083 1 481.66 13.58h-32.538c-3.7 0-6.699 3.051-6.699 6.815 0 3.764 3 6.815 6.7 6.815h28.407c.021 0 .021.02 0 .062 9.825.802 17.553 9.15 17.553 19.332 0 10.712-8.552 19.396-19.102 19.396-.521 0-1.038-.021-1.549-.063V66H429l14.456-12.58h32.538c3.7 0 6.699-3.051 6.699-6.815 0-3.764-3-6.815-6.699-6.815z" opacity=".143"/><path d="M475.994 199.79h-26.343c-.172-.002-.344 0-.516 0-10.55 0-19.103-8.683-19.103-19.395 0-10.711 8.553-19.395 19.103-19.395.172 0 .345.002.516.007l45.432-.007-13.423 12.58h-32.538c-3.7 0-6.699 3.051-6.699 6.815 0 3.764 3 6.815 6.7 6.815h28.407c.021 0 .021.02 0 .062 9.825.802 17.553 9.15 17.553 19.332 0 10.712-8.552 19.396-19.102 19.396-.521 0-1.038-.021-1.549-.063V226H429l14.456-12.58h32.538c3.7 0 6.699-3.051 6.699-6.815 0-3.764-3-6.815-6.699-6.815z" opacity=".503"/><path d="M475.994 279.79h-26.343c-.172-.002-.344 0-.516 0-10.55 0-19.103-8.683-19.103-19.395 0-10.711 8.553-19.395 19.103-19.395.172 0 .345.002.516.007l45.432-.007-13.423 12.58h-32.538c-3.7 0-6.699 3.051-6.699 6.815 0 3.764 3 6.815 6.7 6.815h28.407c.021 0 .021.02 0 .062 9.825.802 17.553 9.15 17.553 19.332 0 10.712-8.552 19.396-19.102 19.396-.521 0-1.038-.021-1.549-.063V306H429l14.456-12.58h32.538c3.7 0 6.699-3.051 6.699-6.815 0-3.764-3-6.815-6.699-6.815z" opacity=".105"/><path d="M475.994 359.79h-26.343c-.172-.002-.344 0-.516 0-10.55 0-19.103-8.683-19.103-19.395 0-10.711 8.553-19.395 19.103-19.395.172 0 .345.002.516.007l45.432-.007-13.423 12.58h-32.538c-3.7 0-6.699 3.051-6.699 6.815 0 3.764 3 6.815 6.7 6.815h28.407c.021 0 .021.02 0 .062 9.825.802 17.553 9.15 17.553 19.332 0 10.712-8.552 19.396-19.102 19.396-.521 0-1.038-.021-1.549-.063V386H429l14.456-12.58h32.538c3.7 0 6.699-3.051 6.699-6.815 0-3.764-3-6.815-6.699-6.815zm0 80h-26.343c-.172-.002-.344 0-.516 0-10.55 0-19.103-8.683-19.103-19.395 0-10.711 8.553-19.395 19.103-19.395.172 0 .345.002.516.007l45.432-.007-13.423 12.58h-32.538c-3.7 0-6.699 3.051-6.699 6.815 0 3.764 3 6.815 6.7 6.815h28.407c.021 0 .021.02 0 .062 9.825.802 17.553 9.15 17.553 19.332 0 10.712-8.552 19.396-19.102 19.396-.521 0-1.038-.021-1.549-.063V466H429l14.456-12.58h32.538c3.7 0 6.699-3.051 6.699-6.815 0-3.764-3-6.815-6.699-6.815zm0 80h-26.343c-.172-.002-.344 0-.516 0-10.55 0-19.103-8.683-19.103-19.395 0-10.711 8.553-19.395 19.103-19.395.172 0 .345.002.516.007l45.432-.007-13.423 12.58h-32.538c-3.7 0-6.699 3.051-6.699 6.815 0 3.764 3 6.815 6.7 6.815h28.407c.021 0 .021.02 0 .062 9.825.802 17.553 9.15 17.553 19.332 0 10.712-8.552 19.396-19.102 19.396-.521 0-1.038-.021-1.549-.063V546H429l14.456-12.58h32.538c3.7 0 6.699-3.051 6.699-6.815 0-3.764-3-6.815-6.699-6.815z"/><path d="M545.994 119.79h-26.343c-.172-.002-.344 0-.516 0-10.55 0-19.103-8.683-19.103-19.395 0-10.711 8.553-19.395 19.103-19.395.172 0 .345.002.516.007L565.083 81 551.66 93.58h-32.538c-3.7 0-6.699 3.051-6.699 6.815 0 3.764 3 6.815 6.7 6.815h28.407c.021 0 .021.02 0 .062 9.825.802 17.553 9.15 17.553 19.332 0 10.712-8.552 19.396-19.102 19.396-.521 0-1.038-.021-1.549-.063V146H499l14.456-12.58h32.538c3.7 0 6.699-3.051 6.699-6.815 0-3.764-3-6.815-6.699-6.815z" opacity=".503"/><path d="M545.994 39.79h-26.343c-.172-.002-.344 0-.516 0-10.55 0-19.103-8.683-19.103-19.395C500.032 9.684 508.585 1 519.135 1c.172 0 .345.002.516.007L565.083 1 551.66 13.58h-32.538c-3.7 0-6.699 3.051-6.699 6.815 0 3.764 3 6.815 6.7 6.815h28.407c.021 0 .021.02 0 .062 9.825.802 17.553 9.15 17.553 19.332 0 10.712-8.552 19.396-19.102 19.396-.521 0-1.038-.021-1.549-.063V66H499l14.456-12.58h32.538c3.7 0 6.699-3.051 6.699-6.815 0-3.764-3-6.815-6.699-6.815z" opacity=".143"/><path d="M545.994 199.79h-26.343c-.172-.002-.344 0-.516 0-10.55 0-19.103-8.683-19.103-19.395 0-10.711 8.553-19.395 19.103-19.395.172 0 .345.002.516.007l45.432-.007-13.423 12.58h-32.538c-3.7 0-6.699 3.051-6.699 6.815 0 3.764 3 6.815 6.7 6.815h28.407c.021 0 .021.02 0 .062 9.825.802 17.553 9.15 17.553 19.332 0 10.712-8.552 19.396-19.102 19.396-.521 0-1.038-.021-1.549-.063V226H499l14.456-12.58h32.538c3.7 0 6.699-3.051 6.699-6.815 0-3.764-3-6.815-6.699-6.815zm0 80h-26.343c-.172-.002-.344 0-.516 0-10.55 0-19.103-8.683-19.103-19.395 0-10.711 8.553-19.395 19.103-19.395.172 0 .345.002.516.007l45.432-.007-13.423 12.58h-32.538c-3.7 0-6.699 3.051-6.699 6.815 0 3.764 3 6.815 6.7 6.815h28.407c.021 0 .021.02 0 .062 9.825.802 17.553 9.15 17.553 19.332 0 10.712-8.552 19.396-19.102 19.396-.521 0-1.038-.021-1.549-.063V306H499l14.456-12.58h32.538c3.7 0 6.699-3.051 6.699-6.815 0-3.764-3-6.815-6.699-6.815z" opacity=".503"/><path d="M545.994 359.79h-26.343c-.172-.002-.344 0-.516 0-10.55 0-19.103-8.683-19.103-19.395 0-10.711 8.553-19.395 19.103-19.395.172 0 .345.002.516.007l45.432-.007-13.423 12.58h-32.538c-3.7 0-6.699 3.051-6.699 6.815 0 3.764 3 6.815 6.7 6.815h28.407c.021 0 .021.02 0 .062 9.825.802 17.553 9.15 17.553 19.332 0 10.712-8.552 19.396-19.102 19.396-.521 0-1.038-.021-1.549-.063V386H499l14.456-12.58h32.538c3.7 0 6.699-3.051 6.699-6.815 0-3.764-3-6.815-6.699-6.815zm0 80h-26.343c-.172-.002-.344 0-.516 0-10.55 0-19.103-8.683-19.103-19.395 0-10.711 8.553-19.395 19.103-19.395.172 0 .345.002.516.007l45.432-.007-13.423 12.58h-32.538c-3.7 0-6.699 3.051-6.699 6.815 0 3.764 3 6.815 6.7 6.815h28.407c.021 0 .021.02 0 .062 9.825.802 17.553 9.15 17.553 19.332 0 10.712-8.552 19.396-19.102 19.396-.521 0-1.038-.021-1.549-.063V466H499l14.456-12.58h32.538c3.7 0 6.699-3.051 6.699-6.815 0-3.764-3-6.815-6.699-6.815zm0 80h-26.343c-.172-.002-.344 0-.516 0-10.55 0-19.103-8.683-19.103-19.395 0-10.711 8.553-19.395 19.103-19.395.172 0 .345.002.516.007l45.432-.007-13.423 12.58h-32.538c-3.7 0-6.699 3.051-6.699 6.815 0 3.764 3 6.815 6.7 6.815h28.407c.021 0 .021.02 0 .062 9.825.802 17.553 9.15 17.553 19.332 0 10.712-8.552 19.396-19.102 19.396-.521 0-1.038-.021-1.549-.063V546H499l14.456-12.58h32.538c3.7 0 6.699-3.051 6.699-6.815 0-3.764-3-6.815-6.699-6.815z"/><path d="M615.994 119.79h-26.343c-.172-.002-.344 0-.516 0-10.55 0-19.103-8.683-19.103-19.395 0-10.711 8.553-19.395 19.103-19.395.172 0 .345.002.516.007L635.083 81 621.66 93.58h-32.538c-3.7 0-6.699 3.051-6.699 6.815 0 3.764 3 6.815 6.7 6.815h28.407c.021 0 .021.02 0 .062 9.825.802 17.553 9.15 17.553 19.332 0 10.712-8.552 19.396-19.102 19.396-.521 0-1.038-.021-1.549-.063V146H569l14.456-12.58h32.538c3.7 0 6.699-3.051 6.699-6.815 0-3.764-3-6.815-6.699-6.815z" opacity=".647"/><path d="M615.994 39.79h-26.343c-.172-.002-.344 0-.516 0-10.55 0-19.103-8.683-19.103-19.395C570.032 9.684 578.585 1 589.135 1c.172 0 .345.002.516.007L635.083 1 621.66 13.58h-32.538c-3.7 0-6.699 3.051-6.699 6.815 0 3.764 3 6.815 6.7 6.815h28.407c.021 0 .021.02 0 .062 9.825.802 17.553 9.15 17.553 19.332 0 10.712-8.552 19.396-19.102 19.396-.521 0-1.038-.021-1.549-.063V66H569l14.456-12.58h32.538c3.7 0 6.699-3.051 6.699-6.815 0-3.764-3-6.815-6.699-6.815z" opacity=".143"/><path d="M615.994 199.79h-26.343c-.172-.002-.344 0-.516 0-10.55 0-19.103-8.683-19.103-19.395 0-10.711 8.553-19.395 19.103-19.395.172 0 .345.002.516.007l45.432-.007-13.423 12.58h-32.538c-3.7 0-6.699 3.051-6.699 6.815 0 3.764 3 6.815 6.7 6.815h28.407c.021 0 .021.02 0 .062 9.825.802 17.553 9.15 17.553 19.332 0 10.712-8.552 19.396-19.102 19.396-.521 0-1.038-.021-1.549-.063V226H569l14.456-12.58h32.538c3.7 0 6.699-3.051 6.699-6.815 0-3.764-3-6.815-6.699-6.815z" opacity=".384"/><path d="M615.994 279.79h-26.343c-.172-.002-.344 0-.516 0-10.55 0-19.103-8.683-19.103-19.395 0-10.711 8.553-19.395 19.103-19.395.172 0 .345.002.516.007l45.432-.007-13.423 12.58h-32.538c-3.7 0-6.699 3.051-6.699 6.815 0 3.764 3 6.815 6.7 6.815h28.407c.021 0 .021.02 0 .062 9.825.802 17.553 9.15 17.553 19.332 0 10.712-8.552 19.396-19.102 19.396-.521 0-1.038-.021-1.549-.063V306H569l14.456-12.58h32.538c3.7 0 6.699-3.051 6.699-6.815 0-3.764-3-6.815-6.699-6.815z" opacity=".647"/><path d="M615.994 359.79h-26.343c-.172-.002-.344 0-.516 0-10.55 0-19.103-8.683-19.103-19.395 0-10.711 8.553-19.395 19.103-19.395.172 0 .345.002.516.007l45.432-.007-13.423 12.58h-32.538c-3.7 0-6.699 3.051-6.699 6.815 0 3.764 3 6.815 6.7 6.815h28.407c.021 0 .021.02 0 .062 9.825.802 17.553 9.15 17.553 19.332 0 10.712-8.552 19.396-19.102 19.396-.521 0-1.038-.021-1.549-.063V386H569l14.456-12.58h32.538c3.7 0 6.699-3.051 6.699-6.815 0-3.764-3-6.815-6.699-6.815zm0 80h-26.343c-.172-.002-.344 0-.516 0-10.55 0-19.103-8.683-19.103-19.395 0-10.711 8.553-19.395 19.103-19.395.172 0 .345.002.516.007l45.432-.007-13.423 12.58h-32.538c-3.7 0-6.699 3.051-6.699 6.815 0 3.764 3 6.815 6.7 6.815h28.407c.021 0 .021.02 0 .062 9.825.802 17.553 9.15 17.553 19.332 0 10.712-8.552 19.396-19.102 19.396-.521 0-1.038-.021-1.549-.063V466H569l14.456-12.58h32.538c3.7 0 6.699-3.051 6.699-6.815 0-3.764-3-6.815-6.699-6.815zm0 80h-26.343c-.172-.002-.344 0-.516 0-10.55 0-19.103-8.683-19.103-19.395 0-10.711 8.553-19.395 19.103-19.395.172 0 .345.002.516.007l45.432-.007-13.423 12.58h-32.538c-3.7 0-6.699 3.051-6.699 6.815 0 3.764 3 6.815 6.7 6.815h28.407c.021 0 .021.02 0 .062 9.825.802 17.553 9.15 17.553 19.332 0 10.712-8.552 19.396-19.102 19.396-.521 0-1.038-.021-1.549-.063V546H569l14.456-12.58h32.538c3.7 0 6.699-3.051 6.699-6.815 0-3.764-3-6.815-6.699-6.815z"/><path d="M685.994 119.79h-26.343c-.172-.002-.344 0-.516 0-10.55 0-19.103-8.683-19.103-19.395 0-10.711 8.553-19.395 19.103-19.395.172 0 .345.002.516.007L705.083 81 691.66 93.58h-32.538c-3.7 0-6.699 3.051-6.699 6.815 0 3.764 3 6.815 6.7 6.815h28.407c.021 0 .021.02 0 .062 9.825.802 17.553 9.15 17.553 19.332 0 10.712-8.552 19.396-19.102 19.396-.521 0-1.038-.021-1.549-.063V146H639l14.456-12.58h32.538c3.7 0 6.699-3.051 6.699-6.815 0-3.764-3-6.815-6.699-6.815z" opacity=".647"/><path d="M685.994 39.79h-26.343c-.172-.002-.344 0-.516 0-10.55 0-19.103-8.683-19.103-19.395C640.032 9.684 648.585 1 659.135 1c.172 0 .345.002.516.007L705.083 1 691.66 13.58h-32.538c-3.7 0-6.699 3.051-6.699 6.815 0 3.764 3 6.815 6.7 6.815h28.407c.021 0 .021.02 0 .062 9.825.802 17.553 9.15 17.553 19.332 0 10.712-8.552 19.396-19.102 19.396-.521 0-1.038-.021-1.549-.063V66H639l14.456-12.58h32.538c3.7 0 6.699-3.051 6.699-6.815 0-3.764-3-6.815-6.699-6.815z" opacity=".143"/><path d="M685.994 199.79h-26.343c-.172-.002-.344 0-.516 0-10.55 0-19.103-8.683-19.103-19.395 0-10.711 8.553-19.395 19.103-19.395.172 0 .345.002.516.007l45.432-.007-13.423 12.58h-32.538c-3.7 0-6.699 3.051-6.699 6.815 0 3.764 3 6.815 6.7 6.815h28.407c.021 0 .021.02 0 .062 9.825.802 17.553 9.15 17.553 19.332 0 10.712-8.552 19.396-19.102 19.396-.521 0-1.038-.021-1.549-.063V226H639l14.456-12.58h32.538c3.7 0 6.699-3.051 6.699-6.815 0-3.764-3-6.815-6.699-6.815z" opacity=".384"/><path d="M685.994 279.79h-26.343c-.172-.002-.344 0-.516 0-10.55 0-19.103-8.683-19.103-19.395 0-10.711 8.553-19.395 19.103-19.395.172 0 .345.002.516.007l45.432-.007-13.423 12.58h-32.538c-3.7 0-6.699 3.051-6.699 6.815 0 3.764 3 6.815 6.7 6.815h28.407c.021 0 .021.02 0 .062 9.825.802 17.553 9.15 17.553 19.332 0 10.712-8.552 19.396-19.102 19.396-.521 0-1.038-.021-1.549-.063V306H639l14.456-12.58h32.538c3.7 0 6.699-3.051 6.699-6.815 0-3.764-3-6.815-6.699-6.815zm0 80h-26.343c-.172-.002-.344 0-.516 0-10.55 0-19.103-8.683-19.103-19.395 0-10.711 8.553-19.395 19.103-19.395.172 0 .345.002.516.007l45.432-.007-13.423 12.58h-32.538c-3.7 0-6.699 3.051-6.699 6.815 0 3.764 3 6.815 6.7 6.815h28.407c.021 0 .021.02 0 .062 9.825.802 17.553 9.15 17.553 19.332 0 10.712-8.552 19.396-19.102 19.396-.521 0-1.038-.021-1.549-.063V386H639l14.456-12.58h32.538c3.7 0 6.699-3.051 6.699-6.815 0-3.764-3-6.815-6.699-6.815zm0 80h-26.343c-.172-.002-.344 0-.516 0-10.55 0-19.103-8.683-19.103-19.395 0-10.711 8.553-19.395 19.103-19.395.172 0 .345.002.516.007l45.432-.007-13.423 12.58h-32.538c-3.7 0-6.699 3.051-6.699 6.815 0 3.764 3 6.815 6.7 6.815h28.407c.021 0 .021.02 0 .062 9.825.802 17.553 9.15 17.553 19.332 0 10.712-8.552 19.396-19.102 19.396-.521 0-1.038-.021-1.549-.063V466H639l14.456-12.58h32.538c3.7 0 6.699-3.051 6.699-6.815 0-3.764-3-6.815-6.699-6.815z" opacity=".647"/><path d="M685.994 519.79h-26.343c-.172-.002-.344 0-.516 0-10.55 0-19.103-8.683-19.103-19.395 0-10.711 8.553-19.395 19.103-19.395.172 0 .345.002.516.007l45.432-.007-13.423 12.58h-32.538c-3.7 0-6.699 3.051-6.699 6.815 0 3.764 3 6.815 6.7 6.815h28.407c.021 0 .021.02 0 .062 9.825.802 17.553 9.15 17.553 19.332 0 10.712-8.552 19.396-19.102 19.396-.521 0-1.038-.021-1.549-.063V546H639l14.456-12.58h32.538c3.7 0 6.699-3.051 6.699-6.815 0-3.764-3-6.815-6.699-6.815zm70-400h-26.343c-.172-.002-.344 0-.516 0-10.55 0-19.103-8.683-19.103-19.395 0-10.711 8.553-19.395 19.103-19.395.172 0 .345.002.516.007L775.083 81 761.66 93.58h-32.538c-3.7 0-6.699 3.051-6.699 6.815 0 3.764 3 6.815 6.7 6.815h28.407c.021 0 .021.02 0 .062 9.825.802 17.553 9.15 17.553 19.332 0 10.712-8.552 19.396-19.102 19.396-.521 0-1.038-.021-1.549-.063V146H709l14.456-12.58h32.538c3.7 0 6.699-3.051 6.699-6.815 0-3.764-3-6.815-6.699-6.815z"/><path d="M755.994 39.79h-26.343c-.172-.002-.344 0-.516 0-10.55 0-19.103-8.683-19.103-19.395C710.032 9.684 718.585 1 729.135 1c.172 0 .345.002.516.007L775.083 1 761.66 13.58h-32.538c-3.7 0-6.699 3.051-6.699 6.815 0 3.764 3 6.815 6.7 6.815h28.407c.021 0 .021.02 0 .062 9.825.802 17.553 9.15 17.553 19.332 0 10.712-8.552 19.396-19.102 19.396-.521 0-1.038-.021-1.549-.063V66H709l14.456-12.58h32.538c3.7 0 6.699-3.051 6.699-6.815 0-3.764-3-6.815-6.699-6.815z" opacity=".647"/><path d="M755.994 199.79h-26.343c-.172-.002-.344 0-.516 0-10.55 0-19.103-8.683-19.103-19.395 0-10.711 8.553-19.395 19.103-19.395.172 0 .345.002.516.007l45.432-.007-13.423 12.58h-32.538c-3.7 0-6.699 3.051-6.699 6.815 0 3.764 3 6.815 6.7 6.815h28.407c.021 0 .021.02 0 .062 9.825.802 17.553 9.15 17.553 19.332 0 10.712-8.552 19.396-19.102 19.396-.521 0-1.038-.021-1.549-.063V226H709l14.456-12.58h32.538c3.7 0 6.699-3.051 6.699-6.815 0-3.764-3-6.815-6.699-6.815zm0 80h-26.343c-.172-.002-.344 0-.516 0-10.55 0-19.103-8.683-19.103-19.395 0-10.711 8.553-19.395 19.103-19.395.172 0 .345.002.516.007l45.432-.007-13.423 12.58h-32.538c-3.7 0-6.699 3.051-6.699 6.815 0 3.764 3 6.815 6.7 6.815h28.407c.021 0 .021.02 0 .062 9.825.802 17.553 9.15 17.553 19.332 0 10.712-8.552 19.396-19.102 19.396-.521 0-1.038-.021-1.549-.063V306H709l14.456-12.58h32.538c3.7 0 6.699-3.051 6.699-6.815 0-3.764-3-6.815-6.699-6.815z" opacity=".384"/><path d="M755.994 359.79h-26.343c-.172-.002-.344 0-.516 0-10.55 0-19.103-8.683-19.103-19.395 0-10.711 8.553-19.395 19.103-19.395.172 0 .345.002.516.007l45.432-.007-13.423 12.58h-32.538c-3.7 0-6.699 3.051-6.699 6.815 0 3.764 3 6.815 6.7 6.815h28.407c.021 0 .021.02 0 .062 9.825.802 17.553 9.15 17.553 19.332 0 10.712-8.552 19.396-19.102 19.396-.521 0-1.038-.021-1.549-.063V386H709l14.456-12.58h32.538c3.7 0 6.699-3.051 6.699-6.815 0-3.764-3-6.815-6.699-6.815z" opacity=".647"/><path d="M755.994 439.79h-26.343c-.172-.002-.344 0-.516 0-10.55 0-19.103-8.683-19.103-19.395 0-10.711 8.553-19.395 19.103-19.395.172 0 .345.002.516.007l45.432-.007-13.423 12.58h-32.538c-3.7 0-6.699 3.051-6.699 6.815 0 3.764 3 6.815 6.7 6.815h28.407c.021 0 .021.02 0 .062 9.825.802 17.553 9.15 17.553 19.332 0 10.712-8.552 19.396-19.102 19.396-.521 0-1.038-.021-1.549-.063V466H709l14.456-12.58h32.538c3.7 0 6.699-3.051 6.699-6.815 0-3.764-3-6.815-6.699-6.815z" opacity=".143"/><path d="M755.994 519.79h-26.343c-.172-.002-.344 0-.516 0-10.55 0-19.103-8.683-19.103-19.395 0-10.711 8.553-19.395 19.103-19.395.172 0 .345.002.516.007l45.432-.007-13.423 12.58h-32.538c-3.7 0-6.699 3.051-6.699 6.815 0 3.764 3 6.815 6.7 6.815h28.407c.021 0 .021.02 0 .062 9.825.802 17.553 9.15 17.553 19.332 0 10.712-8.552 19.396-19.102 19.396-.521 0-1.038-.021-1.549-.063V546H709l14.456-12.58h32.538c3.7 0 6.699-3.051 6.699-6.815 0-3.764-3-6.815-6.699-6.815z"/><path d="M825.994 119.79h-26.343c-.172-.002-.344 0-.516 0-10.55 0-19.103-8.683-19.103-19.395 0-10.711 8.553-19.395 19.103-19.395.172 0 .345.002.516.007L845.083 81 831.66 93.58h-32.538c-3.7 0-6.699 3.051-6.699 6.815 0 3.764 3 6.815 6.7 6.815h28.407c.021 0 .021.02 0 .062 9.825.802 17.553 9.15 17.553 19.332 0 10.712-8.552 19.396-19.102 19.396-.521 0-1.038-.021-1.549-.063V146H779l14.456-12.58h32.538c3.7 0 6.699-3.051 6.699-6.815 0-3.764-3-6.815-6.699-6.815zm0-80h-26.343c-.172-.002-.344 0-.516 0-10.55 0-19.103-8.683-19.103-19.395C780.032 9.684 788.585 1 799.135 1c.172 0 .345.002.516.007L845.083 1 831.66 13.58h-32.538c-3.7 0-6.699 3.051-6.699 6.815 0 3.764 3 6.815 6.7 6.815h28.407c.021 0 .021.02 0 .062 9.825.802 17.553 9.15 17.553 19.332 0 10.712-8.552 19.396-19.102 19.396-.521 0-1.038-.021-1.549-.063V66H779l14.456-12.58h32.538c3.7 0 6.699-3.051 6.699-6.815 0-3.764-3-6.815-6.699-6.815z" opacity=".143"/><path d="M825.994 199.79h-26.343c-.172-.002-.344 0-.516 0-10.55 0-19.103-8.683-19.103-19.395 0-10.711 8.553-19.395 19.103-19.395.172 0 .345.002.516.007l45.432-.007-13.423 12.58h-32.538c-3.7 0-6.699 3.051-6.699 6.815 0 3.764 3 6.815 6.7 6.815h28.407c.021 0 .021.02 0 .062 9.825.802 17.553 9.15 17.553 19.332 0 10.712-8.552 19.396-19.102 19.396-.521 0-1.038-.021-1.549-.063V226H779l14.456-12.58h32.538c3.7 0 6.699-3.051 6.699-6.815 0-3.764-3-6.815-6.699-6.815zm0 80h-26.343c-.172-.002-.344 0-.516 0-10.55 0-19.103-8.683-19.103-19.395 0-10.711 8.553-19.395 19.103-19.395.172 0 .345.002.516.007l45.432-.007-13.423 12.58h-32.538c-3.7 0-6.699 3.051-6.699 6.815 0 3.764 3 6.815 6.7 6.815h28.407c.021 0 .021.02 0 .062 9.825.802 17.553 9.15 17.553 19.332 0 10.712-8.552 19.396-19.102 19.396-.521 0-1.038-.021-1.549-.063V306H779l14.456-12.58h32.538c3.7 0 6.699-3.051 6.699-6.815 0-3.764-3-6.815-6.699-6.815z" opacity=".647"/><path d="M825.994 359.79h-26.343c-.172-.002-.344 0-.516 0-10.55 0-19.103-8.683-19.103-19.395 0-10.711 8.553-19.395 19.103-19.395.172 0 .345.002.516.007l45.432-.007-13.423 12.58h-32.538c-3.7 0-6.699 3.051-6.699 6.815 0 3.764 3 6.815 6.7 6.815h28.407c.021 0 .021.02 0 .062 9.825.802 17.553 9.15 17.553 19.332 0 10.712-8.552 19.396-19.102 19.396-.521 0-1.038-.021-1.549-.063V386H779l14.456-12.58h32.538c3.7 0 6.699-3.051 6.699-6.815 0-3.764-3-6.815-6.699-6.815z"/><path d="M825.994 439.79h-26.343c-.172-.002-.344 0-.516 0-10.55 0-19.103-8.683-19.103-19.395 0-10.711 8.553-19.395 19.103-19.395.172 0 .345.002.516.007l45.432-.007-13.423 12.58h-32.538c-3.7 0-6.699 3.051-6.699 6.815 0 3.764 3 6.815 6.7 6.815h28.407c.021 0 .021.02 0 .062 9.825.802 17.553 9.15 17.553 19.332 0 10.712-8.552 19.396-19.102 19.396-.521 0-1.038-.021-1.549-.063V466H779l14.456-12.58h32.538c3.7 0 6.699-3.051 6.699-6.815 0-3.764-3-6.815-6.699-6.815z" opacity=".143"/><path d="M825.994 519.79h-26.343c-.172-.002-.344 0-.516 0-10.55 0-19.103-8.683-19.103-19.395 0-10.711 8.553-19.395 19.103-19.395.172 0 .345.002.516.007l45.432-.007-13.423 12.58h-32.538c-3.7 0-6.699 3.051-6.699 6.815 0 3.764 3 6.815 6.7 6.815h28.407c.021 0 .021.02 0 .062 9.825.802 17.553 9.15 17.553 19.332 0 10.712-8.552 19.396-19.102 19.396-.521 0-1.038-.021-1.549-.063V546H779l14.456-12.58h32.538c3.7 0 6.699-3.051 6.699-6.815 0-3.764-3-6.815-6.699-6.815z"/><path d="M49.994 119.79H23.651c-.172-.002-.344 0-.516 0-10.55 0-19.103-8.683-19.103-19.395C4.032 89.684 12.585 81 23.135 81c.172 0 .345.002.516.007L69.083 81 55.66 93.58H23.122c-3.7 0-6.699 3.051-6.699 6.815 0 3.764 3 6.815 6.7 6.815H51.53c.021 0 .021.02 0 .062 9.825.802 17.553 9.15 17.553 19.332 0 10.712-8.552 19.396-19.102 19.396-.521 0-1.038-.021-1.549-.063V146H3l14.456-12.58h32.538c3.7 0 6.699-3.051 6.699-6.815 0-3.764-3-6.815-6.699-6.815zm0-80H23.651c-.172-.002-.344 0-.516 0-10.55 0-19.103-8.683-19.103-19.395C4.032 9.684 12.585 1 23.135 1c.172 0 .345.002.516.007L69.083 1 55.66 13.58H23.122c-3.7 0-6.699 3.051-6.699 6.815 0 3.764 3 6.815 6.7 6.815H51.53c.021 0 .021.02 0 .062 9.825.802 17.553 9.15 17.553 19.332C69.083 57.316 60.531 66 49.981 66c-.521 0-1.038-.021-1.549-.063V66H3l14.456-12.58h32.538c3.7 0 6.699-3.051 6.699-6.815 0-3.764-3-6.815-6.699-6.815zm0 160H23.651c-.172-.002-.344 0-.516 0-10.55 0-19.103-8.683-19.103-19.395 0-10.711 8.553-19.395 19.103-19.395.172 0 .345.002.516.007L69.083 161 55.66 173.58H23.122c-3.7 0-6.699 3.051-6.699 6.815 0 3.764 3 6.815 6.7 6.815H51.53c.021 0 .021.02 0 .062 9.825.802 17.553 9.15 17.553 19.332 0 10.712-8.552 19.396-19.102 19.396-.521 0-1.038-.021-1.549-.063V226H3l14.456-12.58h32.538c3.7 0 6.699-3.051 6.699-6.815 0-3.764-3-6.815-6.699-6.815z" opacity=".105"/><path d="M55.994 279.79H29.651c-.172-.002-.344 0-.516 0-10.55 0-19.103-8.683-19.103-19.395 0-10.711 8.553-19.395 19.103-19.395.172 0 .345.002.516.007L75.083 241 61.66 253.58H29.122c-3.7 0-6.699 3.051-6.699 6.815 0 3.764 3 6.815 6.7 6.815H57.53c.021 0 .021.02 0 .062 9.825.802 17.553 9.15 17.553 19.332 0 10.712-8.552 19.396-19.102 19.396-.521 0-1.038-.021-1.549-.063V306H9l14.456-12.58h32.538c3.7 0 6.699-3.051 6.699-6.815 0-3.764-3-6.815-6.699-6.815z" opacity=".039"/><path d="M49.994 359.79H23.651c-.172-.002-.344 0-.516 0-10.55 0-19.103-8.683-19.103-19.395 0-10.711 8.553-19.395 19.103-19.395.172 0 .345.002.516.007L69.083 321 55.66 333.58H23.122c-3.7 0-6.699 3.051-6.699 6.815 0 3.764 3 6.815 6.7 6.815H51.53c.021 0 .021.02 0 .062 9.825.802 17.553 9.15 17.553 19.332 0 10.712-8.552 19.396-19.102 19.396-.521 0-1.038-.021-1.549-.063V386H3l14.456-12.58h32.538c3.7 0 6.699-3.051 6.699-6.815 0-3.764-3-6.815-6.699-6.815zm0 80H23.651c-.172-.002-.344 0-.516 0-10.55 0-19.103-8.683-19.103-19.395 0-10.711 8.553-19.395 19.103-19.395.172 0 .345.002.516.007L69.083 401 55.66 413.58H23.122c-3.7 0-6.699 3.051-6.699 6.815 0 3.764 3 6.815 6.7 6.815H51.53c.021 0 .021.02 0 .062 9.825.802 17.553 9.15 17.553 19.332 0 10.712-8.552 19.396-19.102 19.396-.521 0-1.038-.021-1.549-.063V466H3l14.456-12.58h32.538c3.7 0 6.699-3.051 6.699-6.815 0-3.764-3-6.815-6.699-6.815z" opacity=".105"/><path d="M55.994 519.79H29.651c-.172-.002-.344 0-.516 0-10.55 0-19.103-8.683-19.103-19.395 0-10.711 8.553-19.395 19.103-19.395.172 0 .345.002.516.007L75.083 481 61.66 493.58H29.122c-3.7 0-6.699 3.051-6.699 6.815 0 3.764 3 6.815 6.7 6.815H57.53c.021 0 .021.02 0 .062 9.825.802 17.553 9.15 17.553 19.332 0 10.712-8.552 19.396-19.102 19.396-.521 0-1.038-.021-1.549-.063V546H9l14.456-12.58h32.538c3.7 0 6.699-3.051 6.699-6.815 0-3.764-3-6.815-6.699-6.815z" opacity=".123"/><path d="M119.994 119.79H93.651c-.172-.002-.344 0-.516 0-10.55 0-19.103-8.683-19.103-19.395C74.032 89.684 82.585 81 93.135 81c.172 0 .345.002.516.007L139.083 81 125.66 93.58H93.122c-3.7 0-6.699 3.051-6.699 6.815 0 3.764 3 6.815 6.7 6.815h28.407c.021 0 .021.02 0 .062 9.825.802 17.553 9.15 17.553 19.332 0 10.712-8.552 19.396-19.102 19.396-.521 0-1.038-.021-1.549-.063V146H73l14.456-12.58h32.538c3.7 0 6.699-3.051 6.699-6.815 0-3.764-3-6.815-6.699-6.815z" opacity=".105"/><path d="M125.994 39.79H99.651c-.172-.002-.344 0-.516 0-10.55 0-19.103-8.683-19.103-19.395C80.032 9.684 88.585 1 99.135 1c.172 0 .345.002.516.007L145.083 1 131.66 13.58H99.122c-3.7 0-6.699 3.051-6.699 6.815 0 3.764 3 6.815 6.7 6.815h28.407c.021 0 .021.02 0 .062 9.825.802 17.553 9.15 17.553 19.332 0 10.712-8.552 19.396-19.102 19.396-.521 0-1.038-.021-1.549-.063V66H79l14.456-12.58h32.538c3.7 0 6.699-3.051 6.699-6.815 0-3.764-3-6.815-6.699-6.815zm0 160H99.651c-.172-.002-.344 0-.516 0-10.55 0-19.103-8.683-19.103-19.395 0-10.711 8.553-19.395 19.103-19.395.172 0 .345.002.516.007l45.432-.007-13.423 12.58H99.122c-3.7 0-6.699 3.051-6.699 6.815 0 3.764 3 6.815 6.7 6.815h28.407c.021 0 .021.02 0 .062 9.825.802 17.553 9.15 17.553 19.332 0 10.712-8.552 19.396-19.102 19.396-.521 0-1.038-.021-1.549-.063V226H79l14.456-12.58h32.538c3.7 0 6.699-3.051 6.699-6.815 0-3.764-3-6.815-6.699-6.815z" opacity=".123"/><path d="M125.994 279.79H99.651c-.172-.002-.344 0-.516 0-10.55 0-19.103-8.683-19.103-19.395 0-10.711 8.553-19.395 19.103-19.395.172 0 .345.002.516.007l45.432-.007-13.423 12.58H99.122c-3.7 0-6.699 3.051-6.699 6.815 0 3.764 3 6.815 6.7 6.815h28.407c.021 0 .021.02 0 .062 9.825.802 17.553 9.15 17.553 19.332 0 10.712-8.552 19.396-19.102 19.396-.521 0-1.038-.021-1.549-.063V306H79l14.456-12.58h32.538c3.7 0 6.699-3.051 6.699-6.815 0-3.764-3-6.815-6.699-6.815z" opacity=".039"/><path d="M125.994 359.79H99.651c-.172-.002-.344 0-.516 0-10.55 0-19.103-8.683-19.103-19.395 0-10.711 8.553-19.395 19.103-19.395.172 0 .345.002.516.007l45.432-.007-13.423 12.58H99.122c-3.7 0-6.699 3.051-6.699 6.815 0 3.764 3 6.815 6.7 6.815h28.407c.021 0 .021.02 0 .062 9.825.802 17.553 9.15 17.553 19.332 0 10.712-8.552 19.396-19.102 19.396-.521 0-1.038-.021-1.549-.063V386H79l14.456-12.58h32.538c3.7 0 6.699-3.051 6.699-6.815 0-3.764-3-6.815-6.699-6.815z" opacity=".233"/><path d="M125.994 439.79H99.651c-.172-.002-.344 0-.516 0-10.55 0-19.103-8.683-19.103-19.395 0-10.711 8.553-19.395 19.103-19.395.172 0 .345.002.516.007l45.432-.007-13.423 12.58H99.122c-3.7 0-6.699 3.051-6.699 6.815 0 3.764 3 6.815 6.7 6.815h28.407c.021 0 .021.02 0 .062 9.825.802 17.553 9.15 17.553 19.332 0 10.712-8.552 19.396-19.102 19.396-.521 0-1.038-.021-1.549-.063V466H79l14.456-12.58h32.538c3.7 0 6.699-3.051 6.699-6.815 0-3.764-3-6.815-6.699-6.815zm0 80H99.651c-.172-.002-.344 0-.516 0-10.55 0-19.103-8.683-19.103-19.395 0-10.711 8.553-19.395 19.103-19.395.172 0 .345.002.516.007l45.432-.007-13.423 12.58H99.122c-3.7 0-6.699 3.051-6.699 6.815 0 3.764 3 6.815 6.7 6.815h28.407c.021 0 .021.02 0 .062 9.825.802 17.553 9.15 17.553 19.332 0 10.712-8.552 19.396-19.102 19.396-.521 0-1.038-.021-1.549-.063V546H79l14.456-12.58h32.538c3.7 0 6.699-3.051 6.699-6.815 0-3.764-3-6.815-6.699-6.815z" opacity=".123"/><path d="M195.994 119.79h-26.343c-.172-.002-.344 0-.516 0-10.55 0-19.103-8.683-19.103-19.395 0-10.711 8.553-19.395 19.103-19.395.172 0 .345.002.516.007L215.083 81 201.66 93.58h-32.538c-3.7 0-6.699 3.051-6.699 6.815 0 3.764 3 6.815 6.7 6.815h28.407c.021 0 .021.02 0 .062 9.825.802 17.553 9.15 17.553 19.332 0 10.712-8.552 19.396-19.102 19.396-.521 0-1.038-.021-1.549-.063V146H149l14.456-12.58h32.538c3.7 0 6.699-3.051 6.699-6.815 0-3.764-3-6.815-6.699-6.815z" opacity=".647"/><path d="M450.994 441.79h-26.343c-.172-.002-.344 0-.516 0-10.55 0-19.103-8.683-19.103-19.395 0-10.711 8.553-19.395 19.103-19.395.172 0 .345.002.516.007l45.432-.007-13.423 12.58h-32.538c-3.7 0-6.699 3.051-6.699 6.815 0 3.764 3 6.815 6.7 6.815h28.407c.021 0 .021.02 0 .062 9.825.802 17.553 9.15 17.553 19.332 0 10.712-8.552 19.396-19.102 19.396-.521 0-1.038-.021-1.549-.063V468H404l14.456-12.58h32.538c3.7 0 6.699-3.051 6.699-6.815 0-3.764-3-6.815-6.699-6.815z" opacity=".143"/><path d="M195.994 199.79h-26.343c-.172-.002-.344 0-.516 0-10.55 0-19.103-8.683-19.103-19.395 0-10.711 8.553-19.395 19.103-19.395.172 0 .345.002.516.007l45.432-.007-13.423 12.58h-32.538c-3.7 0-6.699 3.051-6.699 6.815 0 3.764 3 6.815 6.7 6.815h28.407c.021 0 .021.02 0 .062 9.825.802 17.553 9.15 17.553 19.332 0 10.712-8.552 19.396-19.102 19.396-.521 0-1.038-.021-1.549-.063V226H149l14.456-12.58h32.538c3.7 0 6.699-3.051 6.699-6.815 0-3.764-3-6.815-6.699-6.815z" opacity=".384"/><path d="M189.994 279.79h-26.343c-.172-.002-.344 0-.516 0-10.55 0-19.103-8.683-19.103-19.395 0-10.711 8.553-19.395 19.103-19.395.172 0 .345.002.516.007l45.432-.007-13.423 12.58h-32.538c-3.7 0-6.699 3.051-6.699 6.815 0 3.764 3 6.815 6.7 6.815h28.407c.021 0 .021.02 0 .062 9.825.802 17.553 9.15 17.553 19.332 0 10.712-8.552 19.396-19.102 19.396-.521 0-1.038-.021-1.549-.063V306H143l14.456-12.58h32.538c3.7 0 6.699-3.051 6.699-6.815 0-3.764-3-6.815-6.699-6.815zm0 80h-26.343c-.172-.002-.344 0-.516 0-10.55 0-19.103-8.683-19.103-19.395 0-10.711 8.553-19.395 19.103-19.395.172 0 .345.002.516.007l45.432-.007-13.423 12.58h-32.538c-3.7 0-6.699 3.051-6.699 6.815 0 3.764 3 6.815 6.7 6.815h28.407c.021 0 .021.02 0 .062 9.825.802 17.553 9.15 17.553 19.332 0 10.712-8.552 19.396-19.102 19.396-.521 0-1.038-.021-1.549-.063V386H143l14.456-12.58h32.538c3.7 0 6.699-3.051 6.699-6.815 0-3.764-3-6.815-6.699-6.815z" opacity=".105"/><path d="M195.994 439.79h-26.343c-.172-.002-.344 0-.516 0-10.55 0-19.103-8.683-19.103-19.395 0-10.711 8.553-19.395 19.103-19.395.172 0 .345.002.516.007l45.432-.007-13.423 12.58h-32.538c-3.7 0-6.699 3.051-6.699 6.815 0 3.764 3 6.815 6.7 6.815h28.407c.021 0 .021.02 0 .062 9.825.802 17.553 9.15 17.553 19.332 0 10.712-8.552 19.396-19.102 19.396-.521 0-1.038-.021-1.549-.063V466H149l14.456-12.58h32.538c3.7 0 6.699-3.051 6.699-6.815 0-3.764-3-6.815-6.699-6.815z" opacity=".233"/><path d="M195.994 519.79h-26.343c-.172-.002-.344 0-.516 0-10.55 0-19.103-8.683-19.103-19.395 0-10.711 8.553-19.395 19.103-19.395.172 0 .345.002.516.007l45.432-.007-13.423 12.58h-32.538c-3.7 0-6.699 3.051-6.699 6.815 0 3.764 3 6.815 6.7 6.815h28.407c.021 0 .021.02 0 .062 9.825.802 17.553 9.15 17.553 19.332 0 10.712-8.552 19.396-19.102 19.396-.521 0-1.038-.021-1.549-.063V546H149l14.456-12.58h32.538c3.7 0 6.699-3.051 6.699-6.815 0-3.764-3-6.815-6.699-6.815z"/><path d="M265.994 119.79h-26.343c-.172-.002-.344 0-.516 0-10.55 0-19.103-8.683-19.103-19.395 0-10.711 8.553-19.395 19.103-19.395.172 0 .345.002.516.007L285.083 81 271.66 93.58h-32.538c-3.7 0-6.699 3.051-6.699 6.815 0 3.764 3 6.815 6.7 6.815h28.407c.021 0 .021.02 0 .062 9.825.802 17.553 9.15 17.553 19.332 0 10.712-8.552 19.396-19.102 19.396-.521 0-1.038-.021-1.549-.063V146H219l14.456-12.58h32.538c3.7 0 6.699-3.051 6.699-6.815 0-3.764-3-6.815-6.699-6.815z" opacity=".647"/><path d="M265.994 39.79h-26.343c-.172-.002-.344 0-.516 0-10.55 0-19.103-8.683-19.103-19.395C220.032 9.684 228.585 1 239.135 1c.172 0 .345.002.516.007L285.083 1 271.66 13.58h-32.538c-3.7 0-6.699 3.051-6.699 6.815 0 3.764 3 6.815 6.7 6.815h28.407c.021 0 .021.02 0 .062 9.825.802 17.553 9.15 17.553 19.332 0 10.712-8.552 19.396-19.102 19.396-.521 0-1.038-.021-1.549-.063V66H219l14.456-12.58h32.538c3.7 0 6.699-3.051 6.699-6.815 0-3.764-3-6.815-6.699-6.815z" opacity=".143"/><path d="M265.994 199.79h-26.343c-.172-.002-.344 0-.516 0-10.55 0-19.103-8.683-19.103-19.395 0-10.711 8.553-19.395 19.103-19.395.172 0 .345.002.516.007l45.432-.007-13.423 12.58h-32.538c-3.7 0-6.699 3.051-6.699 6.815 0 3.764 3 6.815 6.7 6.815h28.407c.021 0 .021.02 0 .062 9.825.802 17.553 9.15 17.553 19.332 0 10.712-8.552 19.396-19.102 19.396-.521 0-1.038-.021-1.549-.063V226H219l14.456-12.58h32.538c3.7 0 6.699-3.051 6.699-6.815 0-3.764-3-6.815-6.699-6.815z" opacity=".384"/><path d="M265.994 279.79h-26.343c-.172-.002-.344 0-.516 0-10.55 0-19.103-8.683-19.103-19.395 0-10.711 8.553-19.395 19.103-19.395.172 0 .345.002.516.007l45.432-.007-13.423 12.58h-32.538c-3.7 0-6.699 3.051-6.699 6.815 0 3.764 3 6.815 6.7 6.815h28.407c.021 0 .021.02 0 .062 9.825.802 17.553 9.15 17.553 19.332 0 10.712-8.552 19.396-19.102 19.396-.521 0-1.038-.021-1.549-.063V306H219l14.456-12.58h32.538c3.7 0 6.699-3.051 6.699-6.815 0-3.764-3-6.815-6.699-6.815z" opacity=".647"/><path d="M259.994 359.79h-26.343c-.172-.002-.344 0-.516 0-10.55 0-19.103-8.683-19.103-19.395 0-10.711 8.553-19.395 19.103-19.395.172 0 .345.002.516.007l45.432-.007-13.423 12.58h-32.538c-3.7 0-6.699 3.051-6.699 6.815 0 3.764 3 6.815 6.7 6.815h28.407c.021 0 .021.02 0 .062 9.825.802 17.553 9.15 17.553 19.332 0 10.712-8.552 19.396-19.102 19.396-.521 0-1.038-.021-1.549-.063V386H213l14.456-12.58h32.538c3.7 0 6.699-3.051 6.699-6.815 0-3.764-3-6.815-6.699-6.815z" opacity=".105"/><path d="M265.994 439.79h-26.343c-.172-.002-.344 0-.516 0-10.55 0-19.103-8.683-19.103-19.395 0-10.711 8.553-19.395 19.103-19.395.172 0 .345.002.516.007l45.432-.007-13.423 12.58h-32.538c-3.7 0-6.699 3.051-6.699 6.815 0 3.764 3 6.815 6.7 6.815h28.407c.021 0 .021.02 0 .062 9.825.802 17.553 9.15 17.553 19.332 0 10.712-8.552 19.396-19.102 19.396-.521 0-1.038-.021-1.549-.063V466H219l14.456-12.58h32.538c3.7 0 6.699-3.051 6.699-6.815 0-3.764-3-6.815-6.699-6.815z" opacity=".647"/><path d="M265.994 519.79h-26.343c-.172-.002-.344 0-.516 0-10.55 0-19.103-8.683-19.103-19.395 0-10.711 8.553-19.395 19.103-19.395.172 0 .345.002.516.007l45.432-.007-13.423 12.58h-32.538c-3.7 0-6.699 3.051-6.699 6.815 0 3.764 3 6.815 6.7 6.815h28.407c.021 0 .021.02 0 .062 9.825.802 17.553 9.15 17.553 19.332 0 10.712-8.552 19.396-19.102 19.396-.521 0-1.038-.021-1.549-.063V546H219l14.456-12.58h32.538c3.7 0 6.699-3.051 6.699-6.815 0-3.764-3-6.815-6.699-6.815zm70-400h-26.343c-.172-.002-.344 0-.516 0-10.55 0-19.103-8.683-19.103-19.395 0-10.711 8.553-19.395 19.103-19.395.172 0 .345.002.516.007L355.083 81 341.66 93.58h-32.538c-3.7 0-6.699 3.051-6.699 6.815 0 3.764 3 6.815 6.7 6.815h28.407c.021 0 .021.02 0 .062 9.825.802 17.553 9.15 17.553 19.332 0 10.712-8.552 19.396-19.102 19.396-.521 0-1.038-.021-1.549-.063V146H289l14.456-12.58h32.538c3.7 0 6.699-3.051 6.699-6.815 0-3.764-3-6.815-6.699-6.815z"/><path d="M335.994 39.79h-26.343c-.172-.002-.344 0-.516 0-10.55 0-19.103-8.683-19.103-19.395C290.032 9.684 298.585 1 309.135 1c.172 0 .345.002.516.007L355.083 1 341.66 13.58h-32.538c-3.7 0-6.699 3.051-6.699 6.815 0 3.764 3 6.815 6.7 6.815h28.407c.021 0 .021.02 0 .062 9.825.802 17.553 9.15 17.553 19.332 0 10.712-8.552 19.396-19.102 19.396-.521 0-1.038-.021-1.549-.063V66H289l14.456-12.58h32.538c3.7 0 6.699-3.051 6.699-6.815 0-3.764-3-6.815-6.699-6.815z" opacity=".647"/><path d="M335.994 199.79h-26.343c-.172-.002-.344 0-.516 0-10.55 0-19.103-8.683-19.103-19.395 0-10.711 8.553-19.395 19.103-19.395.172 0 .345.002.516.007l45.432-.007-13.423 12.58h-32.538c-3.7 0-6.699 3.051-6.699 6.815 0 3.764 3 6.815 6.7 6.815h28.407c.021 0 .021.02 0 .062 9.825.802 17.553 9.15 17.553 19.332 0 10.712-8.552 19.396-19.102 19.396-.521 0-1.038-.021-1.549-.063V226H289l14.456-12.58h32.538c3.7 0 6.699-3.051 6.699-6.815 0-3.764-3-6.815-6.699-6.815zm0 80h-26.343c-.172-.002-.344 0-.516 0-10.55 0-19.103-8.683-19.103-19.395 0-10.711 8.553-19.395 19.103-19.395.172 0 .345.002.516.007l45.432-.007-13.423 12.58h-32.538c-3.7 0-6.699 3.051-6.699 6.815 0 3.764 3 6.815 6.7 6.815h28.407c.021 0 .021.02 0 .062 9.825.802 17.553 9.15 17.553 19.332 0 10.712-8.552 19.396-19.102 19.396-.521 0-1.038-.021-1.549-.063V306H289l14.456-12.58h32.538c3.7 0 6.699-3.051 6.699-6.815 0-3.764-3-6.815-6.699-6.815z" opacity=".384"/><path d="M335.994 359.79h-26.343c-.172-.002-.344 0-.516 0-10.55 0-19.103-8.683-19.103-19.395 0-10.711 8.553-19.395 19.103-19.395.172 0 .345.002.516.007l45.432-.007-13.423 12.58h-32.538c-3.7 0-6.699 3.051-6.699 6.815 0 3.764 3 6.815 6.7 6.815h28.407c.021 0 .021.02 0 .062 9.825.802 17.553 9.15 17.553 19.332 0 10.712-8.552 19.396-19.102 19.396-.521 0-1.038-.021-1.549-.063V386H289l14.456-12.58h32.538c3.7 0 6.699-3.051 6.699-6.815 0-3.764-3-6.815-6.699-6.815z" opacity=".647"/><path d="M335.994 439.79h-26.343c-.172-.002-.344 0-.516 0-10.55 0-19.103-8.683-19.103-19.395 0-10.711 8.553-19.395 19.103-19.395.172 0 .345.002.516.007l45.432-.007-13.423 12.58h-32.538c-3.7 0-6.699 3.051-6.699 6.815 0 3.764 3 6.815 6.7 6.815h28.407c.021 0 .021.02 0 .062 9.825.802 17.553 9.15 17.553 19.332 0 10.712-8.552 19.396-19.102 19.396-.521 0-1.038-.021-1.549-.063V466H289l14.456-12.58h32.538c3.7 0 6.699-3.051 6.699-6.815 0-3.764-3-6.815-6.699-6.815z" opacity=".143"/><path d="M335.994 519.79h-26.343c-.172-.002-.344 0-.516 0-10.55 0-19.103-8.683-19.103-19.395 0-10.711 8.553-19.395 19.103-19.395.172 0 .345.002.516.007l45.432-.007-13.423 12.58h-32.538c-3.7 0-6.699 3.051-6.699 6.815 0 3.764 3 6.815 6.7 6.815h28.407c.021 0 .021.02 0 .062 9.825.802 17.553 9.15 17.553 19.332 0 10.712-8.552 19.396-19.102 19.396-.521 0-1.038-.021-1.549-.063V546H289l14.456-12.58h32.538c3.7 0 6.699-3.051 6.699-6.815 0-3.764-3-6.815-6.699-6.815z"/><path d="M405.994 119.79h-26.343c-.172-.002-.344 0-.516 0-10.55 0-19.103-8.683-19.103-19.395 0-10.711 8.553-19.395 19.103-19.395.172 0 .345.002.516.007L425.083 81 411.66 93.58h-32.538c-3.7 0-6.699 3.051-6.699 6.815 0 3.764 3 6.815 6.7 6.815h28.407c.021 0 .021.02 0 .062 9.825.802 17.553 9.15 17.553 19.332 0 10.712-8.552 19.396-19.102 19.396-.521 0-1.038-.021-1.549-.063V146H359l14.456-12.58h32.538c3.7 0 6.699-3.051 6.699-6.815 0-3.764-3-6.815-6.699-6.815zm0-80h-26.343c-.172-.002-.344 0-.516 0-10.55 0-19.103-8.683-19.103-19.395C360.032 9.684 368.585 1 379.135 1c.172 0 .345.002.516.007L425.083 1 411.66 13.58h-32.538c-3.7 0-6.699 3.051-6.699 6.815 0 3.764 3 6.815 6.7 6.815h28.407c.021 0 .021.02 0 .062 9.825.802 17.553 9.15 17.553 19.332 0 10.712-8.552 19.396-19.102 19.396-.521 0-1.038-.021-1.549-.063V66H359l14.456-12.58h32.538c3.7 0 6.699-3.051 6.699-6.815 0-3.764-3-6.815-6.699-6.815z" opacity=".143"/><path d="M405.994 199.79h-26.343c-.172-.002-.344 0-.516 0-10.55 0-19.103-8.683-19.103-19.395 0-10.711 8.553-19.395 19.103-19.395.172 0 .345.002.516.007l45.432-.007-13.423 12.58h-32.538c-3.7 0-6.699 3.051-6.699 6.815 0 3.764 3 6.815 6.7 6.815h28.407c.021 0 .021.02 0 .062 9.825.802 17.553 9.15 17.553 19.332 0 10.712-8.552 19.396-19.102 19.396-.521 0-1.038-.021-1.549-.063V226H359l14.456-12.58h32.538c3.7 0 6.699-3.051 6.699-6.815 0-3.764-3-6.815-6.699-6.815zm0 80h-26.343c-.172-.002-.344 0-.516 0-10.55 0-19.103-8.683-19.103-19.395 0-10.711 8.553-19.395 19.103-19.395.172 0 .345.002.516.007l45.432-.007-13.423 12.58h-32.538c-3.7 0-6.699 3.051-6.699 6.815 0 3.764 3 6.815 6.7 6.815h28.407c.021 0 .021.02 0 .062 9.825.802 17.553 9.15 17.553 19.332 0 10.712-8.552 19.396-19.102 19.396-.521 0-1.038-.021-1.549-.063V306H359l14.456-12.58h32.538c3.7 0 6.699-3.051 6.699-6.815 0-3.764-3-6.815-6.699-6.815z" opacity=".647"/><path d="M405.994 359.79h-26.343c-.172-.002-.344 0-.516 0-10.55 0-19.103-8.683-19.103-19.395 0-10.711 8.553-19.395 19.103-19.395.172 0 .345.002.516.007l45.432-.007-13.423 12.58h-32.538c-3.7 0-6.699 3.051-6.699 6.815 0 3.764 3 6.815 6.7 6.815h28.407c.021 0 .021.02 0 .062 9.825.802 17.553 9.15 17.553 19.332 0 10.712-8.552 19.396-19.102 19.396-.521 0-1.038-.021-1.549-.063V386H359l14.456-12.58h32.538c3.7 0 6.699-3.051 6.699-6.815 0-3.764-3-6.815-6.699-6.815z"/><path d="M405.994 439.79h-26.343c-.172-.002-.344 0-.516 0-10.55 0-19.103-8.683-19.103-19.395 0-10.711 8.553-19.395 19.103-19.395.172 0 .345.002.516.007l45.432-.007-13.423 12.58h-32.538c-3.7 0-6.699 3.051-6.699 6.815 0 3.764 3 6.815 6.7 6.815h28.407c.021 0 .021.02 0 .062 9.825.802 17.553 9.15 17.553 19.332 0 10.712-8.552 19.396-19.102 19.396-.521 0-1.038-.021-1.549-.063V466H359l14.456-12.58h32.538c3.7 0 6.699-3.051 6.699-6.815 0-3.764-3-6.815-6.699-6.815z" opacity=".143"/><path d="M405.994 519.79h-26.343c-.172-.002-.344 0-.516 0-10.55 0-19.103-8.683-19.103-19.395 0-10.711 8.553-19.395 19.103-19.395.172 0 .345.002.516.007l45.432-.007-13.423 12.58h-32.538c-3.7 0-6.699 3.051-6.699 6.815 0 3.764 3 6.815 6.7 6.815h28.407c.021 0 .021.02 0 .062 9.825.802 17.553 9.15 17.553 19.332 0 10.712-8.552 19.396-19.102 19.396-.521 0-1.038-.021-1.549-.063V546H359l14.456-12.58h32.538c3.7 0 6.699-3.051 6.699-6.815 0-3.764-3-6.815-6.699-6.815z"/></g></svg>