<?xml version="1.0" encoding="UTF-8"?>
<svg width="848px" height="547px" viewBox="0 0 848 547" version="1.1" xmlns="http://www.w3.org/2000/svg" xmlns:xlink="http://www.w3.org/1999/xlink">
    <!-- Generator: Sketch 52.5 (67469) - http://www.bohemiancoding.com/sketch -->
    <title>Group 17</title>
    <desc>Created with Sketch.</desc>
    <g id="Page-1" stroke="none" stroke-width="1" fill="none" fill-rule="evenodd" stroke-linecap="square">
        <g id="Group-17" transform="translate(3.000000, 1.000000)" stroke="#0BD291" stroke-width="2">
            <path d="M472.994061,118.790393 L446.651042,118.790393 C446.479225,118.788202 446.307408,118.790393 446.134857,118.790393 C435.58502,118.790393 427.032369,110.106685 427.032369,99.3948315 C427.032369,88.6837079 435.58502,80 446.134857,80 C446.307408,80 446.479959,80.002191 446.651042,80.0073034 L492.083333,80 L478.66034,92.5807865 L446.122375,92.5807865 C442.422443,92.5807865 439.422994,95.6314045 439.422994,99.3948315 C439.422994,103.158989 442.422443,106.209607 446.122375,106.209607 C465.039642,106.20956 474.508894,106.20956 474.530131,106.209607 C474.551369,106.209654 474.551369,106.23059 474.530131,106.272416 C484.355255,107.073596 492.083333,115.422809 492.083333,125.604438 C492.083333,136.316292 483.530681,145 472.980844,145 C472.45952,145 471.943336,144.97882 471.432292,144.937191 L471.432292,145 L426,145 L440.456096,132.419213 L472.994061,132.419213 C476.693259,132.419213 479.692708,129.368596 479.692708,125.605169 C479.692708,121.841011 476.693259,118.790393 472.994061,118.790393 Z" id="Path" opacity="0.502580915"></path>
            <path d="M472.994061,38.7903933 L446.651042,38.7903933 C446.479225,38.7882022 446.307408,38.7903933 446.134857,38.7903933 C435.58502,38.7903933 427.032369,30.1066854 427.032369,19.3948315 C427.032369,8.68370787 435.58502,0 446.134857,0 C446.307408,0 446.479959,0.00219101124 446.651042,0.00730337079 L492.083333,0 L478.66034,12.5807865 L446.122375,12.5807865 C442.422443,12.5807865 439.422994,15.6314045 439.422994,19.3948315 C439.422994,23.1589888 442.422443,26.2096067 446.122375,26.2096067 C465.039642,26.2095598 474.508894,26.2095598 474.530131,26.2096067 C474.551369,26.2096537 474.551369,26.23059 474.530131,26.2724157 C484.355255,27.0735955 492.083333,35.422809 492.083333,45.6044382 C492.083333,56.3162921 483.530681,65 472.980844,65 C472.45952,65 471.943336,64.9788202 471.432292,64.937191 L471.432292,65 L426,65 L440.456096,52.4192135 L472.994061,52.4192135 C476.693259,52.4192135 479.692708,49.3685955 479.692708,45.6051685 C479.692708,41.8410112 476.693259,38.7903933 472.994061,38.7903933 Z" id="Path-Copy-6" opacity="0.142508371"></path>
            <path d="M472.994061,198.790393 L446.651042,198.790393 C446.479225,198.788202 446.307408,198.790393 446.134857,198.790393 C435.58502,198.790393 427.032369,190.106685 427.032369,179.394831 C427.032369,168.683708 435.58502,160 446.134857,160 C446.307408,160 446.479959,160.002191 446.651042,160.007303 L492.083333,160 L478.66034,172.580787 L446.122375,172.580787 C442.422443,172.580787 439.422994,175.631404 439.422994,179.394831 C439.422994,183.158989 442.422443,186.209607 446.122375,186.209607 C465.039642,186.20956 474.508894,186.20956 474.530131,186.209607 C474.551369,186.209654 474.551369,186.23059 474.530131,186.272416 C484.355255,187.073596 492.083333,195.422809 492.083333,205.604438 C492.083333,216.316292 483.530681,225 472.980844,225 C472.45952,225 471.943336,224.97882 471.432292,224.937191 L471.432292,225 L426,225 L440.456096,212.419213 L472.994061,212.419213 C476.693259,212.419213 479.692708,209.368596 479.692708,205.605169 C479.692708,201.841011 476.693259,198.790393 472.994061,198.790393 Z" id="Path-Copy" opacity="0.502580915"></path>
            <path d="M472.994061,278.790393 L446.651042,278.790393 C446.479225,278.788202 446.307408,278.790393 446.134857,278.790393 C435.58502,278.790393 427.032369,270.106685 427.032369,259.394831 C427.032369,248.683708 435.58502,240 446.134857,240 C446.307408,240 446.479959,240.002191 446.651042,240.007303 L492.083333,240 L478.66034,252.580787 L446.122375,252.580787 C442.422443,252.580787 439.422994,255.631404 439.422994,259.394831 C439.422994,263.158989 442.422443,266.209607 446.122375,266.209607 C465.039642,266.20956 474.508894,266.20956 474.530131,266.209607 C474.551369,266.209654 474.551369,266.23059 474.530131,266.272416 C484.355255,267.073596 492.083333,275.422809 492.083333,285.604438 C492.083333,296.316292 483.530681,305 472.980844,305 C472.45952,305 471.943336,304.97882 471.432292,304.937191 L471.432292,305 L426,305 L440.456096,292.419213 L472.994061,292.419213 C476.693259,292.419213 479.692708,289.368596 479.692708,285.605169 C479.692708,281.841011 476.693259,278.790393 472.994061,278.790393 Z" id="Path-Copy-3" opacity="0.105352493"></path>
            <path d="M472.994061,358.790393 L446.651042,358.790393 C446.479225,358.788202 446.307408,358.790393 446.134857,358.790393 C435.58502,358.790393 427.032369,350.106685 427.032369,339.394831 C427.032369,328.683708 435.58502,320 446.134857,320 C446.307408,320 446.479959,320.002191 446.651042,320.007303 L492.083333,320 L478.66034,332.580787 L446.122375,332.580787 C442.422443,332.580787 439.422994,335.631404 439.422994,339.394831 C439.422994,343.158989 442.422443,346.209607 446.122375,346.209607 C465.039642,346.20956 474.508894,346.20956 474.530131,346.209607 C474.551369,346.209654 474.551369,346.23059 474.530131,346.272416 C484.355255,347.073596 492.083333,355.422809 492.083333,365.604438 C492.083333,376.316292 483.530681,385 472.980844,385 C472.45952,385 471.943336,384.97882 471.432292,384.937191 L471.432292,385 L426,385 L440.456096,372.419213 L472.994061,372.419213 C476.693259,372.419213 479.692708,369.368596 479.692708,365.605169 C479.692708,361.841011 476.693259,358.790393 472.994061,358.790393 Z" id="Path-Copy-2"></path>
            <path d="M472.994061,438.790393 L446.651042,438.790393 C446.479225,438.788202 446.307408,438.790393 446.134857,438.790393 C435.58502,438.790393 427.032369,430.106685 427.032369,419.394831 C427.032369,408.683708 435.58502,400 446.134857,400 C446.307408,400 446.479959,400.002191 446.651042,400.007303 L492.083333,400 L478.66034,412.580787 L446.122375,412.580787 C442.422443,412.580787 439.422994,415.631404 439.422994,419.394831 C439.422994,423.158989 442.422443,426.209607 446.122375,426.209607 C465.039642,426.20956 474.508894,426.20956 474.530131,426.209607 C474.551369,426.209654 474.551369,426.23059 474.530131,426.272416 C484.355255,427.073596 492.083333,435.422809 492.083333,445.604438 C492.083333,456.316292 483.530681,465 472.980844,465 C472.45952,465 471.943336,464.97882 471.432292,464.937191 L471.432292,465 L426,465 L440.456096,452.419213 L472.994061,452.419213 C476.693259,452.419213 479.692708,449.368596 479.692708,445.605169 C479.692708,441.841011 476.693259,438.790393 472.994061,438.790393 Z" id="Path-Copy-5"></path>
            <path d="M472.994061,518.790393 L446.651042,518.790393 C446.479225,518.788202 446.307408,518.790393 446.134857,518.790393 C435.58502,518.790393 427.032369,510.106685 427.032369,499.394831 C427.032369,488.683708 435.58502,480 446.134857,480 C446.307408,480 446.479959,480.002191 446.651042,480.007303 L492.083333,480 L478.66034,492.580787 L446.122375,492.580787 C442.422443,492.580787 439.422994,495.631404 439.422994,499.394831 C439.422994,503.158989 442.422443,506.209607 446.122375,506.209607 C465.039642,506.20956 474.508894,506.20956 474.530131,506.209607 C474.551369,506.209654 474.551369,506.23059 474.530131,506.272416 C484.355255,507.073596 492.083333,515.422809 492.083333,525.604438 C492.083333,536.316292 483.530681,545 472.980844,545 C472.45952,545 471.943336,544.97882 471.432292,544.937191 L471.432292,545 L426,545 L440.456096,532.419213 L472.994061,532.419213 C476.693259,532.419213 479.692708,529.368596 479.692708,525.605169 C479.692708,521.841011 476.693259,518.790393 472.994061,518.790393 Z" id="Path-Copy-4"></path>
            <path d="M542.994061,118.790393 L516.651042,118.790393 C516.479225,118.788202 516.307408,118.790393 516.134857,118.790393 C505.58502,118.790393 497.032369,110.106685 497.032369,99.3948315 C497.032369,88.6837079 505.58502,80 516.134857,80 C516.307408,80 516.479959,80.002191 516.651042,80.0073034 L562.083333,80 L548.66034,92.5807865 L516.122375,92.5807865 C512.422443,92.5807865 509.422994,95.6314045 509.422994,99.3948315 C509.422994,103.158989 512.422443,106.209607 516.122375,106.209607 C535.039642,106.20956 544.508894,106.20956 544.530131,106.209607 C544.551369,106.209654 544.551369,106.23059 544.530131,106.272416 C554.355255,107.073596 562.083333,115.422809 562.083333,125.604438 C562.083333,136.316292 553.530681,145 542.980844,145 C542.45952,145 541.943336,144.97882 541.432292,144.937191 L541.432292,145 L496,145 L510.456096,132.419213 L542.994061,132.419213 C546.693259,132.419213 549.692708,129.368596 549.692708,125.605169 C549.692708,121.841011 546.693259,118.790393 542.994061,118.790393 Z" id="Path" opacity="0.502580915"></path>
            <path d="M542.994061,38.7903933 L516.651042,38.7903933 C516.479225,38.7882022 516.307408,38.7903933 516.134857,38.7903933 C505.58502,38.7903933 497.032369,30.1066854 497.032369,19.3948315 C497.032369,8.68370787 505.58502,0 516.134857,0 C516.307408,0 516.479959,0.00219101124 516.651042,0.00730337079 L562.083333,0 L548.66034,12.5807865 L516.122375,12.5807865 C512.422443,12.5807865 509.422994,15.6314045 509.422994,19.3948315 C509.422994,23.1589888 512.422443,26.2096067 516.122375,26.2096067 C535.039642,26.2095598 544.508894,26.2095598 544.530131,26.2096067 C544.551369,26.2096537 544.551369,26.23059 544.530131,26.2724157 C554.355255,27.0735955 562.083333,35.422809 562.083333,45.6044382 C562.083333,56.3162921 553.530681,65 542.980844,65 C542.45952,65 541.943336,64.9788202 541.432292,64.937191 L541.432292,65 L496,65 L510.456096,52.4192135 L542.994061,52.4192135 C546.693259,52.4192135 549.692708,49.3685955 549.692708,45.6051685 C549.692708,41.8410112 546.693259,38.7903933 542.994061,38.7903933 Z" id="Path-Copy-6" opacity="0.142508371"></path>
            <path d="M542.994061,198.790393 L516.651042,198.790393 C516.479225,198.788202 516.307408,198.790393 516.134857,198.790393 C505.58502,198.790393 497.032369,190.106685 497.032369,179.394831 C497.032369,168.683708 505.58502,160 516.134857,160 C516.307408,160 516.479959,160.002191 516.651042,160.007303 L562.083333,160 L548.66034,172.580787 L516.122375,172.580787 C512.422443,172.580787 509.422994,175.631404 509.422994,179.394831 C509.422994,183.158989 512.422443,186.209607 516.122375,186.209607 C535.039642,186.20956 544.508894,186.20956 544.530131,186.209607 C544.551369,186.209654 544.551369,186.23059 544.530131,186.272416 C554.355255,187.073596 562.083333,195.422809 562.083333,205.604438 C562.083333,216.316292 553.530681,225 542.980844,225 C542.45952,225 541.943336,224.97882 541.432292,224.937191 L541.432292,225 L496,225 L510.456096,212.419213 L542.994061,212.419213 C546.693259,212.419213 549.692708,209.368596 549.692708,205.605169 C549.692708,201.841011 546.693259,198.790393 542.994061,198.790393 Z" id="Path-Copy" opacity="0.502580915"></path>
            <path d="M542.994061,278.790393 L516.651042,278.790393 C516.479225,278.788202 516.307408,278.790393 516.134857,278.790393 C505.58502,278.790393 497.032369,270.106685 497.032369,259.394831 C497.032369,248.683708 505.58502,240 516.134857,240 C516.307408,240 516.479959,240.002191 516.651042,240.007303 L562.083333,240 L548.66034,252.580787 L516.122375,252.580787 C512.422443,252.580787 509.422994,255.631404 509.422994,259.394831 C509.422994,263.158989 512.422443,266.209607 516.122375,266.209607 C535.039642,266.20956 544.508894,266.20956 544.530131,266.209607 C544.551369,266.209654 544.551369,266.23059 544.530131,266.272416 C554.355255,267.073596 562.083333,275.422809 562.083333,285.604438 C562.083333,296.316292 553.530681,305 542.980844,305 C542.45952,305 541.943336,304.97882 541.432292,304.937191 L541.432292,305 L496,305 L510.456096,292.419213 L542.994061,292.419213 C546.693259,292.419213 549.692708,289.368596 549.692708,285.605169 C549.692708,281.841011 546.693259,278.790393 542.994061,278.790393 Z" id="Path-Copy-3" opacity="0.502580915"></path>
            <path d="M542.994061,358.790393 L516.651042,358.790393 C516.479225,358.788202 516.307408,358.790393 516.134857,358.790393 C505.58502,358.790393 497.032369,350.106685 497.032369,339.394831 C497.032369,328.683708 505.58502,320 516.134857,320 C516.307408,320 516.479959,320.002191 516.651042,320.007303 L562.083333,320 L548.66034,332.580787 L516.122375,332.580787 C512.422443,332.580787 509.422994,335.631404 509.422994,339.394831 C509.422994,343.158989 512.422443,346.209607 516.122375,346.209607 C535.039642,346.20956 544.508894,346.20956 544.530131,346.209607 C544.551369,346.209654 544.551369,346.23059 544.530131,346.272416 C554.355255,347.073596 562.083333,355.422809 562.083333,365.604438 C562.083333,376.316292 553.530681,385 542.980844,385 C542.45952,385 541.943336,384.97882 541.432292,384.937191 L541.432292,385 L496,385 L510.456096,372.419213 L542.994061,372.419213 C546.693259,372.419213 549.692708,369.368596 549.692708,365.605169 C549.692708,361.841011 546.693259,358.790393 542.994061,358.790393 Z" id="Path-Copy-2"></path>
            <path d="M542.994061,438.790393 L516.651042,438.790393 C516.479225,438.788202 516.307408,438.790393 516.134857,438.790393 C505.58502,438.790393 497.032369,430.106685 497.032369,419.394831 C497.032369,408.683708 505.58502,400 516.134857,400 C516.307408,400 516.479959,400.002191 516.651042,400.007303 L562.083333,400 L548.66034,412.580787 L516.122375,412.580787 C512.422443,412.580787 509.422994,415.631404 509.422994,419.394831 C509.422994,423.158989 512.422443,426.209607 516.122375,426.209607 C535.039642,426.20956 544.508894,426.20956 544.530131,426.209607 C544.551369,426.209654 544.551369,426.23059 544.530131,426.272416 C554.355255,427.073596 562.083333,435.422809 562.083333,445.604438 C562.083333,456.316292 553.530681,465 542.980844,465 C542.45952,465 541.943336,464.97882 541.432292,464.937191 L541.432292,465 L496,465 L510.456096,452.419213 L542.994061,452.419213 C546.693259,452.419213 549.692708,449.368596 549.692708,445.605169 C549.692708,441.841011 546.693259,438.790393 542.994061,438.790393 Z" id="Path-Copy-5"></path>
            <path d="M542.994061,518.790393 L516.651042,518.790393 C516.479225,518.788202 516.307408,518.790393 516.134857,518.790393 C505.58502,518.790393 497.032369,510.106685 497.032369,499.394831 C497.032369,488.683708 505.58502,480 516.134857,480 C516.307408,480 516.479959,480.002191 516.651042,480.007303 L562.083333,480 L548.66034,492.580787 L516.122375,492.580787 C512.422443,492.580787 509.422994,495.631404 509.422994,499.394831 C509.422994,503.158989 512.422443,506.209607 516.122375,506.209607 C535.039642,506.20956 544.508894,506.20956 544.530131,506.209607 C544.551369,506.209654 544.551369,506.23059 544.530131,506.272416 C554.355255,507.073596 562.083333,515.422809 562.083333,525.604438 C562.083333,536.316292 553.530681,545 542.980844,545 C542.45952,545 541.943336,544.97882 541.432292,544.937191 L541.432292,545 L496,545 L510.456096,532.419213 L542.994061,532.419213 C546.693259,532.419213 549.692708,529.368596 549.692708,525.605169 C549.692708,521.841011 546.693259,518.790393 542.994061,518.790393 Z" id="Path-Copy-4"></path>
            <path d="M612.994061,118.790393 L586.651042,118.790393 C586.479225,118.788202 586.307408,118.790393 586.134857,118.790393 C575.58502,118.790393 567.032369,110.106685 567.032369,99.3948315 C567.032369,88.6837079 575.58502,80 586.134857,80 C586.307408,80 586.479959,80.002191 586.651042,80.0073034 L632.083333,80 L618.66034,92.5807865 L586.122375,92.5807865 C582.422443,92.5807865 579.422994,95.6314045 579.422994,99.3948315 C579.422994,103.158989 582.422443,106.209607 586.122375,106.209607 C605.039642,106.20956 614.508894,106.20956 614.530131,106.209607 C614.551369,106.209654 614.551369,106.23059 614.530131,106.272416 C624.355255,107.073596 632.083333,115.422809 632.083333,125.604438 C632.083333,136.316292 623.530681,145 612.980844,145 C612.45952,145 611.943336,144.97882 611.432292,144.937191 L611.432292,145 L566,145 L580.456096,132.419213 L612.994061,132.419213 C616.693259,132.419213 619.692708,129.368596 619.692708,125.605169 C619.692708,121.841011 616.693259,118.790393 612.994061,118.790393 Z" id="Path" opacity="0.647158668"></path>
            <path d="M612.994061,38.7903933 L586.651042,38.7903933 C586.479225,38.7882022 586.307408,38.7903933 586.134857,38.7903933 C575.58502,38.7903933 567.032369,30.1066854 567.032369,19.3948315 C567.032369,8.68370787 575.58502,0 586.134857,0 C586.307408,0 586.479959,0.00219101124 586.651042,0.00730337079 L632.083333,0 L618.66034,12.5807865 L586.122375,12.5807865 C582.422443,12.5807865 579.422994,15.6314045 579.422994,19.3948315 C579.422994,23.1589888 582.422443,26.2096067 586.122375,26.2096067 C605.039642,26.2095598 614.508894,26.2095598 614.530131,26.2096067 C614.551369,26.2096537 614.551369,26.23059 614.530131,26.2724157 C624.355255,27.0735955 632.083333,35.422809 632.083333,45.6044382 C632.083333,56.3162921 623.530681,65 612.980844,65 C612.45952,65 611.943336,64.9788202 611.432292,64.937191 L611.432292,65 L566,65 L580.456096,52.4192135 L612.994061,52.4192135 C616.693259,52.4192135 619.692708,49.3685955 619.692708,45.6051685 C619.692708,41.8410112 616.693259,38.7903933 612.994061,38.7903933 Z" id="Path-Copy-6" opacity="0.142508371"></path>
            <path d="M612.994061,198.790393 L586.651042,198.790393 C586.479225,198.788202 586.307408,198.790393 586.134857,198.790393 C575.58502,198.790393 567.032369,190.106685 567.032369,179.394831 C567.032369,168.683708 575.58502,160 586.134857,160 C586.307408,160 586.479959,160.002191 586.651042,160.007303 L632.083333,160 L618.66034,172.580787 L586.122375,172.580787 C582.422443,172.580787 579.422994,175.631404 579.422994,179.394831 C579.422994,183.158989 582.422443,186.209607 586.122375,186.209607 C605.039642,186.20956 614.508894,186.20956 614.530131,186.209607 C614.551369,186.209654 614.551369,186.23059 614.530131,186.272416 C624.355255,187.073596 632.083333,195.422809 632.083333,205.604438 C632.083333,216.316292 623.530681,225 612.980844,225 C612.45952,225 611.943336,224.97882 611.432292,224.937191 L611.432292,225 L566,225 L580.456096,212.419213 L612.994061,212.419213 C616.693259,212.419213 619.692708,209.368596 619.692708,205.605169 C619.692708,201.841011 616.693259,198.790393 612.994061,198.790393 Z" id="Path-Copy" opacity="0.383626302"></path>
            <path d="M612.994061,278.790393 L586.651042,278.790393 C586.479225,278.788202 586.307408,278.790393 586.134857,278.790393 C575.58502,278.790393 567.032369,270.106685 567.032369,259.394831 C567.032369,248.683708 575.58502,240 586.134857,240 C586.307408,240 586.479959,240.002191 586.651042,240.007303 L632.083333,240 L618.66034,252.580787 L586.122375,252.580787 C582.422443,252.580787 579.422994,255.631404 579.422994,259.394831 C579.422994,263.158989 582.422443,266.209607 586.122375,266.209607 C605.039642,266.20956 614.508894,266.20956 614.530131,266.209607 C614.551369,266.209654 614.551369,266.23059 614.530131,266.272416 C624.355255,267.073596 632.083333,275.422809 632.083333,285.604438 C632.083333,296.316292 623.530681,305 612.980844,305 C612.45952,305 611.943336,304.97882 611.432292,304.937191 L611.432292,305 L566,305 L580.456096,292.419213 L612.994061,292.419213 C616.693259,292.419213 619.692708,289.368596 619.692708,285.605169 C619.692708,281.841011 616.693259,278.790393 612.994061,278.790393 Z" id="Path-Copy-3" opacity="0.647158668"></path>
            <path d="M612.994061,358.790393 L586.651042,358.790393 C586.479225,358.788202 586.307408,358.790393 586.134857,358.790393 C575.58502,358.790393 567.032369,350.106685 567.032369,339.394831 C567.032369,328.683708 575.58502,320 586.134857,320 C586.307408,320 586.479959,320.002191 586.651042,320.007303 L632.083333,320 L618.66034,332.580787 L586.122375,332.580787 C582.422443,332.580787 579.422994,335.631404 579.422994,339.394831 C579.422994,343.158989 582.422443,346.209607 586.122375,346.209607 C605.039642,346.20956 614.508894,346.20956 614.530131,346.209607 C614.551369,346.209654 614.551369,346.23059 614.530131,346.272416 C624.355255,347.073596 632.083333,355.422809 632.083333,365.604438 C632.083333,376.316292 623.530681,385 612.980844,385 C612.45952,385 611.943336,384.97882 611.432292,384.937191 L611.432292,385 L566,385 L580.456096,372.419213 L612.994061,372.419213 C616.693259,372.419213 619.692708,369.368596 619.692708,365.605169 C619.692708,361.841011 616.693259,358.790393 612.994061,358.790393 Z" id="Path-Copy-2"></path>
            <path d="M612.994061,438.790393 L586.651042,438.790393 C586.479225,438.788202 586.307408,438.790393 586.134857,438.790393 C575.58502,438.790393 567.032369,430.106685 567.032369,419.394831 C567.032369,408.683708 575.58502,400 586.134857,400 C586.307408,400 586.479959,400.002191 586.651042,400.007303 L632.083333,400 L618.66034,412.580787 L586.122375,412.580787 C582.422443,412.580787 579.422994,415.631404 579.422994,419.394831 C579.422994,423.158989 582.422443,426.209607 586.122375,426.209607 C605.039642,426.20956 614.508894,426.20956 614.530131,426.209607 C614.551369,426.209654 614.551369,426.23059 614.530131,426.272416 C624.355255,427.073596 632.083333,435.422809 632.083333,445.604438 C632.083333,456.316292 623.530681,465 612.980844,465 C612.45952,465 611.943336,464.97882 611.432292,464.937191 L611.432292,465 L566,465 L580.456096,452.419213 L612.994061,452.419213 C616.693259,452.419213 619.692708,449.368596 619.692708,445.605169 C619.692708,441.841011 616.693259,438.790393 612.994061,438.790393 Z" id="Path-Copy-5"></path>
            <path d="M612.994061,518.790393 L586.651042,518.790393 C586.479225,518.788202 586.307408,518.790393 586.134857,518.790393 C575.58502,518.790393 567.032369,510.106685 567.032369,499.394831 C567.032369,488.683708 575.58502,480 586.134857,480 C586.307408,480 586.479959,480.002191 586.651042,480.007303 L632.083333,480 L618.66034,492.580787 L586.122375,492.580787 C582.422443,492.580787 579.422994,495.631404 579.422994,499.394831 C579.422994,503.158989 582.422443,506.209607 586.122375,506.209607 C605.039642,506.20956 614.508894,506.20956 614.530131,506.209607 C614.551369,506.209654 614.551369,506.23059 614.530131,506.272416 C624.355255,507.073596 632.083333,515.422809 632.083333,525.604438 C632.083333,536.316292 623.530681,545 612.980844,545 C612.45952,545 611.943336,544.97882 611.432292,544.937191 L611.432292,545 L566,545 L580.456096,532.419213 L612.994061,532.419213 C616.693259,532.419213 619.692708,529.368596 619.692708,525.605169 C619.692708,521.841011 616.693259,518.790393 612.994061,518.790393 Z" id="Path-Copy-4"></path>
            <path d="M682.994061,118.790393 L656.651042,118.790393 C656.479225,118.788202 656.307408,118.790393 656.134857,118.790393 C645.58502,118.790393 637.032369,110.106685 637.032369,99.3948315 C637.032369,88.6837079 645.58502,80 656.134857,80 C656.307408,80 656.479959,80.002191 656.651042,80.0073034 L702.083333,80 L688.66034,92.5807865 L656.122375,92.5807865 C652.422443,92.5807865 649.422994,95.6314045 649.422994,99.3948315 C649.422994,103.158989 652.422443,106.209607 656.122375,106.209607 C675.039642,106.20956 684.508894,106.20956 684.530131,106.209607 C684.551369,106.209654 684.551369,106.23059 684.530131,106.272416 C694.355255,107.073596 702.083333,115.422809 702.083333,125.604438 C702.083333,136.316292 693.530681,145 682.980844,145 C682.45952,145 681.943336,144.97882 681.432292,144.937191 L681.432292,145 L636,145 L650.456096,132.419213 L682.994061,132.419213 C686.693259,132.419213 689.692708,129.368596 689.692708,125.605169 C689.692708,121.841011 686.693259,118.790393 682.994061,118.790393 Z" id="Path" opacity="0.647158668"></path>
            <path d="M682.994061,38.7903933 L656.651042,38.7903933 C656.479225,38.7882022 656.307408,38.7903933 656.134857,38.7903933 C645.58502,38.7903933 637.032369,30.1066854 637.032369,19.3948315 C637.032369,8.68370787 645.58502,0 656.134857,0 C656.307408,0 656.479959,0.00219101124 656.651042,0.00730337079 L702.083333,0 L688.66034,12.5807865 L656.122375,12.5807865 C652.422443,12.5807865 649.422994,15.6314045 649.422994,19.3948315 C649.422994,23.1589888 652.422443,26.2096067 656.122375,26.2096067 C675.039642,26.2095598 684.508894,26.2095598 684.530131,26.2096067 C684.551369,26.2096537 684.551369,26.23059 684.530131,26.2724157 C694.355255,27.0735955 702.083333,35.422809 702.083333,45.6044382 C702.083333,56.3162921 693.530681,65 682.980844,65 C682.45952,65 681.943336,64.9788202 681.432292,64.937191 L681.432292,65 L636,65 L650.456096,52.4192135 L682.994061,52.4192135 C686.693259,52.4192135 689.692708,49.3685955 689.692708,45.6051685 C689.692708,41.8410112 686.693259,38.7903933 682.994061,38.7903933 Z" id="Path-Copy-6" opacity="0.142508371"></path>
            <path d="M682.994061,198.790393 L656.651042,198.790393 C656.479225,198.788202 656.307408,198.790393 656.134857,198.790393 C645.58502,198.790393 637.032369,190.106685 637.032369,179.394831 C637.032369,168.683708 645.58502,160 656.134857,160 C656.307408,160 656.479959,160.002191 656.651042,160.007303 L702.083333,160 L688.66034,172.580787 L656.122375,172.580787 C652.422443,172.580787 649.422994,175.631404 649.422994,179.394831 C649.422994,183.158989 652.422443,186.209607 656.122375,186.209607 C675.039642,186.20956 684.508894,186.20956 684.530131,186.209607 C684.551369,186.209654 684.551369,186.23059 684.530131,186.272416 C694.355255,187.073596 702.083333,195.422809 702.083333,205.604438 C702.083333,216.316292 693.530681,225 682.980844,225 C682.45952,225 681.943336,224.97882 681.432292,224.937191 L681.432292,225 L636,225 L650.456096,212.419213 L682.994061,212.419213 C686.693259,212.419213 689.692708,209.368596 689.692708,205.605169 C689.692708,201.841011 686.693259,198.790393 682.994061,198.790393 Z" id="Path-Copy" opacity="0.383626302"></path>
            <path d="M682.994061,278.790393 L656.651042,278.790393 C656.479225,278.788202 656.307408,278.790393 656.134857,278.790393 C645.58502,278.790393 637.032369,270.106685 637.032369,259.394831 C637.032369,248.683708 645.58502,240 656.134857,240 C656.307408,240 656.479959,240.002191 656.651042,240.007303 L702.083333,240 L688.66034,252.580787 L656.122375,252.580787 C652.422443,252.580787 649.422994,255.631404 649.422994,259.394831 C649.422994,263.158989 652.422443,266.209607 656.122375,266.209607 C675.039642,266.20956 684.508894,266.20956 684.530131,266.209607 C684.551369,266.209654 684.551369,266.23059 684.530131,266.272416 C694.355255,267.073596 702.083333,275.422809 702.083333,285.604438 C702.083333,296.316292 693.530681,305 682.980844,305 C682.45952,305 681.943336,304.97882 681.432292,304.937191 L681.432292,305 L636,305 L650.456096,292.419213 L682.994061,292.419213 C686.693259,292.419213 689.692708,289.368596 689.692708,285.605169 C689.692708,281.841011 686.693259,278.790393 682.994061,278.790393 Z" id="Path-Copy-3" opacity="0.647158668"></path>
            <path d="M682.994061,358.790393 L656.651042,358.790393 C656.479225,358.788202 656.307408,358.790393 656.134857,358.790393 C645.58502,358.790393 637.032369,350.106685 637.032369,339.394831 C637.032369,328.683708 645.58502,320 656.134857,320 C656.307408,320 656.479959,320.002191 656.651042,320.007303 L702.083333,320 L688.66034,332.580787 L656.122375,332.580787 C652.422443,332.580787 649.422994,335.631404 649.422994,339.394831 C649.422994,343.158989 652.422443,346.209607 656.122375,346.209607 C675.039642,346.20956 684.508894,346.20956 684.530131,346.209607 C684.551369,346.209654 684.551369,346.23059 684.530131,346.272416 C694.355255,347.073596 702.083333,355.422809 702.083333,365.604438 C702.083333,376.316292 693.530681,385 682.980844,385 C682.45952,385 681.943336,384.97882 681.432292,384.937191 L681.432292,385 L636,385 L650.456096,372.419213 L682.994061,372.419213 C686.693259,372.419213 689.692708,369.368596 689.692708,365.605169 C689.692708,361.841011 686.693259,358.790393 682.994061,358.790393 Z" id="Path-Copy-2" opacity="0.647158668"></path>
            <path d="M682.994061,438.790393 L656.651042,438.790393 C656.479225,438.788202 656.307408,438.790393 656.134857,438.790393 C645.58502,438.790393 637.032369,430.106685 637.032369,419.394831 C637.032369,408.683708 645.58502,400 656.134857,400 C656.307408,400 656.479959,400.002191 656.651042,400.007303 L702.083333,400 L688.66034,412.580787 L656.122375,412.580787 C652.422443,412.580787 649.422994,415.631404 649.422994,419.394831 C649.422994,423.158989 652.422443,426.209607 656.122375,426.209607 C675.039642,426.20956 684.508894,426.20956 684.530131,426.209607 C684.551369,426.209654 684.551369,426.23059 684.530131,426.272416 C694.355255,427.073596 702.083333,435.422809 702.083333,445.604438 C702.083333,456.316292 693.530681,465 682.980844,465 C682.45952,465 681.943336,464.97882 681.432292,464.937191 L681.432292,465 L636,465 L650.456096,452.419213 L682.994061,452.419213 C686.693259,452.419213 689.692708,449.368596 689.692708,445.605169 C689.692708,441.841011 686.693259,438.790393 682.994061,438.790393 Z" id="Path-Copy-5" opacity="0.647158668"></path>
            <path d="M682.994061,518.790393 L656.651042,518.790393 C656.479225,518.788202 656.307408,518.790393 656.134857,518.790393 C645.58502,518.790393 637.032369,510.106685 637.032369,499.394831 C637.032369,488.683708 645.58502,480 656.134857,480 C656.307408,480 656.479959,480.002191 656.651042,480.007303 L702.083333,480 L688.66034,492.580787 L656.122375,492.580787 C652.422443,492.580787 649.422994,495.631404 649.422994,499.394831 C649.422994,503.158989 652.422443,506.209607 656.122375,506.209607 C675.039642,506.20956 684.508894,506.20956 684.530131,506.209607 C684.551369,506.209654 684.551369,506.23059 684.530131,506.272416 C694.355255,507.073596 702.083333,515.422809 702.083333,525.604438 C702.083333,536.316292 693.530681,545 682.980844,545 C682.45952,545 681.943336,544.97882 681.432292,544.937191 L681.432292,545 L636,545 L650.456096,532.419213 L682.994061,532.419213 C686.693259,532.419213 689.692708,529.368596 689.692708,525.605169 C689.692708,521.841011 686.693259,518.790393 682.994061,518.790393 Z" id="Path-Copy-4"></path>
            <path d="M752.994061,118.790393 L726.651042,118.790393 C726.479225,118.788202 726.307408,118.790393 726.134857,118.790393 C715.58502,118.790393 707.032369,110.106685 707.032369,99.3948315 C707.032369,88.6837079 715.58502,80 726.134857,80 C726.307408,80 726.479959,80.002191 726.651042,80.0073034 L772.083333,80 L758.66034,92.5807865 L726.122375,92.5807865 C722.422443,92.5807865 719.422994,95.6314045 719.422994,99.3948315 C719.422994,103.158989 722.422443,106.209607 726.122375,106.209607 C745.039642,106.20956 754.508894,106.20956 754.530131,106.209607 C754.551369,106.209654 754.551369,106.23059 754.530131,106.272416 C764.355255,107.073596 772.083333,115.422809 772.083333,125.604438 C772.083333,136.316292 763.530681,145 752.980844,145 C752.45952,145 751.943336,144.97882 751.432292,144.937191 L751.432292,145 L706,145 L720.456096,132.419213 L752.994061,132.419213 C756.693259,132.419213 759.692708,129.368596 759.692708,125.605169 C759.692708,121.841011 756.693259,118.790393 752.994061,118.790393 Z" id="Path"></path>
            <path d="M752.994061,38.7903933 L726.651042,38.7903933 C726.479225,38.7882022 726.307408,38.7903933 726.134857,38.7903933 C715.58502,38.7903933 707.032369,30.1066854 707.032369,19.3948315 C707.032369,8.68370787 715.58502,0 726.134857,0 C726.307408,0 726.479959,0.00219101124 726.651042,0.00730337079 L772.083333,0 L758.66034,12.5807865 L726.122375,12.5807865 C722.422443,12.5807865 719.422994,15.6314045 719.422994,19.3948315 C719.422994,23.1589888 722.422443,26.2096067 726.122375,26.2096067 C745.039642,26.2095598 754.508894,26.2095598 754.530131,26.2096067 C754.551369,26.2096537 754.551369,26.23059 754.530131,26.2724157 C764.355255,27.0735955 772.083333,35.422809 772.083333,45.6044382 C772.083333,56.3162921 763.530681,65 752.980844,65 C752.45952,65 751.943336,64.9788202 751.432292,64.937191 L751.432292,65 L706,65 L720.456096,52.4192135 L752.994061,52.4192135 C756.693259,52.4192135 759.692708,49.3685955 759.692708,45.6051685 C759.692708,41.8410112 756.693259,38.7903933 752.994061,38.7903933 Z" id="Path-Copy-6" opacity="0.647158668"></path>
            <path d="M752.994061,198.790393 L726.651042,198.790393 C726.479225,198.788202 726.307408,198.790393 726.134857,198.790393 C715.58502,198.790393 707.032369,190.106685 707.032369,179.394831 C707.032369,168.683708 715.58502,160 726.134857,160 C726.307408,160 726.479959,160.002191 726.651042,160.007303 L772.083333,160 L758.66034,172.580787 L726.122375,172.580787 C722.422443,172.580787 719.422994,175.631404 719.422994,179.394831 C719.422994,183.158989 722.422443,186.209607 726.122375,186.209607 C745.039642,186.20956 754.508894,186.20956 754.530131,186.209607 C754.551369,186.209654 754.551369,186.23059 754.530131,186.272416 C764.355255,187.073596 772.083333,195.422809 772.083333,205.604438 C772.083333,216.316292 763.530681,225 752.980844,225 C752.45952,225 751.943336,224.97882 751.432292,224.937191 L751.432292,225 L706,225 L720.456096,212.419213 L752.994061,212.419213 C756.693259,212.419213 759.692708,209.368596 759.692708,205.605169 C759.692708,201.841011 756.693259,198.790393 752.994061,198.790393 Z" id="Path-Copy" opacity="0.383626302"></path>
            <path d="M752.994061,278.790393 L726.651042,278.790393 C726.479225,278.788202 726.307408,278.790393 726.134857,278.790393 C715.58502,278.790393 707.032369,270.106685 707.032369,259.394831 C707.032369,248.683708 715.58502,240 726.134857,240 C726.307408,240 726.479959,240.002191 726.651042,240.007303 L772.083333,240 L758.66034,252.580787 L726.122375,252.580787 C722.422443,252.580787 719.422994,255.631404 719.422994,259.394831 C719.422994,263.158989 722.422443,266.209607 726.122375,266.209607 C745.039642,266.20956 754.508894,266.20956 754.530131,266.209607 C754.551369,266.209654 754.551369,266.23059 754.530131,266.272416 C764.355255,267.073596 772.083333,275.422809 772.083333,285.604438 C772.083333,296.316292 763.530681,305 752.980844,305 C752.45952,305 751.943336,304.97882 751.432292,304.937191 L751.432292,305 L706,305 L720.456096,292.419213 L752.994061,292.419213 C756.693259,292.419213 759.692708,289.368596 759.692708,285.605169 C759.692708,281.841011 756.693259,278.790393 752.994061,278.790393 Z" id="Path-Copy-3" opacity="0.383626302"></path>
            <path d="M752.994061,358.790393 L726.651042,358.790393 C726.479225,358.788202 726.307408,358.790393 726.134857,358.790393 C715.58502,358.790393 707.032369,350.106685 707.032369,339.394831 C707.032369,328.683708 715.58502,320 726.134857,320 C726.307408,320 726.479959,320.002191 726.651042,320.007303 L772.083333,320 L758.66034,332.580787 L726.122375,332.580787 C722.422443,332.580787 719.422994,335.631404 719.422994,339.394831 C719.422994,343.158989 722.422443,346.209607 726.122375,346.209607 C745.039642,346.20956 754.508894,346.20956 754.530131,346.209607 C754.551369,346.209654 754.551369,346.23059 754.530131,346.272416 C764.355255,347.073596 772.083333,355.422809 772.083333,365.604438 C772.083333,376.316292 763.530681,385 752.980844,385 C752.45952,385 751.943336,384.97882 751.432292,384.937191 L751.432292,385 L706,385 L720.456096,372.419213 L752.994061,372.419213 C756.693259,372.419213 759.692708,369.368596 759.692708,365.605169 C759.692708,361.841011 756.693259,358.790393 752.994061,358.790393 Z" id="Path-Copy-2" opacity="0.647158668"></path>
            <path d="M752.994061,438.790393 L726.651042,438.790393 C726.479225,438.788202 726.307408,438.790393 726.134857,438.790393 C715.58502,438.790393 707.032369,430.106685 707.032369,419.394831 C707.032369,408.683708 715.58502,400 726.134857,400 C726.307408,400 726.479959,400.002191 726.651042,400.007303 L772.083333,400 L758.66034,412.580787 L726.122375,412.580787 C722.422443,412.580787 719.422994,415.631404 719.422994,419.394831 C719.422994,423.158989 722.422443,426.209607 726.122375,426.209607 C745.039642,426.20956 754.508894,426.20956 754.530131,426.209607 C754.551369,426.209654 754.551369,426.23059 754.530131,426.272416 C764.355255,427.073596 772.083333,435.422809 772.083333,445.604438 C772.083333,456.316292 763.530681,465 752.980844,465 C752.45952,465 751.943336,464.97882 751.432292,464.937191 L751.432292,465 L706,465 L720.456096,452.419213 L752.994061,452.419213 C756.693259,452.419213 759.692708,449.368596 759.692708,445.605169 C759.692708,441.841011 756.693259,438.790393 752.994061,438.790393 Z" id="Path-Copy-5" opacity="0.142508371"></path>
            <path d="M752.994061,518.790393 L726.651042,518.790393 C726.479225,518.788202 726.307408,518.790393 726.134857,518.790393 C715.58502,518.790393 707.032369,510.106685 707.032369,499.394831 C707.032369,488.683708 715.58502,480 726.134857,480 C726.307408,480 726.479959,480.002191 726.651042,480.007303 L772.083333,480 L758.66034,492.580787 L726.122375,492.580787 C722.422443,492.580787 719.422994,495.631404 719.422994,499.394831 C719.422994,503.158989 722.422443,506.209607 726.122375,506.209607 C745.039642,506.20956 754.508894,506.20956 754.530131,506.209607 C754.551369,506.209654 754.551369,506.23059 754.530131,506.272416 C764.355255,507.073596 772.083333,515.422809 772.083333,525.604438 C772.083333,536.316292 763.530681,545 752.980844,545 C752.45952,545 751.943336,544.97882 751.432292,544.937191 L751.432292,545 L706,545 L720.456096,532.419213 L752.994061,532.419213 C756.693259,532.419213 759.692708,529.368596 759.692708,525.605169 C759.692708,521.841011 756.693259,518.790393 752.994061,518.790393 Z" id="Path-Copy-4"></path>
            <path d="M822.994061,118.790393 L796.651042,118.790393 C796.479225,118.788202 796.307408,118.790393 796.134857,118.790393 C785.58502,118.790393 777.032369,110.106685 777.032369,99.3948315 C777.032369,88.6837079 785.58502,80 796.134857,80 C796.307408,80 796.479959,80.002191 796.651042,80.0073034 L842.083333,80 L828.66034,92.5807865 L796.122375,92.5807865 C792.422443,92.5807865 789.422994,95.6314045 789.422994,99.3948315 C789.422994,103.158989 792.422443,106.209607 796.122375,106.209607 C815.039642,106.20956 824.508894,106.20956 824.530131,106.209607 C824.551369,106.209654 824.551369,106.23059 824.530131,106.272416 C834.355255,107.073596 842.083333,115.422809 842.083333,125.604438 C842.083333,136.316292 833.530681,145 822.980844,145 C822.45952,145 821.943336,144.97882 821.432292,144.937191 L821.432292,145 L776,145 L790.456096,132.419213 L822.994061,132.419213 C826.693259,132.419213 829.692708,129.368596 829.692708,125.605169 C829.692708,121.841011 826.693259,118.790393 822.994061,118.790393 Z" id="Path" opacity="0.142508371"></path>
            <path d="M822.994061,38.7903933 L796.651042,38.7903933 C796.479225,38.7882022 796.307408,38.7903933 796.134857,38.7903933 C785.58502,38.7903933 777.032369,30.1066854 777.032369,19.3948315 C777.032369,8.68370787 785.58502,0 796.134857,0 C796.307408,0 796.479959,0.00219101124 796.651042,0.00730337079 L842.083333,0 L828.66034,12.5807865 L796.122375,12.5807865 C792.422443,12.5807865 789.422994,15.6314045 789.422994,19.3948315 C789.422994,23.1589888 792.422443,26.2096067 796.122375,26.2096067 C815.039642,26.2095598 824.508894,26.2095598 824.530131,26.2096067 C824.551369,26.2096537 824.551369,26.23059 824.530131,26.2724157 C834.355255,27.0735955 842.083333,35.422809 842.083333,45.6044382 C842.083333,56.3162921 833.530681,65 822.980844,65 C822.45952,65 821.943336,64.9788202 821.432292,64.937191 L821.432292,65 L776,65 L790.456096,52.4192135 L822.994061,52.4192135 C826.693259,52.4192135 829.692708,49.3685955 829.692708,45.6051685 C829.692708,41.8410112 826.693259,38.7903933 822.994061,38.7903933 Z" id="Path-Copy-6" opacity="0.142508371"></path>
            <path d="M822.994061,198.790393 L796.651042,198.790393 C796.479225,198.788202 796.307408,198.790393 796.134857,198.790393 C785.58502,198.790393 777.032369,190.106685 777.032369,179.394831 C777.032369,168.683708 785.58502,160 796.134857,160 C796.307408,160 796.479959,160.002191 796.651042,160.007303 L842.083333,160 L828.66034,172.580787 L796.122375,172.580787 C792.422443,172.580787 789.422994,175.631404 789.422994,179.394831 C789.422994,183.158989 792.422443,186.209607 796.122375,186.209607 C815.039642,186.20956 824.508894,186.20956 824.530131,186.209607 C824.551369,186.209654 824.551369,186.23059 824.530131,186.272416 C834.355255,187.073596 842.083333,195.422809 842.083333,205.604438 C842.083333,216.316292 833.530681,225 822.980844,225 C822.45952,225 821.943336,224.97882 821.432292,224.937191 L821.432292,225 L776,225 L790.456096,212.419213 L822.994061,212.419213 C826.693259,212.419213 829.692708,209.368596 829.692708,205.605169 C829.692708,201.841011 826.693259,198.790393 822.994061,198.790393 Z" id="Path-Copy" opacity="0.647158668"></path>
            <path d="M822.994061,278.790393 L796.651042,278.790393 C796.479225,278.788202 796.307408,278.790393 796.134857,278.790393 C785.58502,278.790393 777.032369,270.106685 777.032369,259.394831 C777.032369,248.683708 785.58502,240 796.134857,240 C796.307408,240 796.479959,240.002191 796.651042,240.007303 L842.083333,240 L828.66034,252.580787 L796.122375,252.580787 C792.422443,252.580787 789.422994,255.631404 789.422994,259.394831 C789.422994,263.158989 792.422443,266.209607 796.122375,266.209607 C815.039642,266.20956 824.508894,266.20956 824.530131,266.209607 C824.551369,266.209654 824.551369,266.23059 824.530131,266.272416 C834.355255,267.073596 842.083333,275.422809 842.083333,285.604438 C842.083333,296.316292 833.530681,305 822.980844,305 C822.45952,305 821.943336,304.97882 821.432292,304.937191 L821.432292,305 L776,305 L790.456096,292.419213 L822.994061,292.419213 C826.693259,292.419213 829.692708,289.368596 829.692708,285.605169 C829.692708,281.841011 826.693259,278.790393 822.994061,278.790393 Z" id="Path-Copy-3" opacity="0.647158668"></path>
            <path d="M822.994061,358.790393 L796.651042,358.790393 C796.479225,358.788202 796.307408,358.790393 796.134857,358.790393 C785.58502,358.790393 777.032369,350.106685 777.032369,339.394831 C777.032369,328.683708 785.58502,320 796.134857,320 C796.307408,320 796.479959,320.002191 796.651042,320.007303 L842.083333,320 L828.66034,332.580787 L796.122375,332.580787 C792.422443,332.580787 789.422994,335.631404 789.422994,339.394831 C789.422994,343.158989 792.422443,346.209607 796.122375,346.209607 C815.039642,346.20956 824.508894,346.20956 824.530131,346.209607 C824.551369,346.209654 824.551369,346.23059 824.530131,346.272416 C834.355255,347.073596 842.083333,355.422809 842.083333,365.604438 C842.083333,376.316292 833.530681,385 822.980844,385 C822.45952,385 821.943336,384.97882 821.432292,384.937191 L821.432292,385 L776,385 L790.456096,372.419213 L822.994061,372.419213 C826.693259,372.419213 829.692708,369.368596 829.692708,365.605169 C829.692708,361.841011 826.693259,358.790393 822.994061,358.790393 Z" id="Path-Copy-2"></path>
            <path d="M822.994061,438.790393 L796.651042,438.790393 C796.479225,438.788202 796.307408,438.790393 796.134857,438.790393 C785.58502,438.790393 777.032369,430.106685 777.032369,419.394831 C777.032369,408.683708 785.58502,400 796.134857,400 C796.307408,400 796.479959,400.002191 796.651042,400.007303 L842.083333,400 L828.66034,412.580787 L796.122375,412.580787 C792.422443,412.580787 789.422994,415.631404 789.422994,419.394831 C789.422994,423.158989 792.422443,426.209607 796.122375,426.209607 C815.039642,426.20956 824.508894,426.20956 824.530131,426.209607 C824.551369,426.209654 824.551369,426.23059 824.530131,426.272416 C834.355255,427.073596 842.083333,435.422809 842.083333,445.604438 C842.083333,456.316292 833.530681,465 822.980844,465 C822.45952,465 821.943336,464.97882 821.432292,464.937191 L821.432292,465 L776,465 L790.456096,452.419213 L822.994061,452.419213 C826.693259,452.419213 829.692708,449.368596 829.692708,445.605169 C829.692708,441.841011 826.693259,438.790393 822.994061,438.790393 Z" id="Path-Copy-5" opacity="0.142508371"></path>
            <path d="M822.994061,518.790393 L796.651042,518.790393 C796.479225,518.788202 796.307408,518.790393 796.134857,518.790393 C785.58502,518.790393 777.032369,510.106685 777.032369,499.394831 C777.032369,488.683708 785.58502,480 796.134857,480 C796.307408,480 796.479959,480.002191 796.651042,480.007303 L842.083333,480 L828.66034,492.580787 L796.122375,492.580787 C792.422443,492.580787 789.422994,495.631404 789.422994,499.394831 C789.422994,503.158989 792.422443,506.209607 796.122375,506.209607 C815.039642,506.20956 824.508894,506.20956 824.530131,506.209607 C824.551369,506.209654 824.551369,506.23059 824.530131,506.272416 C834.355255,507.073596 842.083333,515.422809 842.083333,525.604438 C842.083333,536.316292 833.530681,545 822.980844,545 C822.45952,545 821.943336,544.97882 821.432292,544.937191 L821.432292,545 L776,545 L790.456096,532.419213 L822.994061,532.419213 C826.693259,532.419213 829.692708,529.368596 829.692708,525.605169 C829.692708,521.841011 826.693259,518.790393 822.994061,518.790393 Z" id="Path-Copy-4"></path>
            <path d="M46.9940611,118.790393 L20.6510417,118.790393 C20.479225,118.788202 20.3074083,118.790393 20.1348574,118.790393 C9.58502037,118.790393 1.03236852,110.106685 1.03236852,99.3948315 C1.03236852,88.6837079 9.58502037,80 20.1348574,80 C20.3074083,80 20.4799593,80.002191 20.6510417,80.0073034 L66.0833333,80 L52.6603398,92.5807865 L20.122375,92.5807865 C16.4224426,92.5807865 13.4229935,95.6314045 13.4229935,99.3948315 C13.4229935,103.158989 16.4224426,106.209607 20.122375,106.209607 C39.0396418,106.20956 48.508894,106.20956 48.5301315,106.209607 C48.551369,106.209654 48.551369,106.23059 48.5301315,106.272416 C58.3552546,107.073596 66.0833333,115.422809 66.0833333,125.604438 C66.0833333,136.316292 57.5306815,145 46.9808444,145 C46.4595204,145 45.9433361,144.97882 45.4322917,144.937191 L45.4322917,145 L7.81597009e-14,145 L14.4560963,132.419213 L46.9940611,132.419213 C50.6932593,132.419213 53.6927083,129.368596 53.6927083,125.605169 C53.6927083,121.841011 50.6932593,118.790393 46.9940611,118.790393 Z" id="Path" opacity="0.104515439"></path>
            <path d="M46.9940611,38.7903933 L20.6510417,38.7903933 C20.479225,38.7882022 20.3074083,38.7903933 20.1348574,38.7903933 C9.58502037,38.7903933 1.03236852,30.1066854 1.03236852,19.3948315 C1.03236852,8.68370787 9.58502037,0 20.1348574,0 C20.3074083,0 20.4799593,0.00219101124 20.6510417,0.00730337079 L66.0833333,0 L52.6603398,12.5807865 L20.122375,12.5807865 C16.4224426,12.5807865 13.4229935,15.6314045 13.4229935,19.3948315 C13.4229935,23.1589888 16.4224426,26.2096067 20.122375,26.2096067 C39.0396418,26.2095598 48.508894,26.2095598 48.5301315,26.2096067 C48.551369,26.2096537 48.551369,26.23059 48.5301315,26.2724157 C58.3552546,27.0735955 66.0833333,35.422809 66.0833333,45.6044382 C66.0833333,56.3162921 57.5306815,65 46.9808444,65 C46.4595204,65 45.9433361,64.9788202 45.4322917,64.937191 L45.4322917,65 L7.81597009e-14,65 L14.4560963,52.4192135 L46.9940611,52.4192135 C50.6932593,52.4192135 53.6927083,49.3685955 53.6927083,45.6051685 C53.6927083,41.8410112 50.6932593,38.7903933 46.9940611,38.7903933 Z" id="Path-Copy-6" opacity="0.104515439"></path>
            <path d="M46.9940611,198.790393 L20.6510417,198.790393 C20.479225,198.788202 20.3074083,198.790393 20.1348574,198.790393 C9.58502037,198.790393 1.03236852,190.106685 1.03236852,179.394831 C1.03236852,168.683708 9.58502037,160 20.1348574,160 C20.3074083,160 20.4799593,160.002191 20.6510417,160.007303 L66.0833333,160 L52.6603398,172.580787 L20.122375,172.580787 C16.4224426,172.580787 13.4229935,175.631404 13.4229935,179.394831 C13.4229935,183.158989 16.4224426,186.209607 20.122375,186.209607 C39.0396418,186.20956 48.508894,186.20956 48.5301315,186.209607 C48.551369,186.209654 48.551369,186.23059 48.5301315,186.272416 C58.3552546,187.073596 66.0833333,195.422809 66.0833333,205.604438 C66.0833333,216.316292 57.5306815,225 46.9808444,225 C46.4595204,225 45.9433361,224.97882 45.4322917,224.937191 L45.4322917,225 L7.81597009e-14,225 L14.4560963,212.419213 L46.9940611,212.419213 C50.6932593,212.419213 53.6927083,209.368596 53.6927083,205.605169 C53.6927083,201.841011 50.6932593,198.790393 46.9940611,198.790393 Z" id="Path-Copy" opacity="0.104515439"></path>
            <path d="M52.9940611,278.790393 L26.6510417,278.790393 C26.479225,278.788202 26.3074083,278.790393 26.1348574,278.790393 C15.5850204,278.790393 7.03236852,270.106685 7.03236852,259.394831 C7.03236852,248.683708 15.5850204,240 26.1348574,240 C26.3074083,240 26.4799593,240.002191 26.6510417,240.007303 L72.0833333,240 L58.6603398,252.580787 L26.122375,252.580787 C22.4224426,252.580787 19.4229935,255.631404 19.4229935,259.394831 C19.4229935,263.158989 22.4224426,266.209607 26.122375,266.209607 C45.0396418,266.20956 54.508894,266.20956 54.5301315,266.209607 C54.551369,266.209654 54.551369,266.23059 54.5301315,266.272416 C64.3552546,267.073596 72.0833333,275.422809 72.0833333,285.604438 C72.0833333,296.316292 63.5306815,305 52.9808444,305 C52.4595204,305 51.9433361,304.97882 51.4322917,304.937191 L51.4322917,305 L6,305 L20.4560963,292.419213 L52.9940611,292.419213 C56.6932593,292.419213 59.6927083,289.368596 59.6927083,285.605169 C59.6927083,281.841011 56.6932593,278.790393 52.9940611,278.790393 Z" id="Path-Copy-3" opacity="0.0392020089"></path>
            <path d="M46.9940611,358.790393 L20.6510417,358.790393 C20.479225,358.788202 20.3074083,358.790393 20.1348574,358.790393 C9.58502037,358.790393 1.03236852,350.106685 1.03236852,339.394831 C1.03236852,328.683708 9.58502037,320 20.1348574,320 C20.3074083,320 20.4799593,320.002191 20.6510417,320.007303 L66.0833333,320 L52.6603398,332.580787 L20.122375,332.580787 C16.4224426,332.580787 13.4229935,335.631404 13.4229935,339.394831 C13.4229935,343.158989 16.4224426,346.209607 20.122375,346.209607 C39.0396418,346.20956 48.508894,346.20956 48.5301315,346.209607 C48.551369,346.209654 48.551369,346.23059 48.5301315,346.272416 C58.3552546,347.073596 66.0833333,355.422809 66.0833333,365.604438 C66.0833333,376.316292 57.5306815,385 46.9808444,385 C46.4595204,385 45.9433361,384.97882 45.4322917,384.937191 L45.4322917,385 L7.81597009e-14,385 L14.4560963,372.419213 L46.9940611,372.419213 C50.6932593,372.419213 53.6927083,369.368596 53.6927083,365.605169 C53.6927083,361.841011 50.6932593,358.790393 46.9940611,358.790393 Z" id="Path-Copy-2" opacity="0.104515439"></path>
            <path d="M46.9940611,438.790393 L20.6510417,438.790393 C20.479225,438.788202 20.3074083,438.790393 20.1348574,438.790393 C9.58502037,438.790393 1.03236852,430.106685 1.03236852,419.394831 C1.03236852,408.683708 9.58502037,400 20.1348574,400 C20.3074083,400 20.4799593,400.002191 20.6510417,400.007303 L66.0833333,400 L52.6603398,412.580787 L20.122375,412.580787 C16.4224426,412.580787 13.4229935,415.631404 13.4229935,419.394831 C13.4229935,423.158989 16.4224426,426.209607 20.122375,426.209607 C39.0396418,426.20956 48.508894,426.20956 48.5301315,426.209607 C48.551369,426.209654 48.551369,426.23059 48.5301315,426.272416 C58.3552546,427.073596 66.0833333,435.422809 66.0833333,445.604438 C66.0833333,456.316292 57.5306815,465 46.9808444,465 C46.4595204,465 45.9433361,464.97882 45.4322917,464.937191 L45.4322917,465 L7.81597009e-14,465 L14.4560963,452.419213 L46.9940611,452.419213 C50.6932593,452.419213 53.6927083,449.368596 53.6927083,445.605169 C53.6927083,441.841011 50.6932593,438.790393 46.9940611,438.790393 Z" id="Path-Copy-5" opacity="0.104515439"></path>
            <path d="M52.9940611,518.790393 L26.6510417,518.790393 C26.479225,518.788202 26.3074083,518.790393 26.1348574,518.790393 C15.5850204,518.790393 7.03236852,510.106685 7.03236852,499.394831 C7.03236852,488.683708 15.5850204,480 26.1348574,480 C26.3074083,480 26.4799593,480.002191 26.6510417,480.007303 L72.0833333,480 L58.6603398,492.580787 L26.122375,492.580787 C22.4224426,492.580787 19.4229935,495.631404 19.4229935,499.394831 C19.4229935,503.158989 22.4224426,506.209607 26.122375,506.209607 C45.0396418,506.20956 54.508894,506.20956 54.5301315,506.209607 C54.551369,506.209654 54.551369,506.23059 54.5301315,506.272416 C64.3552546,507.073596 72.0833333,515.422809 72.0833333,525.604438 C72.0833333,536.316292 63.5306815,545 52.9808444,545 C52.4595204,545 51.9433361,544.97882 51.4322917,544.937191 L51.4322917,545 L6,545 L20.4560963,532.419213 L52.9940611,532.419213 C56.6932593,532.419213 59.6927083,529.368596 59.6927083,525.605169 C59.6927083,521.841011 56.6932593,518.790393 52.9940611,518.790393 Z" id="Path-Copy-4" opacity="0.12281436"></path>
            <path d="M116.994061,118.790393 L90.6510417,118.790393 C90.479225,118.788202 90.3074083,118.790393 90.1348574,118.790393 C79.5850204,118.790393 71.0323685,110.106685 71.0323685,99.3948315 C71.0323685,88.6837079 79.5850204,80 90.1348574,80 C90.3074083,80 90.4799593,80.002191 90.6510417,80.0073034 L136.083333,80 L122.66034,92.5807865 L90.122375,92.5807865 C86.4224426,92.5807865 83.4229935,95.6314045 83.4229935,99.3948315 C83.4229935,103.158989 86.4224426,106.209607 90.122375,106.209607 C109.039642,106.20956 118.508894,106.20956 118.530131,106.209607 C118.551369,106.209654 118.551369,106.23059 118.530131,106.272416 C128.355255,107.073596 136.083333,115.422809 136.083333,125.604438 C136.083333,136.316292 127.530681,145 116.980844,145 C116.45952,145 115.943336,144.97882 115.432292,144.937191 L115.432292,145 L70,145 L84.4560963,132.419213 L116.994061,132.419213 C120.693259,132.419213 123.692708,129.368596 123.692708,125.605169 C123.692708,121.841011 120.693259,118.790393 116.994061,118.790393 Z" id="Path" opacity="0.104515439"></path>
            <path d="M122.994061,38.7903933 L96.6510417,38.7903933 C96.479225,38.7882022 96.3074083,38.7903933 96.1348574,38.7903933 C85.5850204,38.7903933 77.0323685,30.1066854 77.0323685,19.3948315 C77.0323685,8.68370787 85.5850204,0 96.1348574,0 C96.3074083,0 96.4799593,0.00219101124 96.6510417,0.00730337079 L142.083333,0 L128.66034,12.5807865 L96.122375,12.5807865 C92.4224426,12.5807865 89.4229935,15.6314045 89.4229935,19.3948315 C89.4229935,23.1589888 92.4224426,26.2096067 96.122375,26.2096067 C115.039642,26.2095598 124.508894,26.2095598 124.530131,26.2096067 C124.551369,26.2096537 124.551369,26.23059 124.530131,26.2724157 C134.355255,27.0735955 142.083333,35.422809 142.083333,45.6044382 C142.083333,56.3162921 133.530681,65 122.980844,65 C122.45952,65 121.943336,64.9788202 121.432292,64.937191 L121.432292,65 L76,65 L90.4560963,52.4192135 L122.994061,52.4192135 C126.693259,52.4192135 129.692708,49.3685955 129.692708,45.6051685 C129.692708,41.8410112 126.693259,38.7903933 122.994061,38.7903933 Z" id="Path-Copy-6" opacity="0.12281436"></path>
            <path d="M122.994061,198.790393 L96.6510417,198.790393 C96.479225,198.788202 96.3074083,198.790393 96.1348574,198.790393 C85.5850204,198.790393 77.0323685,190.106685 77.0323685,179.394831 C77.0323685,168.683708 85.5850204,160 96.1348574,160 C96.3074083,160 96.4799593,160.002191 96.6510417,160.007303 L142.083333,160 L128.66034,172.580787 L96.122375,172.580787 C92.4224426,172.580787 89.4229935,175.631404 89.4229935,179.394831 C89.4229935,183.158989 92.4224426,186.209607 96.122375,186.209607 C115.039642,186.20956 124.508894,186.20956 124.530131,186.209607 C124.551369,186.209654 124.551369,186.23059 124.530131,186.272416 C134.355255,187.073596 142.083333,195.422809 142.083333,205.604438 C142.083333,216.316292 133.530681,225 122.980844,225 C122.45952,225 121.943336,224.97882 121.432292,224.937191 L121.432292,225 L76,225 L90.4560963,212.419213 L122.994061,212.419213 C126.693259,212.419213 129.692708,209.368596 129.692708,205.605169 C129.692708,201.841011 126.693259,198.790393 122.994061,198.790393 Z" id="Path-Copy" opacity="0.12281436"></path>
            <path d="M122.994061,278.790393 L96.6510417,278.790393 C96.479225,278.788202 96.3074083,278.790393 96.1348574,278.790393 C85.5850204,278.790393 77.0323685,270.106685 77.0323685,259.394831 C77.0323685,248.683708 85.5850204,240 96.1348574,240 C96.3074083,240 96.4799593,240.002191 96.6510417,240.007303 L142.083333,240 L128.66034,252.580787 L96.122375,252.580787 C92.4224426,252.580787 89.4229935,255.631404 89.4229935,259.394831 C89.4229935,263.158989 92.4224426,266.209607 96.122375,266.209607 C115.039642,266.20956 124.508894,266.20956 124.530131,266.209607 C124.551369,266.209654 124.551369,266.23059 124.530131,266.272416 C134.355255,267.073596 142.083333,275.422809 142.083333,285.604438 C142.083333,296.316292 133.530681,305 122.980844,305 C122.45952,305 121.943336,304.97882 121.432292,304.937191 L121.432292,305 L76,305 L90.4560963,292.419213 L122.994061,292.419213 C126.693259,292.419213 129.692708,289.368596 129.692708,285.605169 C129.692708,281.841011 126.693259,278.790393 122.994061,278.790393 Z" id="Path-Copy-3" opacity="0.0392020089"></path>
            <path d="M122.994061,358.790393 L96.6510417,358.790393 C96.479225,358.788202 96.3074083,358.790393 96.1348574,358.790393 C85.5850204,358.790393 77.0323685,350.106685 77.0323685,339.394831 C77.0323685,328.683708 85.5850204,320 96.1348574,320 C96.3074083,320 96.4799593,320.002191 96.6510417,320.007303 L142.083333,320 L128.66034,332.580787 L96.122375,332.580787 C92.4224426,332.580787 89.4229935,335.631404 89.4229935,339.394831 C89.4229935,343.158989 92.4224426,346.209607 96.122375,346.209607 C115.039642,346.20956 124.508894,346.20956 124.530131,346.209607 C124.551369,346.209654 124.551369,346.23059 124.530131,346.272416 C134.355255,347.073596 142.083333,355.422809 142.083333,365.604438 C142.083333,376.316292 133.530681,385 122.980844,385 C122.45952,385 121.943336,384.97882 121.432292,384.937191 L121.432292,385 L76,385 L90.4560963,372.419213 L122.994061,372.419213 C126.693259,372.419213 129.692708,369.368596 129.692708,365.605169 C129.692708,361.841011 126.693259,358.790393 122.994061,358.790393 Z" id="Path-Copy-2" opacity="0.233258929"></path>
            <path d="M122.994061,438.790393 L96.6510417,438.790393 C96.479225,438.788202 96.3074083,438.790393 96.1348574,438.790393 C85.5850204,438.790393 77.0323685,430.106685 77.0323685,419.394831 C77.0323685,408.683708 85.5850204,400 96.1348574,400 C96.3074083,400 96.4799593,400.002191 96.6510417,400.007303 L142.083333,400 L128.66034,412.580787 L96.122375,412.580787 C92.4224426,412.580787 89.4229935,415.631404 89.4229935,419.394831 C89.4229935,423.158989 92.4224426,426.209607 96.122375,426.209607 C115.039642,426.20956 124.508894,426.20956 124.530131,426.209607 C124.551369,426.209654 124.551369,426.23059 124.530131,426.272416 C134.355255,427.073596 142.083333,435.422809 142.083333,445.604438 C142.083333,456.316292 133.530681,465 122.980844,465 C122.45952,465 121.943336,464.97882 121.432292,464.937191 L121.432292,465 L76,465 L90.4560963,452.419213 L122.994061,452.419213 C126.693259,452.419213 129.692708,449.368596 129.692708,445.605169 C129.692708,441.841011 126.693259,438.790393 122.994061,438.790393 Z" id="Path-Copy-5" opacity="0.12281436"></path>
            <path d="M122.994061,518.790393 L96.6510417,518.790393 C96.479225,518.788202 96.3074083,518.790393 96.1348574,518.790393 C85.5850204,518.790393 77.0323685,510.106685 77.0323685,499.394831 C77.0323685,488.683708 85.5850204,480 96.1348574,480 C96.3074083,480 96.4799593,480.002191 96.6510417,480.007303 L142.083333,480 L128.66034,492.580787 L96.122375,492.580787 C92.4224426,492.580787 89.4229935,495.631404 89.4229935,499.394831 C89.4229935,503.158989 92.4224426,506.209607 96.122375,506.209607 C115.039642,506.20956 124.508894,506.20956 124.530131,506.209607 C124.551369,506.209654 124.551369,506.23059 124.530131,506.272416 C134.355255,507.073596 142.083333,515.422809 142.083333,525.604438 C142.083333,536.316292 133.530681,545 122.980844,545 C122.45952,545 121.943336,544.97882 121.432292,544.937191 L121.432292,545 L76,545 L90.4560963,532.419213 L122.994061,532.419213 C126.693259,532.419213 129.692708,529.368596 129.692708,525.605169 C129.692708,521.841011 126.693259,518.790393 122.994061,518.790393 Z" id="Path-Copy-4" opacity="0.12281436"></path>
            <path d="M192.994061,118.790393 L166.651042,118.790393 C166.479225,118.788202 166.307408,118.790393 166.134857,118.790393 C155.58502,118.790393 147.032369,110.106685 147.032369,99.3948315 C147.032369,88.6837079 155.58502,80 166.134857,80 C166.307408,80 166.479959,80.002191 166.651042,80.0073034 L212.083333,80 L198.66034,92.5807865 L166.122375,92.5807865 C162.422443,92.5807865 159.422994,95.6314045 159.422994,99.3948315 C159.422994,103.158989 162.422443,106.209607 166.122375,106.209607 C185.039642,106.20956 194.508894,106.20956 194.530131,106.209607 C194.551369,106.209654 194.551369,106.23059 194.530131,106.272416 C204.355255,107.073596 212.083333,115.422809 212.083333,125.604438 C212.083333,136.316292 203.530681,145 192.980844,145 C192.45952,145 191.943336,144.97882 191.432292,144.937191 L191.432292,145 L146,145 L160.456096,132.419213 L192.994061,132.419213 C196.693259,132.419213 199.692708,129.368596 199.692708,125.605169 C199.692708,121.841011 196.693259,118.790393 192.994061,118.790393 Z" id="Path" opacity="0.647158668"></path>
            <path d="M447.994061,440.790393 L421.651042,440.790393 C421.479225,440.788202 421.307408,440.790393 421.134857,440.790393 C410.58502,440.790393 402.032369,432.106685 402.032369,421.394831 C402.032369,410.683708 410.58502,402 421.134857,402 C421.307408,402 421.479959,402.002191 421.651042,402.007303 L467.083333,402 L453.66034,414.580787 L421.122375,414.580787 C417.422443,414.580787 414.422994,417.631404 414.422994,421.394831 C414.422994,425.158989 417.422443,428.209607 421.122375,428.209607 C440.039642,428.20956 449.508894,428.20956 449.530131,428.209607 C449.551369,428.209654 449.551369,428.23059 449.530131,428.272416 C459.355255,429.073596 467.083333,437.422809 467.083333,447.604438 C467.083333,458.316292 458.530681,467 447.980844,467 C447.45952,467 446.943336,466.97882 446.432292,466.937191 L446.432292,467 L401,467 L415.456096,454.419213 L447.994061,454.419213 C451.693259,454.419213 454.692708,451.368596 454.692708,447.605169 C454.692708,443.841011 451.693259,440.790393 447.994061,440.790393 Z" id="Path-Copy-6" opacity="0.142508371"></path>
            <path d="M192.994061,198.790393 L166.651042,198.790393 C166.479225,198.788202 166.307408,198.790393 166.134857,198.790393 C155.58502,198.790393 147.032369,190.106685 147.032369,179.394831 C147.032369,168.683708 155.58502,160 166.134857,160 C166.307408,160 166.479959,160.002191 166.651042,160.007303 L212.083333,160 L198.66034,172.580787 L166.122375,172.580787 C162.422443,172.580787 159.422994,175.631404 159.422994,179.394831 C159.422994,183.158989 162.422443,186.209607 166.122375,186.209607 C185.039642,186.20956 194.508894,186.20956 194.530131,186.209607 C194.551369,186.209654 194.551369,186.23059 194.530131,186.272416 C204.355255,187.073596 212.083333,195.422809 212.083333,205.604438 C212.083333,216.316292 203.530681,225 192.980844,225 C192.45952,225 191.943336,224.97882 191.432292,224.937191 L191.432292,225 L146,225 L160.456096,212.419213 L192.994061,212.419213 C196.693259,212.419213 199.692708,209.368596 199.692708,205.605169 C199.692708,201.841011 196.693259,198.790393 192.994061,198.790393 Z" id="Path-Copy" opacity="0.383626302"></path>
            <path d="M186.994061,278.790393 L160.651042,278.790393 C160.479225,278.788202 160.307408,278.790393 160.134857,278.790393 C149.58502,278.790393 141.032369,270.106685 141.032369,259.394831 C141.032369,248.683708 149.58502,240 160.134857,240 C160.307408,240 160.479959,240.002191 160.651042,240.007303 L206.083333,240 L192.66034,252.580787 L160.122375,252.580787 C156.422443,252.580787 153.422994,255.631404 153.422994,259.394831 C153.422994,263.158989 156.422443,266.209607 160.122375,266.209607 C179.039642,266.20956 188.508894,266.20956 188.530131,266.209607 C188.551369,266.209654 188.551369,266.23059 188.530131,266.272416 C198.355255,267.073596 206.083333,275.422809 206.083333,285.604438 C206.083333,296.316292 197.530681,305 186.980844,305 C186.45952,305 185.943336,304.97882 185.432292,304.937191 L185.432292,305 L140,305 L154.456096,292.419213 L186.994061,292.419213 C190.693259,292.419213 193.692708,289.368596 193.692708,285.605169 C193.692708,281.841011 190.693259,278.790393 186.994061,278.790393 Z" id="Path-Copy-3" opacity="0.104515439"></path>
            <path d="M186.994061,358.790393 L160.651042,358.790393 C160.479225,358.788202 160.307408,358.790393 160.134857,358.790393 C149.58502,358.790393 141.032369,350.106685 141.032369,339.394831 C141.032369,328.683708 149.58502,320 160.134857,320 C160.307408,320 160.479959,320.002191 160.651042,320.007303 L206.083333,320 L192.66034,332.580787 L160.122375,332.580787 C156.422443,332.580787 153.422994,335.631404 153.422994,339.394831 C153.422994,343.158989 156.422443,346.209607 160.122375,346.209607 C179.039642,346.20956 188.508894,346.20956 188.530131,346.209607 C188.551369,346.209654 188.551369,346.23059 188.530131,346.272416 C198.355255,347.073596 206.083333,355.422809 206.083333,365.604438 C206.083333,376.316292 197.530681,385 186.980844,385 C186.45952,385 185.943336,384.97882 185.432292,384.937191 L185.432292,385 L140,385 L154.456096,372.419213 L186.994061,372.419213 C190.693259,372.419213 193.692708,369.368596 193.692708,365.605169 C193.692708,361.841011 190.693259,358.790393 186.994061,358.790393 Z" id="Path-Copy-2" opacity="0.104515439"></path>
            <path d="M192.994061,438.790393 L166.651042,438.790393 C166.479225,438.788202 166.307408,438.790393 166.134857,438.790393 C155.58502,438.790393 147.032369,430.106685 147.032369,419.394831 C147.032369,408.683708 155.58502,400 166.134857,400 C166.307408,400 166.479959,400.002191 166.651042,400.007303 L212.083333,400 L198.66034,412.580787 L166.122375,412.580787 C162.422443,412.580787 159.422994,415.631404 159.422994,419.394831 C159.422994,423.158989 162.422443,426.209607 166.122375,426.209607 C185.039642,426.20956 194.508894,426.20956 194.530131,426.209607 C194.551369,426.209654 194.551369,426.23059 194.530131,426.272416 C204.355255,427.073596 212.083333,435.422809 212.083333,445.604438 C212.083333,456.316292 203.530681,465 192.980844,465 C192.45952,465 191.943336,464.97882 191.432292,464.937191 L191.432292,465 L146,465 L160.456096,452.419213 L192.994061,452.419213 C196.693259,452.419213 199.692708,449.368596 199.692708,445.605169 C199.692708,441.841011 196.693259,438.790393 192.994061,438.790393 Z" id="Path-Copy-5" opacity="0.233258929"></path>
            <path d="M192.994061,518.790393 L166.651042,518.790393 C166.479225,518.788202 166.307408,518.790393 166.134857,518.790393 C155.58502,518.790393 147.032369,510.106685 147.032369,499.394831 C147.032369,488.683708 155.58502,480 166.134857,480 C166.307408,480 166.479959,480.002191 166.651042,480.007303 L212.083333,480 L198.66034,492.580787 L166.122375,492.580787 C162.422443,492.580787 159.422994,495.631404 159.422994,499.394831 C159.422994,503.158989 162.422443,506.209607 166.122375,506.209607 C185.039642,506.20956 194.508894,506.20956 194.530131,506.209607 C194.551369,506.209654 194.551369,506.23059 194.530131,506.272416 C204.355255,507.073596 212.083333,515.422809 212.083333,525.604438 C212.083333,536.316292 203.530681,545 192.980844,545 C192.45952,545 191.943336,544.97882 191.432292,544.937191 L191.432292,545 L146,545 L160.456096,532.419213 L192.994061,532.419213 C196.693259,532.419213 199.692708,529.368596 199.692708,525.605169 C199.692708,521.841011 196.693259,518.790393 192.994061,518.790393 Z" id="Path-Copy-4"></path>
            <path d="M262.994061,118.790393 L236.651042,118.790393 C236.479225,118.788202 236.307408,118.790393 236.134857,118.790393 C225.58502,118.790393 217.032369,110.106685 217.032369,99.3948315 C217.032369,88.6837079 225.58502,80 236.134857,80 C236.307408,80 236.479959,80.002191 236.651042,80.0073034 L282.083333,80 L268.66034,92.5807865 L236.122375,92.5807865 C232.422443,92.5807865 229.422994,95.6314045 229.422994,99.3948315 C229.422994,103.158989 232.422443,106.209607 236.122375,106.209607 C255.039642,106.20956 264.508894,106.20956 264.530131,106.209607 C264.551369,106.209654 264.551369,106.23059 264.530131,106.272416 C274.355255,107.073596 282.083333,115.422809 282.083333,125.604438 C282.083333,136.316292 273.530681,145 262.980844,145 C262.45952,145 261.943336,144.97882 261.432292,144.937191 L261.432292,145 L216,145 L230.456096,132.419213 L262.994061,132.419213 C266.693259,132.419213 269.692708,129.368596 269.692708,125.605169 C269.692708,121.841011 266.693259,118.790393 262.994061,118.790393 Z" id="Path" opacity="0.647158668"></path>
            <path d="M262.994061,38.7903933 L236.651042,38.7903933 C236.479225,38.7882022 236.307408,38.7903933 236.134857,38.7903933 C225.58502,38.7903933 217.032369,30.1066854 217.032369,19.3948315 C217.032369,8.68370787 225.58502,0 236.134857,0 C236.307408,0 236.479959,0.00219101124 236.651042,0.00730337079 L282.083333,0 L268.66034,12.5807865 L236.122375,12.5807865 C232.422443,12.5807865 229.422994,15.6314045 229.422994,19.3948315 C229.422994,23.1589888 232.422443,26.2096067 236.122375,26.2096067 C255.039642,26.2095598 264.508894,26.2095598 264.530131,26.2096067 C264.551369,26.2096537 264.551369,26.23059 264.530131,26.2724157 C274.355255,27.0735955 282.083333,35.422809 282.083333,45.6044382 C282.083333,56.3162921 273.530681,65 262.980844,65 C262.45952,65 261.943336,64.9788202 261.432292,64.937191 L261.432292,65 L216,65 L230.456096,52.4192135 L262.994061,52.4192135 C266.693259,52.4192135 269.692708,49.3685955 269.692708,45.6051685 C269.692708,41.8410112 266.693259,38.7903933 262.994061,38.7903933 Z" id="Path-Copy-6" opacity="0.142508371"></path>
            <path d="M262.994061,198.790393 L236.651042,198.790393 C236.479225,198.788202 236.307408,198.790393 236.134857,198.790393 C225.58502,198.790393 217.032369,190.106685 217.032369,179.394831 C217.032369,168.683708 225.58502,160 236.134857,160 C236.307408,160 236.479959,160.002191 236.651042,160.007303 L282.083333,160 L268.66034,172.580787 L236.122375,172.580787 C232.422443,172.580787 229.422994,175.631404 229.422994,179.394831 C229.422994,183.158989 232.422443,186.209607 236.122375,186.209607 C255.039642,186.20956 264.508894,186.20956 264.530131,186.209607 C264.551369,186.209654 264.551369,186.23059 264.530131,186.272416 C274.355255,187.073596 282.083333,195.422809 282.083333,205.604438 C282.083333,216.316292 273.530681,225 262.980844,225 C262.45952,225 261.943336,224.97882 261.432292,224.937191 L261.432292,225 L216,225 L230.456096,212.419213 L262.994061,212.419213 C266.693259,212.419213 269.692708,209.368596 269.692708,205.605169 C269.692708,201.841011 266.693259,198.790393 262.994061,198.790393 Z" id="Path-Copy" opacity="0.383626302"></path>
            <path d="M262.994061,278.790393 L236.651042,278.790393 C236.479225,278.788202 236.307408,278.790393 236.134857,278.790393 C225.58502,278.790393 217.032369,270.106685 217.032369,259.394831 C217.032369,248.683708 225.58502,240 236.134857,240 C236.307408,240 236.479959,240.002191 236.651042,240.007303 L282.083333,240 L268.66034,252.580787 L236.122375,252.580787 C232.422443,252.580787 229.422994,255.631404 229.422994,259.394831 C229.422994,263.158989 232.422443,266.209607 236.122375,266.209607 C255.039642,266.20956 264.508894,266.20956 264.530131,266.209607 C264.551369,266.209654 264.551369,266.23059 264.530131,266.272416 C274.355255,267.073596 282.083333,275.422809 282.083333,285.604438 C282.083333,296.316292 273.530681,305 262.980844,305 C262.45952,305 261.943336,304.97882 261.432292,304.937191 L261.432292,305 L216,305 L230.456096,292.419213 L262.994061,292.419213 C266.693259,292.419213 269.692708,289.368596 269.692708,285.605169 C269.692708,281.841011 266.693259,278.790393 262.994061,278.790393 Z" id="Path-Copy-3" opacity="0.647158668"></path>
            <path d="M256.994061,358.790393 L230.651042,358.790393 C230.479225,358.788202 230.307408,358.790393 230.134857,358.790393 C219.58502,358.790393 211.032369,350.106685 211.032369,339.394831 C211.032369,328.683708 219.58502,320 230.134857,320 C230.307408,320 230.479959,320.002191 230.651042,320.007303 L276.083333,320 L262.66034,332.580787 L230.122375,332.580787 C226.422443,332.580787 223.422994,335.631404 223.422994,339.394831 C223.422994,343.158989 226.422443,346.209607 230.122375,346.209607 C249.039642,346.20956 258.508894,346.20956 258.530131,346.209607 C258.551369,346.209654 258.551369,346.23059 258.530131,346.272416 C268.355255,347.073596 276.083333,355.422809 276.083333,365.604438 C276.083333,376.316292 267.530681,385 256.980844,385 C256.45952,385 255.943336,384.97882 255.432292,384.937191 L255.432292,385 L210,385 L224.456096,372.419213 L256.994061,372.419213 C260.693259,372.419213 263.692708,369.368596 263.692708,365.605169 C263.692708,361.841011 260.693259,358.790393 256.994061,358.790393 Z" id="Path-Copy-2" opacity="0.104515439"></path>
            <path d="M262.994061,438.790393 L236.651042,438.790393 C236.479225,438.788202 236.307408,438.790393 236.134857,438.790393 C225.58502,438.790393 217.032369,430.106685 217.032369,419.394831 C217.032369,408.683708 225.58502,400 236.134857,400 C236.307408,400 236.479959,400.002191 236.651042,400.007303 L282.083333,400 L268.66034,412.580787 L236.122375,412.580787 C232.422443,412.580787 229.422994,415.631404 229.422994,419.394831 C229.422994,423.158989 232.422443,426.209607 236.122375,426.209607 C255.039642,426.20956 264.508894,426.20956 264.530131,426.209607 C264.551369,426.209654 264.551369,426.23059 264.530131,426.272416 C274.355255,427.073596 282.083333,435.422809 282.083333,445.604438 C282.083333,456.316292 273.530681,465 262.980844,465 C262.45952,465 261.943336,464.97882 261.432292,464.937191 L261.432292,465 L216,465 L230.456096,452.419213 L262.994061,452.419213 C266.693259,452.419213 269.692708,449.368596 269.692708,445.605169 C269.692708,441.841011 266.693259,438.790393 262.994061,438.790393 Z" id="Path-Copy-5" opacity="0.647158668"></path>
            <path d="M262.994061,518.790393 L236.651042,518.790393 C236.479225,518.788202 236.307408,518.790393 236.134857,518.790393 C225.58502,518.790393 217.032369,510.106685 217.032369,499.394831 C217.032369,488.683708 225.58502,480 236.134857,480 C236.307408,480 236.479959,480.002191 236.651042,480.007303 L282.083333,480 L268.66034,492.580787 L236.122375,492.580787 C232.422443,492.580787 229.422994,495.631404 229.422994,499.394831 C229.422994,503.158989 232.422443,506.209607 236.122375,506.209607 C255.039642,506.20956 264.508894,506.20956 264.530131,506.209607 C264.551369,506.209654 264.551369,506.23059 264.530131,506.272416 C274.355255,507.073596 282.083333,515.422809 282.083333,525.604438 C282.083333,536.316292 273.530681,545 262.980844,545 C262.45952,545 261.943336,544.97882 261.432292,544.937191 L261.432292,545 L216,545 L230.456096,532.419213 L262.994061,532.419213 C266.693259,532.419213 269.692708,529.368596 269.692708,525.605169 C269.692708,521.841011 266.693259,518.790393 262.994061,518.790393 Z" id="Path-Copy-4"></path>
            <path d="M332.994061,118.790393 L306.651042,118.790393 C306.479225,118.788202 306.307408,118.790393 306.134857,118.790393 C295.58502,118.790393 287.032369,110.106685 287.032369,99.3948315 C287.032369,88.6837079 295.58502,80 306.134857,80 C306.307408,80 306.479959,80.002191 306.651042,80.0073034 L352.083333,80 L338.66034,92.5807865 L306.122375,92.5807865 C302.422443,92.5807865 299.422994,95.6314045 299.422994,99.3948315 C299.422994,103.158989 302.422443,106.209607 306.122375,106.209607 C325.039642,106.20956 334.508894,106.20956 334.530131,106.209607 C334.551369,106.209654 334.551369,106.23059 334.530131,106.272416 C344.355255,107.073596 352.083333,115.422809 352.083333,125.604438 C352.083333,136.316292 343.530681,145 332.980844,145 C332.45952,145 331.943336,144.97882 331.432292,144.937191 L331.432292,145 L286,145 L300.456096,132.419213 L332.994061,132.419213 C336.693259,132.419213 339.692708,129.368596 339.692708,125.605169 C339.692708,121.841011 336.693259,118.790393 332.994061,118.790393 Z" id="Path"></path>
            <path d="M332.994061,38.7903933 L306.651042,38.7903933 C306.479225,38.7882022 306.307408,38.7903933 306.134857,38.7903933 C295.58502,38.7903933 287.032369,30.1066854 287.032369,19.3948315 C287.032369,8.68370787 295.58502,0 306.134857,0 C306.307408,0 306.479959,0.00219101124 306.651042,0.00730337079 L352.083333,0 L338.66034,12.5807865 L306.122375,12.5807865 C302.422443,12.5807865 299.422994,15.6314045 299.422994,19.3948315 C299.422994,23.1589888 302.422443,26.2096067 306.122375,26.2096067 C325.039642,26.2095598 334.508894,26.2095598 334.530131,26.2096067 C334.551369,26.2096537 334.551369,26.23059 334.530131,26.2724157 C344.355255,27.0735955 352.083333,35.422809 352.083333,45.6044382 C352.083333,56.3162921 343.530681,65 332.980844,65 C332.45952,65 331.943336,64.9788202 331.432292,64.937191 L331.432292,65 L286,65 L300.456096,52.4192135 L332.994061,52.4192135 C336.693259,52.4192135 339.692708,49.3685955 339.692708,45.6051685 C339.692708,41.8410112 336.693259,38.7903933 332.994061,38.7903933 Z" id="Path-Copy-6" opacity="0.647158668"></path>
            <path d="M332.994061,198.790393 L306.651042,198.790393 C306.479225,198.788202 306.307408,198.790393 306.134857,198.790393 C295.58502,198.790393 287.032369,190.106685 287.032369,179.394831 C287.032369,168.683708 295.58502,160 306.134857,160 C306.307408,160 306.479959,160.002191 306.651042,160.007303 L352.083333,160 L338.66034,172.580787 L306.122375,172.580787 C302.422443,172.580787 299.422994,175.631404 299.422994,179.394831 C299.422994,183.158989 302.422443,186.209607 306.122375,186.209607 C325.039642,186.20956 334.508894,186.20956 334.530131,186.209607 C334.551369,186.209654 334.551369,186.23059 334.530131,186.272416 C344.355255,187.073596 352.083333,195.422809 352.083333,205.604438 C352.083333,216.316292 343.530681,225 332.980844,225 C332.45952,225 331.943336,224.97882 331.432292,224.937191 L331.432292,225 L286,225 L300.456096,212.419213 L332.994061,212.419213 C336.693259,212.419213 339.692708,209.368596 339.692708,205.605169 C339.692708,201.841011 336.693259,198.790393 332.994061,198.790393 Z" id="Path-Copy" opacity="0.383626302"></path>
            <path d="M332.994061,278.790393 L306.651042,278.790393 C306.479225,278.788202 306.307408,278.790393 306.134857,278.790393 C295.58502,278.790393 287.032369,270.106685 287.032369,259.394831 C287.032369,248.683708 295.58502,240 306.134857,240 C306.307408,240 306.479959,240.002191 306.651042,240.007303 L352.083333,240 L338.66034,252.580787 L306.122375,252.580787 C302.422443,252.580787 299.422994,255.631404 299.422994,259.394831 C299.422994,263.158989 302.422443,266.209607 306.122375,266.209607 C325.039642,266.20956 334.508894,266.20956 334.530131,266.209607 C334.551369,266.209654 334.551369,266.23059 334.530131,266.272416 C344.355255,267.073596 352.083333,275.422809 352.083333,285.604438 C352.083333,296.316292 343.530681,305 332.980844,305 C332.45952,305 331.943336,304.97882 331.432292,304.937191 L331.432292,305 L286,305 L300.456096,292.419213 L332.994061,292.419213 C336.693259,292.419213 339.692708,289.368596 339.692708,285.605169 C339.692708,281.841011 336.693259,278.790393 332.994061,278.790393 Z" id="Path-Copy-3" opacity="0.383626302"></path>
            <path d="M332.994061,358.790393 L306.651042,358.790393 C306.479225,358.788202 306.307408,358.790393 306.134857,358.790393 C295.58502,358.790393 287.032369,350.106685 287.032369,339.394831 C287.032369,328.683708 295.58502,320 306.134857,320 C306.307408,320 306.479959,320.002191 306.651042,320.007303 L352.083333,320 L338.66034,332.580787 L306.122375,332.580787 C302.422443,332.580787 299.422994,335.631404 299.422994,339.394831 C299.422994,343.158989 302.422443,346.209607 306.122375,346.209607 C325.039642,346.20956 334.508894,346.20956 334.530131,346.209607 C334.551369,346.209654 334.551369,346.23059 334.530131,346.272416 C344.355255,347.073596 352.083333,355.422809 352.083333,365.604438 C352.083333,376.316292 343.530681,385 332.980844,385 C332.45952,385 331.943336,384.97882 331.432292,384.937191 L331.432292,385 L286,385 L300.456096,372.419213 L332.994061,372.419213 C336.693259,372.419213 339.692708,369.368596 339.692708,365.605169 C339.692708,361.841011 336.693259,358.790393 332.994061,358.790393 Z" id="Path-Copy-2" opacity="0.647158668"></path>
            <path d="M332.994061,438.790393 L306.651042,438.790393 C306.479225,438.788202 306.307408,438.790393 306.134857,438.790393 C295.58502,438.790393 287.032369,430.106685 287.032369,419.394831 C287.032369,408.683708 295.58502,400 306.134857,400 C306.307408,400 306.479959,400.002191 306.651042,400.007303 L352.083333,400 L338.66034,412.580787 L306.122375,412.580787 C302.422443,412.580787 299.422994,415.631404 299.422994,419.394831 C299.422994,423.158989 302.422443,426.209607 306.122375,426.209607 C325.039642,426.20956 334.508894,426.20956 334.530131,426.209607 C334.551369,426.209654 334.551369,426.23059 334.530131,426.272416 C344.355255,427.073596 352.083333,435.422809 352.083333,445.604438 C352.083333,456.316292 343.530681,465 332.980844,465 C332.45952,465 331.943336,464.97882 331.432292,464.937191 L331.432292,465 L286,465 L300.456096,452.419213 L332.994061,452.419213 C336.693259,452.419213 339.692708,449.368596 339.692708,445.605169 C339.692708,441.841011 336.693259,438.790393 332.994061,438.790393 Z" id="Path-Copy-5" opacity="0.142508371"></path>
            <path d="M332.994061,518.790393 L306.651042,518.790393 C306.479225,518.788202 306.307408,518.790393 306.134857,518.790393 C295.58502,518.790393 287.032369,510.106685 287.032369,499.394831 C287.032369,488.683708 295.58502,480 306.134857,480 C306.307408,480 306.479959,480.002191 306.651042,480.007303 L352.083333,480 L338.66034,492.580787 L306.122375,492.580787 C302.422443,492.580787 299.422994,495.631404 299.422994,499.394831 C299.422994,503.158989 302.422443,506.209607 306.122375,506.209607 C325.039642,506.20956 334.508894,506.20956 334.530131,506.209607 C334.551369,506.209654 334.551369,506.23059 334.530131,506.272416 C344.355255,507.073596 352.083333,515.422809 352.083333,525.604438 C352.083333,536.316292 343.530681,545 332.980844,545 C332.45952,545 331.943336,544.97882 331.432292,544.937191 L331.432292,545 L286,545 L300.456096,532.419213 L332.994061,532.419213 C336.693259,532.419213 339.692708,529.368596 339.692708,525.605169 C339.692708,521.841011 336.693259,518.790393 332.994061,518.790393 Z" id="Path-Copy-4"></path>
            <path d="M402.994061,118.790393 L376.651042,118.790393 C376.479225,118.788202 376.307408,118.790393 376.134857,118.790393 C365.58502,118.790393 357.032369,110.106685 357.032369,99.3948315 C357.032369,88.6837079 365.58502,80 376.134857,80 C376.307408,80 376.479959,80.002191 376.651042,80.0073034 L422.083333,80 L408.66034,92.5807865 L376.122375,92.5807865 C372.422443,92.5807865 369.422994,95.6314045 369.422994,99.3948315 C369.422994,103.158989 372.422443,106.209607 376.122375,106.209607 C395.039642,106.20956 404.508894,106.20956 404.530131,106.209607 C404.551369,106.209654 404.551369,106.23059 404.530131,106.272416 C414.355255,107.073596 422.083333,115.422809 422.083333,125.604438 C422.083333,136.316292 413.530681,145 402.980844,145 C402.45952,145 401.943336,144.97882 401.432292,144.937191 L401.432292,145 L356,145 L370.456096,132.419213 L402.994061,132.419213 C406.693259,132.419213 409.692708,129.368596 409.692708,125.605169 C409.692708,121.841011 406.693259,118.790393 402.994061,118.790393 Z" id="Path" opacity="0.142508371"></path>
            <path d="M402.994061,38.7903933 L376.651042,38.7903933 C376.479225,38.7882022 376.307408,38.7903933 376.134857,38.7903933 C365.58502,38.7903933 357.032369,30.1066854 357.032369,19.3948315 C357.032369,8.68370787 365.58502,0 376.134857,0 C376.307408,0 376.479959,0.00219101124 376.651042,0.00730337079 L422.083333,0 L408.66034,12.5807865 L376.122375,12.5807865 C372.422443,12.5807865 369.422994,15.6314045 369.422994,19.3948315 C369.422994,23.1589888 372.422443,26.2096067 376.122375,26.2096067 C395.039642,26.2095598 404.508894,26.2095598 404.530131,26.2096067 C404.551369,26.2096537 404.551369,26.23059 404.530131,26.2724157 C414.355255,27.0735955 422.083333,35.422809 422.083333,45.6044382 C422.083333,56.3162921 413.530681,65 402.980844,65 C402.45952,65 401.943336,64.9788202 401.432292,64.937191 L401.432292,65 L356,65 L370.456096,52.4192135 L402.994061,52.4192135 C406.693259,52.4192135 409.692708,49.3685955 409.692708,45.6051685 C409.692708,41.8410112 406.693259,38.7903933 402.994061,38.7903933 Z" id="Path-Copy-6" opacity="0.142508371"></path>
            <path d="M402.994061,198.790393 L376.651042,198.790393 C376.479225,198.788202 376.307408,198.790393 376.134857,198.790393 C365.58502,198.790393 357.032369,190.106685 357.032369,179.394831 C357.032369,168.683708 365.58502,160 376.134857,160 C376.307408,160 376.479959,160.002191 376.651042,160.007303 L422.083333,160 L408.66034,172.580787 L376.122375,172.580787 C372.422443,172.580787 369.422994,175.631404 369.422994,179.394831 C369.422994,183.158989 372.422443,186.209607 376.122375,186.209607 C395.039642,186.20956 404.508894,186.20956 404.530131,186.209607 C404.551369,186.209654 404.551369,186.23059 404.530131,186.272416 C414.355255,187.073596 422.083333,195.422809 422.083333,205.604438 C422.083333,216.316292 413.530681,225 402.980844,225 C402.45952,225 401.943336,224.97882 401.432292,224.937191 L401.432292,225 L356,225 L370.456096,212.419213 L402.994061,212.419213 C406.693259,212.419213 409.692708,209.368596 409.692708,205.605169 C409.692708,201.841011 406.693259,198.790393 402.994061,198.790393 Z" id="Path-Copy" opacity="0.647158668"></path>
            <path d="M402.994061,278.790393 L376.651042,278.790393 C376.479225,278.788202 376.307408,278.790393 376.134857,278.790393 C365.58502,278.790393 357.032369,270.106685 357.032369,259.394831 C357.032369,248.683708 365.58502,240 376.134857,240 C376.307408,240 376.479959,240.002191 376.651042,240.007303 L422.083333,240 L408.66034,252.580787 L376.122375,252.580787 C372.422443,252.580787 369.422994,255.631404 369.422994,259.394831 C369.422994,263.158989 372.422443,266.209607 376.122375,266.209607 C395.039642,266.20956 404.508894,266.20956 404.530131,266.209607 C404.551369,266.209654 404.551369,266.23059 404.530131,266.272416 C414.355255,267.073596 422.083333,275.422809 422.083333,285.604438 C422.083333,296.316292 413.530681,305 402.980844,305 C402.45952,305 401.943336,304.97882 401.432292,304.937191 L401.432292,305 L356,305 L370.456096,292.419213 L402.994061,292.419213 C406.693259,292.419213 409.692708,289.368596 409.692708,285.605169 C409.692708,281.841011 406.693259,278.790393 402.994061,278.790393 Z" id="Path-Copy-3" opacity="0.647158668"></path>
            <path d="M402.994061,358.790393 L376.651042,358.790393 C376.479225,358.788202 376.307408,358.790393 376.134857,358.790393 C365.58502,358.790393 357.032369,350.106685 357.032369,339.394831 C357.032369,328.683708 365.58502,320 376.134857,320 C376.307408,320 376.479959,320.002191 376.651042,320.007303 L422.083333,320 L408.66034,332.580787 L376.122375,332.580787 C372.422443,332.580787 369.422994,335.631404 369.422994,339.394831 C369.422994,343.158989 372.422443,346.209607 376.122375,346.209607 C395.039642,346.20956 404.508894,346.20956 404.530131,346.209607 C404.551369,346.209654 404.551369,346.23059 404.530131,346.272416 C414.355255,347.073596 422.083333,355.422809 422.083333,365.604438 C422.083333,376.316292 413.530681,385 402.980844,385 C402.45952,385 401.943336,384.97882 401.432292,384.937191 L401.432292,385 L356,385 L370.456096,372.419213 L402.994061,372.419213 C406.693259,372.419213 409.692708,369.368596 409.692708,365.605169 C409.692708,361.841011 406.693259,358.790393 402.994061,358.790393 Z" id="Path-Copy-2"></path>
            <path d="M402.994061,438.790393 L376.651042,438.790393 C376.479225,438.788202 376.307408,438.790393 376.134857,438.790393 C365.58502,438.790393 357.032369,430.106685 357.032369,419.394831 C357.032369,408.683708 365.58502,400 376.134857,400 C376.307408,400 376.479959,400.002191 376.651042,400.007303 L422.083333,400 L408.66034,412.580787 L376.122375,412.580787 C372.422443,412.580787 369.422994,415.631404 369.422994,419.394831 C369.422994,423.158989 372.422443,426.209607 376.122375,426.209607 C395.039642,426.20956 404.508894,426.20956 404.530131,426.209607 C404.551369,426.209654 404.551369,426.23059 404.530131,426.272416 C414.355255,427.073596 422.083333,435.422809 422.083333,445.604438 C422.083333,456.316292 413.530681,465 402.980844,465 C402.45952,465 401.943336,464.97882 401.432292,464.937191 L401.432292,465 L356,465 L370.456096,452.419213 L402.994061,452.419213 C406.693259,452.419213 409.692708,449.368596 409.692708,445.605169 C409.692708,441.841011 406.693259,438.790393 402.994061,438.790393 Z" id="Path-Copy-5" opacity="0.142508371"></path>
            <path d="M402.994061,518.790393 L376.651042,518.790393 C376.479225,518.788202 376.307408,518.790393 376.134857,518.790393 C365.58502,518.790393 357.032369,510.106685 357.032369,499.394831 C357.032369,488.683708 365.58502,480 376.134857,480 C376.307408,480 376.479959,480.002191 376.651042,480.007303 L422.083333,480 L408.66034,492.580787 L376.122375,492.580787 C372.422443,492.580787 369.422994,495.631404 369.422994,499.394831 C369.422994,503.158989 372.422443,506.209607 376.122375,506.209607 C395.039642,506.20956 404.508894,506.20956 404.530131,506.209607 C404.551369,506.209654 404.551369,506.23059 404.530131,506.272416 C414.355255,507.073596 422.083333,515.422809 422.083333,525.604438 C422.083333,536.316292 413.530681,545 402.980844,545 C402.45952,545 401.943336,544.97882 401.432292,544.937191 L401.432292,545 L356,545 L370.456096,532.419213 L402.994061,532.419213 C406.693259,532.419213 409.692708,529.368596 409.692708,525.605169 C409.692708,521.841011 406.693259,518.790393 402.994061,518.790393 Z" id="Path-Copy-4"></path>
        </g>
    </g>
</svg>