<svg width="122" height="160" xmlns="http://www.w3.org/2000/svg"><g fill="none" fill-rule="evenodd"><path d="M66.582 76.235l28.886-1.019-19.79 34.691c-8.46 14.832-27.343 19.997-42.175 11.536a30.92 30.92 0 0 1-.279-.16l22.194-36.879-28.886 1.02 19.79-34.692c8.46-14.832 27.343-19.996 42.175-11.536l.279.161-22.194 36.878z" stroke="#FFF"/><path d="M67.141 75.638l33.433-1.168-22.817 39.613c-9.923 17.228-31.933 23.15-49.16 13.226a35.91 35.91 0 0 1-.064-.036L54.22 85.002 20.787 86.17l22.818-39.614c9.923-17.227 31.932-23.149 49.16-13.226l.063.037-25.687 42.271z" stroke="#11D38F" stroke-linecap="round" stroke-linejoin="round"/><path d="M68.236 75.036l37.445-1.318-25.632 44.84C69.05 137.8 44.536 144.483 25.294 133.484l-.3-.173 28.77-47.706-37.445 1.318 25.632-44.84C52.95 22.84 77.464 16.157 96.706 27.156l.3.173-28.77 47.706z" stroke="#11D38F" stroke-linecap="round" stroke-linejoin="round"/><path d="M68.485 74.277l40.387-1.428-27.691 48.65c-11.795 20.72-38.154 27.957-58.876 16.162a43.196 43.196 0 0 1-.459-.265l31.03-51.673-40.387 1.428L40.181 38.5c11.795-20.72 38.154-27.957 58.875-16.162.154.087.307.175.46.265l-31.03 51.673z" stroke="#11D38F" opacity=".5" stroke-linecap="round" stroke-linejoin="round"/><path d="M69.105 74.158l43.597-1.537-29.861 52.323c-12.779 22.389-41.287 30.18-63.677 17.402a46.67 46.67 0 0 1-.404-.233l33.496-55.632L8.66 88.02l29.86-52.324c12.778-22.39 41.287-30.18 63.677-17.403l.403.233-33.496 55.632z" stroke="#11D38F" opacity=".3" stroke-linecap="round" stroke-linejoin="round"/><path d="M69.726 73.7l46.806-1.651-32.069 56.228c-13.706 24.031-44.298 32.402-68.33 18.696a50.087 50.087 0 0 1-.459-.265l35.962-59.769L4.83 88.591l32.068-56.228C50.604 8.331 81.197-.039 105.228 13.667c.154.087.307.176.46.265L69.726 73.7z" stroke="#11D38F" opacity=".152" stroke-linecap="round" stroke-linejoin="round"/><path d="M70.717 72.894L121 71.121l-34.44 60.34c-14.74 25.824-47.624 34.81-73.448 20.07a53.829 53.829 0 0 1-.462-.267l38.633-64.158L1 88.879l34.44-60.34C50.18 2.716 83.064-6.27 108.888 8.47l.462.267-38.633 64.158z" stroke="#11D38F" opacity=".152" stroke-linecap="round" stroke-linejoin="round"/></g></svg>