<?xml version="1.0" encoding="UTF-8"?>
<svg width="442px" height="534px" viewBox="0 0 442 534" version="1.1" xmlns="http://www.w3.org/2000/svg" xmlns:xlink="http://www.w3.org/1999/xlink">
    <!-- Generator: Sketch 52.5 (67469) - http://www.bohemiancoding.com/sketch -->
    <title>Group 7</title>
    <desc>Created with Sketch.</desc>
    <g id="Page-1" stroke="none" stroke-width="1" fill="none" fill-rule="evenodd">
        <g id="2" transform="translate(-726.000000, -2225.000000)">
            <text id="Be-part-of-our-partn" font-family="WorkSans-Light, Work Sans Light" font-size="62" font-weight="normal" line-spacing="80" letter-spacing="1.29999995" fill="#FFFFFF">
                <tspan x="60" y="2357">Be part of our </tspan>
                <tspan x="60" y="2437">partnership program</tspan>
            </text>
            <g id="Group-7" transform="translate(727.000000, 2212.000000)">
                <g id="Group-6" transform="translate(104.000000, 110.000000)" stroke="#FFFFFF">
                    <path d="M265,278 C265,298.434536 248.434536,315 228,315 C218.490268,315 209.818478,311.412346 203.264278,305.516686 L203.205299,305.579866 L162.318932,267.493079 C159.376952,264.752543 159.213649,260.145953 161.954186,257.203972 C161.955934,257.202096 161.957683,257.200221 161.959433,257.198346 C164.706827,254.255246 169.319049,254.094183 172.265051,256.838466 L191,274.290592 L191,195 C191,191.134007 194.134007,188 198,188 C201.865993,188 205,191.134007 205,195 L205,249.015396 C206.862454,247.535514 208.870811,246.231356 211,245.127991 L211,187 C211,183.134007 214.134007,180 218,180 C221.865993,180 225,183.134007 225,187 L225,241.119863 C225.989527,241.040465 226.990038,241 228,241 C229.351481,241 230.686039,241.072459 232,241.213705 L232,195 C232,191.134007 235.134007,188 239,188 C242.865993,188 246,191.134007 246,195 L246,245.665876 C247.760137,246.647822 249.43179,247.769317 251,249.015396 L251,210 C251,206.134007 254.134007,203 258,203 C261.865993,203 265,206.134007 265,210 L265,278 Z" id="Combined-Shape"></path>
                    <path d="M137.892486,226.141375 C138.322497,228.397966 138.547555,230.727228 138.547555,233.109056 C138.547555,253.543591 121.982091,270.109056 101.547555,270.109056 C90.6484049,270.109056 80.8499384,265.396469 74.0786327,257.897774 L35.5308424,221.989437 C32.588862,219.2489 32.4255594,214.64231 35.1660958,211.70033 C35.1678437,211.698453 35.1695926,211.696578 35.1713426,211.694703 C37.918737,208.751603 42.5309585,208.590541 45.4769606,211.334823 L64.4955168,229.051137 L64.4955168,149.707775 C64.4955168,145.841782 67.6295235,142.707775 71.4955168,142.707775 C75.36151,142.707775 78.4955168,145.841782 78.4955168,149.707775 L78.4955168,204.165877 C80.5042542,202.563888 82.6834838,201.166637 85.0016134,200.005716 L85.0016134,141.444319 C85.0016134,137.578326 88.1356202,134.444319 92.0016134,134.444319 C95.8676067,134.444319 99.0016134,137.578326 99.0016134,141.444319 L99.0016134,196.195276 C99.8428538,196.138107 100.691812,196.109056 101.547555,196.109056 C102.885378,196.109056 104.206617,196.180058 105.50771,196.318499 L105.50771,149.222494 C105.50771,145.3565 108.641717,142.222494 112.50771,142.222494 C116.373703,142.222494 119.50771,145.3565 119.50771,149.222494 L119.50771,200.752735 C121.039401,201.604757 122.504271,202.562379 123.892486,203.615763 L123.892486,164.778843 C123.892486,160.91285 127.026493,157.778843 130.892486,157.778843 C134.75848,157.778843 137.892486,160.91285 137.892486,164.778843 L137.892486,226.141375 Z" id="Combined-Shape-Copy" transform="translate(85.880241, 202.276687) scale(1, -1) rotate(-225.000000) translate(-85.880241, -202.276687) "></path>
                    <path d="M265.198911,109.170177 C265.516524,111.120588 265.681648,113.122202 265.681648,115.162383 C265.681648,135.596918 249.116184,152.162383 228.681648,152.162383 C219.003126,152.162383 210.192554,148.446241 203.598938,142.362963 L203.527807,142.439161 L162.64144,104.352374 C159.699459,101.611838 159.536157,97.0052479 162.276693,94.0632675 C162.278441,94.0613911 162.28019,94.0595156 162.28194,94.057641 C165.029334,91.1145406 169.641556,90.9534784 172.587558,93.6977611 L191.365243,111.189696 L191.365243,31.8721431 C191.365243,28.0061498 194.49925,24.8721431 198.365243,24.8721431 C202.231236,24.8721431 205.365243,28.0061498 205.365243,31.8721431 L205.365243,86.4320211 C207.352836,84.8169928 209.511267,83.4040754 211.809232,82.2245735 L211.809232,24.6391755 C211.809232,20.7731822 214.943239,17.6391755 218.809232,17.6391755 C222.675225,17.6391755 225.809232,20.7731822 225.809232,24.6391755 L225.809232,78.2722295 C226.757152,78.1994462 227.715072,78.1623827 228.681648,78.1623827 C229.808635,78.1623827 230.923853,78.2127689 232.025174,78.3114114 L232.025174,32.076629 C232.025174,28.2106358 235.15918,25.076629 239.025174,25.076629 C242.891167,25.076629 246.025174,28.2106358 246.025174,32.076629 L246.025174,82.4706894 C247.845492,83.4384119 249.575389,84.5537175 251.198911,85.8006498 L251.198911,46.6494739 C251.198911,42.7834807 254.332917,39.6494739 258.198911,39.6494739 C262.064904,39.6494739 265.198911,42.7834807 265.198911,46.6494739 L265.198911,109.170177 Z" id="Combined-Shape-Copy-2" transform="translate(213.002586, 84.900779) scale(-1, -1) rotate(-312.000000) translate(-213.002586, -84.900779) "></path>
                </g>
                <path d="M259.044062,90.4464558 L105.662489,326.949865 C85.2276369,358.458945 94.2050722,400.567822 125.714152,421.002674 C141.879431,431.48648 161.733318,434.62054 180.341949,429.626012 L275.079063,404.198715 L346.832237,443.765851 C378.268028,461.100614 417.804373,449.669471 435.139135,418.233681 C443.245466,403.533224 445.349921,386.266536 441.011815,370.049358 L370.956389,108.160558 C362.10784,75.0819531 328.119167,55.4396116 295.040562,64.2881601 C280.218333,68.2531161 267.392795,77.5733058 259.044062,90.4464558 Z" id="Path-15-Copy" stroke="#11D38F" opacity="0.5" stroke-linecap="round" stroke-linejoin="round" transform="translate(271.191609, 255.306433) rotate(-345.000000) translate(-271.191609, -255.306433) "></path>
                <path d="M315.615785,68.0927794 C327.308813,57.5548662 342.433927,51.7158286 358.116692,51.6853394 C393.441915,51.6166629 422.13388,80.4359247 422.20199,116.054962 L422.818541,438.488179 C422.850853,455.386147 416.411957,471.644303 404.844817,483.871677 C380.056201,510.075188 338.894138,511.055047 312.906774,486.060254 L236.666193,412.731632 L114.835031,412.496349 C95.1546531,412.458341 76.4187076,403.983877 63.303713,389.188194 C37.8012741,360.417614 40.2582379,316.248686 68.7914951,290.534133 L315.615785,68.0927794 Z" id="Path-15-Copy-2" stroke="#11D38F" opacity="0.3" stroke-linecap="round" stroke-linejoin="round"></path>
                <path d="M326.899961,50.4963866 C338.183883,40.3543357 352.761595,34.7316669 367.877696,34.6911459 C402.025355,34.599608 429.781095,62.4377923 429.871878,96.8694708 L430.831288,460.749721 C430.874352,477.082924 424.666112,492.803144 413.499843,504.635603 C389.554618,530.009426 349.743305,531.006079 324.578787,506.861692 L234.78244,420.705552 L91.5300621,420.325046 C72.4409857,420.274342 54.2752112,412.035229 41.5731676,397.667026 C16.8921992,369.748592 19.3299936,326.941938 47.0181337,302.055688 L326.899961,50.4963866 Z" id="Path-15-Copy-3" stroke="#11D38F" opacity="0.152380022" stroke-linecap="round" stroke-linejoin="round"></path>
                <path d="M335.969241,30.1844588 C347.249697,20.050372 361.819681,14.4315836 376.927934,14.3890933 C411.07558,14.293057 438.834928,42.1275847 438.930172,76.559251 L440.054026,482.843126 C440.099201,499.17442 433.894446,514.893774 422.73203,526.727303 C398.792278,552.106375 358.981181,553.111757 333.811456,528.972888 L231.133685,430.500404 L67.0296312,430.043297 C47.9380028,429.990117 29.7710942,421.746462 17.0707336,407.373291 C-7.60365697,379.448946 -5.15577815,336.642877 22.538224,311.763259 L335.969241,30.1844588 Z" id="Path-15-Copy-4" stroke="#11D38F" opacity="0.152380022" stroke-linecap="round" stroke-linejoin="round"></path>
                <path d="M258.727612,106.282922 L120.266714,319.422336 C101.312095,348.600078 109.599574,387.619066 138.777316,406.573685 C153.752904,416.302215 172.153668,419.218058 189.40329,414.596036 L274.759356,391.724947 L341.957865,428.718458 C370.503025,444.432879 406.382505,434.03151 422.096927,405.48635 C429.442681,392.142828 431.343262,376.475401 427.400966,361.76255 L363.389351,122.867952 C355.098726,91.9269176 323.295183,73.5651333 292.354149,81.8557583 C278.51261,85.5645873 266.534035,94.2661267 258.727612,106.282922 Z" id="Path-15" stroke="#11D38F" stroke-linecap="round" stroke-linejoin="round" transform="translate(271.191609, 255.306433) rotate(-345.000000) translate(-271.191609, -255.306433) "></path>
            </g>
        </g>
    </g>
</svg>