<svg width="152" height="131" xmlns="http://www.w3.org/2000/svg"><g fill="none" fill-rule="evenodd"><g stroke="#FFF"><path d="M49.159 86.498V65.481h44.155c5.521 0 9.996-4.476 9.996-9.997 0-5.52-4.475-9.996-9.996-9.996H38.21c-5.521 0-9.997 4.476-9.997 9.996 0 .122.003.242.007.363-.004.123-.007.246-.007.37v39.545c0 .124.003.247.007.37-.004.12-.007.241-.007.362 0 5.521 4.476 9.997 9.997 9.997h55.104c5.521 0 9.996-4.476 9.996-9.997 0-5.52-4.475-9.996-9.996-9.996H49.16z"/><path d="M103.383 45.046v21.018H59.227c-5.52 0-9.996 4.475-9.996 9.996 0 5.52 4.475 9.996 9.996 9.996h55.105c5.52 0 9.996-4.475 9.996-9.996 0-.121-.002-.242-.006-.362.004-.123.006-.247.006-.371V35.783c0-.124-.002-.248-.006-.371.004-.12.006-.24.006-.362 0-5.52-4.475-9.996-9.996-9.996H59.227c-5.52 0-9.996 4.475-9.996 9.996 0 5.52 4.475 9.996 9.996 9.996h44.156z"/></g><path d="M24.827 48.66c1.344-4.077 5.184-7.02 9.711-7.02 5.646 0 10.223-4.576 10.223-10.223v-.011c0-4.533 2.946-8.377 7.028-9.722h50.926c13.807 0 25 11.192 25 25v36.064c-1.332 4.009-5.112 6.9-9.567 6.9-5.567 0-10.08 4.512-10.08 10.079v.011c0 4.46-2.894 8.245-6.907 9.578H49.827c-13.807 0-25-11.192-25-25V48.66z" stroke="#11D38F" stroke-linecap="round" stroke-linejoin="round"/><path d="M17.787 46.983c1.478-4.685 5.859-8.082 11.033-8.082 6.388 0 11.567-5.179 11.567-11.567v-.031c0-5.188 3.406-9.58 8.104-11.062h60.18c13.808 0 25 11.192 25 25v44.058c-1.5 4.515-5.757 7.77-10.775 7.77-6.27 0-11.353 5.083-11.353 11.353v.054c0 5.043-3.271 9.32-7.808 10.828H42.787c-13.807 0-25-11.193-25-25v-43.32z" stroke="#11D38F" stroke-linecap="round" stroke-linejoin="round"/><path d="M12.913 45.548c1.566-5.199 6.39-8.986 12.099-8.986h.633c6.628 0 12-5.372 12-12v-.605c0-5.696 3.778-10.51 8.965-12.07h68.018c13.807 0 25 11.192 25 25V86.55c-1.64 4.937-6.295 8.497-11.783 8.497h-.413c-6.627 0-12 5.373-12 12v.347c0 5.458-3.541 10.089-8.451 11.72H37.913c-13.807 0-25-11.193-25-25V45.548z" stroke="#11D38F" opacity=".5" stroke-linecap="round" stroke-linejoin="round"/><path d="M8.04 43.373c1.651-5.657 6.876-9.79 13.067-9.79h1.61c6.628 0 12-5.372 12-12V19.74c0-6.304 4.214-11.624 9.979-13.297h74.806c13.807 0 25 11.193 25 25v57.031c-1.766 5.317-6.78 9.15-12.69 9.15h-1.368c-6.627 0-12 5.373-12 12v1.539c0 5.984-3.882 11.061-9.266 12.85H33.04c-13.807 0-25-11.193-25-25v-55.64z" stroke="#11D38F" opacity=".152" stroke-linecap="round" stroke-linejoin="round"/><path d="M1 41.724c1.76-6.349 7.582-11.009 14.49-11.009h3.037c6.628 0 12-5.373 12-12v-3.132c0-6.953 4.69-12.811 11.079-14.583H126c13.807 0 25 11.193 25 25v64.988c-1.941 5.844-7.453 10.059-13.948 10.059h-2.694c-6.628 0-12 5.372-12 12v2.854c0 6.566-4.26 12.137-10.168 14.099H26c-13.807 0-25-11.193-25-25V41.724z" stroke="#11D38F" opacity=".152" stroke-linecap="round" stroke-linejoin="round"/></g></svg>