<?xml version="1.0" encoding="UTF-8"?>
<svg width="394px" height="568px" viewBox="0 0 394 568" version="1.1" xmlns="http://www.w3.org/2000/svg" xmlns:xlink="http://www.w3.org/1999/xlink">
    <!-- Generator: Sketch 52.5 (67469) - http://www.bohemiancoding.com/sketch -->
    <title>Group 9</title>
    <desc>Created with Sketch.</desc>
    <g id="Page-1" stroke="none" stroke-width="1" fill="none" fill-rule="evenodd">
        <g id="2" transform="translate(-781.000000, -876.000000)">
            <g id="Group-9" transform="translate(782.000000, 876.000000)">
                <path d="M214.155384,270.737401 L308.751887,267.440091 L243.251887,380.889419 C215.637649,428.718682 154.478609,445.106197 106.649346,417.49196 L104.917296,416.49196 L177.596503,297.168716 L83,300.466025 L148.5,187.016698 C176.114237,139.187435 237.273278,122.79992 285.10254,150.414157 L286.834591,151.414157 L214.155384,270.737401 Z" id="Combined-Shape" stroke="#FFFFFF"></path>
                <path d="M216.90841,268.758916 L325.751887,264.967973 L242.827329,408.349633 C215.210122,456.146616 154.086778,472.524562 106.271087,444.939758 L106.237207,444.998487 L91.2182117,436.33405 L174.843477,299.147201 L66,302.938143 L148.924558,159.556484 C176.541764,111.759501 237.665109,95.3815544 285.480799,122.966359 L285.51468,122.90763 L300.533675,131.572067 L216.90841,268.758916 Z" id="Combined-Shape-Copy-3" stroke="#11D38F" stroke-linecap="round" stroke-linejoin="round"></path>
                <path d="M219.499494,266.842047 L341.751887,262.572845 L242.495444,434.808862 C214.91957,482.660252 153.77369,499.096806 105.922299,471.520931 C105.875959,471.494226 105.82964,471.467484 105.783343,471.440705 L78.3249564,455.558199 L172.252393,301.06407 L50,305.333272 L149.256442,133.097255 C176.832317,85.2458643 237.978197,68.8093109 285.829587,96.3851855 C285.875928,96.4118905 285.922247,96.4386328 285.968544,96.4654122 L313.42693,112.347918 L219.499494,266.842047 Z" id="Combined-Shape-Copy-4" stroke="#11D38F" stroke-linecap="round" stroke-linejoin="round"></path>
                <path d="M221.442807,265.394429 L353.751887,260.764046 L242.228892,454.704147 C214.697712,502.581267 153.567207,519.07491 105.690087,491.54373 C105.589677,491.485991 105.489367,491.428076 105.389158,491.369988 L68.6550148,470.076253 L170.30908,302.511688 L38,307.14207 L149.522995,113.201969 C177.054175,65.3248497 238.18468,48.8312065 286.061799,76.3623863 C286.16221,76.4201261 286.26252,76.4780404 286.362729,76.5361288 L323.096872,97.829864 L221.442807,265.394429 Z" id="Combined-Shape-Copy-5" stroke="#11D38F" opacity="0.5" stroke-linecap="round" stroke-linejoin="round"></path>
                <path d="M223.38612,263.966315 L365.751887,258.979617 L241.954933,474.452874 C214.441866,522.340404 153.317604,538.85717 105.430074,511.344102 C105.307727,511.27381 105.18553,511.203258 105.063482,511.132449 L58.9850733,484.398714 L168.365767,303.939802 L26,308.9265 L149.796953,93.4532424 C177.310021,45.5657122 238.434283,29.048947 286.321813,56.5620148 C286.44416,56.6323072 286.566357,56.7028584 286.688405,56.773668 L332.766813,83.5074029 L223.38612,263.966315 Z" id="Combined-Shape-Copy-6" stroke="#11D38F" opacity="0.3" stroke-linecap="round" stroke-linejoin="round"></path>
                <path d="M225.491376,262.471667 L378.751887,257.112055 L241.64343,495.367765 C214.096807,543.236002 152.960985,559.709925 105.092749,532.163303 C105.01103,532.116276 104.929378,532.069134 104.847792,532.021876 L48.5093033,499.388425 L166.260511,305.434449 L13,310.794062 L150.108457,72.5383516 C177.655079,24.6701152 238.790902,8.19619195 286.659138,35.7428141 C286.740857,35.7898407 286.822509,35.8369828 286.904095,35.8842403 L343.242583,68.5176921 L225.491376,262.471667 Z" id="Combined-Shape-Copy-7" stroke="#11D38F" opacity="0.152380022" stroke-linecap="round" stroke-linejoin="round"></path>
                <path d="M227.596631,260.9112 L391.751887,255.16225 L241.349534,516.898747 C213.832953,564.784259 152.707479,581.296539 104.821968,553.779958 C104.703878,553.7121 104.585927,553.644 104.468115,553.57566 L38.0335333,515.038243 L164.155255,306.994917 L-5.87192517e-11,312.743866 L150.402353,51.0073692 C177.918934,3.12185777 239.044407,-13.3904227 286.929919,14.1261586 C287.048009,14.194017 287.16596,14.2621166 287.283772,14.330457 L353.718353,52.8678741 L227.596631,260.9112 Z" id="Combined-Shape-Copy-8" stroke="#11D38F" opacity="0.152380022" stroke-linecap="round" stroke-linejoin="round"></path>
            </g>
        </g>
    </g>
</svg>