<?xml version="1.0" encoding="UTF-8"?>
<svg width="504px" height="504px" viewBox="0 0 504 504" version="1.1" xmlns="http://www.w3.org/2000/svg" xmlns:xlink="http://www.w3.org/1999/xlink">
    <!-- Generator: Sketch 52.5 (67469) - http://www.bohemiancoding.com/sketch -->
    <title>Group 16</title>
    <desc>Created with Sketch.</desc>
    <g id="Page-1" stroke="none" stroke-width="1" fill="none" fill-rule="evenodd">
        <g id="2" transform="translate(-726.000000, -1584.000000)">
            <g id="Group-16" transform="translate(700.000000, 1558.000000)">
                <g id="Group-8" transform="translate(278.000000, 278.000000) rotate(-315.000000) translate(-278.000000, -278.000000) translate(82.000000, 82.000000)" stroke="#11D38F" stroke-linecap="round" stroke-linejoin="round">
                    <rect id="Rectangle-Copy-2" x="39.2071068" y="38.5" width="315" height="315" rx="62"></rect>
                    <rect id="Rectangle-Copy-14" x="50" y="50" width="292" height="292" rx="62"></rect>
                    <rect id="Rectangle-Copy-6" opacity="0.5" x="29" y="29" width="334" height="334" rx="62"></rect>
                    <rect id="Rectangle-Copy-7" opacity="0.3" x="21.2071068" y="20.5" width="351" height="351" rx="62"></rect>
                    <rect id="Rectangle-Copy-8" opacity="0.152380022" x="10.2071068" y="9.5" width="373" height="373" rx="62"></rect>
                    <rect id="Rectangle-Copy-13" opacity="0.152380022" x="-4.54747351e-13" y="-5.68434189e-14" width="392" height="392" rx="62"></rect>
                </g>
                <path d="M272.717418,278.544132 C258.668135,276.089927 248,264.020037 248,249.5 C248,233.2076 261.431458,220 278,220 C294.568542,220 308,233.2076 308,249.5 C308,263.374129 298.259876,275.011246 285.13677,278.160161 L305.398072,331.514923 C306.770542,335.129094 304.953284,339.171565 301.339114,340.544035 C300.545268,340.845495 299.703195,341 298.854037,341 L259.145963,341 C255.27997,341 252.145963,337.865993 252.145963,334 C252.145963,333.150842 252.300467,332.308769 252.601928,331.514923 L272.717418,278.544132 Z" id="Combined-Shape" stroke="#11D38F" opacity="0.5" stroke-linecap="round" stroke-linejoin="round"></path>
                <path d="M274.161503,278.701054 C262.73129,276.901982 254,267.199399 254,255.5 C254,242.521308 264.745166,232 278,232 C291.254834,232 302,242.521308 302,255.5 C302,266.5561 294.202502,275.828939 283.698507,278.33358 L299.384012,319.508033 C300.760288,323.120756 298.947289,327.165139 295.334566,328.541414 C294.538722,328.844593 293.694234,329 292.842598,329 L265.157402,329 C261.291408,329 258.157402,325.865993 258.157402,322 C258.157402,321.148364 258.312809,320.303876 258.615988,319.508033 L274.161503,278.701054 Z" id="Combined-Shape-Copy-12" stroke="#11D38F" opacity="0.152380022" stroke-linecap="round" stroke-linejoin="round"></path>
                <path d="M275.271924,278.810725 C266.070993,277.522559 259,269.815308 259,260.5 C259,250.282732 267.50659,242 278,242 C288.49341,242 297,250.282732 297,260.5 C297,269.175149 290.867468,276.455662 282.593192,278.455769 L294.395121,309.513476 C295.76839,313.127343 293.952027,317.170216 290.33816,318.543485 C289.543894,318.845306 288.701314,319 287.851636,319 L270.148364,319 C266.282371,319 263.148364,315.865993 263.148364,312 C263.148364,311.150321 263.303058,310.307741 263.604879,309.513476 L275.271924,278.810725 Z" id="Combined-Shape-Copy-13" stroke="#11D38F" opacity="0.152380022" stroke-linecap="round" stroke-linejoin="round"></path>
                <path d="M271.609569,278.426276 C255.33117,275.465919 243,261.402437 243,244.5 C243,225.446176 258.670034,210 278,210 C297.329966,210 313,225.446176 313,244.5 C313,260.75519 301.595145,274.384688 286.242646,278.037813 L310.390051,341.51099 C311.764693,345.124335 309.949865,349.167898 306.33652,350.54254 C305.541534,350.84498 304.698083,351 303.847511,351 L254.152489,351 C250.286496,351 247.152489,347.865993 247.152489,344 C247.152489,343.149428 247.307509,342.305977 247.609949,341.51099 L271.609569,278.426276 Z" id="Combined-Shape-Copy-9" stroke="#11D38F" stroke-linecap="round" stroke-linejoin="round"></path>
                <path d="M270.502028,278.307176 C251.994567,274.841301 238,258.784525 238,239.5 C238,217.684752 255.90861,200 278,200 C300.09139,200 318,217.684752 318,239.5 C318,258.136276 304.930474,273.758157 287.348698,277.915333 L315.384012,351.508033 C316.760288,355.120756 314.947289,359.165139 311.334566,360.541414 C310.538722,360.844593 309.694234,361 308.842598,361 L249.157402,361 C245.291408,361 242.157402,357.865993 242.157402,354 C242.157402,353.148364 242.312809,352.303876 242.615988,351.508033 L270.502028,278.307176 Z" id="Combined-Shape-Copy-10" stroke="#11D38F" stroke-linecap="round" stroke-linejoin="round"></path>
                <path d="M269.728418,278.232545 C249.382021,274.406376 234,256.729107 234,235.5 C234,211.475613 253.699471,192 278,192 C302.300529,192 322,211.475613 322,235.5 C322,256.080378 307.543717,273.322678 288.122642,277.84327 L319.364674,359.498579 C320.74617,363.109309 318.93902,367.156308 315.32829,368.537805 C314.529709,368.843349 313.681906,369 312.826869,369 L245.173131,369 C241.307138,369 238.173131,365.865993 238.173131,362 C238.173131,361.144963 238.329782,360.29716 238.635326,359.498579 L269.728418,278.232545 Z" id="Combined-Shape-Copy-11" stroke="#FFFFFF"></path>
            </g>
        </g>
    </g>
</svg>