<svg width="394" height="568" xmlns="http://www.w3.org/2000/svg"><g fill="none" fill-rule="evenodd"><path d="M215.155 270.737l94.597-3.297-65.5 113.45c-27.614 47.829-88.773 64.216-136.603 36.602l-1.732-1 72.68-119.323L84 300.466l65.5-113.45c27.614-47.829 88.773-64.216 136.603-36.602l1.732 1-72.68 119.323z" stroke="#FFF"/><path d="M217.908 268.759l108.844-3.791-82.925 143.382c-27.617 47.797-88.74 64.175-136.556 36.59l-.034.058-15.019-8.664 83.625-137.187L67 302.938l82.925-143.382c27.617-47.796 88.74-64.174 136.556-36.59l.034-.058 15.019 8.664-83.626 137.187z" stroke="#11D38F" stroke-linecap="round" stroke-linejoin="round"/><path d="M220.5 266.842l122.252-4.27-99.257 172.237c-27.575 47.851-88.721 64.288-136.573 36.712a100.27 100.27 0 0 1-.139-.08l-27.458-15.883 93.927-154.494L51 305.334l99.256-172.237c27.576-47.851 88.722-64.288 136.574-36.712l.139.08 27.458 15.883-93.928 154.494z" stroke="#11D38F" stroke-linecap="round" stroke-linejoin="round"/><path d="M222.443 265.394l132.309-4.63-111.523 193.94c-27.531 47.877-88.662 64.37-136.539 36.84l-.3-.174-36.735-21.294 101.654-167.564L39 307.142l111.523-193.94c27.531-47.877 88.662-64.37 136.539-36.84l.3.174 36.735 21.294-101.654 167.564z" stroke="#11D38F" opacity=".5" stroke-linecap="round" stroke-linejoin="round"/><path d="M224.386 263.966l142.366-4.986-123.797 215.473c-27.513 47.887-88.637 64.404-136.525 36.891l-.367-.212L59.985 484.4l109.38-180.46L27 308.927 150.797 93.453c27.513-47.887 88.637-64.404 136.525-36.891.122.07.244.14.366.212l46.079 26.733-109.38 180.46z" stroke="#11D38F" opacity=".3" stroke-linecap="round" stroke-linejoin="round"/><path d="M226.491 262.472l153.26-5.36-137.108 238.256c-27.546 47.868-88.682 64.342-136.55 36.795a100.05 100.05 0 0 1-.245-.141l-56.339-32.634 117.752-193.954L14 310.794 151.108 72.538C178.655 24.67 239.791 8.196 287.66 35.743l.245.141 56.339 32.634L226.49 262.472z" stroke="#11D38F" opacity=".152" stroke-linecap="round" stroke-linejoin="round"/><path d="M228.597 260.911l164.155-5.749L242.35 516.9c-27.517 47.885-88.643 64.398-136.528 36.881l-.354-.204-66.434-38.538 126.121-208.043L1 312.744 151.402 51.007C178.92 3.122 240.044-13.39 287.93 14.127l.354.203 66.434 38.538L228.597 260.91z" stroke="#11D38F" opacity=".152" stroke-linecap="round" stroke-linejoin="round"/></g></svg>