<svg width="504" height="504" xmlns="http://www.w3.org/2000/svg"><g fill="none" fill-rule="evenodd"><g transform="rotate(45 156.402 291.598)" stroke="#11D38F" stroke-linecap="round" stroke-linejoin="round"><rect x="39.207" y="38.5" width="315" height="315" rx="62"/><rect x="50" y="50" width="292" height="292" rx="62"/><rect opacity=".5" x="29" y="29" width="334" height="334" rx="62"/><rect opacity=".3" x="21.207" y="20.5" width="351" height="351" rx="62"/><rect opacity=".152" x="10.207" y="9.5" width="373" height="373" rx="62"/><rect opacity=".152" width="392" height="392" rx="62"/></g><path d="M246.717 252.544C232.668 250.09 222 238.02 222 223.5c0-16.292 13.431-29.5 30-29.5 16.569 0 30 13.208 30 29.5 0 13.874-9.74 25.511-22.863 28.66l20.261 53.355a7 7 0 0 1-6.544 9.485h-39.708a7 7 0 0 1-6.544-9.485l20.115-52.97z" stroke="#11D38F" opacity=".5" stroke-linecap="round" stroke-linejoin="round"/><path d="M248.162 252.701C236.732 250.902 228 241.2 228 229.5c0-12.979 10.745-23.5 24-23.5s24 10.521 24 23.5c0 11.056-7.797 20.329-18.301 22.834l15.685 41.174a7 7 0 0 1-6.541 9.492h-27.686a7 7 0 0 1-6.541-9.492l15.546-40.807z" stroke="#11D38F" opacity=".152" stroke-linecap="round" stroke-linejoin="round"/><path d="M249.272 252.81C240.07 251.524 233 243.816 233 234.5c0-10.217 8.507-18.5 19-18.5s19 8.283 19 18.5c0 8.675-6.133 15.956-14.407 17.956l11.802 31.057a7 7 0 0 1-6.543 9.487h-17.704a7 7 0 0 1-6.543-9.487l11.667-30.702z" stroke="#11D38F" opacity=".152" stroke-linecap="round" stroke-linejoin="round"/><path d="M245.61 252.426C229.33 249.466 217 235.402 217 218.5c0-19.054 15.67-34.5 35-34.5s35 15.446 35 34.5c0 16.255-11.405 29.885-26.757 33.538l24.147 63.473a7 7 0 0 1-6.542 9.489h-49.696a7 7 0 0 1-6.542-9.489l24-63.085z" stroke="#11D38F" stroke-linecap="round" stroke-linejoin="round"/><path d="M244.502 252.307C225.995 248.841 212 232.785 212 213.5c0-21.815 17.909-39.5 40-39.5s40 17.685 40 39.5c0 18.636-13.07 34.258-30.651 38.415l28.035 73.593a7 7 0 0 1-6.541 9.492h-59.686a7 7 0 0 1-6.541-9.492l27.886-73.2z" stroke="#11D38F" stroke-linecap="round" stroke-linejoin="round"/><path d="M243.728 252.233C223.382 248.406 208 230.729 208 209.5c0-24.024 19.7-43.5 44-43.5s44 19.476 44 43.5c0 20.58-14.456 37.823-33.877 42.343l31.242 81.656a7 7 0 0 1-6.538 9.501h-67.654a7 7 0 0 1-6.538-9.501l31.093-81.266z" stroke="#FFF"/></g></svg>