<svg width="152" height="151" xmlns="http://www.w3.org/2000/svg"><g transform="translate(1 1)" fill="none" fill-rule="evenodd"><ellipse stroke="#FFF" cx="55.921" cy="56.04" rx="30.921" ry="30.987"/><ellipse stroke="#FFF" cx="55.921" cy="56.04" rx="30.921" ry="30.987"/><path d="M91.738 57.862a35.404 35.404 0 0 1 3.175-.142c19.524 0 35.35 16.006 35.35 35.75 0 19.745-15.826 35.751-35.35 35.751-19.523 0-35.35-16.006-35.35-35.75 0-.34.005-.678.015-1.015a35.404 35.404 0 0 1-3.176.143c-19.523 0-35.35-16.006-35.35-35.751 0-19.745 15.827-35.75 35.35-35.75 19.523 0 35.35 16.005 35.35 35.75 0 .34-.005.677-.014 1.014z" stroke="#11D38F" stroke-linecap="round" stroke-linejoin="round"/><path d="M54.476 96.968C32.996 96.3 15.789 78.69 15.789 57.065c0-22.05 17.888-39.923 39.953-39.923 20.812 0 37.907 15.901 39.782 36.209 21.48.668 38.687 18.277 38.687 39.903 0 22.049-17.888 39.923-39.953 39.923-20.812 0-37.907-15.901-39.782-36.209z" stroke="#11D38F" opacity=".5" stroke-linecap="round" stroke-linejoin="round"/><path d="M50.818 101.832c-21.986-2.85-38.976-21.82-38.976-44.797 0-24.946 20.026-45.168 44.728-45.168 21.809 0 39.972 15.762 43.928 36.62 21.986 2.85 38.976 21.82 38.976 44.797 0 24.945-20.026 45.167-44.728 45.167-21.809 0-39.972-15.761-43.928-36.619z" stroke="#11D38F" opacity=".3" stroke-linecap="round" stroke-linejoin="round"/><path d="M45.218 105.097C22.421 100.423 5.263 80.08 5.263 55.691c0-27.844 22.365-50.417 49.954-50.417 23.097 0 42.533 15.82 48.25 37.31 22.796 4.675 39.954 25.018 39.954 49.407 0 27.844-22.365 50.416-49.954 50.416-23.097 0-42.532-15.82-48.249-37.31z" stroke="#11D38F" opacity=".152" stroke-linecap="round" stroke-linejoin="round"/><path d="M41.27 110.684C17.495 104.226 0 82.328 0 56.308 0 25.21 24.992 0 55.82 0c24.592 0 45.47 16.041 52.91 38.316C132.505 44.774 150 66.672 150 92.692 150 123.79 125.008 149 94.18 149c-24.592 0-45.47-16.041-52.91-38.316z" stroke="#11D38F" opacity=".152" stroke-linecap="round" stroke-linejoin="round"/><ellipse stroke="#FFF" cx="94.079" cy="92.96" rx="30.921" ry="30.987"/></g></svg>