<svg width="442" height="534" xmlns="http://www.w3.org/2000/svg"><g fill="none" fill-rule="evenodd"><text font-family="WorkSans-Light, Work Sans Light" font-size="62" letter-spacing="1.3" fill="#FFF" transform="translate(-726 -2225)"><tspan x="60" y="2357">Be part of our </tspan> <tspan x="60" y="2437">partnership program</tspan></text><path d="M370 375c0 20.435-16.565 37-37 37a36.863 36.863 0 0 1-24.736-9.483l-.059.063-40.886-38.087a7.28 7.28 0 0 1-.36-10.295 7.295 7.295 0 0 1 10.306-.36L296 371.291V292a7 7 0 0 1 14 0v54.015a37.041 37.041 0 0 1 6-3.887V284a7 7 0 0 1 14 0v54.12a37.504 37.504 0 0 1 7 .094V292a7 7 0 0 1 14 0v50.666a37.065 37.065 0 0 1 5 3.35V307a7 7 0 0 1 14 0v68zm-232.773-95.627a37.197 37.197 0 0 0-5.39 4.464c-14.45 14.45-14.45 37.877 0 52.326 7.707 7.707 17.968 11.303 28.058 10.789l52.649 1.866a7.28 7.28 0 0 0 7.533-7.025 7.295 7.295 0 0 0-7.032-7.542l-25.976-.92 56.104-56.105a7 7 0 0 0-9.9-9.9l-38.507 38.508a37.032 37.032 0 0 0-1.659-7.542l41.41-41.409a7 7 0 0 0-9.9-9.9l-38.715 38.715a37.546 37.546 0 0 0-4.687-4.513l33.302-33.302a7 7 0 1 0-9.9-9.9l-36.437 36.438a37.048 37.048 0 0 0-5.125-1.076l27.462-27.462a7 7 0 0 0-9.9-9.9l-43.39 43.39zm163.885-152.501a37.262 37.262 0 0 1 4.13-4.368c15.186-13.674 38.581-12.448 52.254 2.738 6.477 7.193 9.61 16.227 9.502 25.197l.104.002-.946 55.87a7.28 7.28 0 0 1-7.41 7.155 7.295 7.295 0 0 1-7.163-7.417l.434-25.66-58.944 53.075a7 7 0 0 1-9.368-10.404l40.546-36.508a37.046 37.046 0 0 1-7.439-1.974l-42.794 38.532a7 7 0 0 1-9.368-10.404l39.857-35.887a37.515 37.515 0 0 1-4.13-4.646l-34.359 30.937a7 7 0 1 1-9.368-10.404l37.45-33.72c-.499-2-.827-4.032-.987-6.073l-29.095 26.197a7 7 0 1 1-9.368-10.404l46.462-41.834z" stroke="#FFF"/><path d="M303.127 79.92L93.76 268.667c-27.894 25.146-30.12 68.144-4.974 96.037a68 68 0 0 0 50.534 22.469l98.09-.042 59.068 56.79c25.878 24.88 67.026 24.072 91.906-1.806a65 65 0 0 0 18.144-45.023l.113-271.097c.014-34.241-27.732-62.011-61.974-62.025a62 62 0 0 0-41.54 15.95z" stroke="#11D38F" opacity=".5" stroke-linecap="round" stroke-linejoin="round"/><path d="M316.616 55.093c11.693-10.538 26.818-16.377 42.5-16.408 35.326-.068 64.018 28.75 64.086 64.37l.617 322.433c.032 16.898-6.407 33.156-17.974 45.384-24.789 26.203-65.95 27.183-91.938 2.188l-76.24-73.328-121.832-.236c-19.68-.038-38.416-8.512-51.531-23.308-25.503-28.77-23.046-72.94 5.487-98.654L316.616 55.093z" stroke="#11D38F" opacity=".3" stroke-linecap="round" stroke-linejoin="round"/><path d="M327.9 37.496c11.284-10.142 25.862-15.764 40.978-15.805 34.147-.091 61.903 27.747 61.994 62.178l.96 363.88c.042 16.334-6.166 32.054-17.332 43.887-23.945 25.373-63.757 26.37-88.921 2.226l-89.797-86.156-143.252-.381c-19.089-.05-37.255-8.29-49.957-22.658-24.68-27.918-22.243-70.725 5.445-95.611L327.9 37.496z" stroke="#11D38F" opacity=".152" stroke-linecap="round" stroke-linejoin="round"/><path d="M336.97 17.184C348.25 7.05 362.82 1.432 377.927 1.39c34.148-.096 61.907 27.739 62.002 62.17l1.124 406.284c.045 16.331-6.16 32.05-17.322 43.884-23.94 25.38-63.75 26.385-88.92 2.246L232.133 417.5l-164.104-.457c-19.092-.053-37.259-8.297-49.96-22.67-24.674-27.924-22.226-70.73 5.468-95.61L336.97 17.184z" stroke="#11D38F" opacity=".152" stroke-linecap="round" stroke-linejoin="round"/><path d="M298.722 95.135l-188.907 170.04c-25.86 23.278-27.954 63.113-4.677 88.973A63 63 0 0 0 151.963 375h88.367l55.334 53.125c23.506 22.567 60.855 21.807 83.422-1.699a59 59 0 0 0 16.44-40.86V138.242c0-32.032-25.968-58-58-58a58 58 0 0 0-38.804 14.892z" stroke="#11D38F" stroke-linecap="round" stroke-linejoin="round"/></g></svg>