<?xml version="1.0" encoding="UTF-8"?>
<svg width="190px" height="247px" viewBox="0 0 190 247" version="1.1" xmlns="http://www.w3.org/2000/svg" xmlns:xlink="http://www.w3.org/1999/xlink">
    <!-- Generator: Sketch 52.5 (67469) - http://www.bohemiancoding.com/sketch -->
    <title>Group 9</title>
    <desc>Created with Sketch.</desc>
    <g id="Page-1" stroke="none" stroke-width="1" fill="none" fill-rule="evenodd">
        <g id="3" transform="translate(-838.000000, -1199.000000)">
            <g id="Group-9" transform="translate(839.000000, 1199.000000)">
                <path d="M102.744906,117.614889 L148,116.021802 L117.022983,170.207862 C103.728455,193.463107 74.0990092,201.537863 50.8437645,188.243334 C50.7238955,188.174808 50.6043198,188.10577 50.4850404,188.036222 L85.2550935,130.385111 L40,131.978198 L70.977017,77.7921383 C84.2715454,54.5368935 113.900991,46.4621374 137.156236,59.7566658 C137.276104,59.8251923 137.39568,59.8942303 137.51496,59.9637781 L102.744906,117.614889 Z" id="Combined-Shape" stroke="#FFFFFF"></path>
                <path d="M103.621422,116.681044 L156,114.854963 L120.283356,176.72965 C104.691414,203.740768 70.1548102,212.99784 43.143692,197.405898 C43.1410349,197.404364 43.1383779,197.40283 43.1357211,197.401296 L83.3785784,131.318956 L31,133.145037 L66.7166445,71.2703503 C82.308586,44.2592321 116.84519,35.0021605 143.856308,50.5941021 C143.858965,50.5956359 143.861622,50.5971699 143.864279,50.5987041 L103.621422,116.681044 Z" id="Combined-Shape-Copy-3" stroke="#11D38F" stroke-linecap="round" stroke-linejoin="round"></path>
                <path d="M105.335991,115.740065 L164,113.679209 L123.877093,183.718901 C106.594859,213.887262 68.1285519,224.333532 37.9601908,207.051298 C37.8371637,206.980821 37.7143751,206.909929 37.5918271,206.838622 L82.6640094,132.259935 L24,134.320791 L64.1229067,64.2810988 C81.4051406,34.1127378 119.871448,23.6664677 150.039809,40.9487016 C150.162836,41.0191788 150.285625,41.0900714 150.408173,41.1613783 L105.335991,115.740065 Z" id="Combined-Shape-Copy-4" stroke="#11D38F" stroke-linecap="round" stroke-linejoin="round"></path>
                <path d="M105.726674,114.553282 L169,112.321074 L125.652747,188.31023 C107.119941,220.798847 65.7589048,232.112267 33.2702874,213.579461 C33.0660769,213.462971 32.8624744,213.345419 32.6594881,213.226808 L81.2733263,132.446718 L18,134.678926 L61.3472528,58.6897703 C79.8800591,26.2011529 121.241095,14.8877328 153.729713,33.4205391 C153.933923,33.5370289 154.137526,33.6545813 154.340512,33.7731915 L105.726674,114.553282 Z" id="Combined-Shape-Copy-5" stroke="#11D38F" opacity="0.5" stroke-linecap="round" stroke-linejoin="round"></path>
                <path d="M106.698331,114.36783 L175,111.964601 L128.256434,193.690861 C108.178417,228.795183 63.4442929,240.976411 28.3399706,220.898394 C28.1678036,220.799923 27.9960373,220.700752 27.8246762,220.600885 L80.3016687,133.63217 L12,136.035399 L58.7435661,54.3091388 C78.8215828,19.2048166 123.555707,7.02358907 158.660029,27.1016057 C158.832196,27.2000771 159.003963,27.2992477 159.175324,27.3991148 L106.698331,114.36783 Z" id="Combined-Shape-Copy-6" stroke="#11D38F" opacity="0.3" stroke-linecap="round" stroke-linejoin="round"></path>
                <path d="M107.669987,113.651638 L181,111.069718 L130.801735,198.896212 C109.265687,236.575514 61.2621613,249.662207 23.5828591,228.126159 C23.3846207,228.012853 23.186877,227.898684 22.9896337,227.783655 L79.3300128,134.348362 L6,136.930282 L56.1982647,49.1037883 C77.7343128,11.4244862 125.737839,-1.66220694 163.417141,19.8738411 C163.615379,19.9871466 163.813123,20.1013157 164.010366,20.2163449 L107.669987,113.651638 Z" id="Combined-Shape-Copy-7" stroke="#11D38F" opacity="0.152380022" stroke-linecap="round" stroke-linejoin="round"></path>
                <path d="M109.222615,112.391643 L188,109.620105 L134.089343,203.867612 C110.928636,244.357546 59.3295968,258.405659 18.8396636,235.244952 C18.6432489,235.132601 18.4472866,235.019461 18.2517814,234.905534 L78.7773847,134.608357 L2.56363819e-11,137.379895 L53.9106574,43.1323875 C77.0713643,2.64245432 128.670403,-11.4056592 169.160336,11.7550478 C169.356751,11.8673992 169.552713,11.9805395 169.748219,12.0944659 L109.222615,112.391643 Z" id="Combined-Shape-Copy-8" stroke="#11D38F" opacity="0.152380022" stroke-linecap="round" stroke-linejoin="round"></path>
            </g>
        </g>
    </g>
</svg>