<svg width="190" height="247" xmlns="http://www.w3.org/2000/svg"><g fill="none" fill-rule="evenodd"><path d="M103.745 117.615L149 116.022l-30.977 54.186c-13.295 23.255-42.924 31.33-66.18 18.035a25.54 25.54 0 0 1-.358-.207l34.77-57.65L41 131.977l30.977-54.186c13.295-23.255 42.924-31.33 66.18-18.035.12.068.239.137.358.207l-34.77 57.65z" stroke="#FFF"/><path d="M104.621 116.681L157 114.855l-35.717 61.875c-15.592 27.01-50.128 36.268-77.14 20.676l-.007-.005 40.243-66.082L32 133.145 67.717 71.27c15.592-27.01 50.128-36.268 77.14-20.676l.007.005-40.243 66.082z" stroke="#11D38F" stroke-linecap="round" stroke-linejoin="round"/><path d="M106.336 115.74L165 113.68l-40.123 70.039c-17.282 30.168-55.748 40.615-85.917 23.332l-.368-.212 45.072-74.58L25 134.322l40.123-70.04C82.405 34.113 120.87 23.666 151.04 40.95l.368.212-45.072 74.58z" stroke="#11D38F" stroke-linecap="round" stroke-linejoin="round"/><path d="M106.727 114.553L170 112.321l-43.347 75.99c-18.533 32.488-59.894 43.801-92.383 25.268a67.709 67.709 0 0 1-.61-.352l48.613-80.78L19 134.679l43.347-75.99c18.533-32.488 59.894-43.801 92.383-25.268.204.116.408.234.61.352l-48.613 80.78z" stroke="#11D38F" opacity=".5" stroke-linecap="round" stroke-linejoin="round"/><path d="M107.698 114.368L176 111.965l-46.744 81.726c-20.078 35.104-64.812 47.285-99.916 27.207a73.213 73.213 0 0 1-.515-.297l52.477-86.969L13 136.035 59.744 54.31c20.078-35.104 64.812-47.285 99.916-27.207.172.098.344.197.515.297l-52.477 86.969z" stroke="#11D38F" opacity=".3" stroke-linecap="round" stroke-linejoin="round"/><path d="M108.67 113.652L182 111.07l-50.198 87.826c-21.536 37.68-69.54 50.766-107.22 29.23a78.609 78.609 0 0 1-.592-.342l56.34-93.436L7 136.93l50.198-87.826c21.536-37.68 69.54-50.766 107.22-29.23.197.113.395.227.592.342l-56.34 93.436z" stroke="#11D38F" opacity=".152" stroke-linecap="round" stroke-linejoin="round"/><path d="M110.223 112.392L189 109.62l-53.91 94.248c-23.161 40.49-74.76 54.538-115.25 31.377a84.416 84.416 0 0 1-.588-.34l60.525-100.297L1 137.38l53.91-94.248c23.161-40.49 74.76-54.538 115.25-31.377.197.112.393.226.588.34l-60.525 100.297z" stroke="#11D38F" opacity=".152" stroke-linecap="round" stroke-linejoin="round"/></g></svg>