<svg width="268" height="264" xmlns="http://www.w3.org/2000/svg"><g transform="translate(1 1)" fill="none" fill-rule="evenodd"><circle stroke="#FFF" cx="98.5" cy="99.5" r="54.5"/><circle stroke="#FFF" cx="98.5" cy="99.5" r="54.5"/><path d="M161.917 101.265a63.251 63.251 0 0 1 5.612-.249c34.502 0 62.471 27.979 62.471 62.492S202.03 226 167.529 226c-34.502 0-62.471-27.979-62.471-62.492 0-.593.008-1.184.025-1.773-1.849.165-3.72.249-5.612.249C64.97 161.984 37 134.005 37 99.492S64.97 37 99.471 37c34.502 0 62.471 27.979 62.471 62.492 0 .593-.008 1.184-.025 1.773z" stroke="#11D38F" stroke-linecap="round" stroke-linejoin="round"/><path d="M97.277 170.03C59.368 168.849 29 137.738 29 99.532 29 60.578 60.57 29 99.512 29c36.731 0 66.902 28.093 70.211 63.97C207.632 94.151 238 125.262 238 163.468 238 202.422 206.43 234 167.488 234c-36.731 0-66.902-28.093-70.211-63.97z" stroke="#11D38F" opacity=".5" stroke-linecap="round" stroke-linejoin="round"/><path d="M89.32 178.489C50.217 173.467 20 140.049 20 99.57 20 55.625 55.616 20 99.551 20c38.788 0 71.092 27.766 78.129 64.511 39.103 5.022 69.32 38.44 69.32 78.919 0 43.945-35.616 79.57-79.551 79.57-38.788 0-71.092-27.766-78.129-64.511z" stroke="#11D38F" opacity=".3" stroke-linecap="round" stroke-linejoin="round"/><path d="M81.143 186.159C40.55 177.909 10 142.009 10 98.97 10 49.833 49.823 10 98.946 10c41.126 0 75.733 27.918 85.911 65.841C225.45 84.091 256 119.991 256 163.03c0 49.137-39.823 88.97-88.946 88.97-41.126 0-75.733-27.918-85.911-65.841z" stroke="#11D38F" opacity=".152" stroke-linecap="round" stroke-linejoin="round"/><path d="M73.184 194.625C31.027 183.271 0 144.765 0 99.012 0 44.329 44.319 0 98.989 0c43.609 0 80.631 28.206 93.827 67.375C234.973 78.729 266 117.235 266 162.988 266 217.671 221.681 262 167.011 262c-43.609 0-80.631-28.206-93.827-67.375z" stroke="#11D38F" opacity=".152" stroke-linecap="round" stroke-linejoin="round"/><circle stroke="#FFF" cx="167.5" cy="162.5" r="54.5"/></g></svg>