<?xml version="1.0" encoding="UTF-8"?>
<svg width="279px" height="239px" viewBox="0 0 279 239" version="1.1" xmlns="http://www.w3.org/2000/svg" xmlns:xlink="http://www.w3.org/1999/xlink">
    <!-- Generator: Sketch 52.5 (67469) - http://www.bohemiancoding.com/sketch -->
    <title>Group 18</title>
    <desc>Created with Sketch.</desc>
    <g id="Page-1" stroke="none" stroke-width="1" fill="none" fill-rule="evenodd">
        <g id="3" transform="translate(-206.000000, -1197.000000)">
            <g id="Group-18" transform="translate(207.000000, 1198.000000)">
                <path d="" id="Path-16" stroke="#979797"></path>
                <g id="Group-15" transform="translate(139.000000, 119.000000) rotate(-90.000000) translate(-139.000000, -119.000000) translate(64.000000, 30.000000)" stroke="#FFFFFF">
                    <path d="M25.4716981,50.3862434 L25.4716981,89 L107.106619,89 C117.249372,89 125.471698,97.2223261 125.471698,107.365079 C125.471698,117.507833 117.249372,125.730159 107.106619,125.730159 L5.1575322,125.730159 C-4.98522107,125.730159 -13.2075472,117.507833 -13.2075472,107.365079 C-13.2075472,107.126199 -13.2029863,106.888383 -13.193947,106.651715 C-13.202987,106.408807 -13.2075472,106.164755 -13.2075472,105.919637 L-13.2075472,33.4666068 C-13.2075472,33.2214888 -13.202987,32.9774359 -13.193947,32.7345283 C-13.2029863,32.4978603 -13.2075472,32.2600448 -13.2075472,32.021164 C-13.2075472,21.8784108 -4.98522107,13.6560847 5.1575322,13.6560847 L107.106619,13.6560847 C117.249372,13.6560847 125.471698,21.8784108 125.471698,32.021164 C125.471698,42.1639173 117.249372,50.3862434 107.106619,50.3862434 L25.4716981,50.3862434 Z" id="Combined-Shape" transform="translate(56.132075, 69.693122) scale(-1, 1) rotate(-270.000000) translate(-56.132075, -69.693122) "></path>
                    <path d="M63.2075472,89 L63.2075472,127.613757 L144.842468,127.613757 C154.985221,127.613757 163.207547,135.836083 163.207547,145.978836 C163.207547,156.121589 154.985221,164.343915 144.842468,164.343915 L42.8933813,164.343915 C32.750628,164.343915 24.5283019,156.121589 24.5283019,145.978836 C24.5283019,145.739955 24.5328627,145.50214 24.5419021,145.265472 C24.532862,145.022564 24.5283019,144.778511 24.5283019,144.533393 L24.5283019,72.0803634 C24.5283019,71.8352454 24.532862,71.5911925 24.5419021,71.3482849 C24.5328627,71.1116169 24.5283019,70.8738014 24.5283019,70.6349206 C24.5283019,60.4921674 32.750628,52.2698413 42.8933813,52.2698413 L144.842468,52.2698413 C154.985221,52.2698413 163.207547,60.4921674 163.207547,70.6349206 C163.207547,80.7776739 154.985221,89 144.842468,89 L63.2075472,89 Z" id="Combined-Shape" transform="translate(93.867925, 108.306878) scale(-1, 1) rotate(-90.000000) translate(-93.867925, -108.306878) "></path>
                </g>
                <path d="M44,87.6286666 C46.4820267,80.0996334 53.5731034,74.6652285 61.9334534,74.6652285 L68.8121805,74.6652285 C75.4395975,74.6652285 80.8121805,69.2926455 80.8121805,62.6652285 L80.8121805,55.861854 C80.8121805,47.5348958 86.2248657,40.4721379 93.7238162,38 L209,38 C222.807119,38 234,49.1928813 234,63 L234,150.12382 C231.540968,157.525931 224.560144,162.864444 216.332444,162.864444 L209.719615,162.864444 C203.092198,162.864444 197.719615,168.237027 197.719615,174.864444 L197.719615,181.402982 C197.719615,189.59782 192.402439,196.550765 185.029904,199 L69,199 C55.1928813,199 44,187.807119 44,174 L44,87.6286666 Z" id="Combined-Shape" stroke="#11D38F" stroke-linecap="round" stroke-linejoin="round"></path>
                <path d="M31,84.5573804 C33.7299652,75.9050265 41.8193036,69.6317626 51.3738412,69.6317626 L60.7338576,69.6317626 C67.3612746,69.6317626 72.7338576,64.2591796 72.7338576,57.6317626 L72.7338576,48.3239894 C72.7338576,38.7928447 78.9917464,30.7233083 87.6229042,28 L220,28 C233.807119,28 245,39.1928813 245,53 L245,154.801145 C242.230353,163.138259 234.367741,169.151111 225.100753,169.151111 L216.136829,169.151111 C209.509412,169.151111 204.136829,174.523694 204.136829,181.151111 L204.136829,190.107719 C204.136829,199.371449 198.126108,207.2313 189.791938,210 L56,210 C42.1928813,210 31,198.807119 31,185 L31,84.5573804 Z" id="Combined-Shape-Copy" stroke="#11D38F" stroke-linecap="round" stroke-linejoin="round"></path>
                <path d="M22,81.9283822 C24.8906335,72.3281921 33.7997297,65.3354831 44.3420606,65.3354831 L55.6714629,65.3354831 C62.2988799,65.3354831 67.6714629,59.9629001 67.6714629,53.3354831 L67.6714629,42.1776918 C67.6714629,31.7129353 74.6127004,22.8693918 84.1422363,20 L231,20 C244.807119,20 256,31.1928813 256,45 L256,157.09336 C252.971508,166.209644 244.374072,172.784444 234.24101,172.784444 L223.317841,172.784444 C216.690424,172.784444 211.317841,178.157027 211.317841,184.784444 L211.317841,195.468245 C211.317841,205.495469 204.811731,214.00311 195.790679,217 L47,217 C33.1928813,217 22,205.807119 22,192 L22,81.9283822 Z" id="Combined-Shape-Copy-2" stroke="#11D38F" opacity="0.5" stroke-linecap="round" stroke-linejoin="round"></path>
                <path d="M13,77.9407245 C16.0496795,67.4941132 25.69894,59.862273 37.1307122,59.862273 L50.2654085,59.862273 C56.8928255,59.862273 62.2654085,54.48969 62.2654085,47.862273 L62.2654085,34.4288109 C62.2654085,22.8470386 70.0068235,13.0733707 80.5974604,10 L240,10 C253.807119,10 265,21.1928813 265,35 L265,160.621909 C261.738547,170.439446 252.47977,177.519999 241.567242,177.519999 L228.880752,177.519999 C222.253335,177.519999 216.880752,182.892582 216.880752,189.519999 L216.880752,202.391579 C216.880752,213.385895 209.747149,222.71407 199.856046,226 L38,226 C24.1928813,226 13,214.807119 13,201 L13,77.9407245 Z" id="Combined-Shape-Copy-9" stroke="#11D38F" opacity="0.152380022" stroke-linecap="round" stroke-linejoin="round"></path>
                <path d="M1.11022302e-15,73.4015377 C3.11951614,62.5399213 13.128035,54.5926985 24.9927273,54.5926985 L42.526856,54.5926985 C49.154273,54.5926985 54.526856,49.2201155 54.526856,42.5926985 L54.526856,26.7920939 C54.526856,14.0174979 63.1430584,3.25532388 74.8810348,3.66373598e-15 L252,3.55271368e-15 C265.807119,-1.12467978e-14 277,11.1928813 277,25 L277,166.18105 C273.514584,176.43177 263.807596,183.806666 252.378109,183.806666 L236.107017,183.806666 C229.4796,183.806666 224.107017,189.179249 224.107017,195.806666 L224.107017,211.096315 C224.107017,223.159524 216.27987,233.394605 205.427132,237 L25,237 C11.1928813,237 5.24359806e-15,225.807119 3.55271368e-15,212 L3.55271368e-15,73.4015377 Z" id="Combined-Shape-Copy-10" stroke="#11D38F" opacity="0.152380022" stroke-linecap="round" stroke-linejoin="round"></path>
            </g>
        </g>
    </g>
</svg>