<?xml version="1.0" encoding="UTF-8"?>
<svg width="268px" height="264px" viewBox="0 0 268 264" version="1.1" xmlns="http://www.w3.org/2000/svg" xmlns:xlink="http://www.w3.org/1999/xlink">
    <!-- Generator: Sketch 52.5 (67469) - http://www.bohemiancoding.com/sketch -->
    <title>Group 26</title>
    <desc>Created with Sketch.</desc>
    <g id="Page-1" stroke="none" stroke-width="1" fill="none" fill-rule="evenodd">
        <g id="3" transform="translate(-779.000000, -1715.000000)">
            <g id="Group-26" transform="translate(780.000000, 1716.000000)">
                <circle id="Oval" stroke="#FFFFFF" cx="98.5" cy="99.5" r="54.5"></circle>
                <circle id="Oval-Copy-9" stroke="#FFFFFF" cx="98.5" cy="99.5" r="54.5"></circle>
                <path d="M161.917449,101.264821 C163.765964,101.100204 165.637641,101.016129 167.528947,101.016129 C202.030757,101.016129 230,128.994722 230,163.508065 C230,198.021407 202.030757,226 167.528947,226 C133.027138,226 105.057895,198.021407 105.057895,163.508065 C105.057895,162.915138 105.06615,162.32414 105.082551,161.735179 C103.234036,161.899796 101.362359,161.983871 99.4710526,161.983871 C64.969243,161.983871 37,134.005278 37,99.4919355 C37,64.9785925 64.969243,37 99.4710526,37 C133.972862,37 161.942105,64.9785925 161.942105,99.4919355 C161.942105,100.084862 161.93385,100.67586 161.917449,101.264821 Z" id="Combined-Shape" stroke="#11D38F" stroke-linecap="round" stroke-linejoin="round"></path>
                <path d="M97.2768315,170.029588 C59.368452,168.848742 29,137.737934 29,99.5321782 C29,60.5783318 60.5693586,29 99.5121359,29 C136.243014,29 166.414287,57.09299 169.723168,92.9704118 C207.631548,94.1512582 238,125.262066 238,163.467822 C238,202.421668 206.430641,234 167.487864,234 C130.756986,234 100.585713,205.90701 97.2768315,170.029588 Z" id="Combined-Shape" stroke="#11D38F" opacity="0.5" stroke-linecap="round" stroke-linejoin="round"></path>
                <path d="M89.3200708,178.488923 C50.2174881,173.467148 20,140.048486 20,99.5704545 C20,55.624906 55.6163478,20 99.5513393,20 C138.338926,20 170.642902,47.7663094 177.679929,84.511077 C216.782512,89.5328519 247,122.951514 247,163.429545 C247,207.375094 211.383652,243 167.448661,243 C128.661074,243 96.3570978,215.233691 89.3200708,178.488923 Z" id="Combined-Shape" stroke="#11D38F" opacity="0.3" stroke-linecap="round" stroke-linejoin="round"></path>
                <path d="M81.1426424,186.158521 C40.5504505,177.909476 10,142.008727 10,98.9705882 C10,49.8334892 49.8226064,10 98.946281,10 C140.071889,10 174.678575,37.9184516 184.857358,75.8414791 C225.449562,84.0905389 256,119.991282 256,163.029412 C256,212.166511 216.177394,252 167.053719,252 C125.928111,252 91.3214247,224.081548 81.1426424,186.158521 Z" id="Combined-Shape" stroke="#11D38F" opacity="0.152380022" stroke-linecap="round" stroke-linejoin="round"></path>
                <path d="M73.1838112,194.625399 C31.0270286,183.270524 0,144.765296 0,99.0116279 C0,44.3290158 44.3186833,0 98.9885496,0 C142.597731,0 179.620486,28.2064177 192.816176,67.3745949 C234.972966,78.7294685 266,117.234699 266,162.988372 C266,217.670984 221.681317,262 167.01145,262 C123.402268,262 86.3795119,233.793581 73.1838228,194.625402 Z" id="Combined-Shape" stroke="#11D38F" opacity="0.152380022" stroke-linecap="round" stroke-linejoin="round"></path>
                <circle id="Oval-Copy-6" stroke="#FFFFFF" cx="167.5" cy="162.5" r="54.5"></circle>
            </g>
        </g>
    </g>
</svg>