<?xml version="1.0" encoding="UTF-8"?>
<svg width="262px" height="240px" viewBox="0 0 262 240" version="1.1" xmlns="http://www.w3.org/2000/svg" xmlns:xlink="http://www.w3.org/1999/xlink">
    <!-- Generator: Sketch 52.5 (67469) - http://www.bohemiancoding.com/sketch -->
    <title>Group 21</title>
    <desc>Created with Sketch.</desc>
    <g id="Page-1" stroke="none" stroke-width="1" fill="none" fill-rule="evenodd">
        <g id="3" transform="translate(-206.000000, -1728.000000)">
            <g id="Group-21" transform="translate(207.000000, 1729.000000)">
                <polygon id="Rectangle-Copy" stroke="#11D38F" stroke-linecap="round" stroke-linejoin="round" points="41 32 104.813001 32 125.345672 64.4502924 237 66.5438596 237 211 41 211"></polygon>
                <polygon id="Rectangle-Copy-2" stroke="#11D38F" opacity="0.5" stroke-linecap="round" stroke-linejoin="round" points="32 25 101.022226 25 123.231033 59.9883041 244 62.245614 244 218 32 218"></polygon>
                <polygon id="Rectangle-Copy-5" stroke="#11D38F" opacity="0.3" stroke-linecap="round" stroke-linejoin="round" points="23 18 96.5802975 18 120.255724 55.5263158 249 57.9473684 249 225 23 225"></polygon>
                <polygon id="Rectangle-Copy-6" stroke="#11D38F" opacity="0.152380022" stroke-linecap="round" stroke-linejoin="round" points="10 8 90.0918282 8 115.862425 48.6081871 256 51.2280702 256 232 10 232"></polygon>
                <polygon id="Rectangle-Copy-7" stroke="#11D38F" opacity="0.152380022" stroke-linecap="round" stroke-linejoin="round" points="0 0 84.6498997 0 111.887116 43.1461988 260 45.9298246 260 238 0 238"></polygon>
                <polygon id="Rectangle" stroke="#FFFFFF" points="53 41 110.301471 41 128.738971 70.1871345 229 72.0701754 229 202 53 202"></polygon>
            </g>
        </g>
    </g>
</svg>