<svg width="279" height="239" xmlns="http://www.w3.org/2000/svg"><g fill="none" fill-rule="evenodd"><g stroke="#FFF"><path d="M90.033 158.175V119.56h81.635c10.142 0 18.365-8.222 18.365-18.365 0-10.143-8.223-18.365-18.365-18.365H69.718c-10.142 0-18.365 8.222-18.365 18.365 0 .239.005.477.014.713-.009.243-.014.487-.014.732v72.453c0 .246.005.49.014.733a18.69 18.69 0 0 0-.014.713c0 10.143 8.223 18.365 18.366 18.365h101.949c10.142 0 18.365-8.222 18.365-18.365 0-10.143-8.223-18.365-18.365-18.365H90.033z"/><path d="M189.967 81.825v38.614h-81.635c-10.142 0-18.365 8.222-18.365 18.365 0 10.143 8.223 18.365 18.365 18.365h101.95c10.142 0 18.365-8.222 18.365-18.365 0-.239-.005-.477-.014-.713.009-.243.014-.487.014-.732V64.906c0-.246-.005-.49-.014-.733.009-.236.014-.474.014-.713 0-10.143-8.223-18.365-18.366-18.365H108.332c-10.142 0-18.365 8.222-18.365 18.365 0 10.143 8.223 18.365 18.365 18.365h81.635z"/></g><path d="M45 88.629c2.482-7.53 9.573-12.964 17.933-12.964h6.88c6.627 0 12-5.372 12-12v-6.803c0-8.327 5.412-15.39 12.91-17.862H210c13.807 0 25 11.193 25 25v87.124c-2.459 7.402-9.44 12.74-17.668 12.74h-6.612c-6.628 0-12 5.373-12 12v6.539c0 8.195-5.318 15.148-12.69 17.597H70c-13.807 0-25-11.193-25-25V88.629z" stroke="#11D38F" stroke-linecap="round" stroke-linejoin="round"/><path d="M32 85.557c2.73-8.652 10.82-14.925 20.374-14.925h9.36c6.627 0 12-5.373 12-12v-9.308c0-9.531 6.258-17.6 14.889-20.324H221c13.807 0 25 11.193 25 25v101.801c-2.77 8.337-10.632 14.35-19.9 14.35h-8.963c-6.628 0-12 5.373-12 12v8.957c0 9.263-6.01 17.123-14.345 19.892H57c-13.807 0-25-11.193-25-25V85.557z" stroke="#11D38F" stroke-linecap="round" stroke-linejoin="round"/><path d="M23 82.928c2.89-9.6 11.8-16.593 22.342-16.593h11.33c6.627 0 12-5.372 12-12V43.178c0-10.465 6.94-19.309 16.47-22.178H232c13.807 0 25 11.193 25 25v112.093c-3.028 9.117-11.626 15.691-21.759 15.691h-10.923c-6.628 0-12 5.373-12 12v10.684c0 10.027-6.506 18.535-15.527 21.532H48c-13.807 0-25-11.193-25-25V82.928z" stroke="#11D38F" opacity=".5" stroke-linecap="round" stroke-linejoin="round"/><path d="M14 78.94c3.05-10.446 12.699-18.078 24.13-18.078h13.135c6.628 0 12-5.372 12-12V35.43c0-11.582 7.742-21.356 18.332-24.429H241c13.807 0 25 11.193 25 25v125.622c-3.261 9.817-12.52 16.898-23.433 16.898h-12.686c-6.628 0-12 5.373-12 12v12.872c0 10.994-7.134 20.322-17.025 23.608H39c-13.807 0-25-11.193-25-25V78.94z" stroke="#11D38F" opacity=".152" stroke-linecap="round" stroke-linejoin="round"/><path d="M1 74.402c3.12-10.862 13.128-18.81 24.993-18.81h17.534c6.627 0 12-5.372 12-12v-15.8C55.527 15.017 64.143 4.255 75.88 1H253c13.807 0 25 11.193 25 25v141.181c-3.485 10.25-13.192 17.626-24.622 17.626h-16.271c-6.627 0-12 5.372-12 12v15.29c0 12.063-7.827 22.298-18.68 25.903H26c-13.807 0-25-11.193-25-25V74.402z" stroke="#11D38F" opacity=".152" stroke-linecap="round" stroke-linejoin="round"/></g></svg>