<svg width="1280" height="638" xmlns="http://www.w3.org/2000/svg"><g fill="none" fill-rule="evenodd"><path d="M706 87v550.377V87zm-10 0v550.377V87zm-10 0v550.377V87zm-10 0v550.377V87z" stroke="#11D38F" stroke-linecap="round" stroke-linejoin="round"/><path d="M666 87v550.377V87zm-10 0v550.377V87zm-10 0v550.377V87zm-10 0v550.377V87zm-10 0v550.377V87zm-10 0v550.377V87zm-10 0v550.377V87zm-10 0v550.377V87zm-10 0v550.377V87zm-10 0v550.377V87zm-10 0v550.377V87zm-10 0v550.377V87zm-20 0v550.377V87zm-11 0v550.377V87zm-10 0v550.377V87zm-10 0v550.377V87zm-10 0v550.377V87zm51 0v550.377V87z" stroke="#11D38F" opacity=".5" stroke-linecap="round" stroke-linejoin="round"/><path d="M926 87v550.377V87z" stroke="#FFF" opacity=".7"/><path d="M916 87v550.377V87zm-10 0v550.377V87zm-10 0v550.377V87zm-10 0v550.377V87zm-10 0v550.377V87zm-10 0v550.377V87zm-10 0v550.377V87zm-10 0v550.377V87zm-10 0v550.377V87zm-10 0v550.377V87zm-10 0v550.377V87zm-10 0v550.377V87zm-10 0v550.377V87zm-10 0v550.377V87zm-10 0v550.377V87zm-20 0v550.377V87zm-11 0v550.377V87zm-10 0v550.377V87zm-10 0v550.377V87zm-10 0v550.377V87zm51 0v550.377V87z" stroke="#11D38F" stroke-linecap="round" stroke-linejoin="round"/><path d="M1147 87v550.377V87zm-10 0v550.377V87zm-10 0v550.377V87zm-10 0v550.377V87zm-10 0v550.377V87zm-10 0v550.377V87zm110 0v550.377V87zm-10 0v550.377V87zm-10 0v550.377V87zm-10 0v550.377V87zm-10 0v550.377V87zm-10 0v550.377V87zm-70 0v550.377V87zm-10 0v550.377V87zm190 0v550.377V87zm-10 0v550.377V87zm-10 0v550.377V87zm-10 0v550.377V87zm-10 0v550.377V87zm-10 0v550.377V87z" stroke="#FFF" opacity=".3"/><path d="M1067 87v550.377V87zm-10 0v550.377V87zm-10 0v550.377V87zm-10 0v550.377V87zm-10 0v550.377V87zm-10 0v550.377V87zm-10 0v550.377V87zm-10 0v550.377V87zm-20 0v550.377V87zm-11 0v550.377V87zm-10 0v550.377V87zm-10 0v550.377V87zm-10 0v550.377V87zm51 0v550.377V87z" stroke="#FFF" opacity=".7"/><path d="M484 87v550.377V87zm-10 0v550.377V87z" stroke="#11D38F" opacity=".5" stroke-linecap="round" stroke-linejoin="round"/><path d="M464 87v550.377V87zm-10 0v550.377V87zm-10 0v550.377V87zm-10 0v550.377V87zm-10 0v550.377V87zm-10 0v550.377V87zm-10 0v550.377V87zm-10 0v550.377V87zm-10 0v550.377V87zm-10 0v550.377V87zm-10 0v550.377V87zm-10 0v550.377V87zm-10 0v550.377V87zm-10 0v550.377V87zm-20 0v550.377V87zm-11 0v550.377V87zm-10 0v550.377V87zm-10 0v550.377V87zm-10 0v550.377V87zm51 0v550.377V87zm-62 0v550.377V87z" stroke="#11D38F" opacity=".3" stroke-linecap="round" stroke-linejoin="round"/><path d="M252 87v550.377V87zm-10 0v550.377V87zm-10 0v550.377V87zm-10 0v550.377V87zm-10 0v550.377V87zm-10 0v550.377V87zm-10 0v550.377V87zm-10 0v550.377V87zm-10 0v550.377V87zm-10 0v550.377V87zm-10 0v550.377V87zm-10 0v550.377V87zm-10 0v550.377V87zm-10 0v550.377V87zm-10 0v550.377V87zm-20 0v550.377V87zm-11 0v550.377V87zm-10 0v550.377V87zm-10 0v550.377V87zm-10 0v550.377V87zm51 0v550.377V87z" stroke="#11D38F" opacity=".152" stroke-linecap="round" stroke-linejoin="round"/><path d="M24.704 605.668C614.002 605.668 1293 343.3 1293 79.65 984.144 90.764 743.378 72.3 154.08 72.3 266.603-24.416-71.01-5.306 34.29 22.678c0 263.65-115.487 595.288-9.586 582.99z" fill="#050505"/></g></svg>