<?xml version="1.0" encoding="UTF-8"?>
<svg width="1280px" height="638px" viewBox="0 0 1280 638" version="1.1" xmlns="http://www.w3.org/2000/svg" xmlns:xlink="http://www.w3.org/1999/xlink">
    <!-- Generator: Sketch 52.5 (67469) - http://www.bohemiancoding.com/sketch -->
    <title>Group 34</title>
    <desc>Created with Sketch.</desc>
    <g id="Page-1" stroke="none" stroke-width="1" fill="none" fill-rule="evenodd">
        <g id="3" transform="translate(0.000000, -2930.000000)">
            <g id="Group-34" transform="translate(-20.000000, 2930.000000)">
                <g id="Group-20" transform="translate(70.000000, 87.000000)">
                    <path d="M656,2.27373675e-13 L656,550.376751 L656,2.27373675e-13 Z" id="Path-17" stroke="#11D38F" stroke-linecap="round" stroke-linejoin="round"></path>
                    <path d="M646,2.27373675e-13 L646,550.376751 L646,2.27373675e-13 Z" id="Path-17-Copy" stroke="#11D38F" stroke-linecap="round" stroke-linejoin="round"></path>
                    <path d="M636,2.27373675e-13 L636,550.376751 L636,2.27373675e-13 Z" id="Path-17-Copy-2" stroke="#11D38F" stroke-linecap="round" stroke-linejoin="round"></path>
                    <path d="M626,2.27373675e-13 L626,550.376751 L626,2.27373675e-13 Z" id="Path-17-Copy-3" stroke="#11D38F" stroke-linecap="round" stroke-linejoin="round"></path>
                    <path d="M616,2.27373675e-13 L616,550.376751 L616,2.27373675e-13 Z" id="Path-17-Copy-4" stroke="#11D38F" opacity="0.5" stroke-linecap="round" stroke-linejoin="round"></path>
                    <path d="M606,2.27373675e-13 L606,550.376751 L606,2.27373675e-13 Z" id="Path-17-Copy-5" stroke="#11D38F" opacity="0.5" stroke-linecap="round" stroke-linejoin="round"></path>
                    <path d="M596,2.27373675e-13 L596,550.376751 L596,2.27373675e-13 Z" id="Path-17-Copy-6" stroke="#11D38F" opacity="0.5" stroke-linecap="round" stroke-linejoin="round"></path>
                    <path d="M586,2.27373675e-13 L586,550.376751 L586,2.27373675e-13 Z" id="Path-17-Copy-7" stroke="#11D38F" opacity="0.5" stroke-linecap="round" stroke-linejoin="round"></path>
                    <path d="M576,2.27373675e-13 L576,550.376751 L576,2.27373675e-13 Z" id="Path-17-Copy-8" stroke="#11D38F" opacity="0.5" stroke-linecap="round" stroke-linejoin="round"></path>
                    <path d="M566,2.27373675e-13 L566,550.376751 L566,2.27373675e-13 Z" id="Path-17-Copy-9" stroke="#11D38F" opacity="0.5" stroke-linecap="round" stroke-linejoin="round"></path>
                    <path d="M556,2.27373675e-13 L556,550.376751 L556,2.27373675e-13 Z" id="Path-17-Copy-10" stroke="#11D38F" opacity="0.5" stroke-linecap="round" stroke-linejoin="round"></path>
                    <path d="M546,2.27373675e-13 L546,550.376751 L546,2.27373675e-13 Z" id="Path-17-Copy-12" stroke="#11D38F" opacity="0.5" stroke-linecap="round" stroke-linejoin="round"></path>
                    <path d="M536,2.27373675e-13 L536,550.376751 L536,2.27373675e-13 Z" id="Path-17-Copy-13" stroke="#11D38F" opacity="0.5" stroke-linecap="round" stroke-linejoin="round"></path>
                    <path d="M526,2.27373675e-13 L526,550.376751 L526,2.27373675e-13 Z" id="Path-17-Copy-14" stroke="#11D38F" opacity="0.5" stroke-linecap="round" stroke-linejoin="round"></path>
                    <path d="M516,2.27373675e-13 L516,550.376751 L516,2.27373675e-13 Z" id="Path-17-Copy-15" stroke="#11D38F" opacity="0.5" stroke-linecap="round" stroke-linejoin="round"></path>
                    <path d="M506,2.27373675e-13 L506,550.376751 L506,2.27373675e-13 Z" id="Path-17-Copy-16" stroke="#11D38F" opacity="0.5" stroke-linecap="round" stroke-linejoin="round"></path>
                    <path d="M486,2.27373675e-13 L486,550.376751 L486,2.27373675e-13 Z" id="Path-17-Copy-18" stroke="#11D38F" opacity="0.5" stroke-linecap="round" stroke-linejoin="round"></path>
                    <path d="M475,2.27373675e-13 L475,550.376751 L475,2.27373675e-13 Z" id="Path-17-Copy-19" stroke="#11D38F" opacity="0.5" stroke-linecap="round" stroke-linejoin="round"></path>
                    <path d="M465,2.27373675e-13 L465,550.376751 L465,2.27373675e-13 Z" id="Path-17-Copy-20" stroke="#11D38F" opacity="0.5" stroke-linecap="round" stroke-linejoin="round"></path>
                    <path d="M455,2.27373675e-13 L455,550.376751 L455,2.27373675e-13 Z" id="Path-17-Copy-21" stroke="#11D38F" opacity="0.5" stroke-linecap="round" stroke-linejoin="round"></path>
                    <path d="M445,2.27373675e-13 L445,550.376751 L445,2.27373675e-13 Z" id="Path-17-Copy-22" stroke="#11D38F" opacity="0.5" stroke-linecap="round" stroke-linejoin="round"></path>
                    <path d="M496,2.27373675e-13 L496,550.376751 L496,2.27373675e-13 Z" id="Path-17-Copy-17" stroke="#11D38F" opacity="0.5" stroke-linecap="round" stroke-linejoin="round"></path>
                    <path d="M876,2.27373675e-13 L876,550.376751 L876,2.27373675e-13 Z" id="Path-17" stroke="#FFFFFF" opacity="0.7"></path>
                    <path d="M866,2.27373675e-13 L866,550.376751 L866,2.27373675e-13 Z" id="Path-17-Copy" stroke="#11D38F" stroke-linecap="round" stroke-linejoin="round"></path>
                    <path d="M856,2.27373675e-13 L856,550.376751 L856,2.27373675e-13 Z" id="Path-17-Copy-2" stroke="#11D38F" stroke-linecap="round" stroke-linejoin="round"></path>
                    <path d="M846,2.27373675e-13 L846,550.376751 L846,2.27373675e-13 Z" id="Path-17-Copy-3" stroke="#11D38F" stroke-linecap="round" stroke-linejoin="round"></path>
                    <path d="M836,2.27373675e-13 L836,550.376751 L836,2.27373675e-13 Z" id="Path-17-Copy-4" stroke="#11D38F" stroke-linecap="round" stroke-linejoin="round"></path>
                    <path d="M826,2.27373675e-13 L826,550.376751 L826,2.27373675e-13 Z" id="Path-17-Copy-5" stroke="#11D38F" stroke-linecap="round" stroke-linejoin="round"></path>
                    <path d="M816,2.27373675e-13 L816,550.376751 L816,2.27373675e-13 Z" id="Path-17-Copy-6" stroke="#11D38F" stroke-linecap="round" stroke-linejoin="round"></path>
                    <path d="M806,2.27373675e-13 L806,550.376751 L806,2.27373675e-13 Z" id="Path-17-Copy-7" stroke="#11D38F" stroke-linecap="round" stroke-linejoin="round"></path>
                    <path d="M796,2.27373675e-13 L796,550.376751 L796,2.27373675e-13 Z" id="Path-17-Copy-8" stroke="#11D38F" stroke-linecap="round" stroke-linejoin="round"></path>
                    <path d="M786,2.27373675e-13 L786,550.376751 L786,2.27373675e-13 Z" id="Path-17-Copy-9" stroke="#11D38F" stroke-linecap="round" stroke-linejoin="round"></path>
                    <path d="M776,2.27373675e-13 L776,550.376751 L776,2.27373675e-13 Z" id="Path-17-Copy-10" stroke="#11D38F" stroke-linecap="round" stroke-linejoin="round"></path>
                    <path d="M766,2.27373675e-13 L766,550.376751 L766,2.27373675e-13 Z" id="Path-17-Copy-12" stroke="#11D38F" stroke-linecap="round" stroke-linejoin="round"></path>
                    <path d="M756,2.27373675e-13 L756,550.376751 L756,2.27373675e-13 Z" id="Path-17-Copy-13" stroke="#11D38F" stroke-linecap="round" stroke-linejoin="round"></path>
                    <path d="M746,2.27373675e-13 L746,550.376751 L746,2.27373675e-13 Z" id="Path-17-Copy-14" stroke="#11D38F" stroke-linecap="round" stroke-linejoin="round"></path>
                    <path d="M736,2.27373675e-13 L736,550.376751 L736,2.27373675e-13 Z" id="Path-17-Copy-15" stroke="#11D38F" stroke-linecap="round" stroke-linejoin="round"></path>
                    <path d="M726,2.27373675e-13 L726,550.376751 L726,2.27373675e-13 Z" id="Path-17-Copy-16" stroke="#11D38F" stroke-linecap="round" stroke-linejoin="round"></path>
                    <path d="M706,2.27373675e-13 L706,550.376751 L706,2.27373675e-13 Z" id="Path-17-Copy-18" stroke="#11D38F" stroke-linecap="round" stroke-linejoin="round"></path>
                    <path d="M695,2.27373675e-13 L695,550.376751 L695,2.27373675e-13 Z" id="Path-17-Copy-19" stroke="#11D38F" stroke-linecap="round" stroke-linejoin="round"></path>
                    <path d="M685,2.27373675e-13 L685,550.376751 L685,2.27373675e-13 Z" id="Path-17-Copy-20" stroke="#11D38F" stroke-linecap="round" stroke-linejoin="round"></path>
                    <path d="M675,2.27373675e-13 L675,550.376751 L675,2.27373675e-13 Z" id="Path-17-Copy-21" stroke="#11D38F" stroke-linecap="round" stroke-linejoin="round"></path>
                    <path d="M665,2.27373675e-13 L665,550.376751 L665,2.27373675e-13 Z" id="Path-17-Copy-22" stroke="#11D38F" stroke-linecap="round" stroke-linejoin="round"></path>
                    <path d="M716,2.27373675e-13 L716,550.376751 L716,2.27373675e-13 Z" id="Path-17-Copy-17" stroke="#11D38F" stroke-linecap="round" stroke-linejoin="round"></path>
                    <path d="M1097,2.27373675e-13 L1097,550.376751 L1097,2.27373675e-13 Z" id="Path-17" stroke="#FFFFFF" opacity="0.3"></path>
                    <path d="M1087,2.27373675e-13 L1087,550.376751 L1087,2.27373675e-13 Z" id="Path-17-Copy" stroke="#FFFFFF" opacity="0.3"></path>
                    <path d="M1077,2.27373675e-13 L1077,550.376751 L1077,2.27373675e-13 Z" id="Path-17-Copy-2" stroke="#FFFFFF" opacity="0.3"></path>
                    <path d="M1067,2.27373675e-13 L1067,550.376751 L1067,2.27373675e-13 Z" id="Path-17-Copy-3" stroke="#FFFFFF" opacity="0.3"></path>
                    <path d="M1057,2.27373675e-13 L1057,550.376751 L1057,2.27373675e-13 Z" id="Path-17-Copy-4" stroke="#FFFFFF" opacity="0.3"></path>
                    <path d="M1047,2.27373675e-13 L1047,550.376751 L1047,2.27373675e-13 Z" id="Path-17-Copy-5" stroke="#FFFFFF" opacity="0.3"></path>
                    <path d="M1157,2.27373675e-13 L1157,550.376751 L1157,2.27373675e-13 Z" id="Path-17-Copy-28" stroke="#FFFFFF" opacity="0.3"></path>
                    <path d="M1147,2.27373675e-13 L1147,550.376751 L1147,2.27373675e-13 Z" id="Path-17-Copy-27" stroke="#FFFFFF" opacity="0.3"></path>
                    <path d="M1137,2.27373675e-13 L1137,550.376751 L1137,2.27373675e-13 Z" id="Path-17-Copy-26" stroke="#FFFFFF" opacity="0.3"></path>
                    <path d="M1127,2.27373675e-13 L1127,550.376751 L1127,2.27373675e-13 Z" id="Path-17-Copy-25" stroke="#FFFFFF" opacity="0.3"></path>
                    <path d="M1117,2.27373675e-13 L1117,550.376751 L1117,2.27373675e-13 Z" id="Path-17-Copy-24" stroke="#FFFFFF" opacity="0.3"></path>
                    <path d="M1107,2.27373675e-13 L1107,550.376751 L1107,2.27373675e-13 Z" id="Path-17-Copy-23" stroke="#FFFFFF" opacity="0.3"></path>
                    <path d="M1037,2.27373675e-13 L1037,550.376751 L1037,2.27373675e-13 Z" id="Path-17-Copy-6" stroke="#FFFFFF" opacity="0.3"></path>
                    <path d="M1027,2.27373675e-13 L1027,550.376751 L1027,2.27373675e-13 Z" id="Path-17-Copy-7" stroke="#FFFFFF" opacity="0.3"></path>
                    <path d="M1217,2.27373675e-13 L1217,550.376751 L1217,2.27373675e-13 Z" id="Path-17-Copy-39" stroke="#FFFFFF" opacity="0.3"></path>
                    <path d="M1207,2.27373675e-13 L1207,550.376751 L1207,2.27373675e-13 Z" id="Path-17-Copy-38" stroke="#FFFFFF" opacity="0.3"></path>
                    <path d="M1197,2.27373675e-13 L1197,550.376751 L1197,2.27373675e-13 Z" id="Path-17-Copy-37" stroke="#FFFFFF" opacity="0.3"></path>
                    <path d="M1187,2.27373675e-13 L1187,550.376751 L1187,2.27373675e-13 Z" id="Path-17-Copy-36" stroke="#FFFFFF" opacity="0.3"></path>
                    <path d="M1177,2.27373675e-13 L1177,550.376751 L1177,2.27373675e-13 Z" id="Path-17-Copy-29" stroke="#FFFFFF" opacity="0.3"></path>
                    <path d="M1167,2.27373675e-13 L1167,550.376751 L1167,2.27373675e-13 Z" id="Path-17-Copy-11" stroke="#FFFFFF" opacity="0.3"></path>
                    <path d="M1017,2.27373675e-13 L1017,550.376751 L1017,2.27373675e-13 Z" id="Path-17-Copy-8" stroke="#FFFFFF" opacity="0.7"></path>
                    <path d="M1007,2.27373675e-13 L1007,550.376751 L1007,2.27373675e-13 Z" id="Path-17-Copy-9" stroke="#FFFFFF" opacity="0.7"></path>
                    <path d="M997,2.27373675e-13 L997,550.376751 L997,2.27373675e-13 Z" id="Path-17-Copy-10" stroke="#FFFFFF" opacity="0.7"></path>
                    <path d="M987,2.27373675e-13 L987,550.376751 L987,2.27373675e-13 Z" id="Path-17-Copy-12" stroke="#FFFFFF" opacity="0.7"></path>
                    <path d="M977,2.27373675e-13 L977,550.376751 L977,2.27373675e-13 Z" id="Path-17-Copy-13" stroke="#FFFFFF" opacity="0.7"></path>
                    <path d="M967,2.27373675e-13 L967,550.376751 L967,2.27373675e-13 Z" id="Path-17-Copy-14" stroke="#FFFFFF" opacity="0.7"></path>
                    <path d="M957,2.27373675e-13 L957,550.376751 L957,2.27373675e-13 Z" id="Path-17-Copy-15" stroke="#FFFFFF" opacity="0.7"></path>
                    <path d="M947,2.27373675e-13 L947,550.376751 L947,2.27373675e-13 Z" id="Path-17-Copy-16" stroke="#FFFFFF" opacity="0.7"></path>
                    <path d="M927,2.27373675e-13 L927,550.376751 L927,2.27373675e-13 Z" id="Path-17-Copy-18" stroke="#FFFFFF" opacity="0.7"></path>
                    <path d="M916,2.27373675e-13 L916,550.376751 L916,2.27373675e-13 Z" id="Path-17-Copy-19" stroke="#FFFFFF" opacity="0.7"></path>
                    <path d="M906,2.27373675e-13 L906,550.376751 L906,2.27373675e-13 Z" id="Path-17-Copy-20" stroke="#FFFFFF" opacity="0.7"></path>
                    <path d="M896,2.27373675e-13 L896,550.376751 L896,2.27373675e-13 Z" id="Path-17-Copy-21" stroke="#FFFFFF" opacity="0.7"></path>
                    <path d="M886,2.27373675e-13 L886,550.376751 L886,2.27373675e-13 Z" id="Path-17-Copy-22" stroke="#FFFFFF" opacity="0.7"></path>
                    <path d="M937,2.27373675e-13 L937,550.376751 L937,2.27373675e-13 Z" id="Path-17-Copy-17" stroke="#FFFFFF" opacity="0.7"></path>
                    <path d="M434,2.27373675e-13 L434,550.376751 L434,2.27373675e-13 Z" id="Path-17" stroke="#11D38F" opacity="0.5" stroke-linecap="round" stroke-linejoin="round"></path>
                    <path d="M424,2.27373675e-13 L424,550.376751 L424,2.27373675e-13 Z" id="Path-17-Copy" stroke="#11D38F" opacity="0.5" stroke-linecap="round" stroke-linejoin="round"></path>
                    <path d="M414,2.27373675e-13 L414,550.376751 L414,2.27373675e-13 Z" id="Path-17-Copy-2" stroke="#11D38F" opacity="0.3" stroke-linecap="round" stroke-linejoin="round"></path>
                    <path d="M404,2.27373675e-13 L404,550.376751 L404,2.27373675e-13 Z" id="Path-17-Copy-3" stroke="#11D38F" opacity="0.3" stroke-linecap="round" stroke-linejoin="round"></path>
                    <path d="M394,2.27373675e-13 L394,550.376751 L394,2.27373675e-13 Z" id="Path-17-Copy-4" stroke="#11D38F" opacity="0.3" stroke-linecap="round" stroke-linejoin="round"></path>
                    <path d="M384,2.27373675e-13 L384,550.376751 L384,2.27373675e-13 Z" id="Path-17-Copy-5" stroke="#11D38F" opacity="0.3" stroke-linecap="round" stroke-linejoin="round"></path>
                    <path d="M374,2.27373675e-13 L374,550.376751 L374,2.27373675e-13 Z" id="Path-17-Copy-6" stroke="#11D38F" opacity="0.3" stroke-linecap="round" stroke-linejoin="round"></path>
                    <path d="M364,2.27373675e-13 L364,550.376751 L364,2.27373675e-13 Z" id="Path-17-Copy-7" stroke="#11D38F" opacity="0.3" stroke-linecap="round" stroke-linejoin="round"></path>
                    <path d="M354,2.27373675e-13 L354,550.376751 L354,2.27373675e-13 Z" id="Path-17-Copy-8" stroke="#11D38F" opacity="0.3" stroke-linecap="round" stroke-linejoin="round"></path>
                    <path d="M344,2.27373675e-13 L344,550.376751 L344,2.27373675e-13 Z" id="Path-17-Copy-9" stroke="#11D38F" opacity="0.3" stroke-linecap="round" stroke-linejoin="round"></path>
                    <path d="M334,2.27373675e-13 L334,550.376751 L334,2.27373675e-13 Z" id="Path-17-Copy-10" stroke="#11D38F" opacity="0.3" stroke-linecap="round" stroke-linejoin="round"></path>
                    <path d="M324,2.27373675e-13 L324,550.376751 L324,2.27373675e-13 Z" id="Path-17-Copy-12" stroke="#11D38F" opacity="0.3" stroke-linecap="round" stroke-linejoin="round"></path>
                    <path d="M314,2.27373675e-13 L314,550.376751 L314,2.27373675e-13 Z" id="Path-17-Copy-13" stroke="#11D38F" opacity="0.3" stroke-linecap="round" stroke-linejoin="round"></path>
                    <path d="M304,2.27373675e-13 L304,550.376751 L304,2.27373675e-13 Z" id="Path-17-Copy-14" stroke="#11D38F" opacity="0.3" stroke-linecap="round" stroke-linejoin="round"></path>
                    <path d="M294,2.27373675e-13 L294,550.376751 L294,2.27373675e-13 Z" id="Path-17-Copy-15" stroke="#11D38F" opacity="0.3" stroke-linecap="round" stroke-linejoin="round"></path>
                    <path d="M284,2.27373675e-13 L284,550.376751 L284,2.27373675e-13 Z" id="Path-17-Copy-16" stroke="#11D38F" opacity="0.3" stroke-linecap="round" stroke-linejoin="round"></path>
                    <path d="M264,2.27373675e-13 L264,550.376751 L264,2.27373675e-13 Z" id="Path-17-Copy-18" stroke="#11D38F" opacity="0.3" stroke-linecap="round" stroke-linejoin="round"></path>
                    <path d="M253,2.27373675e-13 L253,550.376751 L253,2.27373675e-13 Z" id="Path-17-Copy-19" stroke="#11D38F" opacity="0.3" stroke-linecap="round" stroke-linejoin="round"></path>
                    <path d="M243,2.27373675e-13 L243,550.376751 L243,2.27373675e-13 Z" id="Path-17-Copy-20" stroke="#11D38F" opacity="0.3" stroke-linecap="round" stroke-linejoin="round"></path>
                    <path d="M233,2.27373675e-13 L233,550.376751 L233,2.27373675e-13 Z" id="Path-17-Copy-21" stroke="#11D38F" opacity="0.3" stroke-linecap="round" stroke-linejoin="round"></path>
                    <path d="M223,2.27373675e-13 L223,550.376751 L223,2.27373675e-13 Z" id="Path-17-Copy-22" stroke="#11D38F" opacity="0.3" stroke-linecap="round" stroke-linejoin="round"></path>
                    <path d="M274,2.27373675e-13 L274,550.376751 L274,2.27373675e-13 Z" id="Path-17-Copy-17" stroke="#11D38F" opacity="0.3" stroke-linecap="round" stroke-linejoin="round"></path>
                    <path d="M212,2.27373675e-13 L212,550.376751 L212,2.27373675e-13 Z" id="Path-17" stroke="#11D38F" opacity="0.3" stroke-linecap="round" stroke-linejoin="round"></path>
                    <path d="M202,2.27373675e-13 L202,550.376751 L202,2.27373675e-13 Z" id="Path-17-Copy" stroke="#11D38F" opacity="0.152380022" stroke-linecap="round" stroke-linejoin="round"></path>
                    <path d="M192,2.27373675e-13 L192,550.376751 L192,2.27373675e-13 Z" id="Path-17-Copy-2" stroke="#11D38F" opacity="0.152380022" stroke-linecap="round" stroke-linejoin="round"></path>
                    <path d="M182,2.27373675e-13 L182,550.376751 L182,2.27373675e-13 Z" id="Path-17-Copy-3" stroke="#11D38F" opacity="0.152380022" stroke-linecap="round" stroke-linejoin="round"></path>
                    <path d="M172,2.27373675e-13 L172,550.376751 L172,2.27373675e-13 Z" id="Path-17-Copy-4" stroke="#11D38F" opacity="0.152380022" stroke-linecap="round" stroke-linejoin="round"></path>
                    <path d="M162,2.27373675e-13 L162,550.376751 L162,2.27373675e-13 Z" id="Path-17-Copy-5" stroke="#11D38F" opacity="0.152380022" stroke-linecap="round" stroke-linejoin="round"></path>
                    <path d="M152,2.27373675e-13 L152,550.376751 L152,2.27373675e-13 Z" id="Path-17-Copy-6" stroke="#11D38F" opacity="0.152380022" stroke-linecap="round" stroke-linejoin="round"></path>
                    <path d="M142,2.27373675e-13 L142,550.376751 L142,2.27373675e-13 Z" id="Path-17-Copy-7" stroke="#11D38F" opacity="0.152380022" stroke-linecap="round" stroke-linejoin="round"></path>
                    <path d="M132,2.27373675e-13 L132,550.376751 L132,2.27373675e-13 Z" id="Path-17-Copy-8" stroke="#11D38F" opacity="0.152380022" stroke-linecap="round" stroke-linejoin="round"></path>
                    <path d="M122,2.27373675e-13 L122,550.376751 L122,2.27373675e-13 Z" id="Path-17-Copy-9" stroke="#11D38F" opacity="0.152380022" stroke-linecap="round" stroke-linejoin="round"></path>
                    <path d="M112,2.27373675e-13 L112,550.376751 L112,2.27373675e-13 Z" id="Path-17-Copy-10" stroke="#11D38F" opacity="0.152380022" stroke-linecap="round" stroke-linejoin="round"></path>
                    <path d="M102,2.27373675e-13 L102,550.376751 L102,2.27373675e-13 Z" id="Path-17-Copy-12" stroke="#11D38F" opacity="0.152380022" stroke-linecap="round" stroke-linejoin="round"></path>
                    <path d="M92,2.27373675e-13 L92,550.376751 L92,2.27373675e-13 Z" id="Path-17-Copy-13" stroke="#11D38F" opacity="0.152380022" stroke-linecap="round" stroke-linejoin="round"></path>
                    <path d="M82,2.27373675e-13 L82,550.376751 L82,2.27373675e-13 Z" id="Path-17-Copy-14" stroke="#11D38F" opacity="0.152380022" stroke-linecap="round" stroke-linejoin="round"></path>
                    <path d="M72,2.27373675e-13 L72,550.376751 L72,2.27373675e-13 Z" id="Path-17-Copy-15" stroke="#11D38F" opacity="0.152380022" stroke-linecap="round" stroke-linejoin="round"></path>
                    <path d="M62,2.27373675e-13 L62,550.376751 L62,2.27373675e-13 Z" id="Path-17-Copy-16" stroke="#11D38F" opacity="0.152380022" stroke-linecap="round" stroke-linejoin="round"></path>
                    <path d="M42,2.27373675e-13 L42,550.376751 L42,2.27373675e-13 Z" id="Path-17-Copy-18" stroke="#11D38F" opacity="0.152380022" stroke-linecap="round" stroke-linejoin="round"></path>
                    <path d="M31,2.27373675e-13 L31,550.376751 L31,2.27373675e-13 Z" id="Path-17-Copy-19" stroke="#11D38F" opacity="0.152380022" stroke-linecap="round" stroke-linejoin="round"></path>
                    <path d="M21,2.27373675e-13 L21,550.376751 L21,2.27373675e-13 Z" id="Path-17-Copy-20" stroke="#11D38F" opacity="0.152380022" stroke-linecap="round" stroke-linejoin="round"></path>
                    <path d="M11,2.27373675e-13 L11,550.376751 L11,2.27373675e-13 Z" id="Path-17-Copy-21" stroke="#11D38F" opacity="0.152380022" stroke-linecap="round" stroke-linejoin="round"></path>
                    <path d="M1,2.27373675e-13 L1,550.376751 L1,2.27373675e-13 Z" id="Path-17-Copy-22" stroke="#11D38F" opacity="0.152380022" stroke-linecap="round" stroke-linejoin="round"></path>
                    <path d="M52,2.27373675e-13 L52,550.376751 L52,2.27373675e-13 Z" id="Path-17-Copy-17" stroke="#11D38F" opacity="0.152380022" stroke-linecap="round" stroke-linejoin="round"></path>
                </g>
                <path d="M44.7035201,605.667819 C634.002478,605.667819 1313,343.300574 1313,79.6511735 C1004.1445,90.7643746 763.378325,72.2998054 174.079368,72.2998054 C286.604216,-24.4158899 -51.0093795,-5.30594627 54.2907298,22.6780704 C54.2907298,286.327471 -61.1965056,617.965567 44.7035201,605.667819 Z" id="Oval" fill="#050505"></path>
            </g>
        </g>
    </g>
</svg>