<?xml version="1.0" encoding="UTF-8"?>
<svg width="109px" height="106px" viewBox="0 0 109 106" version="1.1" xmlns="http://www.w3.org/2000/svg" xmlns:xlink="http://www.w3.org/1999/xlink">
    <!-- Generator: Sketch 52.5 (67469) - http://www.bohemiancoding.com/sketch -->
    <title>Fill 52</title>
    <desc>Created with Sketch.</desc>
    <g id="Page-1" stroke="none" stroke-width="1" fill="none" fill-rule="evenodd">
        <g id="8" transform="translate(-876.000000, -1703.000000)" fill-rule="nonzero" stroke="#FFFFFF">
            <g id="Group-2" transform="translate(105.000000, 1697.000000)">
                <path d="M825.387942,7 C795.906461,7 772,30.8218152 772,60.2098374 C772,83.7197265 787.29727,103.665375 808.509933,110.701336 C811.178093,111.193897 812.157655,109.547033 812.157655,108.141603 C812.157655,106.872751 812.108147,102.681134 812.085161,98.2348647 C797.232584,101.453696 794.098513,91.9566908 794.098513,91.9566908 C791.66994,85.8062831 788.170743,84.1708739 788.170743,84.1708739 C783.326858,80.8683341 788.535869,80.9361824 788.535869,80.9361824 C793.896942,81.31067 796.719816,86.4195616 796.719816,86.4195616 C801.481481,94.5543128 809.209242,92.2025308 812.255788,90.8429207 C812.734961,87.4046842 814.118549,85.0555457 815.645359,83.7276568 C803.787167,82.382145 791.321611,77.8195647 791.321611,57.4306991 C791.321611,51.6212954 793.407161,46.8745553 796.822369,43.1481837 C796.26805,41.8070776 794.440653,36.3959525 797.339557,29.0665699 C797.339557,29.0665699 801.822737,27.636468 812.025043,34.5208712 C816.283666,33.3418963 820.850833,32.7506465 825.387942,32.7303801 C829.925051,32.7506465 834.495755,33.3418963 838.762334,34.5208712 C848.952263,27.636468 853.429254,29.0665699 853.429254,29.0665699 C856.335231,36.3959525 854.50695,41.8070776 853.952631,43.1481837 C857.375796,46.8745553 859.4472,51.6212954 859.4472,57.4306991 C859.4472,77.8680278 846.957774,82.3680467 835.069524,83.6853618 C836.984445,85.3366317 838.690723,88.5748477 838.690723,93.5392312 C838.690723,100.65802 838.628838,106.38812 838.628838,108.141603 C838.628838,109.557607 839.589835,111.216807 842.29601,110.694286 C863.497179,103.650396 878.775,83.7117962 878.775,60.2098374 C878.775,30.8218152 854.872076,7 825.387942,7" id="Fill-52"></path>
            </g>
        </g>
    </g>
</svg>