<svg width="109" height="106" xmlns="http://www.w3.org/2000/svg"><path d="M54.388 1C24.906 1 1 24.822 1 54.21c0 23.51 15.297 43.455 36.51 50.49 2.668.493 3.648-1.154 3.648-2.56 0-1.268-.05-5.46-.073-9.906-14.852 3.22-17.985-6.277-17.985-6.277-2.43-6.15-5.928-7.786-5.928-7.786-4.844-3.303.365-3.235.365-3.235 5.36.375 8.184 5.484 8.184 5.484 4.761 8.134 12.49 5.783 15.536 4.423.479-3.438 1.863-5.787 3.39-7.115-11.859-1.346-24.324-5.908-24.324-26.297 0-5.81 2.085-10.556 5.5-14.283-.554-1.34-2.381-6.752.518-14.081 0 0 4.483-1.43 14.685 5.454 4.259-1.18 8.826-1.77 13.363-1.79 4.537.02 9.108.61 13.374 1.79 10.19-6.885 14.667-5.454 14.667-5.454 2.906 7.329 1.078 12.74.524 14.081 3.423 3.727 5.494 8.473 5.494 14.283 0 20.437-12.49 24.937-24.377 26.254 1.914 1.652 3.62 4.89 3.62 9.854 0 7.119-.061 12.85-.061 14.603 0 1.416.96 3.075 3.667 2.552 21.201-7.044 36.479-26.982 36.479-50.484C107.775 24.822 83.872 1 54.388 1" stroke="#FFF" fill="none"/></svg>