<?xml version="1.0" encoding="UTF-8"?>
<svg width="109px" height="86px" viewBox="0 0 109 86" version="1.1" xmlns="http://www.w3.org/2000/svg" xmlns:xlink="http://www.w3.org/1999/xlink">
    <!-- Generator: Sketch 52.5 (67469) - http://www.bohemiancoding.com/sketch -->
    <title>Shape</title>
    <desc>Created with Sketch.</desc>
    <g id="Page-1" stroke="none" stroke-width="1" fill="none" fill-rule="evenodd">
        <g id="8" transform="translate(-1069.000000, -1713.000000)" fill-rule="nonzero" stroke="#FFFFFF">
            <g id="Group-2" transform="translate(105.000000, 1697.000000)">
                <path d="M977.688142,34.1358024 C977.821081,32.8369539 977.320192,31.5531866 976.339402,30.6790123 L966.348739,18.7777778 L966.348739,17 L997.369748,17 L1021.34734,68.9999997 L1042.42764,17 L1072,17 L1072,18.7777778 L1063.45798,26.8765432 C1062.72157,27.431627 1062.35627,28.3439465 1062.50887,29.2469136 L1062.50887,88.7530867 C1062.35627,89.6560536 1062.72157,90.5683728 1063.45798,91.1234569 L1071.80019,99.2222224 L1071.80019,101 L1029.8394,101 L1029.8394,99.2222224 L1038.48133,90.925926 C1039.33053,90.0864195 1039.33053,89.8395064 1039.33053,88.5555559 L1039.33053,40.4567902 L1015.30299,100.802469 L1012.05602,100.802469 L984.082166,40.4567902 L984.082166,80.9012344 C983.84893,82.6016327 984.420026,84.3135615 985.630719,85.5432101 L996.870215,99.0246915 L996.870215,100.802469 L965,100.802469 L965,99.0246915 L976.239496,85.5432101 C977.441374,84.3115229 977.979168,82.5882379 977.688142,80.9012344 L977.688142,34.1358024 Z" id="Shape"></path>
            </g>
        </g>
    </g>
</svg>