<?xml version="1.0" encoding="UTF-8"?>
<svg width="121px" height="108px" viewBox="0 0 121 108" version="1.1" xmlns="http://www.w3.org/2000/svg" xmlns:xlink="http://www.w3.org/1999/xlink">
    <!-- Generator: Sketch 52.5 (67469) - http://www.bohemiancoding.com/sketch -->
    <title>Combined Shape</title>
    <desc>Created with Sketch.</desc>
    <g id="Page-1" stroke="none" stroke-width="1" fill="none" fill-rule="evenodd">
        <g id="8" transform="translate(-289.000000, -1696.000000)" fill-rule="nonzero" stroke="#FFFFFF">
            <g id="Group-2" transform="translate(105.000000, 1697.000000)">
                <path d="M270.311932,10.2976778 L256.165711,7.8262799 C254.451066,7.52672506 252.801336,8.62033807 252.407467,10.3176366 L246.736324,34.7562175 C260.499675,35.248464 272.835015,39.4756613 281.664536,46.0006305 C284.033676,43.6583259 287.289113,42.2123894 290.88189,42.2123894 C298.126822,42.2123894 304,48.0921189 304,55.3451327 C304,61.0000106 300.429882,65.8201124 295.423005,67.6696991 C295.518386,68.555831 295.566929,69.4509855 295.566929,70.3539823 C295.566929,90.0407343 272.49373,106 244.031496,106 C215.569262,106 192.496063,90.0407343 192.496063,70.3539823 C192.496063,69.325542 192.559031,68.3072742 192.682445,67.3009227 C188.150251,65.2324446 185,60.6570893 185,55.3451327 C185,48.0921189 190.873178,42.2123894 198.11811,42.2123894 C201.509259,42.2123894 204.599869,43.5005868 206.928316,45.6148436 C215.4266,39.51851 227.036135,35.5112288 239.988716,34.8160307 L246.018553,8.83173523 C247.200163,3.73983978 252.149351,0.459000734 257.293285,1.35766527 L272.011586,3.92900779 C273.711221,1.55030964 276.493663,0 279.637795,0 C284.812747,0 289.007874,4.19980677 289.007874,9.38053097 C289.007874,14.5612552 284.812747,18.7610619 279.637795,18.7610619 C274.771943,18.7610619 270.772361,15.0479793 270.311932,10.2976778 Z M224,72 C228.970563,72 233,67.9705627 233,63 C233,58.0294373 228.970563,54 224,54 C219.029437,54 215,58.0294373 215,63 C215,67.9705627 219.029437,72 224,72 Z M264,72 C268.970563,72 273,67.9705627 273,63 C273,58.0294373 268.970563,54 264,54 C259.029437,54 255,58.0294373 255,63 C255,67.9705627 259.029437,72 264,72 Z M221.665433,87.2104299 C226.4095,92.0490955 234.988059,95 244.378411,95 C253.96501,95 262.698582,91.9243944 267.3741,86.9149368 C268.250521,85.9759194 268.200428,84.5036074 267.262214,83.626436 C266.324,82.7492646 264.852948,82.7994007 263.976527,83.7384181 C260.274114,87.7052689 252.773544,90.3466619 244.378411,90.3466619 C236.146034,90.3466619 228.764963,87.8076764 224.983924,83.9512422 C224.084694,83.0340815 222.612855,83.0201699 221.696479,83.9201697 C220.780103,84.8201696 220.766204,86.2932693 221.665433,87.2104299 Z" id="Combined-Shape"></path>
            </g>
        </g>
    </g>
</svg>