<svg width="121" height="108" xmlns="http://www.w3.org/2000/svg"><path d="M86.312 11.298L72.166 8.826a3.28 3.28 0 0 0-3.759 2.492l-5.67 24.438c13.763.492 26.098 4.72 34.928 11.245a13.069 13.069 0 0 1 9.217-3.789c7.245 0 13.118 5.88 13.118 13.133 0 5.655-3.57 10.475-8.577 12.325.095.886.144 1.781.144 2.684C111.567 91.041 88.494 107 60.03 107 31.57 107 8.496 91.04 8.496 71.354c0-1.028.063-2.047.186-3.053A13.136 13.136 0 0 1 1 56.345c0-7.253 5.873-13.133 13.118-13.133 3.391 0 6.482 1.289 8.81 3.403 8.499-6.096 20.108-10.104 33.06-10.799l6.03-25.984C63.2 4.74 68.15 1.459 73.294 2.358l14.719 2.571A9.355 9.355 0 0 1 95.638 1c5.175 0 9.37 4.2 9.37 9.38 0 5.181-4.195 9.381-9.37 9.381-4.866 0-8.866-3.713-9.326-8.463zM40 73a9 9 0 1 0 0-18 9 9 0 0 0 0 18zm40 0a9 9 0 1 0 0-18 9 9 0 0 0 0 18zM37.665 88.21C42.41 93.05 50.988 96 60.378 96c9.587 0 18.32-3.076 22.996-8.085a2.328 2.328 0 0 0-.112-3.289 2.323 2.323 0 0 0-3.285.112c-3.703 3.967-11.203 6.609-19.599 6.609-8.232 0-15.613-2.54-19.394-6.396a2.323 2.323 0 0 0-3.288-.03c-.916.9-.93 2.372-.03 3.29z" stroke="#FFF" fill="none"/></svg>