<?xml version="1.0" encoding="UTF-8"?>
<svg width="107px" height="91px" viewBox="0 0 107 91" version="1.1" xmlns="http://www.w3.org/2000/svg" xmlns:xlink="http://www.w3.org/1999/xlink">
    <!-- Generator: Sketch 52.5 (67469) - http://www.bohemiancoding.com/sketch -->
    <title>Path 2</title>
    <desc>Created with Sketch.</desc>
    <g id="Page-1" stroke="none" stroke-width="1" fill="none" fill-rule="evenodd">
        <g id="8" transform="translate(-491.000000, -1710.000000)" fill-rule="nonzero" stroke="#FFFFFF">
            <g id="Group-2" transform="translate(105.000000, 1697.000000)">
                <path d="M389.859664,58.7273691 L408.080645,64.2172085 C410.797276,65.0357084 413.733718,64.6616812 416.158424,63.1883072 L464.017766,34.1065482 C464.961726,33.5329506 466.191949,33.8331882 466.765546,34.7771478 C467.256991,35.5859091 467.114308,36.6284166 466.423626,37.2753867 L426.95968,74.241717 C426.757843,74.4307796 426.643315,74.6949864 426.643315,74.9715413 L426.643315,98.3959831 C426.643315,98.9482679 427.09103,99.3959831 427.643315,99.3959831 C427.916395,99.3959831 428.177595,99.2843055 428.366266,99.086882 L441.840078,84.9879831 C442.198187,84.6132611 442.783258,84.5742743 443.187919,84.8981683 L463.369641,101.05177 C466.81905,103.812704 471.853528,103.254584 474.614462,99.805174 C475.396365,98.8282918 475.938221,97.681619 476.196488,96.4572944 L491.793605,22.5185318 C492.591562,18.7357856 490.171912,15.0223922 486.389166,14.2244354 C485.047243,13.9413616 483.651729,14.0587158 482.375928,14.5619239 L389.545933,51.176412 C387.490872,51.9869797 386.482011,54.3100307 387.292579,56.3650915 C387.741729,57.5038393 388.687582,58.37423 389.859664,58.7273691 Z" id="Path-2"></path>
            </g>
        </g>
    </g>
</svg>