<?xml version="1.0" encoding="UTF-8"?>
<svg width="123px" height="106px" viewBox="0 0 123 106" version="1.1" xmlns="http://www.w3.org/2000/svg" xmlns:xlink="http://www.w3.org/1999/xlink">
    <!-- Generator: Sketch 52.5 (67469) - http://www.bohemiancoding.com/sketch -->
    <title>Group 4</title>
    <desc>Created with Sketch.</desc>
    <g id="Page-1" stroke="none" stroke-width="1" fill="none" fill-rule="evenodd">
        <g id="8" transform="translate(-105.000000, -1712.000000)">
            <g id="Group-2" transform="translate(105.000000, 1697.000000)">
                <g id="Group-4" transform="translate(0.000000, 16.000000)">
                    <path d="M111,14.5502606 C107.100914,16.3323992 102.90853,17.5442535 98.5091146,18.0788928 C102.994792,15.2987565 106.445312,10.8968776 108.067059,5.65738777 C103.874676,8.22366737 99.2164703,10.0949118 94.2649762,11.1107342 C90.296875,6.74449118 84.6380208,4 78.3925803,4 C66.3847678,4 56.6370432,14.069082 56.6370432,26.4727668 C56.6370432,28.2370851 56.8268229,29.9479382 57.2063824,31.5875057 C39.1256532,30.6607936 23.0979807,21.7144555 12.3841146,8.11674133 C10.5035818,11.4315169 9.43391817,15.2987565 9.43391817,19.4154979 C9.43391817,27.2034424 13.2639985,34.0824998 19.1126324,38.1101308 C15.5413423,37.9853845 12.1943348,36.9873868 9.26139433,35.294354 C9.26139433,35.4012801 9.26139433,35.4903904 9.26139433,35.5794962 C9.26139433,46.4683643 16.7490223,55.5572689 26.7037783,57.6067294 C24.875,58.1235485 22.9599598,58.4086907 20.9759137,58.4086907 C19.5784494,58.4086907 18.1982411,58.2661196 16.8870432,57.9987977 C19.6474598,66.9273155 27.6871756,73.4143001 37.1933616,73.6103319 C29.7574881,79.6339627 20.3720714,83.2160602 10.1930327,83.2160602 C8.43326933,83.2160602 6.70800892,83.1091341 5,82.8952775 C14.6269553,89.2753314 26.0481771,93 38.3320312,93 C78.3408214,93 100.217123,58.7651184 100.217123,29.0746914 C100.217123,28.1123343 100.182616,27.1321569 100.148113,26.1698043 C104.392252,22.9975953 108.084311,19.0412499 111,14.5502606 Z" id="Shape-Copy" stroke="#11D38F" stroke-linecap="round" stroke-linejoin="round"></path>
                    <path d="M115,19.5502606 C111.100914,21.3323992 106.90853,22.5442535 102.509115,23.0788928 C106.994792,20.2987565 110.445312,15.8968776 112.067059,10.6573878 C107.874676,13.2236674 103.21647,15.0949118 98.2649762,16.1107342 C94.296875,11.7444912 88.6380208,9 82.3925803,9 C70.3847678,9 60.6370432,19.069082 60.6370432,31.4727668 C60.6370432,33.2370851 60.8268229,34.9479382 61.2063824,36.5875057 C43.1256532,35.6607936 27.0979807,26.7144555 16.3841146,13.1167413 C14.5035818,16.4315169 13.4339182,20.2987565 13.4339182,24.4154979 C13.4339182,32.2034424 17.2639985,39.0824998 23.1126324,43.1101308 C19.5413422,42.9853845 16.1943348,41.9873868 13.2613943,40.294354 C13.2613943,40.4012801 13.2613943,40.4903904 13.2613943,40.5794962 C13.2613943,51.4683643 20.7490223,60.5572689 30.7037783,62.6067294 C28.875,63.1235485 26.9599598,63.4086907 24.9759137,63.4086907 C23.5784494,63.4086907 22.1982411,63.2661196 20.8870432,62.9987977 C23.6474598,71.9273155 31.6871756,78.4143001 41.1933616,78.6103319 C33.7574881,84.6339627 24.3720714,88.2160602 14.1930327,88.2160602 C12.4332693,88.2160602 10.7080089,88.1091341 9,87.8952775 C18.6269553,94.2753314 30.0481771,98 42.3320312,98 C82.3408214,98 104.217123,63.7651184 104.217123,34.0746914 C104.217123,33.1123343 104.182616,32.1321569 104.148113,31.1698043 C108.392252,27.9975953 112.084311,24.0412499 115,19.5502606 Z" id="Shape-Copy-2" stroke="#11D38F" opacity="0.3" stroke-linecap="round" stroke-linejoin="round"></path>
                    <path d="M118,23.5502606 C114.100914,25.3323992 109.90853,26.5442535 105.509115,27.0788928 C109.994792,24.2987565 113.445312,19.8968776 115.067059,14.6573878 C110.874676,17.2236674 106.21647,19.0949118 101.264976,20.1107342 C97.296875,15.7444912 91.6380208,13 85.3925803,13 C73.3847678,13 63.6370432,23.069082 63.6370432,35.4727668 C63.6370432,37.2370851 63.8268229,38.9479382 64.2063824,40.5875057 C46.1256532,39.6607936 30.0979807,30.7144555 19.3841146,17.1167413 C17.5035818,20.4315169 16.4339182,24.2987565 16.4339182,28.4154979 C16.4339182,36.2034424 20.2639985,43.0824998 26.1126324,47.1101308 C22.5413422,46.9853845 19.1943348,45.9873868 16.2613943,44.294354 C16.2613943,44.4012801 16.2613943,44.4903904 16.2613943,44.5794962 C16.2613943,55.4683643 23.7490223,64.5572689 33.7037782,66.6067294 C31.875,67.1235485 29.9599598,67.4086907 27.9759137,67.4086907 C26.5784494,67.4086907 25.1982411,67.2661196 23.8870432,66.9987977 C26.6474598,75.9273155 34.6871756,82.4143001 44.1933616,82.6103319 C36.7574881,88.6339627 27.3720714,92.2160602 17.1930328,92.2160602 C15.4332693,92.2160602 13.7080089,92.1091341 12,91.8952775 C21.6269553,98.2753314 33.0481771,102 45.3320312,102 C85.3408214,102 107.217123,67.7651184 107.217123,38.0746914 C107.217123,37.1123343 107.182616,36.1321569 107.148113,35.1698043 C111.392252,31.9975953 115.084311,28.0412499 118,23.5502606 Z" id="Shape-Copy-3" stroke="#11D38F" opacity="0.152380022" stroke-linecap="round" stroke-linejoin="round"></path>
                    <path d="M122,25.5502606 C118.100914,27.3323992 113.90853,28.5442535 109.509115,29.0788928 C113.994792,26.2987565 117.445312,21.8968776 119.067059,16.6573878 C114.874676,19.2236674 110.21647,21.0949118 105.264976,22.1107342 C101.296875,17.7444912 95.6380208,15 89.3925803,15 C77.3847678,15 67.6370432,25.069082 67.6370432,37.4727668 C67.6370432,39.2370851 67.8268229,40.9479382 68.2063824,42.5875057 C50.1256532,41.6607936 34.0979807,32.7144555 23.3841146,19.1167413 C21.5035818,22.4315169 20.4339182,26.2987565 20.4339182,30.4154979 C20.4339182,38.2034424 24.2639985,45.0824998 30.1126324,49.1101308 C26.5413422,48.9853845 23.1943348,47.9873868 20.2613943,46.294354 C20.2613943,46.4012801 20.2613943,46.4903904 20.2613943,46.5794962 C20.2613943,57.4683643 27.7490223,66.5572689 37.7037782,68.6067294 C35.875,69.1235485 33.9599598,69.4086907 31.9759137,69.4086907 C30.5784494,69.4086907 29.1982411,69.2661196 27.8870432,68.9987977 C30.6474598,77.9273155 38.6871756,84.4143001 48.1933616,84.6103319 C40.7574881,90.6339627 31.3720714,94.2160602 21.1930328,94.2160602 C19.4332693,94.2160602 17.7080089,94.1091341 16,93.8952775 C25.6269553,100.275331 37.0481771,104 49.3320312,104 C89.3408214,104 111.217123,69.7651184 111.217123,40.0746914 C111.217123,39.1123343 111.182616,38.1321569 111.148113,37.1698043 C115.392252,33.9975953 119.084311,30.0412499 122,25.5502606 Z" id="Shape-Copy-4" stroke="#11D38F" opacity="0.152380022" stroke-linecap="round" stroke-linejoin="round"></path>
                    <path d="M106,10.5502606 C102.100914,12.3323992 97.9085297,13.5442535 93.5091146,14.0788928 C97.9947917,11.2987565 101.445312,6.89687757 103.067059,1.65738777 C98.8746756,4.22366737 94.2164703,6.09491177 89.2649762,7.1107342 C85.296875,2.74449118 79.6380208,0 73.3925803,0 C61.3847678,0 51.6370432,10.069082 51.6370432,22.4727668 C51.6370432,24.2370851 51.8268229,25.9479382 52.2063824,27.5875057 C34.1256532,26.6607936 18.0979807,17.7144555 7.38411458,4.11674133 C5.50358183,7.43151687 4.43391817,11.2987565 4.43391817,15.4154979 C4.43391817,23.2034424 8.2639985,30.0824998 14.1126324,34.1101308 C10.5413423,33.9853845 7.19433483,32.9873868 4.26139433,31.294354 C4.26139433,31.4012801 4.26139433,31.4903904 4.26139433,31.5794962 C4.26139433,42.4683643 11.7490223,51.5572689 21.7037783,53.6067294 C19.875,54.1235485 17.9599598,54.4086907 15.9759137,54.4086907 C14.5784494,54.4086907 13.1982411,54.2661196 11.8870432,53.9987977 C14.6474598,62.9273155 22.6871756,69.4143001 32.1933616,69.6103319 C24.7574881,75.6339627 15.3720714,79.2160602 5.19303275,79.2160602 C3.43326933,79.2160602 1.70800892,79.1091341 0,78.8952775 C9.62695533,85.2753314 21.0481771,89 33.3320312,89 C73.3408214,89 95.2171235,54.7651184 95.2171235,25.0746914 C95.2171235,24.1123343 95.1826161,23.1321569 95.1481131,22.1698043 C99.3922515,18.9975953 103.084311,15.0412499 106,10.5502606 Z" id="Shape" stroke="#FFFFFF" fill-rule="nonzero"></path>
                </g>
            </g>
        </g>
    </g>
</svg>