<svg width="123" height="106" xmlns="http://www.w3.org/2000/svg"><g fill="none" fill-rule="evenodd"><path d="M111 15.55a42.265 42.265 0 0 1-12.49 3.529c4.485-2.78 7.935-7.182 9.557-12.422a42.98 42.98 0 0 1-13.802 5.454C90.297 7.744 84.638 5 78.393 5 66.385 5 56.637 15.07 56.637 27.473c0 1.764.19 3.475.57 5.115-18.081-.927-34.109-9.874-44.823-23.471-1.88 3.315-2.95 7.182-2.95 11.298 0 7.788 3.83 14.667 9.679 18.695a21.1 21.1 0 0 1-9.852-2.816v.285c0 10.89 7.488 19.978 17.443 22.028a21.004 21.004 0 0 1-5.728.802c-1.398 0-2.778-.143-4.089-.41 2.76 8.928 10.8 15.415 20.306 15.611-7.436 6.024-16.82 9.606-27 9.606-1.76 0-3.485-.107-5.193-.32C14.627 90.275 26.048 94 38.332 94c40.009 0 61.885-34.235 61.885-63.925 0-.963-.034-1.943-.069-2.905A45.384 45.384 0 0 0 111 15.55z" stroke="#11D38F" stroke-linecap="round" stroke-linejoin="round"/><path d="M115 20.55a42.265 42.265 0 0 1-12.49 3.529c4.485-2.78 7.935-7.182 9.557-12.422a42.98 42.98 0 0 1-13.802 5.454C94.297 12.744 88.638 10 82.393 10c-12.008 0-21.756 10.07-21.756 22.473 0 1.764.19 3.475.57 5.115-18.081-.927-34.109-9.874-44.823-23.471-1.88 3.315-2.95 7.182-2.95 11.298 0 7.788 3.83 14.667 9.679 18.695a21.1 21.1 0 0 1-9.852-2.816v.285c0 10.89 7.488 19.978 17.443 22.028a21.004 21.004 0 0 1-5.728.802c-1.398 0-2.778-.143-4.089-.41 2.76 8.928 10.8 15.415 20.306 15.611-7.436 6.024-16.82 9.606-27 9.606-1.76 0-3.485-.107-5.193-.32C18.627 95.275 30.048 99 42.332 99c40.009 0 61.885-34.235 61.885-63.925 0-.963-.034-1.943-.069-2.905A45.384 45.384 0 0 0 115 20.55z" stroke="#11D38F" opacity=".3" stroke-linecap="round" stroke-linejoin="round"/><path d="M118 24.55a42.265 42.265 0 0 1-12.49 3.529c4.485-2.78 7.935-7.182 9.557-12.422a42.98 42.98 0 0 1-13.802 5.454C97.297 16.744 91.638 14 85.393 14c-12.008 0-21.756 10.07-21.756 22.473 0 1.764.19 3.475.57 5.115-18.081-.927-34.109-9.874-44.823-23.471-1.88 3.315-2.95 7.182-2.95 11.298 0 7.788 3.83 14.667 9.679 18.695a21.1 21.1 0 0 1-9.852-2.816v.285c0 10.89 7.488 19.978 17.443 22.028a21.004 21.004 0 0 1-5.728.802c-1.398 0-2.778-.143-4.089-.41 2.76 8.928 10.8 15.415 20.306 15.611-7.436 6.024-16.82 9.606-27 9.606-1.76 0-3.485-.107-5.193-.32C21.627 99.275 33.048 103 45.332 103c40.009 0 61.885-34.235 61.885-63.925 0-.963-.034-1.943-.069-2.905A45.384 45.384 0 0 0 118 24.55z" stroke="#11D38F" opacity=".152" stroke-linecap="round" stroke-linejoin="round"/><path d="M122 26.55a42.265 42.265 0 0 1-12.49 3.529c4.485-2.78 7.935-7.182 9.557-12.422a42.98 42.98 0 0 1-13.802 5.454C101.297 18.744 95.638 16 89.393 16c-12.008 0-21.756 10.07-21.756 22.473 0 1.764.19 3.475.57 5.115-18.081-.927-34.109-9.874-44.823-23.471-1.88 3.315-2.95 7.182-2.95 11.298 0 7.788 3.83 14.667 9.679 18.695a21.1 21.1 0 0 1-9.852-2.816v.285c0 10.89 7.488 19.978 17.443 22.028a21.004 21.004 0 0 1-5.728.802c-1.398 0-2.778-.143-4.089-.41 2.76 8.928 10.8 15.415 20.306 15.611-7.436 6.024-16.82 9.606-27 9.606-1.76 0-3.485-.107-5.193-.32C25.627 101.275 37.048 105 49.332 105c40.009 0 61.885-34.235 61.885-63.925 0-.963-.034-1.943-.069-2.905A45.384 45.384 0 0 0 122 26.55z" stroke="#11D38F" opacity=".152" stroke-linecap="round" stroke-linejoin="round"/><path d="M106 11.55a42.265 42.265 0 0 1-12.49 3.529c4.485-2.78 7.935-7.182 9.557-12.422a42.98 42.98 0 0 1-13.802 5.454C85.297 3.744 79.638 1 73.393 1 61.385 1 51.637 11.07 51.637 23.473c0 1.764.19 3.475.57 5.115-18.081-.927-34.109-9.874-44.823-23.471-1.88 3.315-2.95 7.182-2.95 11.298 0 7.788 3.83 14.667 9.679 18.695a21.1 21.1 0 0 1-9.852-2.816v.285c0 10.89 7.488 19.978 17.443 22.028a21.004 21.004 0 0 1-5.728.802c-1.398 0-2.778-.143-4.089-.41 2.76 8.928 10.8 15.415 20.306 15.611-7.436 6.024-16.82 9.606-27 9.606-1.76 0-3.485-.107-5.193-.32C9.627 86.275 21.048 90 33.332 90c40.009 0 61.885-34.235 61.885-63.925 0-.963-.034-1.943-.069-2.905A45.384 45.384 0 0 0 106 11.55z" stroke="#FFF"/></g></svg>