<?xml version="1.0" encoding="UTF-8"?>
<svg width="109px" height="77px" viewBox="0 0 109 77" version="1.1" xmlns="http://www.w3.org/2000/svg" xmlns:xlink="http://www.w3.org/1999/xlink">
    <!-- Generator: Sketch 52.5 (67469) - http://www.bohemiancoding.com/sketch -->
    <title>Fill 1</title>
    <desc>Created with Sketch.</desc>
    <g id="Page-1" stroke="none" stroke-width="1" fill="none" fill-rule="evenodd">
        <g id="8" transform="translate(-682.000000, -1717.000000)" fill-rule="nonzero" stroke="#FFFFFF">
            <g id="Group-2" transform="translate(105.000000, 1697.000000)">
                <path d="M621,75 L621,43 L649,59.000878 L621,75 Z M682.763732,32.7105093 C681.5333,28.1014476 677.908063,24.4704665 673.304293,23.2383847 C664.959905,21 631.49956,21 631.49956,21 C631.49956,21 598.040095,21 589.695707,23.2383847 C585.091937,24.4704665 581.4667,28.1014476 580.236268,32.7105093 C578,41.0669693 578,58.499559 578,58.499559 C578,58.499559 578,75.9330307 580.236268,84.2886088 C581.4667,88.8976705 585.091937,92.5295335 589.695707,93.7607333 C598.040095,96 631.49956,96 631.49956,96 C631.49956,96 664.959905,96 673.304293,93.7607333 C677.908063,92.5295335 681.5333,88.8976705 682.763732,84.2886088 C685,75.9330307 685,58.499559 685,58.499559 C685,58.499559 685,41.0669693 682.763732,32.7105093 Z" id="Fill-1"></path>
            </g>
        </g>
    </g>
</svg>