<?xml version="1.0" encoding="UTF-8"?>
<svg width="892px" height="550px" viewBox="0 0 892 550" version="1.1" xmlns="http://www.w3.org/2000/svg" xmlns:xlink="http://www.w3.org/1999/xlink">
    <!-- Generator: Sketch 52.5 (67469) - http://www.bohemiancoding.com/sketch -->
    <title>Group 8</title>
    <desc>Created with Sketch.</desc>
    <g id="Page-1" stroke="none" stroke-width="1" fill="none" fill-rule="evenodd">
        <g id="7_1" transform="translate(-297.000000, -124.000000)" stroke-width="2">
            <g id="Group" transform="translate(60.000000, 95.000000)">
                <g id="Group-3">
                    <g id="Group-8" transform="translate(242.000000, 34.000000)">
                        <g id="Group-7" opacity="0.365257626" transform="translate(596.000000, 0.000000)" stroke="#0BD291">
                            <g id="Group-5">
                                <g id="Group-4">
                                    <path d="M23.3044233,2.8037082 L-2.001202,59.9320209 C-4.23798665,64.9816386 -1.95773494,70.8884348 3.09188276,73.1252194 C5.50824246,74.195573 8.25005699,74.265877 10.7180961,73.3207664 L33.4338371,64.622003 L56.455716,72.5154268 C61.6800168,74.3066628 67.367233,71.523614 69.158469,66.2993133 C70.014592,63.8023539 69.8487317,61.0681743 68.6970571,58.6930115 L41.4455863,2.49078302 C39.0359778,-2.47868693 33.0540528,-4.55386467 28.0845829,-2.14425621 C25.956136,-1.1122098 24.2624485,0.640933679 23.3044233,2.8037082 Z" id="Path-15" transform="translate(33.745679, 35.910064) rotate(-359.000000) translate(-33.745679, -35.910064) "></path>
                                    <path d="M170.304423,2.8037082 L144.998798,59.9320209 C142.762013,64.9816386 145.042265,70.8884348 150.091883,73.1252194 C152.508242,74.195573 155.250057,74.265877 157.718096,73.3207664 L180.433837,64.622003 L203.455716,72.5154268 C208.680017,74.3066628 214.367233,71.523614 216.158469,66.2993133 C217.014592,63.8023539 216.848732,61.0681743 215.697057,58.6930115 L188.445586,2.49078302 C186.035978,-2.47868693 180.054053,-4.55386467 175.084583,-2.14425621 C172.956136,-1.1122098 171.262448,0.640933679 170.304423,2.8037082 Z" id="Path-15-Copy-2" transform="translate(180.745679, 35.910064) rotate(-359.000000) translate(-180.745679, -35.910064) "></path>
                                    <path d="M96.3044233,2.8037082 L70.998798,59.9320209 C68.7620133,64.9816386 71.0422651,70.8884348 76.0918828,73.1252194 C78.5082425,74.195573 81.250057,74.265877 83.7180961,73.3207664 L106.433837,64.622003 L129.455716,72.5154268 C134.680017,74.3066628 140.367233,71.523614 142.158469,66.2993133 C143.014592,63.8023539 142.848732,61.0681743 141.697057,58.6930115 L114.445586,2.49078302 C112.035978,-2.47868693 106.054053,-4.55386467 101.084583,-2.14425621 C98.956136,-1.1122098 97.2624485,0.640933679 96.3044233,2.8037082 Z" id="Path-15-Copy" transform="translate(106.745679, 35.910064) scale(1, -1) rotate(-359.000000) translate(-106.745679, -35.910064) "></path>
                                    <path d="M243.304423,3.8037082 L217.998798,60.9320209 C215.762013,65.9816386 218.042265,71.8884348 223.091883,74.1252194 C225.508242,75.195573 228.250057,75.265877 230.718096,74.3207664 L253.433837,65.622003 L276.455716,73.5154268 C281.680017,75.3066628 287.367233,72.523614 289.158469,67.2993133 C290.014592,64.8023539 289.848732,62.0681743 288.697057,59.6930115 L261.445586,3.49078302 C259.035978,-1.47868693 253.054053,-3.55386467 248.084583,-1.14425621 C245.956136,-0.112209802 244.262448,1.64093368 243.304423,3.8037082 Z" id="Path-15-Copy-3" transform="translate(253.745679, 36.910064) scale(1, -1) rotate(-359.000000) translate(-253.745679, -36.910064) "></path>
                                </g>
                            </g>
                            <g id="Group-5-Copy" transform="translate(0.000000, 93.000000)">
                                <g id="Group-4">
                                    <path d="M23.3044233,2.8037082 L-2.001202,59.9320209 C-4.23798665,64.9816386 -1.95773494,70.8884348 3.09188276,73.1252194 C5.50824246,74.195573 8.25005699,74.265877 10.7180961,73.3207664 L33.4338371,64.622003 L56.455716,72.5154268 C61.6800168,74.3066628 67.367233,71.523614 69.158469,66.2993133 C70.014592,63.8023539 69.8487317,61.0681743 68.6970571,58.6930115 L41.4455863,2.49078302 C39.0359778,-2.47868693 33.0540528,-4.55386467 28.0845829,-2.14425621 C25.956136,-1.1122098 24.2624485,0.640933679 23.3044233,2.8037082 Z" id="Path-15" transform="translate(33.745679, 35.910064) rotate(-359.000000) translate(-33.745679, -35.910064) "></path>
                                    <path d="M170.304423,2.8037082 L144.998798,59.9320209 C142.762013,64.9816386 145.042265,70.8884348 150.091883,73.1252194 C152.508242,74.195573 155.250057,74.265877 157.718096,73.3207664 L180.433837,64.622003 L203.455716,72.5154268 C208.680017,74.3066628 214.367233,71.523614 216.158469,66.2993133 C217.014592,63.8023539 216.848732,61.0681743 215.697057,58.6930115 L188.445586,2.49078302 C186.035978,-2.47868693 180.054053,-4.55386467 175.084583,-2.14425621 C172.956136,-1.1122098 171.262448,0.640933679 170.304423,2.8037082 Z" id="Path-15-Copy-2" transform="translate(180.745679, 35.910064) rotate(-359.000000) translate(-180.745679, -35.910064) "></path>
                                    <path d="M96.3044233,2.8037082 L70.998798,59.9320209 C68.7620133,64.9816386 71.0422651,70.8884348 76.0918828,73.1252194 C78.5082425,74.195573 81.250057,74.265877 83.7180961,73.3207664 L106.433837,64.622003 L129.455716,72.5154268 C134.680017,74.3066628 140.367233,71.523614 142.158469,66.2993133 C143.014592,63.8023539 142.848732,61.0681743 141.697057,58.6930115 L114.445586,2.49078302 C112.035978,-2.47868693 106.054053,-4.55386467 101.084583,-2.14425621 C98.956136,-1.1122098 97.2624485,0.640933679 96.3044233,2.8037082 Z" id="Path-15-Copy" transform="translate(106.745679, 35.910064) scale(1, -1) rotate(-359.000000) translate(-106.745679, -35.910064) "></path>
                                    <path d="M243.304423,3.8037082 L217.998798,60.9320209 C215.762013,65.9816386 218.042265,71.8884348 223.091883,74.1252194 C225.508242,75.195573 228.250057,75.265877 230.718096,74.3207664 L253.433837,65.622003 L276.455716,73.5154268 C281.680017,75.3066628 287.367233,72.523614 289.158469,67.2993133 C290.014592,64.8023539 289.848732,62.0681743 288.697057,59.6930115 L261.445586,3.49078302 C259.035978,-1.47868693 253.054053,-3.55386467 248.084583,-1.14425621 C245.956136,-0.112209802 244.262448,1.64093368 243.304423,3.8037082 Z" id="Path-15-Copy-3" transform="translate(253.745679, 36.910064) scale(1, -1) rotate(-359.000000) translate(-253.745679, -36.910064) "></path>
                                </g>
                            </g>
                        </g>
                        <g id="Group-7-Copy" opacity="0.539481027" transform="translate(596.000000, 186.000000)">
                            <g id="Group-5" stroke="#0BD291">
                                <g id="Group-4">
                                    <path d="M23.3044233,2.8037082 L-2.001202,59.9320209 C-4.23798665,64.9816386 -1.95773494,70.8884348 3.09188276,73.1252194 C5.50824246,74.195573 8.25005699,74.265877 10.7180961,73.3207664 L33.4338371,64.622003 L56.455716,72.5154268 C61.6800168,74.3066628 67.367233,71.523614 69.158469,66.2993133 C70.014592,63.8023539 69.8487317,61.0681743 68.6970571,58.6930115 L41.4455863,2.49078302 C39.0359778,-2.47868693 33.0540528,-4.55386467 28.0845829,-2.14425621 C25.956136,-1.1122098 24.2624485,0.640933679 23.3044233,2.8037082 Z" id="Path-15" transform="translate(33.745679, 35.910064) rotate(-359.000000) translate(-33.745679, -35.910064) "></path>
                                    <path d="M170.304423,2.8037082 L144.998798,59.9320209 C142.762013,64.9816386 145.042265,70.8884348 150.091883,73.1252194 C152.508242,74.195573 155.250057,74.265877 157.718096,73.3207664 L180.433837,64.622003 L203.455716,72.5154268 C208.680017,74.3066628 214.367233,71.523614 216.158469,66.2993133 C217.014592,63.8023539 216.848732,61.0681743 215.697057,58.6930115 L188.445586,2.49078302 C186.035978,-2.47868693 180.054053,-4.55386467 175.084583,-2.14425621 C172.956136,-1.1122098 171.262448,0.640933679 170.304423,2.8037082 Z" id="Path-15-Copy-2" transform="translate(180.745679, 35.910064) rotate(-359.000000) translate(-180.745679, -35.910064) "></path>
                                    <path d="M96.3044233,2.8037082 L70.998798,59.9320209 C68.7620133,64.9816386 71.0422651,70.8884348 76.0918828,73.1252194 C78.5082425,74.195573 81.250057,74.265877 83.7180961,73.3207664 L106.433837,64.622003 L129.455716,72.5154268 C134.680017,74.3066628 140.367233,71.523614 142.158469,66.2993133 C143.014592,63.8023539 142.848732,61.0681743 141.697057,58.6930115 L114.445586,2.49078302 C112.035978,-2.47868693 106.054053,-4.55386467 101.084583,-2.14425621 C98.956136,-1.1122098 97.2624485,0.640933679 96.3044233,2.8037082 Z" id="Path-15-Copy" transform="translate(106.745679, 35.910064) scale(1, -1) rotate(-359.000000) translate(-106.745679, -35.910064) "></path>
                                    <path d="M243.304423,3.8037082 L217.998798,60.9320209 C215.762013,65.9816386 218.042265,71.8884348 223.091883,74.1252194 C225.508242,75.195573 228.250057,75.265877 230.718096,74.3207664 L253.433837,65.622003 L276.455716,73.5154268 C281.680017,75.3066628 287.367233,72.523614 289.158469,67.2993133 C290.014592,64.8023539 289.848732,62.0681743 288.697057,59.6930115 L261.445586,3.49078302 C259.035978,-1.47868693 253.054053,-3.55386467 248.084583,-1.14425621 C245.956136,-0.112209802 244.262448,1.64093368 243.304423,3.8037082 Z" id="Path-15-Copy-3" transform="translate(253.745679, 36.910064) scale(1, -1) rotate(-359.000000) translate(-253.745679, -36.910064) "></path>
                                </g>
                            </g>
                            <g id="Group-5-Copy" transform="translate(0.000000, 93.000000)">
                                <g id="Group-4">
                                    <path d="M23.3044233,2.8037082 L-2.001202,59.9320209 C-4.23798665,64.9816386 -1.95773494,70.8884348 3.09188276,73.1252194 C5.50824246,74.195573 8.25005699,74.265877 10.7180961,73.3207664 L33.4338371,64.622003 L56.455716,72.5154268 C61.6800168,74.3066628 67.367233,71.523614 69.158469,66.2993133 C70.014592,63.8023539 69.8487317,61.0681743 68.6970571,58.6930115 L41.4455863,2.49078302 C39.0359778,-2.47868693 33.0540528,-4.55386467 28.0845829,-2.14425621 C25.956136,-1.1122098 24.2624485,0.640933679 23.3044233,2.8037082 Z" id="Path-15" stroke="#20E1A2" transform="translate(33.745679, 35.910064) rotate(-359.000000) translate(-33.745679, -35.910064) "></path>
                                    <path d="M170.304423,2.8037082 L144.998798,59.9320209 C142.762013,64.9816386 145.042265,70.8884348 150.091883,73.1252194 C152.508242,74.195573 155.250057,74.265877 157.718096,73.3207664 L180.433837,64.622003 L203.455716,72.5154268 C208.680017,74.3066628 214.367233,71.523614 216.158469,66.2993133 C217.014592,63.8023539 216.848732,61.0681743 215.697057,58.6930115 L188.445586,2.49078302 C186.035978,-2.47868693 180.054053,-4.55386467 175.084583,-2.14425621 C172.956136,-1.1122098 171.262448,0.640933679 170.304423,2.8037082 Z" id="Path-15-Copy-2" stroke="#0BD291" transform="translate(180.745679, 35.910064) rotate(-359.000000) translate(-180.745679, -35.910064) "></path>
                                    <path d="M96.3044233,2.8037082 L70.998798,59.9320209 C68.7620133,64.9816386 71.0422651,70.8884348 76.0918828,73.1252194 C78.5082425,74.195573 81.250057,74.265877 83.7180961,73.3207664 L106.433837,64.622003 L129.455716,72.5154268 C134.680017,74.3066628 140.367233,71.523614 142.158469,66.2993133 C143.014592,63.8023539 142.848732,61.0681743 141.697057,58.6930115 L114.445586,2.49078302 C112.035978,-2.47868693 106.054053,-4.55386467 101.084583,-2.14425621 C98.956136,-1.1122098 97.2624485,0.640933679 96.3044233,2.8037082 Z" id="Path-15-Copy" stroke="#0BD291" transform="translate(106.745679, 35.910064) scale(1, -1) rotate(-359.000000) translate(-106.745679, -35.910064) "></path>
                                    <path d="M243.304423,3.8037082 L217.998798,60.9320209 C215.762013,65.9816386 218.042265,71.8884348 223.091883,74.1252194 C225.508242,75.195573 228.250057,75.265877 230.718096,74.3207664 L253.433837,65.622003 L276.455716,73.5154268 C281.680017,75.3066628 287.367233,72.523614 289.158469,67.2993133 C290.014592,64.8023539 289.848732,62.0681743 288.697057,59.6930115 L261.445586,3.49078302 C259.035978,-1.47868693 253.054053,-3.55386467 248.084583,-1.14425621 C245.956136,-0.112209802 244.262448,1.64093368 243.304423,3.8037082 Z" id="Path-15-Copy-3" stroke="#0BD291" transform="translate(253.745679, 36.910064) scale(1, -1) rotate(-359.000000) translate(-253.745679, -36.910064) "></path>
                                </g>
                            </g>
                        </g>
                        <g id="Group-7-Copy-3" opacity="0.642275856" transform="translate(298.000000, 186.000000)" stroke="#0BD291">
                            <g id="Group-5">
                                <g id="Group-4">
                                    <path d="M23.3044233,2.8037082 L-2.001202,59.9320209 C-4.23798665,64.9816386 -1.95773494,70.8884348 3.09188276,73.1252194 C5.50824246,74.195573 8.25005699,74.265877 10.7180961,73.3207664 L33.4338371,64.622003 L56.455716,72.5154268 C61.6800168,74.3066628 67.367233,71.523614 69.158469,66.2993133 C70.014592,63.8023539 69.8487317,61.0681743 68.6970571,58.6930115 L41.4455863,2.49078302 C39.0359778,-2.47868693 33.0540528,-4.55386467 28.0845829,-2.14425621 C25.956136,-1.1122098 24.2624485,0.640933679 23.3044233,2.8037082 Z" id="Path-15" transform="translate(33.745679, 35.910064) rotate(-359.000000) translate(-33.745679, -35.910064) "></path>
                                    <path d="M170.304423,2.8037082 L144.998798,59.9320209 C142.762013,64.9816386 145.042265,70.8884348 150.091883,73.1252194 C152.508242,74.195573 155.250057,74.265877 157.718096,73.3207664 L180.433837,64.622003 L203.455716,72.5154268 C208.680017,74.3066628 214.367233,71.523614 216.158469,66.2993133 C217.014592,63.8023539 216.848732,61.0681743 215.697057,58.6930115 L188.445586,2.49078302 C186.035978,-2.47868693 180.054053,-4.55386467 175.084583,-2.14425621 C172.956136,-1.1122098 171.262448,0.640933679 170.304423,2.8037082 Z" id="Path-15-Copy-2" transform="translate(180.745679, 35.910064) rotate(-359.000000) translate(-180.745679, -35.910064) "></path>
                                    <path d="M96.3044233,2.8037082 L70.998798,59.9320209 C68.7620133,64.9816386 71.0422651,70.8884348 76.0918828,73.1252194 C78.5082425,74.195573 81.250057,74.265877 83.7180961,73.3207664 L106.433837,64.622003 L129.455716,72.5154268 C134.680017,74.3066628 140.367233,71.523614 142.158469,66.2993133 C143.014592,63.8023539 142.848732,61.0681743 141.697057,58.6930115 L114.445586,2.49078302 C112.035978,-2.47868693 106.054053,-4.55386467 101.084583,-2.14425621 C98.956136,-1.1122098 97.2624485,0.640933679 96.3044233,2.8037082 Z" id="Path-15-Copy" transform="translate(106.745679, 35.910064) scale(1, -1) rotate(-359.000000) translate(-106.745679, -35.910064) "></path>
                                    <path d="M243.304423,3.8037082 L217.998798,60.9320209 C215.762013,65.9816386 218.042265,71.8884348 223.091883,74.1252194 C225.508242,75.195573 228.250057,75.265877 230.718096,74.3207664 L253.433837,65.622003 L276.455716,73.5154268 C281.680017,75.3066628 287.367233,72.523614 289.158469,67.2993133 C290.014592,64.8023539 289.848732,62.0681743 288.697057,59.6930115 L261.445586,3.49078302 C259.035978,-1.47868693 253.054053,-3.55386467 248.084583,-1.14425621 C245.956136,-0.112209802 244.262448,1.64093368 243.304423,3.8037082 Z" id="Path-15-Copy-3" transform="translate(253.745679, 36.910064) scale(1, -1) rotate(-359.000000) translate(-253.745679, -36.910064) "></path>
                                </g>
                            </g>
                            <g id="Group-5-Copy" transform="translate(0.000000, 93.000000)">
                                <g id="Group-4">
                                    <path d="M23.3044233,2.8037082 L-2.001202,59.9320209 C-4.23798665,64.9816386 -1.95773494,70.8884348 3.09188276,73.1252194 C5.50824246,74.195573 8.25005699,74.265877 10.7180961,73.3207664 L33.4338371,64.622003 L56.455716,72.5154268 C61.6800168,74.3066628 67.367233,71.523614 69.158469,66.2993133 C70.014592,63.8023539 69.8487317,61.0681743 68.6970571,58.6930115 L41.4455863,2.49078302 C39.0359778,-2.47868693 33.0540528,-4.55386467 28.0845829,-2.14425621 C25.956136,-1.1122098 24.2624485,0.640933679 23.3044233,2.8037082 Z" id="Path-15" transform="translate(33.745679, 35.910064) rotate(-359.000000) translate(-33.745679, -35.910064) "></path>
                                    <path d="M170.304423,2.8037082 L144.998798,59.9320209 C142.762013,64.9816386 145.042265,70.8884348 150.091883,73.1252194 C152.508242,74.195573 155.250057,74.265877 157.718096,73.3207664 L180.433837,64.622003 L203.455716,72.5154268 C208.680017,74.3066628 214.367233,71.523614 216.158469,66.2993133 C217.014592,63.8023539 216.848732,61.0681743 215.697057,58.6930115 L188.445586,2.49078302 C186.035978,-2.47868693 180.054053,-4.55386467 175.084583,-2.14425621 C172.956136,-1.1122098 171.262448,0.640933679 170.304423,2.8037082 Z" id="Path-15-Copy-2" transform="translate(180.745679, 35.910064) rotate(-359.000000) translate(-180.745679, -35.910064) "></path>
                                    <path d="M96.3044233,2.8037082 L70.998798,59.9320209 C68.7620133,64.9816386 71.0422651,70.8884348 76.0918828,73.1252194 C78.5082425,74.195573 81.250057,74.265877 83.7180961,73.3207664 L106.433837,64.622003 L129.455716,72.5154268 C134.680017,74.3066628 140.367233,71.523614 142.158469,66.2993133 C143.014592,63.8023539 142.848732,61.0681743 141.697057,58.6930115 L114.445586,2.49078302 C112.035978,-2.47868693 106.054053,-4.55386467 101.084583,-2.14425621 C98.956136,-1.1122098 97.2624485,0.640933679 96.3044233,2.8037082 Z" id="Path-15-Copy" transform="translate(106.745679, 35.910064) scale(1, -1) rotate(-359.000000) translate(-106.745679, -35.910064) "></path>
                                    <path d="M243.304423,3.8037082 L217.998798,60.9320209 C215.762013,65.9816386 218.042265,71.8884348 223.091883,74.1252194 C225.508242,75.195573 228.250057,75.265877 230.718096,74.3207664 L253.433837,65.622003 L276.455716,73.5154268 C281.680017,75.3066628 287.367233,72.523614 289.158469,67.2993133 C290.014592,64.8023539 289.848732,62.0681743 288.697057,59.6930115 L261.445586,3.49078302 C259.035978,-1.47868693 253.054053,-3.55386467 248.084583,-1.14425621 C245.956136,-0.112209802 244.262448,1.64093368 243.304423,3.8037082 Z" id="Path-15-Copy-3" transform="translate(253.745679, 36.910064) scale(1, -1) rotate(-359.000000) translate(-253.745679, -36.910064) "></path>
                                </g>
                            </g>
                        </g>
                        <g id="Group-7-Copy-4" transform="translate(298.000000, 0.000000)">
                            <g id="Group-5" stroke="#0BD291">
                                <g id="Group-4">
                                    <path d="M23.3044233,2.8037082 L-2.001202,59.9320209 C-4.23798665,64.9816386 -1.95773494,70.8884348 3.09188276,73.1252194 C5.50824246,74.195573 8.25005699,74.265877 10.7180961,73.3207664 L33.4338371,64.622003 L56.455716,72.5154268 C61.6800168,74.3066628 67.367233,71.523614 69.158469,66.2993133 C70.014592,63.8023539 69.8487317,61.0681743 68.6970571,58.6930115 L41.4455863,2.49078302 C39.0359778,-2.47868693 33.0540528,-4.55386467 28.0845829,-2.14425621 C25.956136,-1.1122098 24.2624485,0.640933679 23.3044233,2.8037082 Z" id="Path-15" transform="translate(33.745679, 35.910064) rotate(-359.000000) translate(-33.745679, -35.910064) "></path>
                                    <path d="M170.304423,2.8037082 L144.998798,59.9320209 C142.762013,64.9816386 145.042265,70.8884348 150.091883,73.1252194 C152.508242,74.195573 155.250057,74.265877 157.718096,73.3207664 L180.433837,64.622003 L203.455716,72.5154268 C208.680017,74.3066628 214.367233,71.523614 216.158469,66.2993133 C217.014592,63.8023539 216.848732,61.0681743 215.697057,58.6930115 L188.445586,2.49078302 C186.035978,-2.47868693 180.054053,-4.55386467 175.084583,-2.14425621 C172.956136,-1.1122098 171.262448,0.640933679 170.304423,2.8037082 Z" id="Path-15-Copy-2" transform="translate(180.745679, 35.910064) rotate(-359.000000) translate(-180.745679, -35.910064) "></path>
                                    <path d="M96.3044233,2.8037082 L70.998798,59.9320209 C68.7620133,64.9816386 71.0422651,70.8884348 76.0918828,73.1252194 C78.5082425,74.195573 81.250057,74.265877 83.7180961,73.3207664 L106.433837,64.622003 L129.455716,72.5154268 C134.680017,74.3066628 140.367233,71.523614 142.158469,66.2993133 C143.014592,63.8023539 142.848732,61.0681743 141.697057,58.6930115 L114.445586,2.49078302 C112.035978,-2.47868693 106.054053,-4.55386467 101.084583,-2.14425621 C98.956136,-1.1122098 97.2624485,0.640933679 96.3044233,2.8037082 Z" id="Path-15-Copy" transform="translate(106.745679, 35.910064) scale(1, -1) rotate(-359.000000) translate(-106.745679, -35.910064) "></path>
                                    <path d="M243.304423,3.8037082 L217.998798,60.9320209 C215.762013,65.9816386 218.042265,71.8884348 223.091883,74.1252194 C225.508242,75.195573 228.250057,75.265877 230.718096,74.3207664 L253.433837,65.622003 L276.455716,73.5154268 C281.680017,75.3066628 287.367233,72.523614 289.158469,67.2993133 C290.014592,64.8023539 289.848732,62.0681743 288.697057,59.6930115 L261.445586,3.49078302 C259.035978,-1.47868693 253.054053,-3.55386467 248.084583,-1.14425621 C245.956136,-0.112209802 244.262448,1.64093368 243.304423,3.8037082 Z" id="Path-15-Copy-3" transform="translate(253.745679, 36.910064) scale(1, -1) rotate(-359.000000) translate(-253.745679, -36.910064) "></path>
                                </g>
                            </g>
                            <g id="Group-5-Copy" transform="translate(0.000000, 93.000000)">
                                <g id="Group-4">
                                    <path d="M23.3044233,2.8037082 L-2.001202,59.9320209 C-4.23798665,64.9816386 -1.95773494,70.8884348 3.09188276,73.1252194 C5.50824246,74.195573 8.25005699,74.265877 10.7180961,73.3207664 L33.4338371,64.622003 L56.455716,72.5154268 C61.6800168,74.3066628 67.367233,71.523614 69.158469,66.2993133 C70.014592,63.8023539 69.8487317,61.0681743 68.6970571,58.6930115 L41.4455863,2.49078302 C39.0359778,-2.47868693 33.0540528,-4.55386467 28.0845829,-2.14425621 C25.956136,-1.1122098 24.2624485,0.640933679 23.3044233,2.8037082 Z" id="Path-15" stroke="#0BD291" transform="translate(33.745679, 35.910064) rotate(-359.000000) translate(-33.745679, -35.910064) "></path>
                                    <path d="M170.304423,2.8037082 L144.998798,59.9320209 C142.762013,64.9816386 145.042265,70.8884348 150.091883,73.1252194 C152.508242,74.195573 155.250057,74.265877 157.718096,73.3207664 L180.433837,64.622003 L203.455716,72.5154268 C208.680017,74.3066628 214.367233,71.523614 216.158469,66.2993133 C217.014592,63.8023539 216.848732,61.0681743 215.697057,58.6930115 L188.445586,2.49078302 C186.035978,-2.47868693 180.054053,-4.55386467 175.084583,-2.14425621 C172.956136,-1.1122098 171.262448,0.640933679 170.304423,2.8037082 Z" id="Path-15-Copy-2" stroke="#20E1A2" transform="translate(180.745679, 35.910064) rotate(-359.000000) translate(-180.745679, -35.910064) "></path>
                                    <path d="M96.3044233,2.8037082 L70.998798,59.9320209 C68.7620133,64.9816386 71.0422651,70.8884348 76.0918828,73.1252194 C78.5082425,74.195573 81.250057,74.265877 83.7180961,73.3207664 L106.433837,64.622003 L129.455716,72.5154268 C134.680017,74.3066628 140.367233,71.523614 142.158469,66.2993133 C143.014592,63.8023539 142.848732,61.0681743 141.697057,58.6930115 L114.445586,2.49078302 C112.035978,-2.47868693 106.054053,-4.55386467 101.084583,-2.14425621 C98.956136,-1.1122098 97.2624485,0.640933679 96.3044233,2.8037082 Z" id="Path-15-Copy" stroke="#0BD291" transform="translate(106.745679, 35.910064) scale(1, -1) rotate(-359.000000) translate(-106.745679, -35.910064) "></path>
                                    <path d="M243.304423,3.8037082 L217.998798,60.9320209 C215.762013,65.9816386 218.042265,71.8884348 223.091883,74.1252194 C225.508242,75.195573 228.250057,75.265877 230.718096,74.3207664 L253.433837,65.622003 L276.455716,73.5154268 C281.680017,75.3066628 287.367233,72.523614 289.158469,67.2993133 C290.014592,64.8023539 289.848732,62.0681743 288.697057,59.6930115 L261.445586,3.49078302 C259.035978,-1.47868693 253.054053,-3.55386467 248.084583,-1.14425621 C245.956136,-0.112209802 244.262448,1.64093368 243.304423,3.8037082 Z" id="Path-15-Copy-3" stroke="#0BD291" transform="translate(253.745679, 36.910064) scale(1, -1) rotate(-359.000000) translate(-253.745679, -36.910064) "></path>
                                </g>
                            </g>
                        </g>
                        <g id="Group-7-Copy-5" transform="translate(298.000000, 375.000000)">
                            <g id="Group-5">
                                <g id="Group-4">
                                    <path d="M23.3044233,2.8037082 L-2.001202,59.9320209 C-4.23798665,64.9816386 -1.95773494,70.8884348 3.09188276,73.1252194 C5.50824246,74.195573 8.25005699,74.265877 10.7180961,73.3207664 L33.4338371,64.622003 L56.455716,72.5154268 C61.6800168,74.3066628 67.367233,71.523614 69.158469,66.2993133 C70.014592,63.8023539 69.8487317,61.0681743 68.6970571,58.6930115 L41.4455863,2.49078302 C39.0359778,-2.47868693 33.0540528,-4.55386467 28.0845829,-2.14425621 C25.956136,-1.1122098 24.2624485,0.640933679 23.3044233,2.8037082 Z" id="Path-15" stroke="#0BD291" transform="translate(33.745679, 35.910064) rotate(-359.000000) translate(-33.745679, -35.910064) "></path>
                                    <path d="M170.304423,2.8037082 L144.998798,59.9320209 C142.762013,64.9816386 145.042265,70.8884348 150.091883,73.1252194 C152.508242,74.195573 155.250057,74.265877 157.718096,73.3207664 L180.433837,64.622003 L203.455716,72.5154268 C208.680017,74.3066628 214.367233,71.523614 216.158469,66.2993133 C217.014592,63.8023539 216.848732,61.0681743 215.697057,58.6930115 L188.445586,2.49078302 C186.035978,-2.47868693 180.054053,-4.55386467 175.084583,-2.14425621 C172.956136,-1.1122098 171.262448,0.640933679 170.304423,2.8037082 Z" id="Path-15-Copy-2" stroke="#0BD291" transform="translate(180.745679, 35.910064) rotate(-359.000000) translate(-180.745679, -35.910064) "></path>
                                    <path d="M96.3044233,2.8037082 L70.998798,59.9320209 C68.7620133,64.9816386 71.0422651,70.8884348 76.0918828,73.1252194 C78.5082425,74.195573 81.250057,74.265877 83.7180961,73.3207664 L106.433837,64.622003 L129.455716,72.5154268 C134.680017,74.3066628 140.367233,71.523614 142.158469,66.2993133 C143.014592,63.8023539 142.848732,61.0681743 141.697057,58.6930115 L114.445586,2.49078302 C112.035978,-2.47868693 106.054053,-4.55386467 101.084583,-2.14425621 C98.956136,-1.1122098 97.2624485,0.640933679 96.3044233,2.8037082 Z" id="Path-15-Copy" stroke="#20E1A2" transform="translate(106.745679, 35.910064) scale(1, -1) rotate(-359.000000) translate(-106.745679, -35.910064) "></path>
                                    <path d="M243.304423,3.8037082 L217.998798,60.9320209 C215.762013,65.9816386 218.042265,71.8884348 223.091883,74.1252194 C225.508242,75.195573 228.250057,75.265877 230.718096,74.3207664 L253.433837,65.622003 L276.455716,73.5154268 C281.680017,75.3066628 287.367233,72.523614 289.158469,67.2993133 C290.014592,64.8023539 289.848732,62.0681743 288.697057,59.6930115 L261.445586,3.49078302 C259.035978,-1.47868693 253.054053,-3.55386467 248.084583,-1.14425621 C245.956136,-0.112209802 244.262448,1.64093368 243.304423,3.8037082 Z" id="Path-15-Copy-3" stroke="#0BD291" transform="translate(253.745679, 36.910064) scale(1, -1) rotate(-359.000000) translate(-253.745679, -36.910064) "></path>
                                </g>
                            </g>
                            <g id="Group-5-Copy" transform="translate(0.000000, 93.000000)">
                                <g id="Group-4">
                                    <path d="M23.3044233,2.8037082 L-2.001202,59.9320209 C-4.23798665,64.9816386 -1.95773494,70.8884348 3.09188276,73.1252194 C5.50824246,74.195573 8.25005699,74.265877 10.7180961,73.3207664 L33.4338371,64.622003 L56.455716,72.5154268 C61.6800168,74.3066628 67.367233,71.523614 69.158469,66.2993133 C70.014592,63.8023539 69.8487317,61.0681743 68.6970571,58.6930115 L41.4455863,2.49078302 C39.0359778,-2.47868693 33.0540528,-4.55386467 28.0845829,-2.14425621 C25.956136,-1.1122098 24.2624485,0.640933679 23.3044233,2.8037082 Z" id="Path-15" stroke="#20E1A2" transform="translate(33.745679, 35.910064) rotate(-359.000000) translate(-33.745679, -35.910064) "></path>
                                    <path d="M170.304423,2.8037082 L144.998798,59.9320209 C142.762013,64.9816386 145.042265,70.8884348 150.091883,73.1252194 C152.508242,74.195573 155.250057,74.265877 157.718096,73.3207664 L180.433837,64.622003 L203.455716,72.5154268 C208.680017,74.3066628 214.367233,71.523614 216.158469,66.2993133 C217.014592,63.8023539 216.848732,61.0681743 215.697057,58.6930115 L188.445586,2.49078302 C186.035978,-2.47868693 180.054053,-4.55386467 175.084583,-2.14425621 C172.956136,-1.1122098 171.262448,0.640933679 170.304423,2.8037082 Z" id="Path-15-Copy-2" stroke="#0BD291" transform="translate(180.745679, 35.910064) rotate(-359.000000) translate(-180.745679, -35.910064) "></path>
                                    <path d="M96.3044233,2.8037082 L70.998798,59.9320209 C68.7620133,64.9816386 71.0422651,70.8884348 76.0918828,73.1252194 C78.5082425,74.195573 81.250057,74.265877 83.7180961,73.3207664 L106.433837,64.622003 L129.455716,72.5154268 C134.680017,74.3066628 140.367233,71.523614 142.158469,66.2993133 C143.014592,63.8023539 142.848732,61.0681743 141.697057,58.6930115 L114.445586,2.49078302 C112.035978,-2.47868693 106.054053,-4.55386467 101.084583,-2.14425621 C98.956136,-1.1122098 97.2624485,0.640933679 96.3044233,2.8037082 Z" id="Path-15-Copy" stroke="#20E1A2" transform="translate(106.745679, 35.910064) scale(1, -1) rotate(-359.000000) translate(-106.745679, -35.910064) "></path>
                                    <path d="M243.304423,3.8037082 L217.998798,60.9320209 C215.762013,65.9816386 218.042265,71.8884348 223.091883,74.1252194 C225.508242,75.195573 228.250057,75.265877 230.718096,74.3207664 L253.433837,65.622003 L276.455716,73.5154268 C281.680017,75.3066628 287.367233,72.523614 289.158469,67.2993133 C290.014592,64.8023539 289.848732,62.0681743 288.697057,59.6930115 L261.445586,3.49078302 C259.035978,-1.47868693 253.054053,-3.55386467 248.084583,-1.14425621 C245.956136,-0.112209802 244.262448,1.64093368 243.304423,3.8037082 Z" id="Path-15-Copy-3" stroke="#0BD291" transform="translate(253.745679, 36.910064) scale(1, -1) rotate(-359.000000) translate(-253.745679, -36.910064) "></path>
                                </g>
                            </g>
                        </g>
                        <g id="Group-7-Copy-7" opacity="0.416968936" transform="translate(0.000000, 186.000000)">
                            <g id="Group-5">
                                <g id="Group-4">
                                    <path d="M23.3044233,2.8037082 L-2.001202,59.9320209 C-4.23798665,64.9816386 -1.95773494,70.8884348 3.09188276,73.1252194 C5.50824246,74.195573 8.25005699,74.265877 10.7180961,73.3207664 L33.4338371,64.622003 L56.455716,72.5154268 C61.6800168,74.3066628 67.367233,71.523614 69.158469,66.2993133 C70.014592,63.8023539 69.8487317,61.0681743 68.6970571,58.6930115 L41.4455863,2.49078302 C39.0359778,-2.47868693 33.0540528,-4.55386467 28.0845829,-2.14425621 C25.956136,-1.1122098 24.2624485,0.640933679 23.3044233,2.8037082 Z" id="Path-15" stroke="#0BD291" transform="translate(33.745679, 35.910064) rotate(-359.000000) translate(-33.745679, -35.910064) "></path>
                                    <path d="M170.304423,2.8037082 L144.998798,59.9320209 C142.762013,64.9816386 145.042265,70.8884348 150.091883,73.1252194 C152.508242,74.195573 155.250057,74.265877 157.718096,73.3207664 L180.433837,64.622003 L203.455716,72.5154268 C208.680017,74.3066628 214.367233,71.523614 216.158469,66.2993133 C217.014592,63.8023539 216.848732,61.0681743 215.697057,58.6930115 L188.445586,2.49078302 C186.035978,-2.47868693 180.054053,-4.55386467 175.084583,-2.14425621 C172.956136,-1.1122098 171.262448,0.640933679 170.304423,2.8037082 Z" id="Path-15-Copy-2" stroke="#20E1A2" transform="translate(180.745679, 35.910064) rotate(-359.000000) translate(-180.745679, -35.910064) "></path>
                                    <path d="M96.3044233,2.8037082 L70.998798,59.9320209 C68.7620133,64.9816386 71.0422651,70.8884348 76.0918828,73.1252194 C78.5082425,74.195573 81.250057,74.265877 83.7180961,73.3207664 L106.433837,64.622003 L129.455716,72.5154268 C134.680017,74.3066628 140.367233,71.523614 142.158469,66.2993133 C143.014592,63.8023539 142.848732,61.0681743 141.697057,58.6930115 L114.445586,2.49078302 C112.035978,-2.47868693 106.054053,-4.55386467 101.084583,-2.14425621 C98.956136,-1.1122098 97.2624485,0.640933679 96.3044233,2.8037082 Z" id="Path-15-Copy" stroke="#0BD291" transform="translate(106.745679, 35.910064) scale(1, -1) rotate(-359.000000) translate(-106.745679, -35.910064) "></path>
                                    <path d="M243.304423,3.8037082 L217.998798,60.9320209 C215.762013,65.9816386 218.042265,71.8884348 223.091883,74.1252194 C225.508242,75.195573 228.250057,75.265877 230.718096,74.3207664 L253.433837,65.622003 L276.455716,73.5154268 C281.680017,75.3066628 287.367233,72.523614 289.158469,67.2993133 C290.014592,64.8023539 289.848732,62.0681743 288.697057,59.6930115 L261.445586,3.49078302 C259.035978,-1.47868693 253.054053,-3.55386467 248.084583,-1.14425621 C245.956136,-0.112209802 244.262448,1.64093368 243.304423,3.8037082 Z" id="Path-15-Copy-3" stroke="#0BD291" transform="translate(253.745679, 36.910064) scale(1, -1) rotate(-359.000000) translate(-253.745679, -36.910064) "></path>
                                </g>
                            </g>
                            <g id="Group-5-Copy" transform="translate(0.000000, 93.000000)">
                                <g id="Group-4">
                                    <path d="M23.3044233,2.8037082 L-2.001202,59.9320209 C-4.23798665,64.9816386 -1.95773494,70.8884348 3.09188276,73.1252194 C5.50824246,74.195573 8.25005699,74.265877 10.7180961,73.3207664 L33.4338371,64.622003 L56.455716,72.5154268 C61.6800168,74.3066628 67.367233,71.523614 69.158469,66.2993133 C70.014592,63.8023539 69.8487317,61.0681743 68.6970571,58.6930115 L41.4455863,2.49078302 C39.0359778,-2.47868693 33.0540528,-4.55386467 28.0845829,-2.14425621 C25.956136,-1.1122098 24.2624485,0.640933679 23.3044233,2.8037082 Z" id="Path-15" stroke="#0BD291" transform="translate(33.745679, 35.910064) rotate(-359.000000) translate(-33.745679, -35.910064) "></path>
                                    <path d="M170.304423,2.8037082 L144.998798,59.9320209 C142.762013,64.9816386 145.042265,70.8884348 150.091883,73.1252194 C152.508242,74.195573 155.250057,74.265877 157.718096,73.3207664 L180.433837,64.622003 L203.455716,72.5154268 C208.680017,74.3066628 214.367233,71.523614 216.158469,66.2993133 C217.014592,63.8023539 216.848732,61.0681743 215.697057,58.6930115 L188.445586,2.49078302 C186.035978,-2.47868693 180.054053,-4.55386467 175.084583,-2.14425621 C172.956136,-1.1122098 171.262448,0.640933679 170.304423,2.8037082 Z" id="Path-15-Copy-2" stroke="#20E1A2" transform="translate(180.745679, 35.910064) rotate(-359.000000) translate(-180.745679, -35.910064) "></path>
                                    <path d="M96.3044233,2.8037082 L70.998798,59.9320209 C68.7620133,64.9816386 71.0422651,70.8884348 76.0918828,73.1252194 C78.5082425,74.195573 81.250057,74.265877 83.7180961,73.3207664 L106.433837,64.622003 L129.455716,72.5154268 C134.680017,74.3066628 140.367233,71.523614 142.158469,66.2993133 C143.014592,63.8023539 142.848732,61.0681743 141.697057,58.6930115 L114.445586,2.49078302 C112.035978,-2.47868693 106.054053,-4.55386467 101.084583,-2.14425621 C98.956136,-1.1122098 97.2624485,0.640933679 96.3044233,2.8037082 Z" id="Path-15-Copy" stroke="#0BD291" transform="translate(106.745679, 35.910064) scale(1, -1) rotate(-359.000000) translate(-106.745679, -35.910064) "></path>
                                    <path d="M243.304423,3.8037082 L217.998798,60.9320209 C215.762013,65.9816386 218.042265,71.8884348 223.091883,74.1252194 C225.508242,75.195573 228.250057,75.265877 230.718096,74.3207664 L253.433837,65.622003 L276.455716,73.5154268 C281.680017,75.3066628 287.367233,72.523614 289.158469,67.2993133 C290.014592,64.8023539 289.848732,62.0681743 288.697057,59.6930115 L261.445586,3.49078302 C259.035978,-1.47868693 253.054053,-3.55386467 248.084583,-1.14425621 C245.956136,-0.112209802 244.262448,1.64093368 243.304423,3.8037082 Z" id="Path-15-Copy-3" stroke="#0BD291" transform="translate(253.745679, 36.910064) scale(1, -1) rotate(-359.000000) translate(-253.745679, -36.910064) "></path>
                                </g>
                            </g>
                        </g>
                        <g id="Group-7-Copy-6" opacity="0.751976376" transform="translate(0.000000, 375.000000)" stroke="#0BD291">
                            <g id="Group-5">
                                <g id="Group-4">
                                    <path d="M23.3044233,2.8037082 L-2.001202,59.9320209 C-4.23798665,64.9816386 -1.95773494,70.8884348 3.09188276,73.1252194 C5.50824246,74.195573 8.25005699,74.265877 10.7180961,73.3207664 L33.4338371,64.622003 L56.455716,72.5154268 C61.6800168,74.3066628 67.367233,71.523614 69.158469,66.2993133 C70.014592,63.8023539 69.8487317,61.0681743 68.6970571,58.6930115 L41.4455863,2.49078302 C39.0359778,-2.47868693 33.0540528,-4.55386467 28.0845829,-2.14425621 C25.956136,-1.1122098 24.2624485,0.640933679 23.3044233,2.8037082 Z" id="Path-15" transform="translate(33.745679, 35.910064) rotate(-359.000000) translate(-33.745679, -35.910064) "></path>
                                    <path d="M170.304423,2.8037082 L144.998798,59.9320209 C142.762013,64.9816386 145.042265,70.8884348 150.091883,73.1252194 C152.508242,74.195573 155.250057,74.265877 157.718096,73.3207664 L180.433837,64.622003 L203.455716,72.5154268 C208.680017,74.3066628 214.367233,71.523614 216.158469,66.2993133 C217.014592,63.8023539 216.848732,61.0681743 215.697057,58.6930115 L188.445586,2.49078302 C186.035978,-2.47868693 180.054053,-4.55386467 175.084583,-2.14425621 C172.956136,-1.1122098 171.262448,0.640933679 170.304423,2.8037082 Z" id="Path-15-Copy-2" transform="translate(180.745679, 35.910064) rotate(-359.000000) translate(-180.745679, -35.910064) "></path>
                                    <path d="M96.3044233,2.8037082 L70.998798,59.9320209 C68.7620133,64.9816386 71.0422651,70.8884348 76.0918828,73.1252194 C78.5082425,74.195573 81.250057,74.265877 83.7180961,73.3207664 L106.433837,64.622003 L129.455716,72.5154268 C134.680017,74.3066628 140.367233,71.523614 142.158469,66.2993133 C143.014592,63.8023539 142.848732,61.0681743 141.697057,58.6930115 L114.445586,2.49078302 C112.035978,-2.47868693 106.054053,-4.55386467 101.084583,-2.14425621 C98.956136,-1.1122098 97.2624485,0.640933679 96.3044233,2.8037082 Z" id="Path-15-Copy" transform="translate(106.745679, 35.910064) scale(1, -1) rotate(-359.000000) translate(-106.745679, -35.910064) "></path>
                                    <path d="M243.304423,3.8037082 L217.998798,60.9320209 C215.762013,65.9816386 218.042265,71.8884348 223.091883,74.1252194 C225.508242,75.195573 228.250057,75.265877 230.718096,74.3207664 L253.433837,65.622003 L276.455716,73.5154268 C281.680017,75.3066628 287.367233,72.523614 289.158469,67.2993133 C290.014592,64.8023539 289.848732,62.0681743 288.697057,59.6930115 L261.445586,3.49078302 C259.035978,-1.47868693 253.054053,-3.55386467 248.084583,-1.14425621 C245.956136,-0.112209802 244.262448,1.64093368 243.304423,3.8037082 Z" id="Path-15-Copy-3" transform="translate(253.745679, 36.910064) scale(1, -1) rotate(-359.000000) translate(-253.745679, -36.910064) "></path>
                                </g>
                            </g>
                            <g id="Group-5-Copy" transform="translate(0.000000, 93.000000)">
                                <g id="Group-4">
                                    <path d="M23.3044233,2.8037082 L-2.001202,59.9320209 C-4.23798665,64.9816386 -1.95773494,70.8884348 3.09188276,73.1252194 C5.50824246,74.195573 8.25005699,74.265877 10.7180961,73.3207664 L33.4338371,64.622003 L56.455716,72.5154268 C61.6800168,74.3066628 67.367233,71.523614 69.158469,66.2993133 C70.014592,63.8023539 69.8487317,61.0681743 68.6970571,58.6930115 L41.4455863,2.49078302 C39.0359778,-2.47868693 33.0540528,-4.55386467 28.0845829,-2.14425621 C25.956136,-1.1122098 24.2624485,0.640933679 23.3044233,2.8037082 Z" id="Path-15" transform="translate(33.745679, 35.910064) rotate(-359.000000) translate(-33.745679, -35.910064) "></path>
                                    <path d="M170.304423,2.8037082 L144.998798,59.9320209 C142.762013,64.9816386 145.042265,70.8884348 150.091883,73.1252194 C152.508242,74.195573 155.250057,74.265877 157.718096,73.3207664 L180.433837,64.622003 L203.455716,72.5154268 C208.680017,74.3066628 214.367233,71.523614 216.158469,66.2993133 C217.014592,63.8023539 216.848732,61.0681743 215.697057,58.6930115 L188.445586,2.49078302 C186.035978,-2.47868693 180.054053,-4.55386467 175.084583,-2.14425621 C172.956136,-1.1122098 171.262448,0.640933679 170.304423,2.8037082 Z" id="Path-15-Copy-2" transform="translate(180.745679, 35.910064) rotate(-359.000000) translate(-180.745679, -35.910064) "></path>
                                    <path d="M96.3044233,2.8037082 L70.998798,59.9320209 C68.7620133,64.9816386 71.0422651,70.8884348 76.0918828,73.1252194 C78.5082425,74.195573 81.250057,74.265877 83.7180961,73.3207664 L106.433837,64.622003 L129.455716,72.5154268 C134.680017,74.3066628 140.367233,71.523614 142.158469,66.2993133 C143.014592,63.8023539 142.848732,61.0681743 141.697057,58.6930115 L114.445586,2.49078302 C112.035978,-2.47868693 106.054053,-4.55386467 101.084583,-2.14425621 C98.956136,-1.1122098 97.2624485,0.640933679 96.3044233,2.8037082 Z" id="Path-15-Copy" transform="translate(106.745679, 35.910064) scale(1, -1) rotate(-359.000000) translate(-106.745679, -35.910064) "></path>
                                    <path d="M243.304423,3.8037082 L217.998798,60.9320209 C215.762013,65.9816386 218.042265,71.8884348 223.091883,74.1252194 C225.508242,75.195573 228.250057,75.265877 230.718096,74.3207664 L253.433837,65.622003 L276.455716,73.5154268 C281.680017,75.3066628 287.367233,72.523614 289.158469,67.2993133 C290.014592,64.8023539 289.848732,62.0681743 288.697057,59.6930115 L261.445586,3.49078302 C259.035978,-1.47868693 253.054053,-3.55386467 248.084583,-1.14425621 C245.956136,-0.112209802 244.262448,1.64093368 243.304423,3.8037082 Z" id="Path-15-Copy-3" transform="translate(253.745679, 36.910064) scale(1, -1) rotate(-359.000000) translate(-253.745679, -36.910064) "></path>
                                </g>
                            </g>
                        </g>
                        <g id="Group-7-Copy-2" transform="translate(596.000000, 372.000000)">
                            <g id="Group-5">
                                <g id="Group-4">
                                    <path d="M23.3044233,2.8037082 L-2.001202,59.9320209 C-4.23798665,64.9816386 -1.95773494,70.8884348 3.09188276,73.1252194 C5.50824246,74.195573 8.25005699,74.265877 10.7180961,73.3207664 L33.4338371,64.622003 L56.455716,72.5154268 C61.6800168,74.3066628 67.367233,71.523614 69.158469,66.2993133 C70.014592,63.8023539 69.8487317,61.0681743 68.6970571,58.6930115 L41.4455863,2.49078302 C39.0359778,-2.47868693 33.0540528,-4.55386467 28.0845829,-2.14425621 C25.956136,-1.1122098 24.2624485,0.640933679 23.3044233,2.8037082 Z" id="Path-15" stroke="#0BD291" transform="translate(33.745679, 35.910064) rotate(-359.000000) translate(-33.745679, -35.910064) "></path>
                                    <path d="M170.304423,2.8037082 L144.998798,59.9320209 C142.762013,64.9816386 145.042265,70.8884348 150.091883,73.1252194 C152.508242,74.195573 155.250057,74.265877 157.718096,73.3207664 L180.433837,64.622003 L203.455716,72.5154268 C208.680017,74.3066628 214.367233,71.523614 216.158469,66.2993133 C217.014592,63.8023539 216.848732,61.0681743 215.697057,58.6930115 L188.445586,2.49078302 C186.035978,-2.47868693 180.054053,-4.55386467 175.084583,-2.14425621 C172.956136,-1.1122098 171.262448,0.640933679 170.304423,2.8037082 Z" id="Path-15-Copy-2" stroke="#20E1A2" transform="translate(180.745679, 35.910064) rotate(-359.000000) translate(-180.745679, -35.910064) "></path>
                                    <path d="M96.3044233,2.8037082 L70.998798,59.9320209 C68.7620133,64.9816386 71.0422651,70.8884348 76.0918828,73.1252194 C78.5082425,74.195573 81.250057,74.265877 83.7180961,73.3207664 L106.433837,64.622003 L129.455716,72.5154268 C134.680017,74.3066628 140.367233,71.523614 142.158469,66.2993133 C143.014592,63.8023539 142.848732,61.0681743 141.697057,58.6930115 L114.445586,2.49078302 C112.035978,-2.47868693 106.054053,-4.55386467 101.084583,-2.14425621 C98.956136,-1.1122098 97.2624485,0.640933679 96.3044233,2.8037082 Z" id="Path-15-Copy" stroke="#0BD291" transform="translate(106.745679, 35.910064) scale(1, -1) rotate(-359.000000) translate(-106.745679, -35.910064) "></path>
                                    <path d="M243.304423,3.8037082 L217.998798,60.9320209 C215.762013,65.9816386 218.042265,71.8884348 223.091883,74.1252194 C225.508242,75.195573 228.250057,75.265877 230.718096,74.3207664 L253.433837,65.622003 L276.455716,73.5154268 C281.680017,75.3066628 287.367233,72.523614 289.158469,67.2993133 C290.014592,64.8023539 289.848732,62.0681743 288.697057,59.6930115 L261.445586,3.49078302 C259.035978,-1.47868693 253.054053,-3.55386467 248.084583,-1.14425621 C245.956136,-0.112209802 244.262448,1.64093368 243.304423,3.8037082 Z" id="Path-15-Copy-3" stroke="#20E1A2" transform="translate(253.745679, 36.910064) scale(1, -1) rotate(-359.000000) translate(-253.745679, -36.910064) "></path>
                                </g>
                            </g>
                            <g id="Group-5-Copy" transform="translate(0.000000, 93.000000)" stroke="#0BD291">
                                <g id="Group-4">
                                    <path d="M23.3044233,2.8037082 L-2.001202,59.9320209 C-4.23798665,64.9816386 -1.95773494,70.8884348 3.09188276,73.1252194 C5.50824246,74.195573 8.25005699,74.265877 10.7180961,73.3207664 L33.4338371,64.622003 L56.455716,72.5154268 C61.6800168,74.3066628 67.367233,71.523614 69.158469,66.2993133 C70.014592,63.8023539 69.8487317,61.0681743 68.6970571,58.6930115 L41.4455863,2.49078302 C39.0359778,-2.47868693 33.0540528,-4.55386467 28.0845829,-2.14425621 C25.956136,-1.1122098 24.2624485,0.640933679 23.3044233,2.8037082 Z" id="Path-15" transform="translate(33.745679, 35.910064) rotate(-359.000000) translate(-33.745679, -35.910064) "></path>
                                    <path d="M170.304423,2.8037082 L144.998798,59.9320209 C142.762013,64.9816386 145.042265,70.8884348 150.091883,73.1252194 C152.508242,74.195573 155.250057,74.265877 157.718096,73.3207664 L180.433837,64.622003 L203.455716,72.5154268 C208.680017,74.3066628 214.367233,71.523614 216.158469,66.2993133 C217.014592,63.8023539 216.848732,61.0681743 215.697057,58.6930115 L188.445586,2.49078302 C186.035978,-2.47868693 180.054053,-4.55386467 175.084583,-2.14425621 C172.956136,-1.1122098 171.262448,0.640933679 170.304423,2.8037082 Z" id="Path-15-Copy-2" transform="translate(180.745679, 35.910064) rotate(-359.000000) translate(-180.745679, -35.910064) "></path>
                                    <path d="M96.3044233,2.8037082 L70.998798,59.9320209 C68.7620133,64.9816386 71.0422651,70.8884348 76.0918828,73.1252194 C78.5082425,74.195573 81.250057,74.265877 83.7180961,73.3207664 L106.433837,64.622003 L129.455716,72.5154268 C134.680017,74.3066628 140.367233,71.523614 142.158469,66.2993133 C143.014592,63.8023539 142.848732,61.0681743 141.697057,58.6930115 L114.445586,2.49078302 C112.035978,-2.47868693 106.054053,-4.55386467 101.084583,-2.14425621 C98.956136,-1.1122098 97.2624485,0.640933679 96.3044233,2.8037082 Z" id="Path-15-Copy" transform="translate(106.745679, 35.910064) scale(1, -1) rotate(-359.000000) translate(-106.745679, -35.910064) "></path>
                                    <path d="M243.304423,3.8037082 L217.998798,60.9320209 C215.762013,65.9816386 218.042265,71.8884348 223.091883,74.1252194 C225.508242,75.195573 228.250057,75.265877 230.718096,74.3207664 L253.433837,65.622003 L276.455716,73.5154268 C281.680017,75.3066628 287.367233,72.523614 289.158469,67.2993133 C290.014592,64.8023539 289.848732,62.0681743 288.697057,59.6930115 L261.445586,3.49078302 C259.035978,-1.47868693 253.054053,-3.55386467 248.084583,-1.14425621 C245.956136,-0.112209802 244.262448,1.64093368 243.304423,3.8037082 Z" id="Path-15-Copy-3" transform="translate(253.745679, 36.910064) scale(1, -1) rotate(-359.000000) translate(-253.745679, -36.910064) "></path>
                                </g>
                            </g>
                        </g>
                    </g>
                </g>
            </g>
        </g>
    </g>
</svg>