<svg width="892" height="550" xmlns="http://www.w3.org/2000/svg"><g stroke-width="2" fill="none" fill-rule="evenodd"><path d="M624.884 7.627l-26.299 56.677c-2.325 5.01-.148 10.956 4.862 13.28a10 10 0 0 0 7.622.33l22.864-8.302 22.88 8.294a10 10 0 1 0 12.48-13.607L643.03 7.63c-2.323-5.01-8.268-7.19-13.278-4.867a10 10 0 0 0-4.866 4.864zm147 0l-26.299 56.677c-2.325 5.01-.148 10.956 4.862 13.28a10 10 0 0 0 7.622.33l22.864-8.302 22.88 8.294a10 10 0 1 0 12.48-13.607L790.03 7.63c-2.323-5.01-8.268-7.19-13.278-4.867a10 10 0 0 0-4.866 4.864zm-74 66.567l-26.299-56.678c-2.325-5.01-.148-10.956 4.862-13.28a10 10 0 0 1 7.622-.33l22.864 8.302 22.88-8.294a10 10 0 1 1 12.48 13.607L716.03 74.19c-2.323 5.01-8.268 7.19-13.278 4.867a10 10 0 0 1-4.866-4.863zm147 1l-26.299-56.678c-2.325-5.01-.148-10.956 4.862-13.28a10 10 0 0 1 7.622-.33l22.864 8.302 22.88-8.294a10 10 0 1 1 12.48 13.607L863.03 75.19c-2.323 5.01-8.268 7.19-13.278 4.867a10 10 0 0 1-4.866-4.863zm-220 25.433l-26.299 56.677c-2.325 5.01-.148 10.956 4.862 13.28a10 10 0 0 0 7.622.33l22.864-8.302 22.88 8.294a10 10 0 1 0 12.48-13.607L643.03 100.63c-2.323-5.01-8.268-7.19-13.278-4.867a10 10 0 0 0-4.866 4.864zm147 0l-26.299 56.677c-2.325 5.01-.148 10.956 4.862 13.28a10 10 0 0 0 7.622.33l22.864-8.302 22.88 8.294a10 10 0 1 0 12.48-13.607L790.03 100.63c-2.323-5.01-8.268-7.19-13.278-4.867a10 10 0 0 0-4.866 4.864zm-74 66.567l-26.299-56.678c-2.325-5.01-.148-10.956 4.862-13.28a10 10 0 0 1 7.622-.33l22.864 8.302 22.88-8.294a10 10 0 1 1 12.48 13.607L716.03 167.19c-2.323 5.01-8.268 7.19-13.278 4.867a10 10 0 0 1-4.866-4.863zm147 1l-26.299-56.678c-2.325-5.01-.148-10.956 4.862-13.28a10 10 0 0 1 7.622-.33l22.864 8.302 22.88-8.294a10 10 0 1 1 12.48 13.607L863.03 168.19c-2.323 5.01-8.268 7.19-13.278 4.867a10 10 0 0 1-4.866-4.863z" opacity=".365" stroke="#0BD291"/><g opacity=".539"><path d="M624.884 193.627l-26.299 56.677c-2.325 5.01-.148 10.956 4.862 13.28a10 10 0 0 0 7.622.33l22.864-8.302 22.88 8.294a10 10 0 1 0 12.48-13.607L643.03 193.63c-2.323-5.01-8.268-7.19-13.278-4.867a10 10 0 0 0-4.866 4.864zm147 0l-26.299 56.677c-2.325 5.01-.148 10.956 4.862 13.28a10 10 0 0 0 7.622.33l22.864-8.302 22.88 8.294a10 10 0 1 0 12.48-13.607L790.03 193.63c-2.323-5.01-8.268-7.19-13.278-4.867a10 10 0 0 0-4.866 4.864zm-74 66.567l-26.299-56.678c-2.325-5.01-.148-10.956 4.862-13.28a10 10 0 0 1 7.622-.33l22.864 8.302 22.88-8.294a10 10 0 1 1 12.48 13.607L716.03 260.19c-2.323 5.01-8.268 7.19-13.278 4.867a10 10 0 0 1-4.866-4.863zm147 1l-26.299-56.678c-2.325-5.01-.148-10.956 4.862-13.28a10 10 0 0 1 7.622-.33l22.864 8.302 22.88-8.294a10 10 0 1 1 12.48 13.607L863.03 261.19c-2.323 5.01-8.268 7.19-13.278 4.867a10 10 0 0 1-4.866-4.863z" stroke="#0BD291"/><path d="M624.884 286.627l-26.299 56.677c-2.325 5.01-.148 10.956 4.862 13.28a10 10 0 0 0 7.622.33l22.864-8.302 22.88 8.294a10 10 0 1 0 12.48-13.607L643.03 286.63c-2.323-5.01-8.268-7.19-13.278-4.867a10 10 0 0 0-4.866 4.864z" stroke="#20E1A2"/><path d="M771.884 286.627l-26.299 56.677c-2.325 5.01-.148 10.956 4.862 13.28a10 10 0 0 0 7.622.33l22.864-8.302 22.88 8.294a10 10 0 1 0 12.48-13.607L790.03 286.63c-2.323-5.01-8.268-7.19-13.278-4.867a10 10 0 0 0-4.866 4.864zm-74 66.567l-26.299-56.678c-2.325-5.01-.148-10.956 4.862-13.28a10 10 0 0 1 7.622-.33l22.864 8.302 22.88-8.294a10 10 0 1 1 12.48 13.607L716.03 353.19c-2.323 5.01-8.268 7.19-13.278 4.867a10 10 0 0 1-4.866-4.863zm147 1l-26.299-56.678c-2.325-5.01-.148-10.956 4.862-13.28a10 10 0 0 1 7.622-.33l22.864 8.302 22.88-8.294a10 10 0 1 1 12.48 13.607L863.03 354.19c-2.323 5.01-8.268 7.19-13.278 4.867a10 10 0 0 1-4.866-4.863z" stroke="#0BD291"/></g><path d="M326.884 193.627l-26.299 56.677c-2.325 5.01-.148 10.956 4.862 13.28a10 10 0 0 0 7.622.33l22.864-8.302 22.88 8.294a10 10 0 1 0 12.48-13.607L345.03 193.63c-2.323-5.01-8.268-7.19-13.278-4.867a10 10 0 0 0-4.866 4.864zm147 0l-26.299 56.677c-2.325 5.01-.148 10.956 4.862 13.28a10 10 0 0 0 7.622.33l22.864-8.302 22.88 8.294a10 10 0 1 0 12.48-13.607L492.03 193.63c-2.323-5.01-8.268-7.19-13.278-4.867a10 10 0 0 0-4.866 4.864zm-74 66.567l-26.299-56.678c-2.325-5.01-.148-10.956 4.862-13.28a10 10 0 0 1 7.622-.33l22.864 8.302 22.88-8.294a10 10 0 1 1 12.48 13.607L418.03 260.19c-2.323 5.01-8.268 7.19-13.278 4.867a10 10 0 0 1-4.866-4.863zm147 1l-26.299-56.678c-2.325-5.01-.148-10.956 4.862-13.28a10 10 0 0 1 7.622-.33l22.864 8.302 22.88-8.294a10 10 0 1 1 12.48 13.607L565.03 261.19c-2.323 5.01-8.268 7.19-13.278 4.867a10 10 0 0 1-4.866-4.863zm-220 25.433l-26.299 56.677c-2.325 5.01-.148 10.956 4.862 13.28a10 10 0 0 0 7.622.33l22.864-8.302 22.88 8.294a10 10 0 1 0 12.48-13.607L345.03 286.63c-2.323-5.01-8.268-7.19-13.278-4.867a10 10 0 0 0-4.866 4.864zm147 0l-26.299 56.677c-2.325 5.01-.148 10.956 4.862 13.28a10 10 0 0 0 7.622.33l22.864-8.302 22.88 8.294a10 10 0 1 0 12.48-13.607L492.03 286.63c-2.323-5.01-8.268-7.19-13.278-4.867a10 10 0 0 0-4.866 4.864zm-74 66.567l-26.299-56.678c-2.325-5.01-.148-10.956 4.862-13.28a10 10 0 0 1 7.622-.33l22.864 8.302 22.88-8.294a10 10 0 1 1 12.48 13.607L418.03 353.19c-2.323 5.01-8.268 7.19-13.278 4.867a10 10 0 0 1-4.866-4.863zm147 1l-26.299-56.678c-2.325-5.01-.148-10.956 4.862-13.28a10 10 0 0 1 7.622-.33l22.864 8.302 22.88-8.294a10 10 0 1 1 12.48 13.607L565.03 354.19c-2.323 5.01-8.268 7.19-13.278 4.867a10 10 0 0 1-4.866-4.863z" opacity=".642" stroke="#0BD291"/><path d="M326.884 7.627l-26.299 56.677c-2.325 5.01-.148 10.956 4.862 13.28a10 10 0 0 0 7.622.33l22.864-8.302 22.88 8.294a10 10 0 1 0 12.48-13.607L345.03 7.63c-2.323-5.01-8.268-7.19-13.278-4.867a10 10 0 0 0-4.866 4.864zm147 0l-26.299 56.677c-2.325 5.01-.148 10.956 4.862 13.28a10 10 0 0 0 7.622.33l22.864-8.302 22.88 8.294a10 10 0 1 0 12.48-13.607L492.03 7.63c-2.323-5.01-8.268-7.19-13.278-4.867a10 10 0 0 0-4.866 4.864zm-74 66.567l-26.299-56.678c-2.325-5.01-.148-10.956 4.862-13.28a10 10 0 0 1 7.622-.33l22.864 8.302 22.88-8.294a10 10 0 1 1 12.48 13.607L418.03 74.19c-2.323 5.01-8.268 7.19-13.278 4.867a10 10 0 0 1-4.866-4.863zm147 1l-26.299-56.678c-2.325-5.01-.148-10.956 4.862-13.28a10 10 0 0 1 7.622-.33l22.864 8.302 22.88-8.294a10 10 0 1 1 12.48 13.607L565.03 75.19c-2.323 5.01-8.268 7.19-13.278 4.867a10 10 0 0 1-4.866-4.863zm-220 25.433l-26.299 56.677c-2.325 5.01-.148 10.956 4.862 13.28a10 10 0 0 0 7.622.33l22.864-8.302 22.88 8.294a10 10 0 1 0 12.48-13.607L345.03 100.63c-2.323-5.01-8.268-7.19-13.278-4.867a10 10 0 0 0-4.866 4.864z" stroke="#0BD291"/><path d="M473.884 100.627l-26.299 56.677c-2.325 5.01-.148 10.956 4.862 13.28a10 10 0 0 0 7.622.33l22.864-8.302 22.88 8.294a10 10 0 1 0 12.48-13.607L492.03 100.63c-2.323-5.01-8.268-7.19-13.278-4.867a10 10 0 0 0-4.866 4.864z" stroke="#20E1A2"/><path d="M399.884 167.194l-26.299-56.678c-2.325-5.01-.148-10.956 4.862-13.28a10 10 0 0 1 7.622-.33l22.864 8.302 22.88-8.294a10 10 0 1 1 12.48 13.607L418.03 167.19c-2.323 5.01-8.268 7.19-13.278 4.867a10 10 0 0 1-4.866-4.863zm147 1l-26.299-56.678c-2.325-5.01-.148-10.956 4.862-13.28a10 10 0 0 1 7.622-.33l22.864 8.302 22.88-8.294a10 10 0 1 1 12.48 13.607L565.03 168.19c-2.323 5.01-8.268 7.19-13.278 4.867a10 10 0 0 1-4.866-4.863zm-220 214.433l-26.299 56.677c-2.325 5.01-.148 10.956 4.862 13.28a10 10 0 0 0 7.622.33l22.864-8.302 22.88 8.294a10 10 0 1 0 12.48-13.607L345.03 382.63c-2.323-5.01-8.268-7.19-13.278-4.867a10 10 0 0 0-4.866 4.864zm147 0l-26.299 56.677c-2.325 5.01-.148 10.956 4.862 13.28a10 10 0 0 0 7.622.33l22.864-8.302 22.88 8.294a10 10 0 1 0 12.48-13.607L492.03 382.63c-2.323-5.01-8.268-7.19-13.278-4.867a10 10 0 0 0-4.866 4.864z" stroke="#0BD291"/><path d="M399.884 449.194l-26.299-56.678c-2.325-5.01-.148-10.956 4.862-13.28a10 10 0 0 1 7.622-.33l22.864 8.302 22.88-8.294a10 10 0 1 1 12.48 13.607L418.03 449.19c-2.323 5.01-8.268 7.19-13.278 4.867a10 10 0 0 1-4.866-4.863z" stroke="#20E1A2"/><path d="M546.884 450.194l-26.299-56.678c-2.325-5.01-.148-10.956 4.862-13.28a10 10 0 0 1 7.622-.33l22.864 8.302 22.88-8.294a10 10 0 1 1 12.48 13.607L565.03 450.19c-2.323 5.01-8.268 7.19-13.278 4.867a10 10 0 0 1-4.866-4.863z" stroke="#0BD291"/><path d="M326.884 475.627l-26.299 56.677c-2.325 5.01-.148 10.956 4.862 13.28a10 10 0 0 0 7.622.33l22.864-8.302 22.88 8.294a10 10 0 1 0 12.48-13.607L345.03 475.63c-2.323-5.01-8.268-7.19-13.278-4.867a10 10 0 0 0-4.866 4.864z" stroke="#20E1A2"/><path d="M473.884 475.627l-26.299 56.677c-2.325 5.01-.148 10.956 4.862 13.28a10 10 0 0 0 7.622.33l22.864-8.302 22.88 8.294a10 10 0 1 0 12.48-13.607L492.03 475.63c-2.323-5.01-8.268-7.19-13.278-4.867a10 10 0 0 0-4.866 4.864z" stroke="#0BD291"/><path d="M399.884 542.194l-26.299-56.678c-2.325-5.01-.148-10.956 4.862-13.28a10 10 0 0 1 7.622-.33l22.864 8.302 22.88-8.294a10 10 0 1 1 12.48 13.607L418.03 542.19c-2.323 5.01-8.268 7.19-13.278 4.867a10 10 0 0 1-4.866-4.863z" stroke="#20E1A2"/><path d="M546.884 543.194l-26.299-56.678c-2.325-5.01-.148-10.956 4.862-13.28a10 10 0 0 1 7.622-.33l22.864 8.302 22.88-8.294a10 10 0 1 1 12.48 13.607L565.03 543.19c-2.323 5.01-8.268 7.19-13.278 4.867a10 10 0 0 1-4.866-4.863z" stroke="#0BD291"/><g opacity=".417"><path d="M28.884 193.627L2.585 250.304c-2.325 5.01-.148 10.956 4.862 13.28a10 10 0 0 0 7.622.33l22.864-8.302 22.88 8.294a10 10 0 1 0 12.48-13.607L47.03 193.63c-2.323-5.01-8.268-7.19-13.278-4.867a10 10 0 0 0-4.866 4.864z" stroke="#0BD291"/><path d="M175.884 193.627l-26.299 56.677c-2.325 5.01-.148 10.956 4.862 13.28a10 10 0 0 0 7.622.33l22.864-8.302 22.88 8.294a10 10 0 1 0 12.48-13.607L194.03 193.63c-2.323-5.01-8.268-7.19-13.278-4.867a10 10 0 0 0-4.866 4.864z" stroke="#20E1A2"/><path d="M101.884 260.194l-26.299-56.678c-2.325-5.01-.148-10.956 4.862-13.28a10 10 0 0 1 7.622-.33l22.864 8.302 22.88-8.294a10 10 0 1 1 12.48 13.607L120.03 260.19c-2.323 5.01-8.268 7.19-13.278 4.867a10 10 0 0 1-4.866-4.863zm147 1l-26.299-56.678c-2.325-5.01-.148-10.956 4.862-13.28a10 10 0 0 1 7.622-.33l22.864 8.302 22.88-8.294a10 10 0 1 1 12.48 13.607L267.03 261.19c-2.323 5.01-8.268 7.19-13.278 4.867a10 10 0 0 1-4.866-4.863zm-220 25.433L2.585 343.304c-2.325 5.01-.148 10.956 4.862 13.28a10 10 0 0 0 7.622.33l22.864-8.302 22.88 8.294a10 10 0 1 0 12.48-13.607L47.03 286.63c-2.323-5.01-8.268-7.19-13.278-4.867a10 10 0 0 0-4.866 4.864z" stroke="#0BD291"/><path d="M175.884 286.627l-26.299 56.677c-2.325 5.01-.148 10.956 4.862 13.28a10 10 0 0 0 7.622.33l22.864-8.302 22.88 8.294a10 10 0 1 0 12.48-13.607L194.03 286.63c-2.323-5.01-8.268-7.19-13.278-4.867a10 10 0 0 0-4.866 4.864z" stroke="#20E1A2"/><path d="M101.884 353.194l-26.299-56.678c-2.325-5.01-.148-10.956 4.862-13.28a10 10 0 0 1 7.622-.33l22.864 8.302 22.88-8.294a10 10 0 1 1 12.48 13.607L120.03 353.19c-2.323 5.01-8.268 7.19-13.278 4.867a10 10 0 0 1-4.866-4.863zm147 1l-26.299-56.678c-2.325-5.01-.148-10.956 4.862-13.28a10 10 0 0 1 7.622-.33l22.864 8.302 22.88-8.294a10 10 0 1 1 12.48 13.607L267.03 354.19c-2.323 5.01-8.268 7.19-13.278 4.867a10 10 0 0 1-4.866-4.863z" stroke="#0BD291"/></g><path d="M28.884 382.627L2.585 439.304c-2.325 5.01-.148 10.956 4.862 13.28a10 10 0 0 0 7.622.33l22.864-8.302 22.88 8.294a10 10 0 1 0 12.48-13.607L47.03 382.63c-2.323-5.01-8.268-7.19-13.278-4.867a10 10 0 0 0-4.866 4.864zm147 0l-26.299 56.677c-2.325 5.01-.148 10.956 4.862 13.28a10 10 0 0 0 7.622.33l22.864-8.302 22.88 8.294a10 10 0 1 0 12.48-13.607L194.03 382.63c-2.323-5.01-8.268-7.19-13.278-4.867a10 10 0 0 0-4.866 4.864zm-74 66.567l-26.299-56.678c-2.325-5.01-.148-10.956 4.862-13.28a10 10 0 0 1 7.622-.33l22.864 8.302 22.88-8.294a10 10 0 1 1 12.48 13.607L120.03 449.19c-2.323 5.01-8.268 7.19-13.278 4.867a10 10 0 0 1-4.866-4.863zm147 1l-26.299-56.678c-2.325-5.01-.148-10.956 4.862-13.28a10 10 0 0 1 7.622-.33l22.864 8.302 22.88-8.294a10 10 0 1 1 12.48 13.607L267.03 450.19c-2.323 5.01-8.268 7.19-13.278 4.867a10 10 0 0 1-4.866-4.863zm-220 25.433L2.585 532.304c-2.325 5.01-.148 10.956 4.862 13.28a10 10 0 0 0 7.622.33l22.864-8.302 22.88 8.294a10 10 0 1 0 12.48-13.607L47.03 475.63c-2.323-5.01-8.268-7.19-13.278-4.867a10 10 0 0 0-4.866 4.864zm147 0l-26.299 56.677c-2.325 5.01-.148 10.956 4.862 13.28a10 10 0 0 0 7.622.33l22.864-8.302 22.88 8.294a10 10 0 1 0 12.48-13.607L194.03 475.63c-2.323-5.01-8.268-7.19-13.278-4.867a10 10 0 0 0-4.866 4.864zm-74 66.567l-26.299-56.678c-2.325-5.01-.148-10.956 4.862-13.28a10 10 0 0 1 7.622-.33l22.864 8.302 22.88-8.294a10 10 0 1 1 12.48 13.607L120.03 542.19c-2.323 5.01-8.268 7.19-13.278 4.867a10 10 0 0 1-4.866-4.863zm147 1l-26.299-56.678c-2.325-5.01-.148-10.956 4.862-13.28a10 10 0 0 1 7.622-.33l22.864 8.302 22.88-8.294a10 10 0 1 1 12.48 13.607L267.03 543.19c-2.323 5.01-8.268 7.19-13.278 4.867a10 10 0 0 1-4.866-4.863z" opacity=".752" stroke="#0BD291"/><path d="M624.884 379.627l-26.299 56.677c-2.325 5.01-.148 10.956 4.862 13.28a10 10 0 0 0 7.622.33l22.864-8.302 22.88 8.294a10 10 0 1 0 12.48-13.607L643.03 379.63c-2.323-5.01-8.268-7.19-13.278-4.867a10 10 0 0 0-4.866 4.864z" stroke="#0BD291"/><path d="M771.884 379.627l-26.299 56.677c-2.325 5.01-.148 10.956 4.862 13.28a10 10 0 0 0 7.622.33l22.864-8.302 22.88 8.294a10 10 0 1 0 12.48-13.607L790.03 379.63c-2.323-5.01-8.268-7.19-13.278-4.867a10 10 0 0 0-4.866 4.864z" stroke="#20E1A2"/><path d="M697.884 446.194l-26.299-56.678c-2.325-5.01-.148-10.956 4.862-13.28a10 10 0 0 1 7.622-.33l22.864 8.302 22.88-8.294a10 10 0 1 1 12.48 13.607L716.03 446.19c-2.323 5.01-8.268 7.19-13.278 4.867a10 10 0 0 1-4.866-4.863z" stroke="#0BD291"/><path d="M844.884 447.194l-26.299-56.678c-2.325-5.01-.148-10.956 4.862-13.28a10 10 0 0 1 7.622-.33l22.864 8.302 22.88-8.294a10 10 0 1 1 12.48 13.607L863.03 447.19c-2.323 5.01-8.268 7.19-13.278 4.867a10 10 0 0 1-4.866-4.863z" stroke="#20E1A2"/><path d="M624.884 472.627l-26.299 56.677c-2.325 5.01-.148 10.956 4.862 13.28a10 10 0 0 0 7.622.33l22.864-8.302 22.88 8.294a10 10 0 1 0 12.48-13.607L643.03 472.63c-2.323-5.01-8.268-7.19-13.278-4.867a10 10 0 0 0-4.866 4.864zm147 0l-26.299 56.677c-2.325 5.01-.148 10.956 4.862 13.28a10 10 0 0 0 7.622.33l22.864-8.302 22.88 8.294a10 10 0 1 0 12.48-13.607L790.03 472.63c-2.323-5.01-8.268-7.19-13.278-4.867a10 10 0 0 0-4.866 4.864zm-74 66.567l-26.299-56.678c-2.325-5.01-.148-10.956 4.862-13.28a10 10 0 0 1 7.622-.33l22.864 8.302 22.88-8.294a10 10 0 1 1 12.48 13.607L716.03 539.19c-2.323 5.01-8.268 7.19-13.278 4.867a10 10 0 0 1-4.866-4.863zm147 1l-26.299-56.678c-2.325-5.01-.148-10.956 4.862-13.28a10 10 0 0 1 7.622-.33l22.864 8.302 22.88-8.294a10 10 0 1 1 12.48 13.607L863.03 540.19c-2.323 5.01-8.268 7.19-13.278 4.867a10 10 0 0 1-4.866-4.863z" stroke="#0BD291"/></g></svg>