<?xml version="1.0" encoding="UTF-8"?>
<svg width="754px" height="572px" viewBox="0 0 754 572" version="1.1" xmlns="http://www.w3.org/2000/svg" xmlns:xlink="http://www.w3.org/1999/xlink">
    <!-- Generator: Sketch 52.5 (67469) - http://www.bohemiancoding.com/sketch -->
    <title>Group 15</title>
    <desc>Created with Sketch.</desc>
    <g id="Page-1" stroke="none" stroke-width="1" fill="none" fill-rule="evenodd">
        <g id="8" transform="translate(-466.000000, -120.000000)" stroke-width="2">
            <g id="Group-16" transform="translate(60.000000, 95.000000)">
                <g id="Group-15" transform="translate(406.000000, 25.000000)">
                    <g id="Group-10" transform="translate(405.000000, 0.000000)">
                        <g id="Group-9" stroke="#0BD291">
                            <g id="Group-7">
                                <g id="Group-8" transform="translate(0.000000, 148.000000)">
                                    <path d="M1,69 L1,132 L70,132 L70,81.5252401 L29.9959382,80.7733169 L22.56459,69 L1,69 Z" id="Rectangle" opacity="0.494582403"></path>
                                    <path d="M1,1 L1,64 L70,64 L70,13.5252401 L29.9959382,12.7733169 L22.56459,1 L1,1 Z" id="Rectangle-Copy" transform="translate(35.500000, 32.500000) scale(-1, -1) translate(-35.500000, -32.500000) "></path>
                                </g>
                                <g id="Group-8-Copy">
                                    <path d="M1,69 L1,132 L70,132 L70,81.5252401 L29.9959382,80.7733169 L22.56459,69 L1,69 Z" id="Rectangle"></path>
                                    <path d="M1,1 L1,64 L70,64 L70,13.5252401 L29.9959382,12.7733169 L22.56459,1 L1,1 Z" id="Rectangle-Copy" transform="translate(35.500000, 32.500000) scale(-1, -1) translate(-35.500000, -32.500000) "></path>
                                </g>
                            </g>
                            <g id="Group-7-Copy" transform="translate(0.000000, 148.000000)" opacity="0.494582403">
                                <path d="M1,1 L1,64 L70,64 L70,13.5252401 L29.9959382,12.7733169 L22.56459,1 L1,1 Z" id="Rectangle-Copy" transform="translate(35.500000, 32.500000) scale(-1, -1) translate(-35.500000, -32.500000) "></path>
                            </g>
                        </g>
                        <g id="Group-9-Copy" transform="translate(0.000000, 291.000000)">
                            <g id="Group-7" stroke="#0BD291">
                                <g id="Group-8" transform="translate(0.000000, 148.000000)">
                                    <path d="M1,69 L1,132 L70,132 L70,81.5252401 L29.9959382,80.7733169 L22.56459,69 L1,69 Z" id="Rectangle"></path>
                                    <path d="M1,1 L1,64 L70,64 L70,13.5252401 L29.9959382,12.7733169 L22.56459,1 L1,1 Z" id="Rectangle-Copy" transform="translate(35.500000, 32.500000) scale(-1, -1) translate(-35.500000, -32.500000) "></path>
                                </g>
                                <g id="Group-8-Copy">
                                    <path d="M1,69 L1,132 L70,132 L70,81.5252401 L29.9959382,80.7733169 L22.56459,69 L1,69 Z" id="Rectangle"></path>
                                    <path d="M1,1 L1,64 L70,64 L70,13.5252401 L29.9959382,12.7733169 L22.56459,1 L1,1 Z" id="Rectangle-Copy" transform="translate(35.500000, 32.500000) scale(-1, -1) translate(-35.500000, -32.500000) "></path>
                                </g>
                            </g>
                            <g id="Group-7-Copy" transform="translate(0.000000, 148.000000)" stroke="#20E1A2">
                                <path d="M1,1 L1,64 L70,64 L70,13.5252401 L29.9959382,12.7733169 L22.56459,1 L1,1 Z" id="Rectangle-Copy" transform="translate(35.500000, 32.500000) scale(-1, -1) translate(-35.500000, -32.500000) "></path>
                            </g>
                        </g>
                    </g>
                    <g id="Group-10-Copy-5" transform="translate(359.500000, 286.000000) scale(1, -1) translate(-359.500000, -286.000000) translate(324.000000, 0.000000)">
                        <g id="Group-9">
                            <g id="Group-7">
                                <g id="Group-8" transform="translate(0.000000, 148.000000)">
                                    <path d="M1,69 L1,132 L70,132 L70,81.5252401 L29.9959382,80.7733169 L22.56459,69 L1,69 Z" id="Rectangle" stroke="#20E1A2"></path>
                                    <path d="M1,1 L1,64 L70,64 L70,13.5252401 L29.9959382,12.7733169 L22.56459,1 L1,1 Z" id="Rectangle-Copy" stroke="#0BD291" transform="translate(35.500000, 32.500000) scale(-1, -1) translate(-35.500000, -32.500000) "></path>
                                </g>
                                <g id="Group-8-Copy" opacity="0.444638207" stroke="#0BD291">
                                    <path d="M1,69 L1,132 L70,132 L70,81.5252401 L29.9959382,80.7733169 L22.56459,69 L1,69 Z" id="Rectangle"></path>
                                    <path d="M1,1 L1,64 L70,64 L70,13.5252401 L29.9959382,12.7733169 L22.56459,1 L1,1 Z" id="Rectangle-Copy" transform="translate(35.500000, 32.500000) scale(-1, -1) translate(-35.500000, -32.500000) "></path>
                                </g>
                            </g>
                            <g id="Group-7-Copy" transform="translate(0.000000, 148.000000)" stroke="#0BD291">
                                <path d="M1,1 L1,64 L70,64 L70,13.5252401 L29.9959382,12.7733169 L22.56459,1 L1,1 Z" id="Rectangle-Copy" transform="translate(35.500000, 32.500000) scale(-1, -1) translate(-35.500000, -32.500000) "></path>
                            </g>
                        </g>
                        <g id="Group-9-Copy" transform="translate(0.000000, 291.000000)">
                            <g id="Group-7" stroke="#0BD291">
                                <g id="Group-8" transform="translate(0.000000, 148.000000)">
                                    <path d="M1,69 L1,132 L70,132 L70,81.5252401 L29.9959382,80.7733169 L22.56459,69 L1,69 Z" id="Rectangle"></path>
                                    <path d="M1,1 L1,64 L70,64 L70,13.5252401 L29.9959382,12.7733169 L22.56459,1 L1,1 Z" id="Rectangle-Copy" transform="translate(35.500000, 32.500000) scale(-1, -1) translate(-35.500000, -32.500000) "></path>
                                </g>
                                <g id="Group-8-Copy">
                                    <path d="M1,69 L1,132 L70,132 L70,81.5252401 L29.9959382,80.7733169 L22.56459,69 L1,69 Z" id="Rectangle" opacity="0.494582403"></path>
                                    <path d="M1,1 L1,64 L70,64 L70,13.5252401 L29.9959382,12.7733169 L22.56459,1 L1,1 Z" id="Rectangle-Copy" transform="translate(35.500000, 32.500000) scale(-1, -1) translate(-35.500000, -32.500000) "></path>
                                </g>
                            </g>
                            <g id="Group-7-Copy" transform="translate(0.000000, 148.000000)" stroke="#20E1A2">
                                <path d="M1,1 L1,64 L70,64 L70,13.5252401 L29.9959382,12.7733169 L22.56459,1 L1,1 Z" id="Rectangle-Copy" transform="translate(35.500000, 32.500000) scale(-1, -1) translate(-35.500000, -32.500000) "></path>
                            </g>
                        </g>
                    </g>
                    <g id="Group-10-Copy-6" transform="translate(243.000000, 0.000000)">
                        <g id="Group-9">
                            <g id="Group-7">
                                <g id="Group-8" transform="translate(0.000000, 148.000000)" stroke="#0BD291">
                                    <path d="M1,69 L1,132 L70,132 L70,81.5252401 L29.9959382,80.7733169 L22.56459,69 L1,69 Z" id="Rectangle"></path>
                                    <path d="M1,1 L1,64 L70,64 L70,13.5252401 L29.9959382,12.7733169 L22.56459,1 L1,1 Z" id="Rectangle-Copy" transform="translate(35.500000, 32.500000) scale(-1, -1) translate(-35.500000, -32.500000) "></path>
                                </g>
                                <g id="Group-8-Copy">
                                    <path d="M1,69 L1,132 L70,132 L70,81.5252401 L29.9959382,80.7733169 L22.56459,69 L1,69 Z" id="Rectangle" stroke="#0BD291"></path>
                                    <path d="M1,1 L1,64 L70,64 L70,13.5252401 L29.9959382,12.7733169 L22.56459,1 L1,1 Z" id="Rectangle-Copy" stroke="#20E1A2" transform="translate(35.500000, 32.500000) scale(-1, -1) translate(-35.500000, -32.500000) "></path>
                                </g>
                            </g>
                            <g id="Group-7-Copy" transform="translate(0.000000, 148.000000)" stroke="#0BD291">
                                <path d="M1,1 L1,64 L70,64 L70,13.5252401 L29.9959382,12.7733169 L22.56459,1 L1,1 Z" id="Rectangle-Copy" transform="translate(35.500000, 32.500000) scale(-1, -1) translate(-35.500000, -32.500000) "></path>
                            </g>
                        </g>
                        <g id="Group-9-Copy" transform="translate(0.000000, 291.000000)">
                            <g id="Group-7">
                                <g id="Group-8" transform="translate(0.000000, 148.000000)" stroke="#0BD291">
                                    <path d="M1,69 L1,132 L70,132 L70,81.5252401 L29.9959382,80.7733169 L22.56459,69 L1,69 Z" id="Rectangle"></path>
                                    <path d="M1,1 L1,64 L70,64 L70,13.5252401 L29.9959382,12.7733169 L22.56459,1 L1,1 Z" id="Rectangle-Copy" transform="translate(35.500000, 32.500000) scale(-1, -1) translate(-35.500000, -32.500000) "></path>
                                </g>
                                <g id="Group-8-Copy">
                                    <path d="M1,69 L1,132 L70,132 L70,81.5252401 L29.9959382,80.7733169 L22.56459,69 L1,69 Z" id="Rectangle" stroke="#0BD291"></path>
                                    <path d="M1,1 L1,64 L70,64 L70,13.5252401 L29.9959382,12.7733169 L22.56459,1 L1,1 Z" id="Rectangle-Copy" stroke="#20E1A2" transform="translate(35.500000, 32.500000) scale(-1, -1) translate(-35.500000, -32.500000) "></path>
                                </g>
                            </g>
                            <g id="Group-7-Copy" transform="translate(0.000000, 148.000000)" stroke="#0BD291">
                                <path d="M1,1 L1,64 L70,64 L70,13.5252401 L29.9959382,12.7733169 L22.56459,1 L1,1 Z" id="Rectangle-Copy" transform="translate(35.500000, 32.500000) scale(-1, -1) translate(-35.500000, -32.500000) "></path>
                            </g>
                        </g>
                    </g>
                    <g id="Group-10-Copy-7" transform="translate(197.500000, 286.000000) scale(1, -1) translate(-197.500000, -286.000000) translate(162.000000, 0.000000)">
                        <g id="Group-9">
                            <g id="Group-7">
                                <g id="Group-8" transform="translate(0.000000, 216.000000)" stroke="#0BD291">
                                    <path d="M1,1 L1,64 L70,64 L70,13.5252401 L29.9959382,12.7733169 L22.56459,1 L1,1 Z" id="Rectangle"></path>
                                </g>
                                <g id="Group-8-Copy">
                                    <path d="M1,69 L1,132 L70,132 L70,81.5252401 L29.9959382,80.7733169 L22.56459,69 L1,69 Z" id="Rectangle" stroke="#20E1A2"></path>
                                    <path d="M1,1 L1,64 L70,64 L70,13.5252401 L29.9959382,12.7733169 L22.56459,1 L1,1 Z" id="Rectangle-Copy" stroke="#0BD291" transform="translate(35.500000, 32.500000) scale(-1, -1) translate(-35.500000, -32.500000) "></path>
                                </g>
                            </g>
                        </g>
                        <g id="Group-9-Copy" transform="translate(0.000000, 291.000000)">
                            <g id="Group-7">
                                <g id="Group-8" transform="translate(0.000000, 148.000000)" stroke="#0BD291">
                                    <path d="M1,69 L1,132 L70,132 L70,81.5252401 L29.9959382,80.7733169 L22.56459,69 L1,69 Z" id="Rectangle"></path>
                                    <path d="M1,1 L1,64 L70,64 L70,13.5252401 L29.9959382,12.7733169 L22.56459,1 L1,1 Z" id="Rectangle-Copy" transform="translate(35.500000, 32.500000) scale(-1, -1) translate(-35.500000, -32.500000) "></path>
                                </g>
                                <g id="Group-8-Copy">
                                    <path d="M1,69 L1,132 L70,132 L70,81.5252401 L29.9959382,80.7733169 L22.56459,69 L1,69 Z" id="Rectangle" stroke="#0BD291"></path>
                                    <path d="M1,1 L1,64 L70,64 L70,13.5252401 L29.9959382,12.7733169 L22.56459,1 L1,1 Z" id="Rectangle-Copy" stroke="#20E1A2" transform="translate(35.500000, 32.500000) scale(-1, -1) translate(-35.500000, -32.500000) "></path>
                                </g>
                            </g>
                            <g id="Group-7-Copy" transform="translate(0.000000, 148.000000)" stroke="#0BD291">
                                <path d="M1,1 L1,64 L70,64 L70,13.5252401 L29.9959382,12.7733169 L22.56459,1 L1,1 Z" id="Rectangle-Copy" transform="translate(35.500000, 32.500000) scale(-1, -1) translate(-35.500000, -32.500000) "></path>
                            </g>
                        </g>
                    </g>
                    <g id="Group-10-Copy-8" transform="translate(81.000000, 0.000000)">
                        <g id="Group-9" stroke="#0BD291">
                            <g id="Group-7">
                                <g id="Group-8" transform="translate(0.000000, 216.000000)">
                                    <path d="M1,1 L1,64 L70,64 L70,13.5252401 L29.9959382,12.7733169 L22.56459,1 L1,1 Z" id="Rectangle"></path>
                                </g>
                                <g id="Group-8-Copy">
                                    <path d="M1,1 L1,64 L70,64 L70,13.5252401 L29.9959382,12.7733169 L22.56459,1 L1,1 Z" id="Rectangle-Copy" transform="translate(35.500000, 32.500000) scale(-1, -1) translate(-35.500000, -32.500000) "></path>
                                </g>
                            </g>
                        </g>
                        <g id="Group-9-Copy" transform="translate(0.000000, 359.000000)">
                            <g id="Group-7">
                                <g id="Group-8" transform="translate(0.000000, 148.000000)" stroke="#20E1A2">
                                    <path d="M1,1 L1,64 L70,64 L70,13.5252401 L29.9959382,12.7733169 L22.56459,1 L1,1 Z" id="Rectangle"></path>
                                </g>
                                <g id="Group-8-Copy" stroke="#0BD291">
                                    <path d="M1,1 L1,64 L70,64 L70,13.5252401 L29.9959382,12.7733169 L22.56459,1 L1,1 Z" id="Rectangle"></path>
                                </g>
                            </g>
                        </g>
                    </g>
                    <g id="Group-10-Copy-9" transform="translate(35.500000, 505.500000) scale(1, -1) translate(-35.500000, -505.500000) translate(0.000000, 439.000000)" stroke="#0BD291">
                        <g id="Group-9">
                            <g id="Group-7">
                                <g id="Group-8-Copy">
                                    <path d="M1,69 L1,132 L70,132 L70,81.5252401 L29.9959382,80.7733169 L22.56459,69 L1,69 Z" id="Rectangle"></path>
                                    <path d="M1,1 L1,64 L70,64 L70,13.5252401 L29.9959382,12.7733169 L22.56459,1 L1,1 Z" id="Rectangle-Copy" transform="translate(35.500000, 32.500000) scale(-1, -1) translate(-35.500000, -32.500000) "></path>
                                </g>
                            </g>
                        </g>
                    </g>
                    <g id="Group-10-Copy" transform="translate(521.500000, 286.000000) scale(1, -1) translate(-521.500000, -286.000000) translate(486.000000, 0.000000)">
                        <g id="Group-9">
                            <g id="Group-7" stroke="#0BD291">
                                <g id="Group-8" transform="translate(0.000000, 148.000000)">
                                    <path d="M1,69 L1,132 L70,132 L70,81.5252401 L29.9959382,80.7733169 L22.56459,69 L1,69 Z" id="Rectangle"></path>
                                    <path d="M1,1 L1,64 L70,64 L70,13.5252401 L29.9959382,12.7733169 L22.56459,1 L1,1 Z" id="Rectangle-Copy" transform="translate(35.500000, 32.500000) scale(-1, -1) translate(-35.500000, -32.500000) "></path>
                                </g>
                                <g id="Group-8-Copy">
                                    <path d="M1,69 L1,132 L70,132 L70,81.5252401 L29.9959382,80.7733169 L22.56459,69 L1,69 Z" id="Rectangle" opacity="0.444638207"></path>
                                    <path d="M1,1 L1,64 L70,64 L70,13.5252401 L29.9959382,12.7733169 L22.56459,1 L1,1 Z" id="Rectangle-Copy" transform="translate(35.500000, 32.500000) scale(-1, -1) translate(-35.500000, -32.500000) "></path>
                                </g>
                            </g>
                            <g id="Group-7-Copy" transform="translate(0.000000, 148.000000)" stroke="#20E1A2">
                                <path d="M1,1 L1,64 L70,64 L70,13.5252401 L29.9959382,12.7733169 L22.56459,1 L1,1 Z" id="Rectangle-Copy" transform="translate(35.500000, 32.500000) scale(-1, -1) translate(-35.500000, -32.500000) "></path>
                            </g>
                        </g>
                        <g id="Group-9-Copy" transform="translate(0.000000, 291.000000)" stroke="#0BD291">
                            <g id="Group-7">
                                <g id="Group-8" transform="translate(0.000000, 148.000000)">
                                    <path d="M1,69 L1,132 L70,132 L70,81.5252401 L29.9959382,80.7733169 L22.56459,69 L1,69 Z" id="Rectangle"></path>
                                    <path d="M1,1 L1,64 L70,64 L70,13.5252401 L29.9959382,12.7733169 L22.56459,1 L1,1 Z" id="Rectangle-Copy" transform="translate(35.500000, 32.500000) scale(-1, -1) translate(-35.500000, -32.500000) "></path>
                                </g>
                                <g id="Group-8-Copy">
                                    <path d="M1,69 L1,132 L70,132 L70,81.5252401 L29.9959382,80.7733169 L22.56459,69 L1,69 Z" id="Rectangle"></path>
                                    <path d="M1,1 L1,64 L70,64 L70,13.5252401 L29.9959382,12.7733169 L22.56459,1 L1,1 Z" id="Rectangle-Copy" transform="translate(35.500000, 32.500000) scale(-1, -1) translate(-35.500000, -32.500000) "></path>
                                </g>
                            </g>
                            <g id="Group-7-Copy" transform="translate(0.000000, 148.000000)">
                                <path d="M1,1 L1,64 L70,64 L70,13.5252401 L29.9959382,12.7733169 L22.56459,1 L1,1 Z" id="Rectangle-Copy" transform="translate(35.500000, 32.500000) scale(-1, -1) translate(-35.500000, -32.500000) "></path>
                            </g>
                        </g>
                    </g>
                    <g id="Group-10-Copy-2" transform="translate(567.000000, 0.000000)">
                        <g id="Group-9">
                            <g id="Group-7">
                                <g id="Group-8" transform="translate(0.000000, 148.000000)" stroke="#0BD291">
                                    <path d="M1,69 L1,132 L70,132 L70,81.5252401 L29.9959382,80.7733169 L22.56459,69 L1,69 Z" id="Rectangle"></path>
                                    <path d="M1,1 L1,64 L70,64 L70,13.5252401 L29.9959382,12.7733169 L22.56459,1 L1,1 Z" id="Rectangle-Copy" transform="translate(35.500000, 32.500000) scale(-1, -1) translate(-35.500000, -32.500000) "></path>
                                </g>
                                <g id="Group-8-Copy">
                                    <path d="M1,69 L1,132 L70,132 L70,81.5252401 L29.9959382,80.7733169 L22.56459,69 L1,69 Z" id="Rectangle" stroke="#0BD291"></path>
                                    <path d="M1,1 L1,64 L70,64 L70,13.5252401 L29.9959382,12.7733169 L22.56459,1 L1,1 Z" id="Rectangle-Copy" stroke="#20E1A2" transform="translate(35.500000, 32.500000) scale(-1, -1) translate(-35.500000, -32.500000) "></path>
                                </g>
                            </g>
                            <g id="Group-7-Copy" transform="translate(0.000000, 148.000000)" stroke="#0BD291">
                                <path d="M1,1 L1,64 L70,64 L70,13.5252401 L29.9959382,12.7733169 L22.56459,1 L1,1 Z" id="Rectangle-Copy" transform="translate(35.500000, 32.500000) scale(-1, -1) translate(-35.500000, -32.500000) "></path>
                            </g>
                        </g>
                        <g id="Group-9-Copy" transform="translate(0.000000, 291.000000)">
                            <g id="Group-7">
                                <g id="Group-8" transform="translate(0.000000, 148.000000)" stroke="#0BD291">
                                    <path d="M1,69 L1,132 L70,132 L70,81.5252401 L29.9959382,80.7733169 L22.56459,69 L1,69 Z" id="Rectangle"></path>
                                    <path d="M1,1 L1,64 L70,64 L70,13.5252401 L29.9959382,12.7733169 L22.56459,1 L1,1 Z" id="Rectangle-Copy" transform="translate(35.500000, 32.500000) scale(-1, -1) translate(-35.500000, -32.500000) "></path>
                                </g>
                                <g id="Group-8-Copy">
                                    <path d="M1,69 L1,132 L70,132 L70,81.5252401 L29.9959382,80.7733169 L22.56459,69 L1,69 Z" id="Rectangle" stroke="#0BD291"></path>
                                    <path d="M1,1 L1,64 L70,64 L70,13.5252401 L29.9959382,12.7733169 L22.56459,1 L1,1 Z" id="Rectangle-Copy" stroke="#20E1A2" transform="translate(35.500000, 32.500000) scale(-1, -1) translate(-35.500000, -32.500000) "></path>
                                </g>
                            </g>
                            <g id="Group-7-Copy" transform="translate(0.000000, 148.000000)" stroke="#0BD291">
                                <path d="M1,1 L1,64 L70,64 L70,13.5252401 L29.9959382,12.7733169 L22.56459,1 L1,1 Z" id="Rectangle-Copy" transform="translate(35.500000, 32.500000) scale(-1, -1) translate(-35.500000, -32.500000) "></path>
                            </g>
                        </g>
                    </g>
                    <g id="Group-10-Copy-3" transform="translate(683.500000, 286.000000) scale(1, -1) translate(-683.500000, -286.000000) translate(648.000000, 0.000000)">
                        <g id="Group-9">
                            <g id="Group-7">
                                <g id="Group-8" transform="translate(0.000000, 148.000000)" stroke="#0BD291">
                                    <path d="M1,69 L1,132 L70,132 L70,81.5252401 L29.9959382,80.7733169 L22.56459,69 L1,69 Z" id="Rectangle"></path>
                                    <path d="M1,1 L1,64 L70,64 L70,13.5252401 L29.9959382,12.7733169 L22.56459,1 L1,1 Z" id="Rectangle-Copy" transform="translate(35.500000, 32.500000) scale(-1, -1) translate(-35.500000, -32.500000) "></path>
                                </g>
                                <g id="Group-8-Copy">
                                    <path d="M1,69 L1,132 L70,132 L70,81.5252401 L29.9959382,80.7733169 L22.56459,69 L1,69 Z" id="Rectangle" stroke="#0BD291"></path>
                                    <path d="M1,1 L1,64 L70,64 L70,13.5252401 L29.9959382,12.7733169 L22.56459,1 L1,1 Z" id="Rectangle-Copy" stroke="#20E1A2" transform="translate(35.500000, 32.500000) scale(-1, -1) translate(-35.500000, -32.500000) "></path>
                                </g>
                            </g>
                            <g id="Group-7-Copy" transform="translate(0.000000, 148.000000)" stroke="#0BD291">
                                <path d="M1,1 L1,64 L70,64 L70,13.5252401 L29.9959382,12.7733169 L22.56459,1 L1,1 Z" id="Rectangle-Copy" transform="translate(35.500000, 32.500000) scale(-1, -1) translate(-35.500000, -32.500000) "></path>
                            </g>
                        </g>
                        <g id="Group-9-Copy" transform="translate(0.000000, 291.000000)">
                            <g id="Group-7">
                                <g id="Group-8" transform="translate(0.000000, 148.000000)">
                                    <path d="M1,69 L1,132 L70,132 L70,81.5252401 L29.9959382,80.7733169 L22.56459,69 L1,69 Z" id="Rectangle" stroke="#20E1A2"></path>
                                    <path d="M1,1 L1,64 L70,64 L70,13.5252401 L29.9959382,12.7733169 L22.56459,1 L1,1 Z" id="Rectangle-Copy" stroke="#0BD291" transform="translate(35.500000, 32.500000) scale(-1, -1) translate(-35.500000, -32.500000) "></path>
                                </g>
                                <g id="Group-8-Copy" stroke="#0BD291">
                                    <path d="M1,69 L1,132 L70,132 L70,81.5252401 L29.9959382,80.7733169 L22.56459,69 L1,69 Z" id="Rectangle"></path>
                                    <path d="M1,1 L1,64 L70,64 L70,13.5252401 L29.9959382,12.7733169 L22.56459,1 L1,1 Z" id="Rectangle-Copy" transform="translate(35.500000, 32.500000) scale(-1, -1) translate(-35.500000, -32.500000) "></path>
                                </g>
                            </g>
                            <g id="Group-7-Copy" transform="translate(0.000000, 148.000000)" stroke="#0BD291">
                                <path d="M1,1 L1,64 L70,64 L70,13.5252401 L29.9959382,12.7733169 L22.56459,1 L1,1 Z" id="Rectangle-Copy" transform="translate(35.500000, 32.500000) scale(-1, -1) translate(-35.500000, -32.500000) "></path>
                            </g>
                        </g>
                    </g>
                    <g id="Group-10-Copy-4" transform="translate(729.000000, 0.000000)">
                        <g id="Group-9">
                            <g id="Group-7">
                                <g id="Group-8" transform="translate(0.000000, 148.000000)" stroke="#0BD291">
                                    <path d="M1,69 L1,132 L70,132 L70,81.5252401 L29.9959382,80.7733169 L22.56459,69 L1,69 Z" id="Rectangle"></path>
                                    <path d="M1,1 L1,64 L70,64 L70,13.5252401 L29.9959382,12.7733169 L22.56459,1 L1,1 Z" id="Rectangle-Copy" transform="translate(35.500000, 32.500000) scale(-1, -1) translate(-35.500000, -32.500000) "></path>
                                </g>
                                <g id="Group-8-Copy">
                                    <path d="M1,69 L1,132 L70,132 L70,81.5252401 L29.9959382,80.7733169 L22.56459,69 L1,69 Z" id="Rectangle" stroke="#0BD291"></path>
                                    <path d="M1,1 L1,64 L70,64 L70,13.5252401 L29.9959382,12.7733169 L22.56459,1 L1,1 Z" id="Rectangle-Copy" stroke="#20E1A2" transform="translate(35.500000, 32.500000) scale(-1, -1) translate(-35.500000, -32.500000) "></path>
                                </g>
                            </g>
                            <g id="Group-7-Copy" transform="translate(0.000000, 148.000000)" stroke="#0BD291">
                                <path d="M1,1 L1,64 L70,64 L70,13.5252401 L29.9959382,12.7733169 L22.56459,1 L1,1 Z" id="Rectangle-Copy" transform="translate(35.500000, 32.500000) scale(-1, -1) translate(-35.500000, -32.500000) "></path>
                            </g>
                        </g>
                        <g id="Group-9-Copy" transform="translate(0.000000, 291.000000)" stroke="#0BD291">
                            <g id="Group-7">
                                <g id="Group-8" transform="translate(0.000000, 148.000000)">
                                    <path d="M1,69 L1,132 L70,132 L70,81.5252401 L29.9959382,80.7733169 L22.56459,69 L1,69 Z" id="Rectangle"></path>
                                    <path d="M1,1 L1,64 L70,64 L70,13.5252401 L29.9959382,12.7733169 L22.56459,1 L1,1 Z" id="Rectangle-Copy" transform="translate(35.500000, 32.500000) scale(-1, -1) translate(-35.500000, -32.500000) "></path>
                                </g>
                                <g id="Group-8-Copy">
                                    <path d="M1,69 L1,132 L70,132 L70,81.5252401 L29.9959382,80.7733169 L22.56459,69 L1,69 Z" id="Rectangle"></path>
                                    <path d="M1,1 L1,64 L70,64 L70,13.5252401 L29.9959382,12.7733169 L22.56459,1 L1,1 Z" id="Rectangle-Copy" transform="translate(35.500000, 32.500000) scale(-1, -1) translate(-35.500000, -32.500000) "></path>
                                </g>
                            </g>
                            <g id="Group-7-Copy" transform="translate(0.000000, 148.000000)">
                                <path d="M1,1 L1,64 L70,64 L70,13.5252401 L29.9959382,12.7733169 L22.56459,1 L1,1 Z" id="Rectangle-Copy" transform="translate(35.500000, 32.500000) scale(-1, -1) translate(-35.500000, -32.500000) "></path>
                            </g>
                        </g>
                    </g>
                </g>
            </g>
        </g>
    </g>
</svg>