<svg width="754" height="572" xmlns="http://www.w3.org/2000/svg"><g stroke-width="2" fill="none" fill-rule="evenodd"><g stroke="#0BD291"><path d="M406 217v63h69v-50.475l-40.004-.752L427.565 217H406z" opacity=".495"/><path d="M475 212v-63h-69v50.475l40.004.752L453.435 212H475zM406 69v63h69V81.525l-40.004-.752L427.565 69H406zm69-5V1h-69v50.475l40.004.752L453.435 64H475z"/><path d="M475 212v-63h-69v50.475l40.004.752L453.435 212H475z" opacity=".495"/></g><path d="M406 508v63h69v-50.475l-40.004-.752L427.565 508H406zm69-5v-63h-69v50.475l40.004.752L453.435 503H475zm-69-143v63h69v-50.475l-40.004-.752L427.565 360H406zm69-5v-63h-69v50.475l40.004.752L453.435 355H475z" stroke="#0BD291"/><path d="M475 503v-63h-69v50.475l40.004.752L453.435 503H475zM325 355v-63h69v50.475l-40.004.752L346.565 355H325z" stroke="#20E1A2"/><path d="M394 360v63h-69v-50.475l40.004-.752L372.435 360H394z" stroke="#0BD291"/><path d="M325 503v-63h69v50.475l-40.004.752L346.565 503H325zm69 5v63h-69v-50.475l40.004-.752L372.435 508H394z" opacity=".445" stroke="#0BD291"/><path d="M394 360v63h-69v-50.475l40.004-.752L372.435 360H394z" stroke="#0BD291"/><g stroke="#0BD291"><path d="M325 64V1h69v50.475l-40.004.752L346.565 64H325zm69 5v63h-69V81.525l40.004-.752L372.435 69H394z"/><path d="M325 212v-63h69v50.475l-40.004.752L346.565 212H325z" opacity=".495"/><path d="M394 217v63h-69v-50.475l40.004-.752L372.435 217H394z"/></g><path d="M394 69v63h-69V81.525l40.004-.752L372.435 69H394z" stroke="#20E1A2"/><path d="M244 217v63h69v-50.475l-40.004-.752L265.565 217H244zm69-5v-63h-69v50.475l40.004.752L291.435 212H313zM244 69v63h69V81.525l-40.004-.752L265.565 69H244z" stroke="#0BD291"/><path d="M313 64V1h-69v50.475l40.004.752L291.435 64H313z" stroke="#20E1A2"/><path d="M313 212v-63h-69v50.475l40.004.752L291.435 212H313zm-69 296v63h69v-50.475l-40.004-.752L265.565 508H244zm69-5v-63h-69v50.475l40.004.752L291.435 503H313zm-69-143v63h69v-50.475l-40.004-.752L265.565 360H244z" stroke="#0BD291"/><path d="M313 355v-63h-69v50.475l40.004.752L291.435 355H313z" stroke="#20E1A2"/><path d="M313 503v-63h-69v50.475l40.004.752L291.435 503H313zM163 355v-63h69v50.475l-40.004.752L184.565 355H163z" stroke="#0BD291"/><path d="M163 503v-63h69v50.475l-40.004.752L184.565 503H163z" stroke="#20E1A2"/><path d="M232 508v63h-69v-50.475l40.004-.752L210.435 508H232zM163 64V1h69v50.475l-40.004.752L184.565 64H163zm69 5v63h-69V81.525l40.004-.752L210.435 69H232zm-69 143v-63h69v50.475l-40.004.752L184.565 212H163z" stroke="#0BD291"/><path d="M232 217v63h-69v-50.475l40.004-.752L210.435 217H232z" stroke="#20E1A2"/><path d="M232 69v63h-69V81.525l40.004-.752L210.435 69H232zM82 217v63h69v-50.475l-40.004-.752L103.565 217H82zm69-153V1H82v50.475l40.004.752L129.435 64H151z" stroke="#0BD291"/><path d="M82 508v63h69v-50.475l-40.004-.752L103.565 508H82z" stroke="#20E1A2"/><path d="M82 360v63h69v-50.475l-40.004-.752L103.565 360H82zM1 503v-63h69v50.475l-40.004.752L22.565 503H1zm69 5v63H1v-50.475l40.004-.752L48.435 508H70z" stroke="#0BD291"/><g stroke="#0BD291"><path d="M487 355v-63h69v50.475l-40.004.752L508.565 355H487zm69 5v63h-69v-50.475l40.004-.752L534.435 360H556z"/><path d="M487 503v-63h69v50.475l-40.004.752L508.565 503H487z" opacity=".445"/><path d="M556 508v63h-69v-50.475l40.004-.752L534.435 508H556z"/></g><path d="M556 360v63h-69v-50.475l40.004-.752L534.435 360H556z" stroke="#20E1A2"/><g stroke="#0BD291"><path d="M487 64V1h69v50.475l-40.004.752L508.565 64H487zm69 5v63h-69V81.525l40.004-.752L534.435 69H556zm-69 143v-63h69v50.475l-40.004.752L508.565 212H487zm69 5v63h-69v-50.475l40.004-.752L534.435 217H556z"/><path d="M556 69v63h-69V81.525l40.004-.752L534.435 69H556z"/></g><path d="M568 217v63h69v-50.475l-40.004-.752L589.565 217H568zm69-5v-63h-69v50.475l40.004.752L615.435 212H637zM568 69v63h69V81.525l-40.004-.752L589.565 69H568z" stroke="#0BD291"/><path d="M637 64V1h-69v50.475l40.004.752L615.435 64H637z" stroke="#20E1A2"/><path d="M637 212v-63h-69v50.475l40.004.752L615.435 212H637zm-69 296v63h69v-50.475l-40.004-.752L589.565 508H568zm69-5v-63h-69v50.475l40.004.752L615.435 503H637zm-69-143v63h69v-50.475l-40.004-.752L589.565 360H568z" stroke="#0BD291"/><path d="M637 355v-63h-69v50.475l40.004.752L615.435 355H637z" stroke="#20E1A2"/><path d="M637 503v-63h-69v50.475l40.004.752L615.435 503H637zm12-148v-63h69v50.475l-40.004.752L670.565 355H649zm69 5v63h-69v-50.475l40.004-.752L696.435 360H718zm-69 143v-63h69v50.475l-40.004.752L670.565 503H649z" stroke="#0BD291"/><path d="M718 508v63h-69v-50.475l40.004-.752L696.435 508H718z" stroke="#20E1A2"/><path d="M718 360v63h-69v-50.475l40.004-.752L696.435 360H718z" stroke="#0BD291"/><path d="M649 64V1h69v50.475l-40.004.752L670.565 64H649z" stroke="#20E1A2"/><path d="M718 69v63h-69V81.525l40.004-.752L696.435 69H718zm-69 143v-63h69v50.475l-40.004.752L670.565 212H649zm69 5v63h-69v-50.475l40.004-.752L696.435 217H718z" stroke="#0BD291"/><path d="M718 69v63h-69V81.525l40.004-.752L696.435 69H718zm12 148v63h69v-50.475l-40.004-.752L751.565 217H730zm69-5v-63h-69v50.475l40.004.752L777.435 212H799zM730 69v63h69V81.525l-40.004-.752L751.565 69H730z" stroke="#0BD291"/><path d="M799 64V1h-69v50.475l40.004.752L777.435 64H799z" stroke="#20E1A2"/><path d="M799 212v-63h-69v50.475l40.004.752L777.435 212H799z" stroke="#0BD291"/><g stroke="#0BD291"><path d="M730 508v63h69v-50.475l-40.004-.752L751.565 508H730zm69-5v-63h-69v50.475l40.004.752L777.435 503H799zm-69-143v63h69v-50.475l-40.004-.752L751.565 360H730zm69-5v-63h-69v50.475l40.004.752L777.435 355H799z"/><path d="M799 503v-63h-69v50.475l40.004.752L777.435 503H799z"/></g></g></svg>