<?xml version="1.0" encoding="UTF-8"?>
<svg width="135px" height="16px" viewBox="0 0 135 16" version="1.1" xmlns="http://www.w3.org/2000/svg" xmlns:xlink="http://www.w3.org/1999/xlink">
    <!-- Generator: Sketch 52.4 (67378) - http://www.bohemiancoding.com/sketch -->
    <title>Shape</title>
    <desc>Created with Sketch.</desc>
    <g id="Page-1" stroke="none" stroke-width="1" fill="none" fill-rule="evenodd">
        <g id="2" transform="translate(-60.000000, -36.000000)" fill="#FFFFFF">
            <g id="solana-logo-horizontal" transform="translate(60.000000, 36.000000)">
                <path d="M48.1757656,0 L51.1272503,0 L51.1272503,13.3492135 L62.7363515,13.3492135 L60.3214514,16 L48.1757656,16 L48.1757656,0 Z M11.50502,9.54840449 L5.05575899,9.54840449 L5.05575899,9.54660674 C5.01369507,9.54786517 4.97163116,9.54840449 4.92938748,9.54840449 C2.34659121,9.54840449 0.252743009,7.4108764 0.252743009,4.77411236 C0.252743009,2.13752809 2.34659121,0 4.92938748,0 C4.97163116,0 5.01387483,0.000539325843 5.05575899,0.00179775281 L5.05575899,0 L16.1784288,0 L12.8922304,3.09680899 L4.92633156,3.09680899 C4.02051931,3.09680899 3.2861984,3.84773034 3.2861984,4.77411236 C3.2861984,5.70067416 4.02051931,6.45159551 4.92633156,6.45159551 L11.8810786,6.45159551 L11.8810786,6.46705618 C14.2864514,6.66426966 16.1784288,8.71946067 16.1784288,11.2257079 C16.1784288,13.8624719 14.0845806,16 11.5017843,16 C11.3741545,16 11.247783,15.9947865 11.1226698,15.9845393 L11.1226698,16 L0,16 L3.53912117,12.903191 L11.50502,12.903191 C12.4106525,12.903191 13.1449734,12.1522697 13.1449734,11.2258876 C13.1449734,10.2993258 12.4106525,9.54840449 11.50502,9.54840449 Z M27.0483555,0.00269662921 L27.0483555,0 L37.6653595,0 L37.6653595,0.00269662921 C39.1703129,0.068494382 40.3790213,1.30247191 40.4433755,2.83865169 L40.4460719,2.83865169 L40.4460719,12.903191 L40.4433755,12.903191 C40.4451731,12.9459775 40.4460719,12.9889438 40.4460719,13.0322697 C40.4460719,14.6281348 39.2123768,15.9297079 37.6653595,15.9973034 L37.6653595,16 L27.0485353,16 L27.0485353,15.9973034 C25.501518,15.9297079 24.2678229,14.6281348 24.2678229,13.0322697 C24.2678229,12.9891236 24.2687217,12.9459775 24.2705193,12.903191 L24.2676431,12.903191 L24.2676431,2.83865169 L24.2703395,2.83865169 C24.3346937,1.30229213 25.5434021,0.0683146067 27.0483555,0.00269662921 Z M29.0390213,2.84044944 C28.0983356,2.88179775 27.3429827,3.65788764 27.3027164,4.62435955 L27.3010985,4.62435955 L27.3010985,10.9553258 L27.3028961,10.9553258 C27.3016378,10.9822921 27.3010985,11.0092584 27.3010985,11.0364045 C27.3010985,12.0402697 28.0722703,12.8589663 29.0390213,12.901573 L29.0390213,12.9033708 L35.6746937,12.9033708 L35.6746937,12.901573 C36.6414447,12.8589663 37.4126165,12.0402697 37.4126165,11.0364045 C37.4126165,11.0092584 37.4120772,10.9821124 37.4108189,10.9553258 L37.4126165,10.9553258 L37.4126165,4.62435955 L37.4108189,4.62435955 C37.3707324,3.65788764 36.6153795,2.88179775 35.6746937,2.84044944 L35.6746937,2.83865169 L29.0390213,2.83865169 L29.0390213,2.84044944 Z M73.679261,4.38705618 L73.679261,7.48404494 L83.790779,7.48404494 L83.790779,4.38705618 C83.790779,3.38930337 82.9985752,2.58067416 82.0212184,2.58067416 L75.4490013,2.58067416 C74.4716445,2.58067416 73.6794407,3.38948315 73.6794407,4.38705618 L73.679261,4.38705618 Z M83.790779,16 L83.790779,9.80638202 L73.679261,9.80638202 L73.679261,16 L70.6458056,16 L70.6458056,3.09680899 L70.648502,3.09680899 C70.6467019,3.05380633 70.6458029,3.01077067 70.6458056,2.96773034 C70.6458056,1.3287191 71.9472703,0 73.5528895,0 C73.5951332,0 73.6373768,0.000898876404 73.679261,0.00269662921 L73.679261,0 L84.043522,0 L84.043522,0.00269662921 C85.5905393,0.0702921348 86.8242344,1.37186517 86.8242344,2.96773034 C86.8242344,3.0108764 86.8233356,3.05402247 86.8215379,3.09680899 L86.8242344,3.09680899 L86.8242344,16 L83.790779,16 Z M121.855027,4.38705618 L121.855027,7.48404494 L131.966545,7.48404494 L131.966545,4.38705618 C131.966545,3.38930337 131.174341,2.58067416 130.196984,2.58067416 L123.624767,2.58067416 C122.64741,2.58067416 121.855206,3.38948315 121.855206,4.38705618 L121.855027,4.38705618 Z M131.966545,16 L131.966545,9.80638202 L121.855027,9.80638202 L121.855027,16 L118.821571,16 L118.821571,3.09680899 L118.824268,3.09680899 C118.822468,3.05380633 118.821569,3.01077067 118.821571,2.96773034 C118.821571,1.3287191 120.123036,0 121.728655,0 C121.770899,0 121.813142,0.000898876404 121.855027,0.00269662921 L121.855027,0 L132.219288,0 L132.219288,0.00269662921 C133.766305,0.0702921348 135,1.37186517 135,2.96773034 C135,3.0108764 134.999101,3.05402247 134.997304,3.09680899 L135,3.09680899 L135,16 L131.966545,16 Z M108.058422,12.1271011 L108.058422,0 L111.091877,0 L111.091877,16 L108.058422,16 L108.058422,15.9732135 L97.9469041,4.12907865 L97.9469041,16 L94.9134487,16 L94.9134487,0 L97.9469041,0 L108.058422,12.1271011 Z" id="Shape"></path>
            </g>
        </g>
    </g>
</svg>